<?xml version="1.0" encoding="UTF-8" standalone="no"?>
<!-- Created with Inkscape (http://www.inkscape.org/) -->

<svg
   version="1.1"
   id="svg471"
   xml:space="preserve"
   width="682.66669"
   height="682.66669"
   viewBox="0 0 682.66669 682.66669"
   xmlns="http://www.w3.org/2000/svg"
   xmlns:svg="http://www.w3.org/2000/svg"><defs
     id="defs475"><clipPath
       clipPathUnits="userSpaceOnUse"
       id="clipPath485"><path
         d="M 0,512 H 512 V 0 H 0 Z"
         id="path483" /></clipPath></defs><g
     id="g477"
     transform="matrix(1.3333333,0,0,-1.3333333,0,682.66667)"><g
       id="g479"><g
         id="g481"
         clip-path="url(#clipPath485)"><g
           id="g487"
           transform="translate(369.4117,426.1699)"><path
             d="m 0,0 h 10.962 c 5.522,0 10,-4.477 10,-10 v -19.266"
             style="fill:none;stroke:#000000;stroke-width:15;stroke-linecap:round;stroke-linejoin:round;stroke-miterlimit:10;stroke-dasharray:none;stroke-opacity:1"
             id="path489" /></g><g
           id="g491"
           transform="translate(87.9358,426.1699)"><path
             d="m 0,0 h -12.313 c -5.523,0 -10,-4.477 -10,-10 v -39.463 c 0,-5.523 4.477,-10 10,-10 H 0"
             style="fill:none;stroke:#000000;stroke-width:15;stroke-linecap:round;stroke-linejoin:round;stroke-miterlimit:10;stroke-dasharray:none;stroke-opacity:1"
             id="path493" /></g><g
           id="g495"
           transform="translate(87.9358,344.2596)"><path
             d="m 0,0 h -12.313 c -5.523,0 -10,-4.477 -10,-10 v -39.463 c 0,-5.523 4.477,-10 10,-10 H 0"
             style="fill:none;stroke:#000000;stroke-width:15;stroke-linecap:round;stroke-linejoin:round;stroke-miterlimit:10;stroke-dasharray:none;stroke-opacity:1"
             id="path497" /></g><g
           id="g499"
           transform="translate(342.2178,396.904)"><path
             d="m 0,0 v 77.596 c 0,2.761 -2.239,5 -5,5 h -55.088 c -2.053,0 -3.897,-1.255 -4.651,-3.164 l -5.723,-14.498 c -1.507,-3.818 -5.196,-6.328 -9.301,-6.328 h -68.914 c -4.105,0 -7.794,2.51 -9.301,6.328 l -5.723,14.498 c -0.754,1.909 -2.598,3.164 -4.651,3.164 h -55.078 c -2.761,0 -5,-2.239 -5,-5 v -437 c 0,-2.761 2.239,-5 5,-5 h 24.405"
             style="fill:none;stroke:#000000;stroke-width:15;stroke-linecap:round;stroke-linejoin:round;stroke-miterlimit:10;stroke-dasharray:none;stroke-opacity:1"
             id="path501" /></g><g
           id="g503"
           transform="translate(176.6787,32.5)"><path
             d="m 0,0 h 160.539 c 2.761,0 5,2.239 5,5 v 224.344"
             style="fill:none;stroke:#000000;stroke-width:15;stroke-linecap:round;stroke-linejoin:round;stroke-miterlimit:10;stroke-dasharray:none;stroke-opacity:1"
             id="path505" /></g><g
           id="g507"
           transform="translate(367.2187,395.9376)"><path
             d="m 0,0 v 78.562 c 0,16.569 -13.432,30 -30,30 h -218.436 c -16.568,0 -30,-13.431 -30,-30 v -437 c 0,-16.568 13.432,-30 30,-30 H -30 c 16.568,0 30,13.432 30,30 v 118.206"
             style="fill:none;stroke:#000000;stroke-width:15;stroke-linecap:round;stroke-linejoin:round;stroke-miterlimit:10;stroke-dasharray:none;stroke-opacity:1"
             id="path509" /></g><g
           id="g511"
           transform="translate(367.2187,189.1912)"><path
             d="M 0,0 V 72.653"
             style="fill:none;stroke:#000000;stroke-width:15;stroke-linecap:round;stroke-linejoin:round;stroke-miterlimit:10;stroke-dasharray:none;stroke-opacity:1"
             id="path513" /></g><g
           id="g515"
           transform="translate(205.7696,479.5)"><path
             d="M 0,0 H 20.054"
             style="fill:none;stroke:#000000;stroke-width:15;stroke-linecap:round;stroke-linejoin:round;stroke-miterlimit:10;stroke-dasharray:none;stroke-opacity:1"
             id="path517" /></g><g
           id="g519"
           transform="translate(250.2259,479.4483)"><path
             d="M 0,0 V 0.103"
             style="fill:none;stroke:#000000;stroke-width:15;stroke-linecap:round;stroke-linejoin:round;stroke-miterlimit:10;stroke-dasharray:none;stroke-opacity:1"
             id="path521" /></g><g
           id="g523"
           transform="translate(189.4341,64.9872)"><path
             d="M 0,0 H 77.127"
             style="fill:none;stroke:#000000;stroke-width:15;stroke-linecap:round;stroke-linejoin:round;stroke-miterlimit:10;stroke-dasharray:none;stroke-opacity:1"
             id="path525" /></g><g
           id="g527"
           transform="translate(278.736,394.4385)"><path
             d="m 0,0 h -27.648 c -5.523,0 -10,-4.477 -10,-10 v -111.507 c 0,-5.523 4.477,-10 10,-10 H 157.64 c 5.523,0 10,4.477 10,10 V -10 c 0,5.523 -4.477,10 -10,10 H 33.486"
             style="fill:none;stroke:#000000;stroke-width:15;stroke-linecap:round;stroke-linejoin:round;stroke-miterlimit:10;stroke-dasharray:none;stroke-opacity:1"
             id="path529" /></g><g
           id="g531"
           transform="translate(306.9315,353.5488)"><path
             d="M 0,0 -26.128,-24.864 0,-49.728"
             style="fill:none;stroke:#000000;stroke-width:15;stroke-linecap:round;stroke-linejoin:round;stroke-miterlimit:10;stroke-dasharray:none;stroke-opacity:1"
             id="path533" /></g><g
           id="g535"
           transform="translate(380.5317,353.5488)"><path
             d="M 0,0 26.128,-24.864 0,-49.728"
             style="fill:none;stroke:#000000;stroke-width:15;stroke-linecap:round;stroke-linejoin:round;stroke-miterlimit:10;stroke-dasharray:none;stroke-opacity:1"
             id="path537" /></g><g
           id="g539"
           transform="translate(333.7969,303.8209)"><path
             d="M 0,0 19.869,49.728"
             style="fill:none;stroke:#000000;stroke-width:15;stroke-linecap:round;stroke-linejoin:round;stroke-miterlimit:10;stroke-dasharray:none;stroke-opacity:1"
             id="path541" /></g><g
           id="g543"
           transform="translate(151.6784,227.5352)"><path
             d="M 0,0 V 0.103"
             style="fill:none;stroke:#000000;stroke-width:15;stroke-linecap:round;stroke-linejoin:round;stroke-miterlimit:10;stroke-dasharray:none;stroke-opacity:1"
             id="path545" /></g><g
           id="g547"
           transform="translate(179.4099,227.5352)"><path
             d="M 0,0 H 35.02"
             style="fill:none;stroke:#000000;stroke-width:15;stroke-linecap:round;stroke-linejoin:round;stroke-miterlimit:10;stroke-dasharray:none;stroke-opacity:1"
             id="path549" /></g><g
           id="g551"
           transform="translate(151.6784,195.6427)"><path
             d="M 0,0 V 0.103"
             style="fill:none;stroke:#000000;stroke-width:15;stroke-linecap:round;stroke-linejoin:round;stroke-miterlimit:10;stroke-dasharray:none;stroke-opacity:1"
             id="path553" /></g><g
           id="g555"
           transform="translate(179.4099,195.6427)"><path
             d="M 0,0 H 102.435"
             style="fill:none;stroke:#000000;stroke-width:15;stroke-linecap:round;stroke-linejoin:round;stroke-miterlimit:10;stroke-dasharray:none;stroke-opacity:1"
             id="path557" /></g><g
           id="g559"
           transform="translate(151.6784,163.7501)"><path
             d="M 0,0 V 0.103"
             style="fill:none;stroke:#000000;stroke-width:15;stroke-linecap:round;stroke-linejoin:round;stroke-miterlimit:10;stroke-dasharray:none;stroke-opacity:1"
             id="path561" /></g><g
           id="g563"
           transform="translate(179.4099,163.7501)"><path
             d="M 0,0 H 124.907"
             style="fill:none;stroke:#000000;stroke-width:15;stroke-linecap:round;stroke-linejoin:round;stroke-miterlimit:10;stroke-dasharray:none;stroke-opacity:1"
             id="path565" /></g><g
           id="g567"
           transform="translate(151.6784,131.8576)"><path
             d="M 0,0 V 0.103"
             style="fill:none;stroke:#000000;stroke-width:15;stroke-linecap:round;stroke-linejoin:round;stroke-miterlimit:10;stroke-dasharray:none;stroke-opacity:1"
             id="path569" /></g><g
           id="g571"
           transform="translate(179.4099,131.8576)"><path
             d="M 0,0 H 124.907"
             style="fill:none;stroke:#000000;stroke-width:15;stroke-linecap:round;stroke-linejoin:round;stroke-miterlimit:10;stroke-dasharray:none;stroke-opacity:1"
             id="path573" /></g><g
           id="g575"
           transform="translate(152.0474,279.4278)"><path
             d="M 0,0 H 58.899"
             style="fill:none;stroke:#000000;stroke-width:15;stroke-linecap:round;stroke-linejoin:round;stroke-miterlimit:10;stroke-dasharray:none;stroke-opacity:1"
             id="path577" /></g><g
           id="g579"
           transform="translate(152.0474,311.3203)"><path
             d="M 0,0 H 58.899"
             style="fill:none;stroke:#000000;stroke-width:15;stroke-linecap:round;stroke-linejoin:round;stroke-miterlimit:10;stroke-dasharray:none;stroke-opacity:1"
             id="path581" /></g><g
           id="g583"
           transform="translate(152.0474,343.2129)"><path
             d="M 0,0 H 58.899"
             style="fill:none;stroke:#000000;stroke-width:15;stroke-linecap:round;stroke-linejoin:round;stroke-miterlimit:10;stroke-dasharray:none;stroke-opacity:1"
             id="path585" /></g><g
           id="g587"
           transform="translate(152.0474,375.1054)"><path
             d="M 0,0 H 58.899"
             style="fill:none;stroke:#000000;stroke-width:15;stroke-linecap:round;stroke-linejoin:round;stroke-miterlimit:10;stroke-dasharray:none;stroke-opacity:1"
             id="path589" /></g></g></g></g></svg>
