<svg id="Layer_1" enable-background="new 0 0 512 512" viewBox="0 0 512 512" xmlns="http://www.w3.org/2000/svg"><path d="m477.987.995h-421.077c-17.945 0-32.545 14.6-32.545 32.545v295.473c0 17.946 14.6 32.545 32.545 32.545h22.488c2.895 11.115 7.66 21.483 13.939 30.746l-7.708 7.708-.306-.306c-3.124-3.123-8.188-3.125-11.314 0l-64.53 64.53c-10.684 10.685-10.684 28.071.001 38.756 5.342 5.342 12.36 8.013 19.378 8.013s14.035-2.671 19.378-8.014l64.53-64.53c1.5-1.5 2.343-3.535 2.343-5.657s-.843-4.157-2.343-5.657l-.307-.307 7.708-7.708c15.965 10.822 35.212 17.151 55.91 17.151 20.955 0 40.42-6.491 56.501-17.562h150.137c4.222 0 8.16-2.29 10.279-5.976 2.113-3.677 2.087-8.083-.071-11.788l-22.961-39.401h108.024c17.946 0 32.546-14.6 32.546-32.545v-295.471c.001-17.945-14.598-32.545-32.545-32.545zm-421.077 16h421.077c9.123 0 16.546 7.422 16.546 16.545v270.92h-22.654v-141.958c0-4.418-3.582-8-8-8h-33.664c-4.418 0-8 3.582-8 8v141.958h-9.124v-87.68c0-4.418-3.582-8-8-8h-33.665c-4.418 0-8 3.582-8 8v87.68h-9.123v-115.627c0-4.418-3.582-8-8-8h-33.665c-4.418 0-8 3.582-8 8v115.627h-9.124v-50.641c0-4.418-3.582-8-8-8h-33.664c-4.418 0-8 3.582-8 8v11.164c-18.019-17.609-42.648-28.481-69.772-28.481-12.051 0-23.611 2.145-34.317 6.074h-63.412c-4.418 0-8 3.582-8 8s3.582 8 8 8h35.174c-5.66 4.559-10.813 9.72-15.364 15.388h-19.81c-4.418 0-8 3.582-8 8s3.582 8 8 8h9.306c-2.442 4.631-4.536 9.473-6.235 14.497h-41.055v-270.921c0-9.123 7.422-16.545 16.545-16.545zm398.969 287.465h-17.664v-133.958h17.664zm-58.788 0h-17.665v-79.68h17.665zm-58.788 0h-17.665v-107.627h17.665zm-76.453-19.213v-23.428h17.664v42.641h-8.778c-2.286-6.756-5.28-13.188-8.886-19.213zm-204.94 60.312c-9.123 0-16.545-7.422-16.545-16.545v-8.553h37.097c-.836 5.19-1.276 10.511-1.276 15.933 0 3.09.148 6.146.425 9.166h-19.701zm-19.988 146.119c-4.447 4.447-11.683 4.446-16.128 0-4.446-4.447-4.446-11.682 0-16.129l41.2-41.2 16.129 16.129zm52.515-52.513-16.129-16.129 6.359-6.359 16.129 16.129zm11.709-23.637-4.201-4.201 6.467-6.467c1.359 1.442 2.76 2.842 4.201 4.201zm-8.96-79.135c0-46.258 37.634-83.891 83.892-83.891 46.259 0 83.893 37.633 83.893 83.891s-37.634 83.892-83.892 83.892c-46.26 0-83.893-37.634-83.893-83.892zm283.247 66.33h-124.734c10.343-11.623 18.021-25.665 22.058-41.165h78.688zm102.554-57.164h-202.442c.276-3.02.425-6.075.425-9.166 0-5.422-.44-10.743-1.276-15.933h219.84v8.553c-.001 9.123-7.424 16.546-16.547 16.546zm-90.518-179.337 41.788-38.582-4.843-.228c-4.414-.208-7.823-3.954-7.615-8.368s3.962-7.817 8.367-7.615l24.783 1.167c2.303.109 4.448 1.206 5.884 3.011s2.022 4.142 1.61 6.411l-4.435 24.41c-.702 3.863-4.069 6.571-7.862 6.571-.475 0-.955-.042-1.438-.13-4.348-.79-7.231-4.954-6.441-9.301l.337-1.857-43.918 40.549c-2.719 2.51-6.807 2.828-9.88.768l-52.563-35.224-54.22 70.494c-1.575 2.048-3.948 3.123-6.347 3.123-1.702 0-3.418-.541-4.871-1.659-3.503-2.694-4.158-7.716-1.464-11.219l58.788-76.435c2.568-3.341 7.293-4.115 10.794-1.768zm-177.53 52.966c0 4.418-3.582 8-8 8h-123.59c-4.418 0-8-3.582-8-8s3.582-8 8-8h123.591c4.417 0 7.999 3.581 7.999 8zm-69.795-19.55c46.285 0 83.94-37.656 83.94-83.94s-37.655-83.94-83.94-83.94c-46.284 0-83.939 37.655-83.939 83.94s37.654 83.94 83.939 83.94zm0-16c-12.422 0-24.065-3.367-34.094-9.212l17.042-22.695c5.174 2.458 10.955 3.839 17.054 3.839 13.507 0 25.459-6.758 32.675-17.063l26.074 11.248c-11.78 20.239-33.695 33.883-58.751 33.883zm.001-91.812c13.163 0 23.872 10.709 23.872 23.872 0 13.164-10.709 23.873-23.872 23.873-13.164 0-23.873-10.709-23.873-23.873-.001-13.163 10.708-23.872 23.873-23.872zm67.939 23.872c0 6.732-.999 13.232-2.831 19.376l-26.072-11.247c.546-2.625.835-5.343.835-8.128 0-19.246-13.708-35.351-31.872-39.065v-28.389c33.704 3.974 59.94 32.699 59.94 67.453zm-75.939-67.453v28.388c-18.166 3.714-31.873 19.819-31.873 39.065 0 10.123 3.798 19.371 10.036 26.41l-17.042 22.696c-12.962-12.38-21.062-29.809-21.062-49.106 0-34.755 26.237-63.48 59.941-67.453zm113.704-.349c0-4.418 3.582-8 8-8h114.855c4.418 0 8 3.582 8 8s-3.582 8-8 8h-114.855c-4.418 0-8-3.582-8-8zm0 31.388c0-4.418 3.582-8 8-8h114.855c4.418 0 8 3.582 8 8s-3.582 8-8 8h-114.855c-4.418 0-8-3.582-8-8zm0 31.387c0-4.418 3.582-8 8-8h114.855c4.418 0 8 3.582 8 8s-3.582 8-8 8h-114.855c-4.418 0-8-3.581-8-8zm-69.772 149.369c-42.102 0-76.354 34.252-76.354 76.354s34.252 76.354 76.354 76.354c42.101 0 76.354-34.252 76.354-76.354s-34.253-76.354-76.354-76.354zm0 136.707c-33.279 0-60.354-27.075-60.354-60.354s27.074-60.353 60.354-60.354c33.278 0 60.354 27.075 60.354 60.354s-27.076 60.354-60.354 60.354z"/></svg>