<?xml version="1.0" encoding="UTF-8" standalone="no"?>
<!-- Created with Inkscape (http://www.inkscape.org/) -->

<svg
   version="1.1"
   id="svg3096"
   xml:space="preserve"
   width="682.66669"
   height="682.66669"
   viewBox="0 0 682.66669 682.66669"
   xmlns="http://www.w3.org/2000/svg"
   xmlns:svg="http://www.w3.org/2000/svg"><defs
     id="defs3100"><clipPath
       clipPathUnits="userSpaceOnUse"
       id="clipPath3118"><path
         d="M 0,512 H 512 V 0 H 0 Z"
         id="path3116" /></clipPath></defs><g
     id="g3102"
     transform="matrix(1.3333333,0,0,-1.3333333,0,682.66667)"><g
       id="g3104"
       transform="translate(346.915,49.9268)"><path
         d="M 0,0 -27.544,70.712"
         style="fill:none;stroke:#000000;stroke-width:15;stroke-linecap:round;stroke-linejoin:round;stroke-miterlimit:10;stroke-dasharray:none;stroke-opacity:1"
         id="path3106" /></g><g
       id="g3108"
       transform="translate(192.6289,120.6387)"><path
         d="M 0,0 -27.544,-70.712"
         style="fill:none;stroke:#000000;stroke-width:15;stroke-linecap:round;stroke-linejoin:round;stroke-miterlimit:10;stroke-dasharray:none;stroke-opacity:1"
         id="path3110" /></g><g
       id="g3112"><g
         id="g3114"
         clip-path="url(#clipPath3118)"><g
           id="g3120"
           transform="translate(60.0283,183.2686)"><path
             d="m 0,0 9.738,37.628 c 7.308,2.146 14.289,5.054 20.849,8.639 L 65.512,27.973 91.227,53.688 72.933,88.612 c 3.585,6.56 6.492,13.541 8.638,20.849 l 37.628,11.759 v 36.365 l -37.628,11.759 c -2.146,7.307 -5.053,14.289 -8.638,20.848 l 18.294,34.925 -25.715,25.715 -34.925,-18.294 c -6.56,3.584 -13.541,6.492 -20.849,8.639 L 0,278.805"
             style="fill:none;stroke:#000000;stroke-width:15;stroke-linecap:round;stroke-linejoin:round;stroke-miterlimit:10;stroke-dasharray:none;stroke-opacity:1"
             id="path3122" /></g><g
           id="g3124"
           transform="translate(39.8252,392.3721)"><path
             d="m 0,0 c 38.434,0 69.701,-31.268 69.701,-69.701 0,-38.434 -31.267,-69.701 -69.701,-69.701"
             style="fill:none;stroke:#000000;stroke-width:15;stroke-linecap:round;stroke-linejoin:round;stroke-miterlimit:10;stroke-dasharray:none;stroke-opacity:1"
             id="path3126" /></g><g
           id="g3128"
           transform="translate(39.8252,285.7705)"><path
             d="M 0,0 C 20.38,0 36.9,16.521 36.9,36.9 36.9,57.28 20.38,73.801 0,73.801"
             style="fill:none;stroke:#000000;stroke-width:15;stroke-linecap:round;stroke-linejoin:round;stroke-miterlimit:10;stroke-dasharray:none;stroke-opacity:1"
             id="path3130" /></g><g
           id="g3132"
           transform="translate(448.0703,120.6396)"><path
             d="M 0,0 H 36.229 C 47.38,0 56.43,9.04 56.43,20.2 v 333.361 c 0,11.149 -9.05,20.2 -20.201,20.2 H -420.37 c -11.151,0 -20.2,-9.051 -20.2,-20.2 V 20.2 c 0,-11.16 9.049,-20.2 20.2,-20.2 L -35,0"
             style="fill:none;stroke:#000000;stroke-width:15;stroke-linecap:round;stroke-linejoin:round;stroke-miterlimit:10;stroke-dasharray:none;stroke-opacity:1"
             id="path3134" /></g><g
           id="g3136"
           transform="translate(181.6504,462.0703)"><path
             d="m 0,0 h 282.439 c 4.46,0 8.081,-3.62 8.081,-8.08 v -262.641 c 0,-4.46 -3.621,-8.08 -8.081,-8.08 H -133.74 c -4.46,0 -8.08,3.62 -8.08,8.08 V -8.08 c 0,4.46 3.62,8.08 8.08,8.08 L -35,0"
             style="fill:none;stroke:#000000;stroke-width:15;stroke-linecap:round;stroke-linejoin:round;stroke-miterlimit:10;stroke-dasharray:none;stroke-opacity:1"
             id="path3138" /></g><g
           id="g3140"
           transform="translate(230.7197,49.9297)"><path
             d="M 0,0 H 146.5 V -32.33 H -95.939 V 0 H -35"
             style="fill:none;stroke:#000000;stroke-width:15;stroke-linecap:round;stroke-linejoin:round;stroke-miterlimit:10;stroke-dasharray:none;stroke-opacity:1"
             id="path3142" /></g><g
           id="g3144"
           transform="translate(179.2275,322.6709)"><path
             d="M 0,0 H 44.447"
             style="fill:none;stroke:#000000;stroke-width:15;stroke-linecap:round;stroke-linejoin:round;stroke-miterlimit:10;stroke-dasharray:none;stroke-opacity:1"
             id="path3146" /></g><g
           id="g3148"
           transform="translate(256,322.6709)"><path
             d="m 0,0 c 0,-8.927 -7.236,-16.163 -16.163,-16.163 -8.926,0 -16.162,7.236 -16.162,16.163 0,8.926 7.236,16.162 16.162,16.162 C -7.236,16.162 0,8.926 0,0 Z"
             style="fill:none;stroke:#000000;stroke-width:15;stroke-linecap:round;stroke-linejoin:round;stroke-miterlimit:10;stroke-dasharray:none;stroke-opacity:1"
             id="path3150" /></g><g
           id="g3152"
           transform="translate(138.8213,384.334)"><path
             d="M 0,0 H 44.447"
             style="fill:none;stroke:#000000;stroke-width:15;stroke-linecap:round;stroke-linejoin:round;stroke-miterlimit:10;stroke-dasharray:none;stroke-opacity:1"
             id="path3154" /></g><g
           id="g3156"
           transform="translate(215.5937,384.334)"><path
             d="m 0,0 c 0,-8.927 -7.236,-16.163 -16.163,-16.163 -8.926,0 -16.162,7.236 -16.162,16.163 0,8.926 7.236,16.162 16.162,16.162 C -7.236,16.162 0,8.926 0,0 Z"
             style="fill:none;stroke:#000000;stroke-width:15;stroke-linecap:round;stroke-linejoin:round;stroke-miterlimit:10;stroke-dasharray:none;stroke-opacity:1"
             id="path3158" /></g><g
           id="g3160"
           transform="translate(138.8213,261.0078)"><path
             d="M 0,0 H 44.447"
             style="fill:none;stroke:#000000;stroke-width:15;stroke-linecap:round;stroke-linejoin:round;stroke-miterlimit:10;stroke-dasharray:none;stroke-opacity:1"
             id="path3162" /></g><g
           id="g3164"
           transform="translate(215.5937,261.0078)"><path
             d="m 0,0 c 0,8.926 -7.236,16.162 -16.163,16.162 -8.926,0 -16.162,-7.236 -16.162,-16.162 0,-8.927 7.236,-16.163 16.162,-16.163 C -7.236,-16.163 0,-8.927 0,0 Z"
             style="fill:none;stroke:#000000;stroke-width:15;stroke-linecap:round;stroke-linejoin:round;stroke-miterlimit:10;stroke-dasharray:none;stroke-opacity:1"
             id="path3166" /></g><g
           id="g3168"
           transform="translate(343.8838,429.748)"><path
             d="M 0,0 H -55.559"
             style="fill:none;stroke:#000000;stroke-width:15;stroke-linecap:round;stroke-linejoin:round;stroke-miterlimit:10;stroke-dasharray:none;stroke-opacity:1"
             id="path3170" /></g><g
           id="g3172"
           transform="translate(320.6504,397.4229)"><path
             d="M 0,0 H -32.325"
             style="fill:none;stroke:#000000;stroke-width:15;stroke-linecap:round;stroke-linejoin:round;stroke-miterlimit:10;stroke-dasharray:none;stroke-opacity:1"
             id="path3174" /></g><g
           id="g3176"
           transform="translate(439.8496,397.4229)"><path
             d="M 0,0 H -86.874"
             style="fill:none;stroke:#000000;stroke-width:15;stroke-linecap:round;stroke-linejoin:round;stroke-miterlimit:10;stroke-dasharray:none;stroke-opacity:1"
             id="path3178" /></g><g
           id="g3180"
           transform="translate(387.3213,365.0977)"><path
             d="M 0,0 H 15.152"
             style="fill:none;stroke:#000000;stroke-width:15;stroke-linecap:round;stroke-linejoin:round;stroke-miterlimit:10;stroke-dasharray:none;stroke-opacity:1"
             id="path3182" /></g><g
           id="g3184"
           transform="translate(288.3252,365.0977)"><path
             d="M 0,0 H 66.671"
             style="fill:none;stroke:#000000;stroke-width:15;stroke-linecap:round;stroke-linejoin:round;stroke-miterlimit:10;stroke-dasharray:none;stroke-opacity:1"
             id="path3186" /></g><g
           id="g3188"
           transform="translate(343.8838,332.7725)"><path
             d="M 0,0 H -55.559"
             style="fill:none;stroke:#000000;stroke-width:15;stroke-linecap:round;stroke-linejoin:round;stroke-miterlimit:10;stroke-dasharray:none;stroke-opacity:1"
             id="path3190" /></g><g
           id="g3192"
           transform="translate(320.6504,300.4473)"><path
             d="M 0,0 H -32.325"
             style="fill:none;stroke:#000000;stroke-width:15;stroke-linecap:round;stroke-linejoin:round;stroke-miterlimit:10;stroke-dasharray:none;stroke-opacity:1"
             id="path3194" /></g><g
           id="g3196"
           transform="translate(439.8496,300.4473)"><path
             d="M 0,0 H -86.874"
             style="fill:none;stroke:#000000;stroke-width:15;stroke-linecap:round;stroke-linejoin:round;stroke-miterlimit:10;stroke-dasharray:none;stroke-opacity:1"
             id="path3198" /></g><g
           id="g3200"
           transform="translate(387.3213,268.1221)"><path
             d="M 0,0 H 15.152"
             style="fill:none;stroke:#000000;stroke-width:15;stroke-linecap:round;stroke-linejoin:round;stroke-miterlimit:10;stroke-dasharray:none;stroke-opacity:1"
             id="path3202" /></g><g
           id="g3204"
           transform="translate(288.3252,268.1221)"><path
             d="M 0,0 H 66.671"
             style="fill:none;stroke:#000000;stroke-width:15;stroke-linecap:round;stroke-linejoin:round;stroke-miterlimit:10;stroke-dasharray:none;stroke-opacity:1"
             id="path3206" /></g></g></g></g></svg>
