<svg version="1.1" id="Capa_1" xmlns="http://www.w3.org/2000/svg" xmlns:xlink="http://www.w3.org/1999/xlink" x="0px" y="0px" viewBox="0 0 512 512" style="enable-background:new 0 0 512 512;" xml:space="preserve">
<g>
	<path style="fill:none;stroke:#000000;stroke-width:15;stroke-linecap:round;stroke-linejoin:round;stroke-miterlimit:10;" d="&#10;&#9;&#9;M504.5,103.855H7.5V66.996c0-22.091,17.909-40,40-40h417c22.091,0,40,17.909,40,40V103.855z"/>
	
		<polyline style="fill:none;stroke:#000000;stroke-width:15;stroke-linecap:round;stroke-linejoin:round;stroke-miterlimit:10;" points="&#10;&#9;&#9;504.5,307.527 504.5,103.855 7.5,103.855 7.5,186.207 &#9;"/>
	<path style="fill:none;stroke:#000000;stroke-width:15;stroke-linecap:round;stroke-linejoin:round;stroke-miterlimit:10;" d="&#10;&#9;&#9;M7.5,221.21v223.795c0,22.091,17.909,40,40,40h417c22.091,0,40-17.909,40-40V343.529"/>
	
		<line style="fill:none;stroke:#000000;stroke-width:15;stroke-linecap:round;stroke-linejoin:round;stroke-miterlimit:10;" x1="368.632" y1="65.426" x2="368.632" y2="65.426"/>
	
		<line style="fill:none;stroke:#000000;stroke-width:15;stroke-linecap:round;stroke-linejoin:round;stroke-miterlimit:10;" x1="409.306" y1="65.426" x2="409.306" y2="65.426"/>
	
		<line style="fill:none;stroke:#000000;stroke-width:15;stroke-linecap:round;stroke-linejoin:round;stroke-miterlimit:10;" x1="449.98" y1="65.426" x2="449.98" y2="65.426"/>
	<path style="fill:none;stroke:#000000;stroke-width:15;stroke-linecap:round;stroke-linejoin:round;stroke-miterlimit:10;" d="&#10;&#9;&#9;M232.275,409.427h-46.211v-54.814c0-5.292,4.29-9.582,9.582-9.582h27.047c5.292,0,9.582,4.29,9.582,9.582V409.427z"/>
	<path style="fill:none;stroke:#000000;stroke-width:15;stroke-linecap:round;stroke-linejoin:round;stroke-miterlimit:10;" d="&#10;&#9;&#9;M307.97,409.427h-46.211v-88.178c0-5.292,4.29-9.582,9.582-9.582h27.047c5.292,0,9.582,4.29,9.582,9.582V409.427z"/>
	<path style="fill:none;stroke:#000000;stroke-width:15;stroke-linecap:round;stroke-linejoin:round;stroke-miterlimit:10;" d="&#10;&#9;&#9;M383.665,409.427h-46.211V287.351c0-5.292,4.29-9.582,9.582-9.582h27.047c5.292,0,9.582,4.29,9.582,9.582V409.427z"/>
	<path style="fill:none;stroke:#000000;stroke-width:15;stroke-linecap:round;stroke-linejoin:round;stroke-miterlimit:10;" d="&#10;&#9;&#9;M459.36,409.427h-46.211V263.171c0-5.292,4.29-9.582,9.582-9.582h27.047c5.292,0,9.582,4.29,9.582,9.582V409.427z"/>
	
		<line style="fill:none;stroke:#000000;stroke-width:15;stroke-linecap:round;stroke-linejoin:round;stroke-miterlimit:10;" x1="168.704" y1="409.427" x2="476.72" y2="409.427"/>
	
		<line style="fill:none;stroke:#000000;stroke-width:15;stroke-linecap:round;stroke-linejoin:round;stroke-miterlimit:10;" x1="54.21" y1="333.997" x2="133.667" y2="333.997"/>
	
		<line style="fill:none;stroke:#000000;stroke-width:15;stroke-linecap:round;stroke-linejoin:round;stroke-miterlimit:10;" x1="54.21" y1="372.427" x2="133.667" y2="372.427"/>
	
		<line style="fill:none;stroke:#000000;stroke-width:15;stroke-linecap:round;stroke-linejoin:round;stroke-miterlimit:10;" x1="54.21" y1="410.857" x2="133.667" y2="410.857"/>
	<path style="fill:none;stroke:#000000;stroke-width:15;stroke-linecap:round;stroke-linejoin:round;stroke-miterlimit:10;" d="&#10;&#9;&#9;M186.064,311.667l108.33-91.074c5.374-4.518,13.577-0.697,13.577,6.323v9.366c0,6.947,8.054,10.792,13.456,6.423l91.722-74.193"/>
	
		<polyline style="fill:none;stroke:#000000;stroke-width:15;stroke-linecap:round;stroke-linejoin:round;stroke-miterlimit:10;" points="&#10;&#9;&#9;385.122,162.255 416.405,162.255 416.405,193.537 &#9;"/>
	<path style="fill:none;stroke:#000000;stroke-width:15;stroke-linecap:round;stroke-linejoin:round;stroke-miterlimit:10;" d="&#10;&#9;&#9;M145.496,140.824v42.401c0,3.923,3.18,7.102,7.102,7.102H195c4.35,0,7.644-3.871,7.026-8.177&#10;&#9;&#9;c-3.584-24.997-23.355-44.769-48.353-48.353C149.367,133.18,145.496,136.474,145.496,140.824z"/>
	<path style="fill:none;stroke:#000000;stroke-width:15;stroke-linecap:round;stroke-linejoin:round;stroke-miterlimit:10;" d="&#10;&#9;&#9;M103.197,167.966c-28.555,4.066-50.305,29.254-48.925,59.236c1.347,29.258,25.094,53.004,54.352,54.35&#10;&#9;&#9;c29.981,1.379,55.167-20.371,59.233-48.925c0.61-4.285-2.708-8.123-7.036-8.123h-42.399c-3.923,0-7.102-3.18-7.102-7.102v-42.399&#10;&#9;&#9;C111.32,170.673,107.482,167.356,103.197,167.966z"/>
</g>
<g>
</g>
<g>
</g>
<g>
</g>
<g>
</g>
<g>
</g>
<g>
</g>
<g>
</g>
<g>
</g>
<g>
</g>
<g>
</g>
<g>
</g>
<g>
</g>
<g>
</g>
<g>
</g>
<g>
</g>
</svg>