<svg height="512.00003pt" viewBox="0 0 512.00003 512.00003" width="512.00003pt" xmlns="http://www.w3.org/2000/svg"><path d="m469.332031 0h-426.664062c-23.554688.0273438-42.6406252 19.113281-42.667969 42.667969v341.332031c.0273438 23.550781 19.113281 42.636719 42.667969 42.667969h102.398437v34.132812h-51.199218c-9.425782 0-17.066407 7.640625-17.066407 17.066407v17.066406c0 9.425781 7.640625 17.066406 17.066407 17.066406h324.265624c9.425782 0 17.066407-7.640625 17.066407-17.066406v-17.066406c0-9.425782-7.640625-17.066407-17.066407-17.066407h-51.199218v-34.132812h102.398437c23.554688-.03125 42.640625-19.117188 42.667969-42.667969v-341.332031c-.027344-23.554688-19.113281-42.6406252-42.667969-42.667969zm25.601563 42.667969v298.664062h-230.398438v-324.265625h204.796875c14.140625 0 25.601563 11.460938 25.601563 25.601563zm-452.265625-25.601563h204.796875v324.265625h-230.398438v-298.664062c0-14.140625 11.460938-25.601563 25.601563-25.601563zm375.464843 477.867188h-324.265624v-17.066406h324.265624zm-68.265624-34.132813h-187.734376v-34.132812h187.734376zm119.464843-51.199219h-426.664062c-14.140625 0-25.601563-11.464843-25.601563-25.601562v-25.601562h477.867188v25.601562c0 14.136719-11.460938 25.601562-25.601563 25.601562zm0 0"/><path d="m273.066406 375.464844h-34.132812c-4.714844 0-8.535156 3.824218-8.535156 8.535156s3.820312 8.535156 8.535156 8.535156h34.132812c4.714844 0 8.535156-3.824218 8.535156-8.535156s-3.820312-8.535156-8.535156-8.535156zm0 0"/><path d="m42.667969 51.199219c1.113281-.011719 2.214843-.246094 3.242187-.683594.523438-.171875 1.011719-.429687 1.449219-.765625.488281-.296875.945313-.636719 1.367187-1.023438 1.558594-1.636718 2.441407-3.800781 2.472657-6.058593-.011719-1.117188-.246094-2.21875-.683594-3.242188-.773437-2.144531-2.460937-3.832031-4.605469-4.609375-1.558594-.683594-3.289062-.859375-4.949218-.511718-.535157.09375-1.054688.265624-1.535157.511718-.546875.1875-1.066406.445313-1.546875.769532l-1.269531 1.023437c-.773437.816406-1.382813 1.769531-1.792969 2.816406-.4375 1.023438-.667968 2.125-.683594 3.242188.03125 2.257812.914063 4.421875 2.476563 6.058593 1.625 1.574219 3.792969 2.460938 6.058594 2.472657zm0 0"/><path d="m42.667969 85.332031c1.113281-.011719 2.214843-.242187 3.242187-.679687.523438-.171875 1.011719-.433594 1.449219-.769532.488281-.296874.945313-.636718 1.367187-1.023437 1.558594-1.636719 2.441407-3.800781 2.472657-6.058594-.011719-1.117187-.246094-2.21875-.683594-3.242187-.773437-2.144532-2.460937-3.832032-4.605469-4.609375-1.558594-.683594-3.289062-.859375-4.949218-.511719-.535157.09375-1.054688.265625-1.535157.511719-.546875.1875-1.066406.445312-1.546875.769531l-1.269531 1.023438c-.773437.816406-1.382813 1.769531-1.792969 2.816406-.4375 1.023437-.667968 2.125-.683594 3.242187.03125 2.257813.914063 4.425781 2.476563 6.058594 1.625 1.574219 3.792969 2.460937 6.058594 2.472656zm0 0"/><path d="m42.667969 119.464844c1.113281-.011719 2.214843-.242188 3.242187-.679688.523438-.171875 1.011719-.433594 1.449219-.769531.488281-.292969.945313-.636719 1.367187-1.023437 1.558594-1.636719 2.441407-3.800782 2.472657-6.058594-.011719-1.117188-.246094-2.21875-.683594-3.242188-.773437-2.144531-2.460937-3.832031-4.605469-4.609375-1.558594-.679687-3.289062-.859375-4.949218-.511719-.535157.09375-1.054688.265626-1.535157.511719-.546875.1875-1.066406.445313-1.546875.769531l-1.269531 1.023438c-.773437.816406-1.382813 1.769531-1.792969 2.816406-.4375 1.023438-.667968 2.125-.683594 3.242188.03125 2.257812.914063 4.425781 2.476563 6.058594 1.625 1.574218 3.792969 2.460937 6.058594 2.472656zm0 0"/><path d="m42.667969 153.601562c1.113281-.015624 2.214843-.246093 3.242187-.683593.523438-.171875 1.011719-.433594 1.449219-.769531.488281-.292969.945313-.636719 1.367187-1.023438 1.558594-1.636719 2.441407-3.800781 2.472657-6.058594-.011719-1.113281-.246094-2.214844-.683594-3.242187-.773437-2.144531-2.460937-3.832031-4.605469-4.609375-1.558594-.679688-3.289062-.859375-4.949218-.511719-.535157.09375-1.054688.265625-1.535157.511719-.546875.1875-1.066406.449218-1.546875.769531l-1.269531 1.023437c-.773437.816407-1.382813 1.773438-1.792969 2.816407-.4375 1.027343-.667968 2.128906-.683594 3.242187.03125 2.261719.914063 4.425782 2.476563 6.058594 1.625 1.574219 3.792969 2.460938 6.058594 2.476562zm0 0"/><path d="m42.667969 187.734375c1.113281-.015625 2.214843-.246094 3.242187-.683594.523438-.171875 1.011719-.429687 1.449219-.769531.488281-.292969.945313-.636719 1.367187-1.023438 1.558594-1.636718 2.441407-3.796874 2.472657-6.058593-.011719-1.113281-.246094-2.214844-.683594-3.242188-.773437-2.144531-2.460937-3.832031-4.605469-4.609375-1.558594-.679687-3.289062-.859375-4.949218-.511718-.535157.09375-1.054688.265624-1.535157.511718-.546875.191406-1.066406.449219-1.546875.769532l-1.269531 1.023437c-.773437.816406-1.382813 1.773437-1.792969 2.816406-.4375 1.027344-.667968 2.128907-.683594 3.242188.03125 2.261719.914063 4.425781 2.476563 6.058593 1.625 1.574219 3.792969 2.460938 6.058594 2.476563zm0 0"/><path d="m42.667969 221.867188c1.113281-.015626 2.214843-.246094 3.242187-.683594.523438-.171875 1.011719-.429688 1.449219-.769532.488281-.292968.945313-.636718 1.367187-1.023437 1.558594-1.636719 2.441407-3.796875 2.472657-6.058594-.011719-1.113281-.246094-2.214843-.683594-3.242187-.773437-2.144532-2.460937-3.832032-4.605469-4.605469-1.558594-.683594-3.289062-.863281-4.949218-.515625-.535157.09375-1.054688.265625-1.535157.515625-.546875.1875-1.066406.445313-1.546875.765625l-1.269531 1.023438c-.773437.816406-1.382813 1.773437-1.792969 2.816406-.4375 1.027344-.667968 2.128906-.683594 3.242187.03125 2.261719.914063 4.425781 2.476563 6.058594 1.625 1.578125 3.792969 2.460937 6.058594 2.476563zm0 0"/><path d="m42.667969 256c1.113281-.011719 2.214843-.246094 3.242187-.683594.523438-.171875 1.011719-.429687 1.449219-.765625.488281-.296875.945313-.640625 1.367187-1.027343 1.558594-1.632813 2.441407-3.796876 2.472657-6.058594-.011719-1.113282-.246094-2.214844-.683594-3.242188-.773437-2.140625-2.460937-3.832031-4.605469-4.605468-1.558594-.683594-3.289062-.863282-4.949218-.511719-.535157.089843-1.054688.265625-1.535157.511719-.546875.1875-1.066406.445312-1.546875.765624l-1.269531 1.023438c-.773437.816406-1.382813 1.773438-1.792969 2.816406-.4375 1.027344-.667968 2.128906-.683594 3.242188.03125 2.261718.914063 4.425781 2.476563 6.058594 1.625 1.578124 3.792969 2.464843 6.058594 2.476562zm0 0"/><path d="m42.667969 290.132812c1.113281-.011718 2.214843-.246093 3.242187-.683593.523438-.171875 1.011719-.429688 1.449219-.765625.488281-.296875.945313-.640625 1.367187-1.023438 1.558594-1.636718 2.441407-3.800781 2.472657-6.058594-.011719-1.117187-.246094-2.21875-.683594-3.246093-.773437-2.140625-2.460937-3.832031-4.605469-4.605469-1.558594-.683594-3.289062-.863281-4.949218-.511719-.535157.09375-1.054688.265625-1.535157.511719-.546875.1875-1.066406.445312-1.546875.765625l-1.269531 1.027344c-.773437.8125-1.382813 1.769531-1.792969 2.8125-.4375 1.027343-.667968 2.128906-.683594 3.246093.03125 2.257813.914063 4.421876 2.476563 6.058594 1.625 1.574219 3.792969 2.460938 6.058594 2.472656zm0 0"/><path d="m42.667969 324.265625c1.113281-.011719 2.214843-.246094 3.242187-.679687.523438-.171876 1.011719-.433594 1.449219-.769532.488281-.296875.945313-.636718 1.367187-1.023437 1.558594-1.636719 2.441407-3.800781 2.472657-6.058594-.011719-1.117187-.246094-2.21875-.683594-3.242187-.773437-2.144532-2.460937-3.832032-4.605469-4.609376-1.558594-.683593-3.289062-.859374-4.949218-.511718-.535157.09375-1.054688.265625-1.535157.511718-.546875.1875-1.066406.445313-1.546875.769532l-1.269531 1.023437c-.773437.816407-1.382813 1.769531-1.792969 2.816407-.4375 1.023437-.667968 2.125-.683594 3.242187.03125 2.257813.914063 4.421875 2.476563 6.058594 1.625 1.574219 3.792969 2.460937 6.058594 2.472656zm0 0"/><path d="m76.800781 51.199219h17.066407c4.710937 0 8.53125-3.820313 8.53125-8.53125 0-4.714844-3.820313-8.535157-8.53125-8.535157h-17.066407c-4.714843 0-8.535156 3.820313-8.535156 8.535157 0 4.710937 3.820313 8.53125 8.535156 8.53125zm0 0"/><path d="m85.332031 76.800781c0 4.710938 3.820313 8.53125 8.535157 8.53125h25.597656c4.714844 0 8.535156-3.820312 8.535156-8.53125 0-4.714843-3.820312-8.535156-8.535156-8.535156h-25.597656c-4.714844 0-8.535157 3.820313-8.535157 8.535156zm0 0"/><path d="m153.601562 85.332031h34.132813c4.710937 0 8.53125-3.820312 8.53125-8.53125 0-4.714843-3.820313-8.535156-8.53125-8.535156h-34.132813c-4.714843 0-8.535156 3.820313-8.535156 8.535156 0 4.710938 3.820313 8.53125 8.535156 8.53125zm0 0"/><path d="m93.867188 119.464844h59.734374c4.710938 0 8.53125-3.820313 8.53125-8.53125 0-4.714844-3.820312-8.535156-8.53125-8.535156h-59.734374c-4.714844 0-8.535157 3.820312-8.535157 8.535156 0 4.710937 3.820313 8.53125 8.535157 8.53125zm0 0"/><path d="m179.199219 110.933594c0 4.710937 3.820312 8.53125 8.535156 8.53125h34.132813c4.710937 0 8.53125-3.820313 8.53125-8.53125 0-4.714844-3.820313-8.535156-8.53125-8.535156h-34.132813c-4.714844 0-8.535156 3.820312-8.535156 8.535156zm0 0"/><path d="m93.867188 153.601562h59.734374c4.710938 0 8.53125-3.820312 8.53125-8.535156 0-4.710937-3.820312-8.53125-8.53125-8.53125h-59.734374c-4.714844 0-8.535157 3.820313-8.535157 8.53125 0 4.714844 3.820313 8.535156 8.535157 8.535156zm0 0"/><path d="m221.867188 136.535156h-34.132813c-4.714844 0-8.535156 3.820313-8.535156 8.53125 0 4.714844 3.820312 8.535156 8.535156 8.535156h34.132813c4.710937 0 8.53125-3.820312 8.53125-8.535156 0-4.710937-3.820313-8.53125-8.53125-8.53125zm0 0"/><path d="m76.800781 187.734375h17.066407c4.710937 0 8.53125-3.820313 8.53125-8.535156 0-4.710938-3.820313-8.53125-8.53125-8.53125h-17.066407c-4.714843 0-8.535156 3.820312-8.535156 8.53125 0 4.714843 3.820313 8.535156 8.535156 8.535156zm0 0"/><path d="m76.800781 324.265625h17.066407c4.710937 0 8.53125-3.820313 8.53125-8.53125 0-4.714844-3.820313-8.535156-8.53125-8.535156h-17.066407c-4.714843 0-8.535156 3.820312-8.535156 8.535156 0 4.710937 3.820313 8.53125 8.535156 8.53125zm0 0"/><path d="m85.332031 213.332031c0 4.714844 3.820313 8.535157 8.535157 8.535157h25.597656c4.714844 0 8.535156-3.820313 8.535156-8.535157 0-4.710937-3.820312-8.53125-8.535156-8.53125h-25.597656c-4.714844 0-8.535157 3.820313-8.535157 8.53125zm0 0"/><path d="m145.066406 213.332031c0 4.714844 3.820313 8.535157 8.535156 8.535157h34.132813c4.710937 0 8.53125-3.820313 8.53125-8.535157 0-4.710937-3.820313-8.53125-8.53125-8.53125h-34.132813c-4.714843 0-8.535156 3.820313-8.535156 8.53125zm0 0"/><path d="m153.601562 238.933594h-59.734374c-4.714844 0-8.535157 3.820312-8.535157 8.53125 0 4.714844 3.820313 8.535156 8.535157 8.535156h59.734374c4.710938 0 8.53125-3.820312 8.53125-8.535156 0-4.710938-3.820312-8.53125-8.53125-8.53125zm0 0"/><path d="m221.867188 238.933594h-34.132813c-4.714844 0-8.535156 3.820312-8.535156 8.53125 0 4.714844 3.820312 8.535156 8.535156 8.535156h34.132813c4.710937 0 8.53125-3.820312 8.53125-8.535156 0-4.710938-3.820313-8.53125-8.53125-8.53125zm0 0"/><path d="m153.601562 273.066406h-59.734374c-4.714844 0-8.535157 3.820313-8.535157 8.535156 0 4.710938 3.820313 8.53125 8.535157 8.53125h59.734374c4.710938 0 8.53125-3.820312 8.53125-8.53125 0-4.714843-3.820312-8.535156-8.53125-8.535156zm0 0"/><path d="m221.867188 273.066406h-34.132813c-4.714844 0-8.535156 3.820313-8.535156 8.535156 0 4.710938 3.820312 8.53125 8.535156 8.53125h34.132813c4.710937 0 8.53125-3.820312 8.53125-8.53125 0-4.714843-3.820313-8.535156-8.53125-8.535156zm0 0"/><path d="m290.132812 51.199219h9.054688l8.011719 128c.035156 9.914062 5.789062 18.914062 14.773437 23.109375-9.914062 13.878906-8.085937 32.941406 4.285156 44.683594 12.371094 11.742187 31.503907 12.574218 44.847657 1.953124 13.34375-10.625 16.820312-29.457031 8.148437-44.144531h26.558594c-3.074219 5.164063-4.710938 11.054688-4.746094 17.066407 0 18.851562 15.28125 34.132812 34.132813 34.132812 18.851562 0 34.132812-15.28125 34.132812-34.132812-.015625-6.289063-1.789062-12.449219-5.117187-17.785157 3.695312-1.617187 5.753906-5.609375 4.929687-9.558593-.828125-3.953126-4.308593-6.785157-8.34375-6.789063h-128c-2.34375-.042969-4.570312-1.027344-6.175781-2.734375-1.609375-1.707031-2.457031-3.988281-2.359375-6.328125l-.519531-8.003906h119.988281c3.769531 0 7.09375-2.472657 8.175781-6.085938l25.597656-85.332031c.773438-2.585938.28125-5.382812-1.328124-7.546875-1.609376-2.160156-4.148438-3.4375-6.847657-3.4375h-151.984375l-1.613281-26.128906c-.28125-4.503907-4.019531-8.011719-8.535156-8.003907h-17.066407c-4.710937 0-8.53125 3.820313-8.53125 8.535157 0 4.710937 3.820313 8.53125 8.53125 8.53125zm76.800782 170.667969c0 9.425781-7.640625 17.066406-17.066406 17.066406-9.425782 0-17.066407-7.640625-17.066407-17.066406 0-9.425782 7.640625-17.066407 17.066407-17.066407 9.425781 0 17.066406 7.640625 17.066406 17.066407zm68.265625 17.066406c-9.425781 0-17.066407-7.640625-17.066407-17.066406 0-9.425782 7.640626-17.066407 17.066407-17.066407s17.066406 7.640625 17.066406 17.066407c0 9.425781-7.640625 17.066406-17.066406 17.066406zm22.664062-153.601563-5.117187 17.066407h-85.8125c-4.714844 0-8.535156 3.820312-8.535156 8.535156 0 4.710937 3.820312 8.53125 8.535156 8.53125h80.691406l-10.242188 34.136718h-114.703124l-4.265626-68.269531zm0 0"/><path d="m435.199219 273.066406h-110.933594c-14.136719 0-25.597656 11.460938-25.597656 25.601563 0 14.136719 11.460937 25.597656 25.597656 25.597656h110.933594c14.140625 0 25.601562-11.460937 25.601562-25.597656 0-14.140625-11.460937-25.601563-25.601562-25.601563zm0 34.132813h-110.933594c-4.710937 0-8.53125-3.820313-8.53125-8.53125 0-4.714844 3.820313-8.535157 8.53125-8.535157h110.933594c4.714843 0 8.535156 3.820313 8.535156 8.535157 0 4.710937-3.820313 8.53125-8.535156 8.53125zm0 0"/></svg>