<?xml version="1.0" encoding="UTF-8"?>
<svg xmlns="http://www.w3.org/2000/svg" viewBox="0 0 96 96" width="512" height="512"><g id="Backend_Coding-2" data-name="Backend Coding"><path d="M66.77,7.92h.4a1,1,0,0,0,0-2h-.4a1,1,0,0,0,0,2Z"/><path d="M71.13,7.92h.4a1,1,0,0,0,0-2h-.4a1,1,0,0,0,0,2Z"/><path d="M75.49,7.92h.4a1,1,0,0,0,0-2h-.4a1,1,0,0,0,0,2Z"/><path d="M7.5,37.59H18.13a1,1,0,0,0,0-2H7.5a1,1,0,0,0,0,2Z"/><path d="M7.5,43.51H21a1,1,0,0,0,0-2H7.5a1,1,0,0,0,0,2Z"/><path d="M25,61.26a1,1,0,0,0,0-2H7.5a1,1,0,1,0,0,2Z"/><path d="M21.29,31.48a1,1,0,0,0,1.41,0l3-3a1,1,0,0,0,0-1.41l-3-3a1,1,0,0,0-1.41,1.41l2.3,2.3-2.3,2.3A1,1,0,0,0,21.29,31.48Z"/><path d="M10.51,31.77a1,1,0,0,0,.71-1.71l-2.3-2.3,2.3-2.3a1,1,0,0,0,0-1.41,1,1,0,0,0-1.42,0l-3,3a1,1,0,0,0,0,1.41C10,31.69,10,31.77,10.51,31.77Z"/><path d="M14.5,30.58a1,1,0,0,0,.7-.29l3.64-3.64a1,1,0,0,0-1.41-1.41l-3.64,3.64A1,1,0,0,0,14.5,30.58Z"/><path d="M21.66,37.59h1.45a1,1,0,0,0,0-2H21.66a1,1,0,1,0,0,2Z"/><path d="M7.5,49h7.55a1,1,0,1,0,0-2H7.5a1,1,0,0,0,0,2Z"/><path d="M7.5,55H22a1,1,0,0,0,0-2H7.5a1,1,0,0,0,0,2Z"/><path d="M90.1,19.57H82.75V5.67A5.67,5.67,0,0,0,77.08,0H14.19A5.67,5.67,0,0,0,8.52,5.67v13.9H5.9A3.91,3.91,0,0,0,2,23.47V63.3a3.91,3.91,0,0,0,3.9,3.9H8.52v4.54H5.9A3.9,3.9,0,0,0,2,75.63V86.49a3.91,3.91,0,0,0,3.9,3.9H8.52A5.67,5.67,0,0,0,14.19,96H77.08a5.67,5.67,0,0,0,5.67-5.66V52.91H90.1A3.91,3.91,0,0,0,94,49V23.47A3.91,3.91,0,0,0,90.1,19.57ZM80.75,5.67v6.16H28V2h49.1A3.67,3.67,0,0,1,80.75,5.67Zm-70.23,0A3.67,3.67,0,0,1,14.19,2H26v9.83H10.52ZM5.9,65.2A1.9,1.9,0,0,1,4,63.3V23.47a1.9,1.9,0,0,1,1.9-1.9H26.6a1.9,1.9,0,0,1,1.9,1.9V63.3a1.9,1.9,0,0,1-1.89,1.9Zm0,23.19A1.9,1.9,0,0,1,4,86.49V75.63a1.9,1.9,0,0,1,1.9-1.89H26.6a1.9,1.9,0,0,1,1.9,1.89V86.49a1.9,1.9,0,0,1-1.89,1.9Zm74.85,1.92A3.66,3.66,0,0,1,77.08,94H14.19a3.67,3.67,0,0,1-3.67-3.58H26.61a3.9,3.9,0,0,0,3.89-3.9V75.63a3.9,3.9,0,0,0-3.9-3.89H10.52V67.2H26.61a3.9,3.9,0,0,0,3.89-3.9V23.47a3.91,3.91,0,0,0-3.9-3.9H10.52V13.83H80.75v5.74H38.9a3.91,3.91,0,0,0-3.9,3.9V49a3.91,3.91,0,0,0,3.9,3.91H80.75Zm-7.56-39.4H42.82L58,35.72Zm2.83,0-7.24-7.24,4.51-4.51L85,50.91ZM92,49a1.91,1.91,0,0,1-1.9,1.91H87.87L74,37a1,1,0,0,0-1.41,0l-5.21,5.22L58.71,33.6a1,1,0,0,0-1.41,0L40,50.91H38.9A1.91,1.91,0,0,1,37,49V23.47a1.9,1.9,0,0,1,1.9-1.9H90.1a1.9,1.9,0,0,1,1.9,1.9Z"/><path d="M67.29,25A4.71,4.71,0,1,0,72,29.71,4.71,4.71,0,0,0,67.29,25Zm0,7.42A2.71,2.71,0,1,1,70,29.71,2.71,2.71,0,0,1,67.29,32.42Z"/><path d="M39.12,75.53H57.29a3.91,3.91,0,0,0,3.9-3.9V60.77a3.91,3.91,0,0,0-3.9-3.9H39.12a3.9,3.9,0,0,0-3.89,3.9V71.63A3.9,3.9,0,0,0,39.12,75.53ZM37.23,60.77a1.9,1.9,0,0,1,1.89-1.9H57.29a1.91,1.91,0,0,1,1.9,1.9V71.63a1.91,1.91,0,0,1-1.9,1.9H39.12a1.9,1.9,0,0,1-1.89-1.9Z"/><path d="M53.54,68.46a.87.87,0,0,1-.87.87,1,1,0,0,0-1,1c0,1.88,3.87,1,3.87-1.87V67.2H56a1,1,0,1,0,0-2h-.47V63.94c0-2.86-3.87-3.77-3.87-1.87a1,1,0,0,0,1,1,.87.87,0,0,1,.87.87Z"/><path d="M40.4,67.2h.47v1.26c0,2.86,3.87,3.76,3.87,1.87a1,1,0,0,0-1-1,.87.87,0,0,1-.87-.87V63.94a.87.87,0,0,1,.87-.87,1,1,0,0,0,1-1c0-1.88-3.87-1-3.87,1.87V65.2H40.4a1,1,0,1,0,0,2Z"/><path d="M46.17,69.23a1,1,0,0,0,.71-.29L51,64.87a1,1,0,0,0,0-1.41,1,1,0,0,0-1.42,0l-4.06,4.06A1,1,0,0,0,46.17,69.23Z"/><path d="M8.29,78.83H24.21a1,1,0,0,0,0-2H8.29a1,1,0,1,0,0,2Z"/><path d="M18.84,84.67a1,1,0,1,0,0-2H8.29a1,1,0,1,0,0,2Z"/><path d="M70.39,80.06H39.12A3.9,3.9,0,0,0,35.23,84v2.53a3.9,3.9,0,0,0,3.89,3.9H70.39a3.91,3.91,0,0,0,3.9-3.9V84A3.91,3.91,0,0,0,70.39,80.06ZM39.12,88.39a1.9,1.9,0,0,1-1.89-1.9V84a1.9,1.9,0,0,1,1.89-1.9h6.71a1.9,1.9,0,0,1,1.9,1.9v2.53a1.9,1.9,0,0,1-1.9,1.9Zm33.17-1.9a1.9,1.9,0,0,1-1.9,1.9H49.24c.63-1.15.49-1.9.49-4.43a3.92,3.92,0,0,0-.49-1.9H70.39a1.91,1.91,0,0,1,1.9,1.9Z"/></g></svg>
