<svg id="Layer_1" enable-background="new 0 0 66 66" viewBox="0 0 66 66" xmlns="http://www.w3.org/2000/svg"><g><path d="m54.8 43.7c-.41 0-.75.34-.75.75v15.36c0 1.2-.98 2.18-2.19 2.18h-46.93c-1.2 0-2.18-.98-2.18-2.18v-45.47h51.3v4.5c0 .41.34.75.75.75s.75-.34.75-.75v-5.25-7.4c0-2.03-1.65-3.68-3.68-3.68h-46.94c-2.03 0-3.68 1.65-3.68 3.68v7.38.02 46.22c0 2.03 1.65 3.68 3.68 3.68h46.93c2.04 0 3.69-1.65 3.69-3.68v-15.36c0-.41-.34-.75-.75-.75zm-52.05-37.51c0-1.2.98-2.18 2.18-2.18h46.93c1.2 0 2.18.98 2.18 2.18v6.65h-51.29z"/><path d="m50.55 20.93c0-.41-.34-.75-.75-.75h-24.18c-.41 0-.75.34-.75.75s.34.75.75.75h24.18c.41 0 .75-.34.75-.75z"/><path d="m49.51 26.21c0-.41-.34-.75-.75-.75h-23.14c-.41 0-.75.34-.75.75s.34.75.75.75h23.15c.41 0 .74-.33.74-.75z"/><path d="m45.2 31.5c0-.41-.34-.75-.75-.75h-18.83c-.41 0-.75.34-.75.75s.34.75.75.75h18.83c.41 0 .75-.34.75-.75z"/><path d="m8.65 5.94c-1.37 0-2.48 1.11-2.48 2.48s1.11 2.48 2.48 2.48 2.48-1.11 2.48-2.48-1.11-2.48-2.48-2.48zm0 3.46c-.54 0-.98-.44-.98-.98s.44-.98.98-.98c.55 0 .98.43.98.98 0 .54-.44.98-.98.98z"/><path d="m15.79 5.94c-1.37 0-2.48 1.11-2.48 2.48s1.11 2.48 2.48 2.48 2.48-1.11 2.48-2.48-1.11-2.48-2.48-2.48zm0 3.46c-.54 0-.98-.44-.98-.98s.44-.98.98-.98c.55 0 .98.43.98.98 0 .54-.44.98-.98.98z"/><path d="m12.11 24.76c1.37 0 2.48-1.11 2.48-2.48s-1.11-2.48-2.48-2.48-2.48 1.11-2.48 2.48 1.11 2.48 2.48 2.48zm0-3.45c.55 0 .98.43.98.98 0 .54-.44.98-.98.98s-.98-.44-.98-.98.44-.98.98-.98z"/><path d="m22.94 5.94c-1.37 0-2.48 1.11-2.48 2.48s1.11 2.48 2.48 2.48 2.48-1.11 2.48-2.48-1.12-2.48-2.48-2.48zm0 3.46c-.54 0-.98-.44-.98-.98s.44-.98.98-.98c.55 0 .98.43.98.98 0 .54-.44.98-.98.98z"/><path d="m62.94 21.2c-1-.79-2.25-1.14-3.51-.99s-2.4.78-3.19 1.78l-1.74 2.21-17.14 21.7c-.07.09-.11.2-.14.31 0 .01-.01.02-.01.02l-1.5 8.38c-.05.27.06.55.27.72.13.11.3.16.46.16.1 0 .2-.02.3-.06l7.8-3.4c.01 0 .01-.01.02-.02.1-.05.19-.11.27-.2l17.14-21.7 1.75-2.21c1.64-2.06 1.28-5.07-.78-6.7zm-7.73 4.52 1.97 1.56-16.21 20.52-1.97-1.56zm-17.78 27.78 1.03-5.77 4.34 3.43zm6.7-3.21-1.98-1.56 16.21-20.52 1.98 1.56zm18.42-23.32-1.28 1.62-2.56-2.03-2.56-2.03 1.28-1.62c.54-.68 1.32-1.12 2.18-1.22.87-.1 1.72.14 2.41.68 1.41 1.13 1.65 3.19.53 4.6z"/><path d="m9.11 32.25h9.49c.85 0 1.65-.38 2.21-1.04.42-.5.64-1.15.64-1.81v-8.7c0-1.57-1.28-2.86-2.86-2.86h-9.48c-1.58 0-2.86 1.28-2.86 2.86v8.7c0 .66.23 1.31.65 1.82.55.65 1.36 1.03 2.21 1.03zm-.65-1.67 2.06-3.22 2.2 3.39h-3.61c-.23 0-.45-.06-.65-.17zm6.05.17-1.03-1.59 2.4-3.75 3.35 5.17c-.2.11-.41.17-.64.17zm-5.4-11.41h9.49c.75 0 1.36.61 1.36 1.36v8.23l-2.82-4.34c-.24-.35-.61-.59-1.03-.64-.43-.06-.85.07-1.15.33-.12.1-.22.21-.29.33l-2.08 3.2-.8-1.24c-.2-.33-.52-.55-.91-.65-.61-.14-1.23.12-1.57.64l-1.56 2.39v-8.25c0-.75.61-1.36 1.36-1.36z"/><path d="m41.1 36.79c0-.41-.34-.75-.75-.75h-33.35c-.41 0-.75.34-.75.75s.34.75.75.75h33.35c.41 0 .75-.34.75-.75z"/><path d="m18.22 47.96v-4.38c0-1.24-1.01-2.25-2.25-2.25h-7.47c-1.24 0-2.25 1.01-2.25 2.25v4.38c0 1.24 1.01 2.25 2.25 2.25h7.47c1.24 0 2.25-1.01 2.25-2.25zm-1.5 0c0 .41-.34.75-.75.75h-7.47c-.41 0-.75-.34-.75-.75v-4.38c0-.41.34-.75.75-.75h7.47c.41 0 .75.34.75.75z"/><path d="m16.47 56.99h-8.47c-.41 0-.75.34-.75.75s.34.75.75.75h8.47c.41 0 .75-.34.75-.75s-.33-.75-.75-.75z"/><path d="m34.39 47.96v-4.38c0-1.24-1.01-2.25-2.25-2.25h-7.47c-1.24 0-2.25 1.01-2.25 2.25v4.38c0 1.24 1.01 2.25 2.25 2.25h7.47c1.24 0 2.25-1.01 2.25-2.25zm-1.5 0c0 .41-.34.75-.75.75h-7.47c-.41 0-.75-.34-.75-.75v-4.38c0-.41.34-.75.75-.75h7.47c.41 0 .75.34.75.75z"/><path d="m32.64 56.99h-8.47c-.41 0-.75.34-.75.75s.34.75.75.75h8.47c.41 0 .75-.34.75-.75s-.34-.75-.75-.75z"/><path d="m16.47 52.85h-8.47c-.41 0-.75.34-.75.75s.34.75.75.75h8.47c.41 0 .75-.34.75-.75s-.33-.75-.75-.75z"/><path d="m32.64 52.85h-8.47c-.41 0-.75.34-.75.75s.34.75.75.75h8.47c.41 0 .75-.34.75-.75s-.34-.75-.75-.75z"/></g></svg>