<?xml version="1.0" encoding="UTF-8" standalone="no"?>
<!-- Created with Inkscape (http://www.inkscape.org/) -->

<svg
   version="1.1"
   id="svg1290"
   xml:space="preserve"
   width="682.66669"
   height="682.66669"
   viewBox="0 0 682.66669 682.66669"
   xmlns="http://www.w3.org/2000/svg"
   xmlns:svg="http://www.w3.org/2000/svg"><defs
     id="defs1294"><clipPath
       clipPathUnits="userSpaceOnUse"
       id="clipPath1304"><path
         d="M 0,512 H 512 V 0 H 0 Z"
         id="path1302" /></clipPath></defs><g
     id="g1296"
     transform="matrix(1.3333333,0,0,-1.3333333,0,682.66667)"><g
       id="g1298"><g
         id="g1300"
         clip-path="url(#clipPath1304)"><g
           id="g1306"
           transform="translate(324.9086,250.7287)"><path
             d="m 0,0 166.41,-166.41 c 17.574,-17.574 17.575,-46.065 0.002,-63.639 -17.574,-17.573 -46.067,-17.573 -63.64,0 L -42.425,-84.852"
             style="fill:none;stroke:#fff;stroke-width:15;stroke-linecap:round;stroke-linejoin:round;stroke-miterlimit:10;stroke-dasharray:none;stroke-opacity:1"
             id="path1308" /></g><g
           id="g1310"
           transform="translate(448.8929,63.1066)"><path
             d="m 0,0 c 5.858,5.858 15.355,5.857 21.213,-0.001 5.859,-5.858 5.859,-15.355 10e-4,-21.213 C 15.356,-27.072 5.858,-27.072 0,-21.214 -5.858,-15.356 -5.858,-5.858 0,0 Z"
             style="fill:none;stroke:#fff;stroke-width:15;stroke-linecap:round;stroke-linejoin:round;stroke-miterlimit:10;stroke-dasharray:none;stroke-opacity:1"
             id="path1312" /></g><g
           id="g1314"
           transform="translate(303.5753,229.3946)"><path
             d="m 0,0 136.367,-136.367 c -4.43,-2.138 -8.587,-5.033 -12.262,-8.708 -3.765,-3.765 -6.717,-8.034 -8.869,-12.587 L -21.213,-21.213"
             style="fill:none;stroke:#fff;stroke-width:15;stroke-linecap:round;stroke-linejoin:round;stroke-miterlimit:10;stroke-dasharray:none;stroke-opacity:1"
             id="path1316" /></g><g
           id="g1318"
           transform="translate(42.8772,299.4306)"><path
             d="M 0,0 169.706,169.706"
             style="fill:none;stroke:#fff;stroke-width:15;stroke-linecap:round;stroke-linejoin:round;stroke-miterlimit:10;stroke-dasharray:none;stroke-opacity:1"
             id="path1320" /></g><g
           id="g1322"
           transform="translate(137.8858,310.0361)"><path
             d="M 0,0 63.64,63.64 42.426,84.853 -21.213,21.213 Z"
             style="fill:none;stroke:#fff;stroke-width:15;stroke-linecap:round;stroke-linejoin:round;stroke-miterlimit:10;stroke-dasharray:none;stroke-opacity:1"
             id="path1324" /></g><g
           id="g1326"
           transform="translate(137.8858,352.4625)"><path
             d="M 0,0 21.213,-21.213"
             style="fill:none;stroke:#fff;stroke-width:15;stroke-linecap:round;stroke-linejoin:round;stroke-miterlimit:10;stroke-dasharray:none;stroke-opacity:1"
             id="path1328" /></g><g
           id="g1330"
           transform="translate(159.099,373.6757)"><path
             d="M 0,0 21.213,-21.213"
             style="fill:none;stroke:#fff;stroke-width:15;stroke-linecap:round;stroke-linejoin:round;stroke-miterlimit:10;stroke-dasharray:none;stroke-opacity:1"
             id="path1332" /></g><g
           id="g1334"
           transform="translate(187.0963,261.2772)"><path
             d="m 0,0 c 0,0 -44.511,2.636 -59.367,3.011 -30.7,0.777 -61.42,11.71 -84.852,35.142 -35.695,35.509 -44.38,87.89 -26.002,131.617 L -91.55,91.099"
             style="fill:none;stroke:#fff;stroke-width:15;stroke-linecap:round;stroke-linejoin:round;stroke-miterlimit:10;stroke-dasharray:none;stroke-opacity:1"
             id="path1336" /></g><g
           id="g1338"
           transform="translate(159.0183,416.1828)"><path
             d="m 0,0 -78.687,78.687 c 43.641,18.636 96.096,10.234 131.806,-25.289 23.432,-23.432 34.255,-54.156 35.14,-84.854 0.432,-14.971 3.457,-59.811 3.457,-59.811"
             style="fill:none;stroke:#fff;stroke-width:15;stroke-linecap:round;stroke-linejoin:round;stroke-miterlimit:10;stroke-dasharray:none;stroke-opacity:1"
             id="path1340" /></g><g
           id="g1342"
           transform="translate(403.4219,329.2347)"><path
             d="M 0,0 -74.187,74.187"
             style="fill:none;stroke:#fff;stroke-width:15;stroke-linecap:round;stroke-linejoin:round;stroke-miterlimit:10;stroke-dasharray:none;stroke-opacity:1"
             id="path1344" /></g><g
           id="g1346"
           transform="translate(431.6865,357.4993)"><path
             d="M 0,0 -74.202,74.202"
             style="fill:none;stroke:#fff;stroke-width:15;stroke-linecap:round;stroke-linejoin:round;stroke-miterlimit:10;stroke-dasharray:none;stroke-opacity:1"
             id="path1348" /></g><g
           id="g1350"
           transform="translate(421.5684,495.7556)"><path
             d="m 0,0 -366.309,-366.309 -47.759,-121.947 121.947,47.76 366.308,366.309 c 11.659,11.659 11.659,30.738 0,42.397 L 42.397,0 C 30.738,11.659 11.659,11.659 0,0 Z"
             style="fill:none;stroke:#fff;stroke-width:15;stroke-linecap:round;stroke-linejoin:round;stroke-miterlimit:10;stroke-dasharray:none;stroke-opacity:1"
             id="path1352" /></g><g
           id="g1354"
           transform="translate(55.2597,129.4471)"><path
             d="M 0,0 74.187,-74.187"
             style="fill:none;stroke:#fff;stroke-width:15;stroke-linecap:round;stroke-linejoin:round;stroke-miterlimit:10;stroke-dasharray:none;stroke-opacity:1"
             id="path1356" /></g><g
           id="g1358"
           transform="translate(31.3801,68.4742)"><path
             d="M 0,0 37.094,-37.094"
             style="fill:none;stroke:#fff;stroke-width:15;stroke-linecap:round;stroke-linejoin:round;stroke-miterlimit:10;stroke-dasharray:none;stroke-opacity:1"
             id="path1360" /></g></g></g></g></svg>
