<svg xmlns="http://www.w3.org/2000/svg" version="1.1" xmlns:xlink="http://www.w3.org/1999/xlink" width="512" height="512" x="0" y="0" viewBox="0 0 68 68" style="enable-background:new 0 0 512 512" xml:space="preserve" class=""><g transform="matrix(1.0500000000000003,0,0,1.0500000000000003,-1.6999999999999957,-1.7000249147414976)"><path fill="#dddddd" d="M48.3 33.325h5.497v1.357h-5.496a.68.68 0 0 1 0-1.357z" opacity="1" data-original="#e9e9ff" class=""></path><path fill="#dddddd" d="M47.661 15.525h5.535a.68.68 0 0 1 .678.686c0 .37-.3.679-.678.679H48.34v34.227h4.856a.68.68 0 0 1 0 1.357h-5.535a.674.674 0 0 1-.678-.678V34.682H33.778a.68.68 0 0 1 0-1.357h13.205V16.211c0-.377.3-.686.678-.686z" opacity="1" data-original="#e9e9ff" class=""></path><path fill="#ed524e" d="M46.647 28.286h1.945c.326 0 .589.263.589.589v10.26a.588.588 0 0 1-.59.589h-1.944a.588.588 0 0 1-.588-.589v-10.26c0-.326.262-.589.588-.589z" opacity="1" data-original="#ed524e" class=""></path><path fill="#4f5d99" d="M43.328 42.38v11.318c0 3.625-9.254 6.564-20.66 6.564C11.255 60.262 2 57.323 2 53.698V42.38c0-3.632 9.255-6.57 20.668-6.57 11.406 0 20.66 2.938 20.66 6.57z" opacity="1" data-original="#4f5d99" class=""></path><path fill="#3d4a75" d="M43.328 42.38c0 3.624-9.254 6.563-20.66 6.563C11.255 48.943 2 46.004 2 42.38c0-3.632 9.255-6.57 20.668-6.57 11.406 0 20.66 2.938 20.66 6.57z" opacity="1" data-original="#3d4a75" class=""></path><path fill="#4f5d99" d="M2 42.38c0 3.624 9.255 6.563 20.668 6.563 11.406 0 20.66-2.939 20.66-6.563V53.7c0 3.624-9.254 6.563-20.66 6.563C11.255 60.263 2 57.323 2 53.7z" opacity="1" data-original="#4f5d99" class=""></path><path fill="#dddddd" d="M15.1 54.405c0 .52-.456.92-.976.865-4.515-.514-7.502-1.566-8.672-2.355a.741.741 0 0 1-.32-.62c0-.526.514-.89 1.002-.72 2.436.858 5.272 1.647 8.178 1.96.444.05.789.42.789.87z" opacity="1" data-original="#e9e9ff" class=""></path><path fill="#7bd681" d="M40.776 51.73a1.41 1.41 0 0 1-1.415 1.407 1.41 1.41 0 0 1-1.415-1.408c0-.78.635-1.415 1.415-1.415s1.415.635 1.415 1.415z" opacity="1" data-original="#7bd681"></path><path fill="#ed524e" d="M30.93 53.867a1.41 1.41 0 0 1-1.414 1.408 1.41 1.41 0 0 1-1.415-1.408c0-.78.634-1.414 1.415-1.414.78 0 1.415.634 1.415 1.414z" opacity="1" data-original="#ed524e" class=""></path><path fill="#4f5d99" d="M43.328 28.342V39.66c0 3.625-9.254 6.564-20.66 6.564C11.255 46.224 2 43.285 2 39.66V28.342c0-3.632 9.255-6.57 20.668-6.57 11.406 0 20.66 2.938 20.66 6.57z" opacity="1" data-original="#4f5d99" class=""></path><path fill="#3d4a75" d="M43.328 28.342c0 3.624-9.254 6.564-20.66 6.564C11.255 34.906 2 31.966 2 28.342c0-3.632 9.255-6.57 20.668-6.57 11.406 0 20.66 2.938 20.66 6.57z" opacity="1" data-original="#3d4a75" class=""></path><path fill="#4f5d99" d="M2 28.342c0 3.624 9.255 6.564 20.668 6.564 11.406 0 20.66-2.94 20.66-6.564v11.32c0 3.624-9.254 6.563-20.66 6.563C11.255 46.225 2 43.285 2 39.662z" opacity="1" data-original="#4f5d99" class=""></path><path fill="#dddddd" d="M15.1 40.367c0 .52-.456.921-.976.865-4.515-.514-7.502-1.566-8.672-2.355a.741.741 0 0 1-.32-.62c0-.526.514-.889 1.002-.72 2.436.858 5.272 1.647 8.178 1.96.444.05.789.42.789.87z" opacity="1" data-original="#e9e9ff" class=""></path><path fill="#7bd681" d="M40.776 37.691A1.41 1.41 0 0 1 39.36 39.1a1.41 1.41 0 0 1-1.415-1.408c0-.78.635-1.414 1.415-1.414s1.415.634 1.415 1.414z" opacity="1" data-original="#7bd681"></path><path fill="#fdc72e" d="M35.93 39.102a1.41 1.41 0 0 1-1.416 1.408 1.41 1.41 0 0 1-1.414-1.408c0-.78.634-1.414 1.414-1.414.78 0 1.415.634 1.415 1.414zM35.93 53.14a1.41 1.41 0 0 1-1.416 1.408A1.41 1.41 0 0 1 33.1 53.14c0-.78.634-1.414 1.414-1.414.78 0 1.415.634 1.415 1.414z" opacity="1" data-original="#fdc72e" class=""></path><path fill="#ed524e" d="M30.93 39.83a1.41 1.41 0 0 1-1.414 1.407 1.41 1.41 0 0 1-1.415-1.408c0-.78.634-1.414 1.415-1.414.78 0 1.415.634 1.415 1.414z" opacity="1" data-original="#ed524e" class=""></path><path fill="#4f5d99" d="M43.328 14.304v11.319c0 3.624-9.254 6.563-20.66 6.563C11.255 32.186 2 29.247 2 25.623V14.304c0-3.632 9.255-6.57 20.668-6.57 11.406 0 20.66 2.938 20.66 6.57z" opacity="1" data-original="#4f5d99" class=""></path><path fill="#3d4a75" d="M43.328 14.304c0 3.624-9.254 6.564-20.66 6.564C11.255 20.868 2 17.928 2 14.304c0-3.632 9.255-6.57 20.668-6.57 11.406 0 20.66 2.938 20.66 6.57z" opacity="1" data-original="#3d4a75" class=""></path><path fill="#4f5d99" d="M2 14.304c0 3.624 9.255 6.564 20.668 6.564 11.406 0 20.66-2.94 20.66-6.564v11.32c0 3.624-9.254 6.563-20.66 6.563C11.255 32.187 2 29.248 2 25.624z" opacity="1" data-original="#4f5d99" class=""></path><path fill="#dddddd" d="M15.1 26.33c0 .52-.456.92-.976.864-4.515-.514-7.502-1.566-8.672-2.355a.741.741 0 0 1-.32-.62c0-.526.514-.889 1.002-.72 2.436.858 5.272 1.647 8.178 1.96.444.05.789.42.789.87z" opacity="1" data-original="#e9e9ff" class=""></path><path fill="#7bd681" d="M40.776 23.653a1.41 1.41 0 0 1-1.415 1.408 1.41 1.41 0 0 1-1.415-1.408c0-.78.635-1.414 1.415-1.414s1.415.634 1.415 1.414z" opacity="1" data-original="#7bd681"></path><path fill="#fdc72e" d="M35.93 25.065a1.41 1.41 0 0 1-1.416 1.407 1.41 1.41 0 0 1-1.414-1.407c0-.78.634-1.415 1.414-1.415.78 0 1.415.634 1.415 1.415z" opacity="1" data-original="#fdc72e" class=""></path><path fill="#ed524e" d="M30.93 25.791a1.41 1.41 0 0 1-1.414 1.408 1.41 1.41 0 0 1-1.415-1.408c0-.78.634-1.414 1.415-1.414.78 0 1.415.634 1.415 1.414z" opacity="1" data-original="#ed524e" class=""></path><g fill="#fff" opacity=".16"><path d="M32.299 59.51c-2.877.486-6.145.757-9.628.757-1.606 0-3.166-.056-4.66-.169L5.74 10.54c3.156-1.438 8.069-2.447 13.746-2.727zM39.592 57.465c-1.074.486-2.344.924-3.773 1.298L23.184 7.738c1.42.009 2.802.065 4.137.167z" fill="#ffffff" opacity="0" data-original="#ffffff" class=""></path></g><path fill="#74c579" d="M66 47.333v8.419a.847.847 0 0 1-.848.847H52.526a.847.847 0 0 1-.848-.847v-9.74c0-.472.383-.847.848-.847h3.806c.473 0 .847.375.847.847v.473h7.973c.465 0 .848.383.848.848z" opacity="1" data-original="#74c579" class=""></path><path fill="#7bd681" d="M66 49.153v8.419c0 .468-.38.847-.848.847H52.526a.848.848 0 0 1-.848-.847v-8.42c0-.467.38-.847.848-.847h12.626c.469 0 .848.38.848.848z" opacity="1" data-original="#7bd681"></path><g fill="#74c579"><path d="M55.4 56.398v.408a.1.1 0 0 1-.098.099h-2.027a.1.1 0 0 1-.099-.099v-.408c0-.055.045-.098.099-.098h2.027c.054 0 .099.043.099.098zM59.01 54.967v.408a.098.098 0 0 1-.099.098h-5.636a.098.098 0 0 1-.099-.098v-.408a.1.1 0 0 1 .099-.099h5.636a.1.1 0 0 1 .099.099zM59.01 56.398v.408a.1.1 0 0 1-.099.099h-2.606a.098.098 0 0 1-.099-.099v-.408c0-.055.043-.098.099-.098h2.606c.054 0 .099.043.099.098z" fill="#74c579" opacity="1" data-original="#74c579" class=""></path></g><path fill="#f9ac00" d="M66 28.866v8.419a.847.847 0 0 1-.848.847H52.526a.847.847 0 0 1-.848-.847v-9.74c0-.472.383-.847.848-.847h3.806c.473 0 .847.375.847.847v.473h7.973c.465 0 .848.383.848.848z" opacity="1" data-original="#f9ac00" class=""></path><path fill="#fdc72e" d="M66 30.686v8.419c0 .468-.38.847-.848.847H52.526a.848.848 0 0 1-.848-.847v-8.42c0-.467.38-.847.848-.847h12.626c.469 0 .848.38.848.848z" opacity="1" data-original="#fdc72e" class=""></path><g fill="#f9ac00"><path d="M55.4 37.931v.408a.1.1 0 0 1-.098.099h-2.027a.1.1 0 0 1-.099-.099v-.408c0-.055.045-.098.099-.098h2.027c.054 0 .099.043.099.098zM59.01 36.5v.407a.098.098 0 0 1-.099.099h-5.636a.098.098 0 0 1-.099-.099V36.5a.1.1 0 0 1 .099-.098h5.636a.1.1 0 0 1 .099.098zM59.01 37.931v.408a.1.1 0 0 1-.099.099h-2.606a.098.098 0 0 1-.099-.099v-.408c0-.055.043-.098.099-.098h2.606c.054 0 .099.043.099.098z" fill="#f9ac00" opacity="1" data-original="#f9ac00" class=""></path></g><path fill="#b72a2a" d="M66 10.399v8.419a.847.847 0 0 1-.848.847H52.526a.847.847 0 0 1-.848-.847v-9.74c0-.472.383-.847.848-.847h3.806c.473 0 .847.375.847.847v.473h7.973c.465 0 .848.383.848.848z" opacity="1" data-original="#b72a2a" class=""></path><path fill="#ed524e" d="M66 12.219v8.419c0 .468-.38.847-.848.847H52.526a.848.848 0 0 1-.848-.847v-8.42c0-.467.38-.847.848-.847h12.626c.469 0 .848.38.848.848z" opacity="1" data-original="#ed524e" class=""></path><g fill="#b72a2a"><path d="M55.4 19.464v.408a.1.1 0 0 1-.098.099h-2.027a.1.1 0 0 1-.099-.099v-.408c0-.055.045-.098.099-.098h2.027c.054 0 .099.043.099.098zM59.01 18.032v.408a.098.098 0 0 1-.099.099h-5.636a.098.098 0 0 1-.099-.099v-.408a.1.1 0 0 1 .099-.098h5.636a.1.1 0 0 1 .099.098zM59.01 19.464v.408a.1.1 0 0 1-.099.099h-2.606a.098.098 0 0 1-.099-.099v-.408c0-.055.043-.098.099-.098h2.606c.054 0 .099.043.099.098z" fill="#b72a2a" opacity="1" data-original="#b72a2a" class=""></path></g></g></svg>