<svg clip-rule="evenodd" fill-rule="evenodd" height="512" image-rendering="optimizeQuality" shape-rendering="geometricPrecision" text-rendering="geometricPrecision" viewBox="0 0 1707 1707" width="512" xmlns="http://www.w3.org/2000/svg"><g id="Layer_x0020_1"><g id="_483990064"><g><g><path d="m712 1546h-370c-14 0-25-11-25-25v-1027c0-14 11-25 25-25h370c14 0 25 11 25 25v1029c0 12-11 23-25 23zm-345-48h322v-981h-322z"/></g><g><path d="m551 1707h-48c-103 0-186-83-186-184 0-14 11-25 25-25h370c14 0 25 11 25 25 0 101-83 184-186 184zm-183-161c11 64 68 113 136 113h49c66 0 123-49 134-113z"/></g><g><path d="m712 517h-370c-14 0-25-11-25-25v-80c0-4 1-7 2-10l184-389c4-8 12-14 22-14 10 0 18 6 22 14l188 388c1 2 2 7 2 11v82c0 14-11 23-25 23zm-345-48h322v-53l-164-336-158 337z"/></g><g><path d="m525 237c-32 0-63-4-90-13-13-4-20-18-17-30 4-13 18-20 31-17 23 7 48 11 76 11s54-4 78-11c12-4 26 3 30 15 4 13-3 27-15 31-29 10-60 14-93 14z"/></g><g><g><path d="m457 1430c-14 0-25-11-25-25v-795c0-14 11-25 25-25s25 11 25 25v795c0 14-11 25-25 25z"/></g><g><path d="m599 1430c-14 0-25-11-25-25v-795c0-14 11-25 25-25 13 0 25 11 25 25v795c-2 14-13 25-25 25z"/></g></g><g><g><path d="m1301 1707h-241c-49 0-89-40-89-89v-1530c0-48 40-89 89-89h241c49 0 89 41 89 89v1530c0 50-40 89-89 89zm-241-1659c-23 0-41 18-41 40v1530c0 21 18 41 41 41h241c21 0 40-18 40-41v-1530c0-22-18-40-40-40z"/></g><g><path d="m1180 1613c-50 0-91-42-91-92s40-91 91-91c52 0 92 40 92 91 0 52-42 92-92 92zm0-135c-23 0-43 20-43 43 0 24 20 43 43 43 24 0 43-19 43-43 0-23-19-43-43-43z"/></g><g><path d="m1153 159h-157c-14 0-25-11-25-25s11-25 25-25h157c13 0 25 11 25 25s-12 25-25 25z"/></g><g><g><path d="m1153 324h-157c-14 0-25-11-25-25s11-25 25-25h157c13 0 25 11 25 25s-12 25-25 25z"/></g><g><path d="m1153 492h-157c-14 0-25-11-25-25s11-25 25-25h157c13 0 25 11 25 25s-12 25-25 25z"/></g></g><g><path d="m1153 658h-157c-14 0-25-12-25-25 0-14 11-25 25-25h157c13 0 25 11 25 25 0 13-12 25-25 25z"/></g><g><path d="m1153 824h-157c-14 0-25-11-25-25s11-25 25-25h157c13 0 25 11 25 25s-12 25-25 25z"/></g><g><path d="m1153 991h-157c-14 0-25-11-25-25s11-25 25-25h157c13 0 25 11 25 25s-12 25-25 25z"/></g><g><path d="m1153 1157h-157c-14 0-25-11-25-25 0-13 11-25 25-25h157c13 0 25 12 25 25 0 14-12 25-25 25z"/></g><g><path d="m1153 1324h-157c-14 0-25-11-25-25s11-25 25-25h157c13 0 25 11 25 25s-12 25-25 25z"/></g><g><path d="m1073 242h-77c-14 0-25-11-25-25s11-25 25-25h77c14 0 25 11 25 25s-11 25-25 25z"/></g><g><path d="m1073 409h-77c-14 0-25-11-25-25s11-25 25-25h77c14 0 25 11 25 25s-11 25-25 25z"/></g><g><path d="m1073 574h-77c-14 0-25-11-25-25s11-25 25-25h77c14 0 25 11 25 25s-11 25-25 25z"/></g><g><path d="m1073 742h-77c-14 0-25-11-25-25s11-25 25-25h77c14 0 25 11 25 25s-11 25-25 25z"/></g><g><path d="m1073 907h-77c-14 0-25-11-25-25 0-13 11-25 25-25h77c14 0 25 12 25 25 0 14-11 25-25 25z"/></g><g><path d="m1073 1074h-77c-14 0-25-11-25-25s11-25 25-25h77c14 0 25 11 25 25s-11 25-25 25z"/></g><g><path d="m1073 1241h-77c-14 0-25-11-25-25s11-25 25-25h77c14 0 25 11 25 25s-11 25-25 25z"/></g><g><path d="m1073 1407h-77c-14 0-25-11-25-25 0-13 11-25 25-25h77c14 0 25 12 25 25 0 14-11 25-25 25z"/></g></g></g></g></g></svg>