<svg xmlns="http://www.w3.org/2000/svg" version="1.1" xmlns:xlink="http://www.w3.org/1999/xlink" width="512" height="512" x="0" y="0" viewBox="0 0 2048 2048" style="enable-background:new 0 0 512 512" xml:space="preserve" class=""><g transform="matrix(1.3199999999999994,0,0,1.3199999999999994,-327.679599609374,-327.672031249999)"><path d="M1024 1105.974c-85.453 0-165.79-33.277-226.214-93.701s-93.701-140.762-93.701-226.214 33.277-165.79 93.701-226.214C858.21 499.42 938.548 466.143 1024 466.143s165.79 33.277 226.214 93.701 93.701 140.762 93.701 226.214c0 85.453-33.277 165.791-93.701 226.214s-140.762 93.702-226.214 93.702zm0-591.831c-149.935 0-271.915 121.98-271.915 271.915s121.98 271.916 271.915 271.916 271.915-121.981 271.915-271.916S1173.935 514.143 1024 514.143z" fill="#ffffff" opacity="1" data-original="#000000"></path><path d="M878.933 1316.165c-8.637 0-17.264-1.199-25.866-3.992-36.99-12.012-58.191-48.228-76.897-80.18-11.995-20.49-24.398-41.678-38.438-51.895-14.345-10.44-38.573-15.793-62.004-20.97-35.897-7.932-76.584-16.921-99.163-47.945-22.351-30.712-18.585-70.188-14.944-108.364 2.297-24.081 4.672-48.981-.926-66.222-5.201-16.016-20.563-33.265-36.826-51.527-24.806-27.853-52.921-59.423-52.921-99.013 0-39.589 28.115-71.159 52.921-99.012 16.264-18.261 31.625-35.51 36.826-51.527 5.598-17.241 3.222-42.141.925-66.222-3.642-38.176-7.407-77.652 14.945-108.365 22.578-31.024 63.265-40.014 99.163-47.945 23.43-5.177 47.659-10.53 62.004-20.97 14.038-10.217 26.441-31.404 38.437-51.894 18.706-31.953 39.907-68.169 76.896-80.179 35.519-11.533 71.538 4.098 106.373 19.214 22.529 9.776 45.825 19.885 64.561 19.885s42.032-10.109 64.561-19.885c34.834-15.116 70.852-30.748 106.372-19.214 36.99 12.01 58.192 48.227 76.897 80.18 11.995 20.489 24.398 41.676 38.437 51.893 14.346 10.44 38.574 15.793 62.005 20.97 35.897 7.932 76.585 16.921 99.163 47.945 22.352 30.712 18.586 70.188 14.944 108.365-2.297 24.081-4.672 48.981.926 66.222 5.2 16.016 20.562 33.265 36.825 51.527 24.806 27.854 52.921 59.423 52.921 99.012s-28.115 71.159-52.921 99.012c-16.264 18.262-31.625 35.51-36.825 51.527-5.598 17.241-3.223 42.141-.926 66.222 3.642 38.176 7.407 77.653-14.944 108.365-22.578 31.024-63.266 40.014-99.163 47.945-23.431 5.177-47.659 10.529-62.005 20.97-14.038 10.217-26.441 31.404-38.437 51.894-18.705 31.953-39.906 68.169-76.896 80.18-35.517 11.532-71.538-4.099-106.373-19.215-22.528-9.775-45.824-19.885-64.561-19.885s-42.032 10.109-64.561 19.886c-26.397 11.455-53.48 23.205-80.505 23.207zm.04-1012.179c-3.95 0-7.659.5-11.083 1.613-19.618 6.37-35.214 33.011-50.296 58.775-14.486 24.746-29.466 50.334-51.616 66.454-22.449 16.337-51.652 22.79-79.894 29.029-28.922 6.39-58.83 12.998-70.708 29.32-11.652 16.01-8.893 44.937-5.972 75.562 2.762 28.953 5.618 58.892-3.055 85.603-8.311 25.596-27.793 47.472-46.635 68.627-20.042 22.504-40.766 45.774-40.766 67.088s20.725 44.585 40.767 67.089c18.841 21.156 38.323 43.031 46.634 68.627 8.673 26.711 5.817 56.65 3.056 85.604-2.921 30.625-5.681 59.551 5.971 75.562 11.878 16.321 41.786 22.93 70.708 29.319 28.242 6.24 57.445 12.692 79.894 29.029 22.15 16.12 37.13 41.709 51.616 66.455 15.083 25.764 30.68 52.405 50.297 58.775 18.242 5.93 44.57-5.499 72.44-17.594 27.023-11.727 54.967-23.853 83.669-23.853s56.645 12.126 83.668 23.853c27.871 12.094 54.197 23.519 72.441 17.593 19.618-6.369 35.215-33.011 50.297-58.775 14.486-24.746 29.467-50.334 51.616-66.454 22.448-16.337 51.651-22.789 79.894-29.029 28.923-6.39 58.829-12.998 70.708-29.319 11.652-16.011 8.893-44.938 5.972-75.563-2.762-28.953-5.618-58.893 3.055-85.603 8.312-25.596 27.793-47.472 46.634-68.627 20.042-22.504 40.767-45.775 40.767-67.089s-20.725-44.584-40.767-67.089c-18.841-21.155-38.322-43.031-46.634-68.626-8.673-26.711-5.816-56.65-3.055-85.603 2.921-30.625 5.681-59.552-5.972-75.562-11.879-16.322-41.785-22.93-70.708-29.32-28.242-6.24-57.445-12.692-79.894-29.029-22.149-16.12-37.13-41.708-51.616-66.454-15.083-25.765-30.679-52.406-50.298-58.776-18.246-5.927-44.57 5.5-72.44 17.594-27.022 11.726-54.966 23.852-83.668 23.852s-56.645-12.125-83.668-23.852c-22.641-9.824-44.261-19.206-61.359-19.206z" fill="#ffffff" opacity="1" data-original="#000000"></path><path d="M857.488 1792a24 24 0 0 1-22.526-15.734l-80.797-220.253-188.017 140.327a24.002 24.002 0 0 1-37.36-26.074l158.2-532.094c3.777-12.704 17.138-19.943 29.845-16.165 12.705 3.777 19.942 17.14 16.165 29.845l-137.583 462.749 155.839-116.312a23.997 23.997 0 0 1 36.886 10.968l66.967 182.553L988.5 1243.172c3.778-12.705 17.141-19.942 29.845-16.165 12.706 3.777 19.943 17.14 16.165 29.845L880.5 1774.84a24.001 24.001 0 0 1-23.012 17.16z" fill="#ffffff" opacity="1" data-original="#000000"></path><path d="M1190.511 1792a24 24 0 0 1-23.01-17.16l-154-517.988c-3.777-12.706 3.46-26.067 16.165-29.845 12.711-3.772 26.067 3.46 29.845 16.165l133.381 448.637 66.967-182.551a24.001 24.001 0 0 1 36.887-10.968l155.838 116.311-137.583-462.748c-3.777-12.705 3.46-26.067 16.165-29.845 12.705-3.772 26.067 3.46 29.845 16.165l158.2 532.094a24.001 24.001 0 0 1-37.361 26.074l-188.016-140.327-80.797 220.253a24 24 0 0 1-22.526 15.733zM919.896 959.943a24.001 24.001 0 0 1-23.455-29.097l22.625-104.098-79.491-70.917a24 24 0 0 1 13.578-41.788l105.994-10.65 42.882-97.515a24.001 24.001 0 0 1 43.94 0l42.883 97.515 105.994 10.65a24.002 24.002 0 0 1 13.578 41.789l-79.492 70.917 22.626 104.098a24 24 0 0 1-35.547 25.827L1024 902.986l-92.011 53.687a23.977 23.977 0 0 1-12.093 3.27zm-7.641-203.598 49.215 43.907a24.001 24.001 0 0 1 7.476 23.006l-14.008 64.451 56.967-33.239a24.001 24.001 0 0 1 24.19 0l56.968 33.239-14.009-64.45a23.998 23.998 0 0 1 7.475-23.006l49.217-43.907-65.625-6.594a24 24 0 0 1-19.57-14.219L1024 675.158l-26.55 60.375a24 24 0 0 1-19.57 14.219z" fill="#ffffff" opacity="1" data-original="#000000"></path></g></svg>