<svg id="Layer_1" viewBox="0 0 512 512" fill="white" xmlns="http://www.w3.org/2000/svg" data-name="Layer 1"><path d="m491.187 208.875c1.121.688 2.39 1.033 3.659 1.033 1.177 0 2.355-.296 3.419-.892 2.212-1.238 3.581-3.574 3.581-6.108v-41.414c0-2.435-1.265-4.694-3.34-5.967l-238.846-146.494c-2.246-1.377-5.074-1.377-7.32 0l-238.846 146.494c-2.075 1.272-3.34 3.532-3.34 5.967v41.414c0 2.534 1.369 4.87 3.581 6.108 2.209 1.238 4.916 1.185 7.078-.141l31.436-19.277v286.426c0 3.866 3.134 7 7 7h206.722l8.784 8.757c1.929 1.923 4.797 2.552 7.354 1.615l7.869-2.887 4.41 1.822 3.501 7.599c1.143 2.481 3.625 4.071 6.357 4.071h12.953c.066 0 .129-.012.195-.014.27.011.512.014.684.014h169.426c7.908 0 14.342-6.446 14.342-14.37v-216.623c0-7.924-6.434-14.37-14.342-14.37h-27.752v-69.039zm-467.033-43.463 231.846-142.2 231.846 142.2v24.992l-228.187-139.929c-1.122-.688-2.391-1.033-3.659-1.033s-2.537.344-3.659 1.033l-228.187 139.929zm370.543 89.454c0-4.471 3.625-8.108 8.08-8.108s8.08 3.637 8.08 8.108c0 3.866 3.134 7 7 7h22.622v16.161h-75.376v-16.161h22.594c3.866 0 7-3.134 7-7zm16.5-22.108h-310.394v-16.728h310.395v16.728zm-310.394 14h281.448c-.146.367-.294.732-.42 1.108h-23.728c-3.866 0-7 3.134-7 7v3.771h-33.025c-4.282 0-8.123 1.893-10.757 4.875h-206.518v-16.755zm0 30.755h202.906v111.84c-2.516.194-4.753 1.715-5.82 4.032l-3.506 7.608-4.405 1.833-7.854-2.902c-2.56-.947-5.443-.316-7.377 1.616l-9.155 9.156c-1.932 1.933-2.563 4.812-1.616 7.376l2.902 7.853-1.833 4.406-7.608 3.505c-2.481 1.143-4.071 3.625-4.071 6.358v12.954c0 2.732 1.59 5.215 4.071 6.358l7.608 3.504 1.833 4.406-.594 1.607h-16.011v-142.47c0-3.866-3.134-7-7-7h-142.47v-42.041zm74.72 116.79v-60.749h23.389v11.34c0 3.866 3.134 7 7 7s7-3.134 7-7v-11.34h23.36v60.749zm-74.72 0v-60.749h23.36v11.34c0 3.866 3.134 7 7 7s7-3.134 7-7v-11.34h23.36v60.749h-60.721zm0 14h23.36v11.34c0 3.866 3.134 7 7 7s7-3.134 7-7v-11.34h23.36v60.721h-60.721v-60.721zm74.72 60.721v-60.721h23.389v11.34c0 3.866 3.134 7 7 7s7-3.134 7-7v-11.34h23.36v60.721zm137.194 20.976h-3.988l-2.774-6.021c-.738-1.602-2.054-2.867-3.685-3.541l-9.468-3.912c-1.622-.67-3.437-.706-5.084-.102l-6.24 2.289-2.812-2.805 2.298-6.219c.612-1.657.575-3.484-.104-5.115l-3.939-9.468c-.676-1.624-1.938-2.933-3.534-3.669l-6.021-2.773v-3.989l6.021-2.773c1.597-.736 2.858-2.045 3.534-3.669l3.939-9.468c.679-1.631.716-3.458.104-5.115l-2.301-6.226 2.814-2.815 6.226 2.301c1.658.612 3.485.576 5.116-.104l9.468-3.94c1.623-.675 2.933-1.937 3.668-3.533l2.774-6.021h3.988l2.774 6.021c.735 1.597 2.045 2.858 3.668 3.533l9.468 3.94c1.632.679 3.461.716 5.116.104l6.218-2.298 2.805 2.813-2.289 6.24c-.604 1.647-.568 3.462.102 5.084l3.912 9.468c.674 1.63 1.938 2.946 3.541 3.685l6.021 2.773v3.989l-6.021 2.773c-1.603.738-2.867 2.054-3.541 3.685l-3.912 9.468c-.67 1.622-.706 3.437-.102 5.084l2.286 6.233-2.803 2.803-6.232-2.287c-1.649-.604-3.464-.568-5.084.102l-9.468 3.912c-1.631.674-2.946 1.938-3.685 3.541l-2.774 6.021zm175.129-216.992v216.623c0 .193-.163.37-.342.37h-139.034l7.354-7.354c1.929-1.928 2.562-4.801 1.622-7.361l-2.887-7.87 1.821-4.409 7.6-3.5c2.481-1.143 4.071-3.625 4.071-6.358v-12.954c0-2.732-1.59-5.215-4.071-6.358l-7.599-3.5-1.822-4.409 2.887-7.869c.938-2.557.309-5.425-1.614-7.353l-9.128-9.156c-1.933-1.939-4.819-2.571-7.384-1.624l-7.853 2.902-4.405-1.833-3.506-7.608c-1.07-2.325-3.321-3.849-5.848-4.034v-116.343c0-.187.183-.37.369-.37h33.025v12.389c0 3.866 3.134 7 7 7h89.376c3.866 0 7-3.134 7-7v-12.389h33.024c.179 0 .342.176.342.37zm-42.094-25.142h-20.555v-38.836c0-3.866-3.134-7-7-7h-324.394c-3.866 0-7 3.134-7 7v259.994h-20.554v-288.011l189.751-116.36 189.752 116.36zm-175.182-70.273h36.283c3.866 0 7-3.134 7-7v-36.284c0-3.866-3.134-7-7-7h-36.283c-3.866 0-7 3.134-7 7v36.284c0 3.866 3.134 7 7 7zm7-36.284h22.283v22.284h-22.283zm-36.14-14h-36.283c-3.866 0-7 3.134-7 7v36.284c0 3.866 3.134 7 7 7h36.283c3.866 0 7-3.134 7-7v-36.284c0-3.866-3.134-7-7-7zm-7 36.284h-22.283v-22.284h22.283zm101.639 283.064c0-6.773-2.639-13.142-7.429-17.932-4.79-4.791-11.159-7.43-17.933-7.43s-13.142 2.638-17.933 7.429c-9.887 9.888-9.887 25.976 0 35.864 4.79 4.791 11.159 7.429 17.932 7.429s13.142-2.638 17.933-7.429c4.79-4.791 7.429-11.159 7.429-17.932zm-17.329 8.033c-2.146 2.146-4.998 3.328-8.032 3.328s-5.886-1.182-8.032-3.328c-4.429-4.43-4.429-11.637 0-16.065 2.146-2.146 4.999-3.329 8.032-3.329s5.887 1.182 8.033 3.329 3.328 4.999 3.328 8.033-1.183 5.886-3.329 8.033zm23.094-136.385c0-3.866 3.134-7 7-7h14.259c3.866 0 7 3.134 7 7s-3.134 7-7 7h-14.259c-3.866 0-7-3.134-7-7zm121.915 28.261c0 3.866-3.134 7-7 7h-107.915c-3.866 0-7-3.134-7-7s3.134-7 7-7h107.915c3.866 0 7 3.134 7 7zm0 28.262c0 3.866-3.134 7-7 7h-107.915c-3.866 0-7-3.134-7-7s3.134-7 7-7h107.915c3.866 0 7 3.134 7 7zm0 28.289c0 3.866-3.134 7-7 7h-84.954c-3.866 0-7-3.134-7-7s3.134-7 7-7h84.954c3.866 0 7 3.134 7 7zm0 28.261c0 3.866-3.134 7-7 7h-72.907c-3.866 0-7-3.134-7-7s3.134-7 7-7h72.907c3.866 0 7 3.134 7 7zm0 28.262c0 3.866-3.134 7-7 7h-72.907c-3.866 0-7-3.134-7-7s3.134-7 7-7h72.907c3.866 0 7 3.134 7 7zm-7-148.335c3.866 0 7 3.134 7 7s-3.134 7-7 7h-68.286c-3.866 0-7-3.134-7-7s3.134-7 7-7z"/></svg>