<svg id="_x2018_лой_x5F_1" enable-background="new 0 0 512 512" height="512" viewBox="0 0 512 512" width="512" xmlns="http://www.w3.org/2000/svg"><g id="Слой_2_1_"><g fill="rgb(0,0,0)"><g><path d="m320.113 360.666c-2.114 0-4.227-.806-5.839-2.419-3.225-3.225-3.225-8.454 0-11.679l111.882-111.882c3.841-3.841 5.957-8.948 5.957-14.38s-2.115-10.539-5.957-14.38c-7.93-7.929-20.831-7.929-28.761 0l-98.403 98.403c-3.225 3.225-8.454 3.225-11.679 0s-3.225-8.454 0-11.679l98.402-98.403c14.369-14.369 37.749-14.369 52.118 0 6.96 6.96 10.794 16.215 10.794 26.059s-3.833 19.099-10.794 26.059l-111.882 111.883c-1.611 1.611-3.725 2.418-5.838 2.418z"/><path d="m293.153 306.747c-2.113 0-4.227-.806-5.839-2.418-3.225-3.225-3.225-8.454 0-11.679l122.666-122.667c7.929-7.929 7.929-20.831 0-28.761-3.841-3.841-8.948-5.957-14.38-5.957s-10.539 2.115-14.38 5.957l-122.667 122.667c-3.225 3.225-8.454 3.225-11.679 0s-3.225-8.454 0-11.679l122.666-122.666c6.96-6.96 16.215-10.794 26.059-10.794s19.099 3.833 26.059 10.794 10.794 16.215 10.794 26.059-3.833 19.099-10.794 26.059l-122.666 122.666c-1.612 1.612-3.726 2.419-5.839 2.419z"/><path d="m193.402 512c-18.708 0-36.946-3.549-54.209-10.55-17.877-7.249-33.913-17.897-47.663-31.647-17.858-17.858-30.752-40.191-37.288-64.585s-6.536-50.182 0-74.576l49.938-186.37c1.362-5.082 4.621-9.329 9.177-11.96s9.864-3.329 14.946-1.967c13.935 3.734 25.582 12.671 32.795 25.165s9.13 27.049 5.396 40.984l-12.997 48.507c-.838 3.126.502 6.474 3.259 8.141l.219.133c2.923 1.777 6.636 1.346 9.029-1.048l139.172-139.195c6.961-6.961 16.216-10.795 26.059-10.795 9.844 0 19.098 3.833 26.059 10.794 14.369 14.369 14.369 37.749 0 52.118l-98.74 98.739c-3.225 3.225-8.454 3.225-11.679 0s-3.225-8.454 0-11.679l98.74-98.739c7.929-7.929 7.929-20.832 0-28.761-7.93-7.93-20.831-7.93-28.761 0l-139.172 139.195c-7.793 7.797-19.838 9.23-29.288 3.485l-.195-.118c-4.445-2.689-7.822-6.666-9.759-11.496-1.933-4.822-2.244-10.025-.898-15.047l12.997-48.507c5.351-19.97-6.542-40.57-26.512-45.921-1.694-.453-3.441.555-3.895 2.249l-49.938 186.37c-11.757 43.877.893 91.087 33.013 123.207 24.092 24.092 56.123 37.36 90.194 37.36s66.102-13.268 90.194-37.36l131.775-131.776c3.841-3.841 5.957-8.948 5.957-14.38s-2.115-10.539-5.957-14.38c-7.929-7.929-20.831-7.93-28.761 0l-60.659 60.659c-3.225 3.225-8.454 3.225-11.679 0s-3.225-8.454 0-11.679l60.659-60.659c14.369-14.369 37.749-14.369 52.118 0 6.96 6.961 10.794 16.215 10.794 26.059s-3.833 19.099-10.794 26.059l-131.773 131.774c-13.75 13.75-29.786 24.398-47.663 31.647-17.263 7.001-35.502 10.55-54.21 10.55z"/></g><g><path d="m355.16 131.675c-.708 0-1.426-.092-2.142-.284-4.405-1.18-7.02-5.709-5.839-10.114l8.363-31.21c2.902-10.832-3.549-22.005-14.38-24.908-5.247-1.406-10.728-.684-15.432 2.032-4.705 2.716-8.069 7.102-9.476 12.349-1.18 4.405-5.709 7.02-10.114 5.839-4.406-1.18-7.02-5.709-5.84-10.114 2.548-9.508 8.646-17.455 17.171-22.377s18.456-6.229 27.965-3.682c19.628 5.259 31.318 25.507 26.059 45.135l-8.363 31.21c-.989 3.691-4.326 6.124-7.972 6.124z"/><path d="m226.363 170.424c-.708 0-1.427-.092-2.142-.284-4.406-1.18-7.02-5.709-5.839-10.114l35.558-132.707c5.259-19.628 25.506-31.319 45.135-26.059 9.508 2.548 17.455 8.646 22.377 17.171s6.229 18.457 3.682 27.965l-25.062 93.534c-1.18 4.405-5.708 7.02-10.114 5.839-4.405-1.18-7.02-5.709-5.839-10.114l25.062-93.534c1.406-5.247.684-10.728-2.032-15.432-2.716-4.705-7.101-8.07-12.349-9.476-10.832-2.902-22.005 3.549-24.908 14.38l-35.559 132.708c-.987 3.69-4.324 6.123-7.97 6.123z"/><path d="m72.566 302.405c-3.646 0-6.983-2.433-7.971-6.123l-33.1-123.527c-1.362-5.082-.663-10.389 1.968-14.946 2.631-4.556 6.878-7.815 11.959-9.177 12.939-3.467 26.628-2.021 38.546 4.07 11.828 6.045 20.979 16.168 25.766 28.503 1.65 4.252-.459 9.036-4.71 10.686s-9.036-.459-10.686-4.71c-6.926-17.845-26.117-27.56-44.641-22.596-1.107.297-1.685 1.056-1.931 1.482s-.614 1.306-.318 2.413l33.099 123.527c1.18 4.406-1.434 8.933-5.839 10.114-.716.193-1.435.284-2.142.284z"/><path d="m146.994 245.731c-.707 0-1.426-.092-2.142-.283-4.405-1.18-7.02-5.708-5.84-10.113l50.928-190.132c5.26-19.629 25.507-31.319 45.136-26.06 9.508 2.548 17.455 8.646 22.377 17.171s6.229 18.456 3.682 27.965c-1.18 4.405-5.709 7.019-10.114 5.839s-7.02-5.709-5.839-10.114c1.406-5.247.684-10.728-2.032-15.432-2.716-4.705-7.102-8.07-12.349-9.476-10.832-2.903-22.005 3.549-24.908 14.38l-50.928 190.131c-.987 3.69-4.324 6.124-7.971 6.124z"/></g><g><path d="m142.607 73.497c-4.561 0-8.258-3.697-8.258-8.258v-56.98c0-4.561 3.697-8.258 8.258-8.258s8.258 3.697 8.258 8.258v56.98c0 4.561-3.697 8.258-8.258 8.258z"/><path d="m104.62 111.484h-56.98c-4.561 0-8.258-3.697-8.258-8.258s3.697-8.258 8.258-8.258h56.98c4.561 0 8.258 3.697 8.258 8.258s-3.697 8.258-8.258 8.258z"/><path d="m115.769 84.645c-2.116 0-4.231-.808-5.844-2.423l-53.677-53.763c-3.222-3.228-3.218-8.456.009-11.679 3.227-3.222 8.456-3.219 11.679.009l53.677 53.763c3.222 3.228 3.218 8.456-.009 11.679-1.613 1.61-3.724 2.414-5.835 2.414z"/></g><g><path d="m377.96 495.232c-4.561 0-8.258-3.697-8.258-8.258v-56.98c0-4.561 3.697-8.258 8.258-8.258s8.258 3.697 8.258 8.258v56.98c0 4.561-3.698 8.258-8.258 8.258z"/><path d="m472.926 400.266h-56.98c-4.561 0-8.258-3.697-8.258-8.258s3.697-8.258 8.258-8.258h56.98c4.561 0 8.258 3.697 8.258 8.258s-3.697 8.258-8.258 8.258z"/><path d="m454.346 476.9c-2.113 0-4.227-.806-5.839-2.419l-49.548-49.548c-3.225-3.225-3.225-8.454 0-11.679s8.454-3.225 11.679 0l49.548 49.548c3.225 3.225 3.225 8.454 0 11.679-1.613 1.613-3.727 2.419-5.84 2.419z"/></g></g></g></svg>