<svg id="Layer_5" enable-background="new 0 0 62 62" fill="white" height="512" viewBox="0 0 62 62" width="512" xmlns="http://www.w3.org/2000/svg"><g><path d="m62 45v-1h-2v-8h-2v-4h-2v4h-2v-2h-2v2h-1.883l-1 8h-1.617l-1.5 2v-4h-2v-6h-10v6h-2v6h-2v1c0 2.586 1.094 4.969 2.967 6.658-.51.205-1.106.342-1.967.342v2c2.017 0 3.069-.601 3.998-1.132.815-.466 1.521-.868 3.006-.868s2.19.402 3.006.868c.928.531 1.981 1.132 3.998 1.132 2.016 0 3.068-.602 3.996-1.132.815-.466 1.519-.868 3.003-.868 1.482 0 2.187.402 3.001.868.927.53 1.978 1.132 3.992 1.132v-2c-1.071 0-1.734-.211-2.328-.504 3.324-2.429 5.328-6.309 5.328-10.496zm-10.117-7h6.117v6h-6.867zm-15.883 0h6v4h-6zm-2 6h10v4h-10zm14.012 11.132c-.816.466-1.52.868-3.004.868-1.485 0-2.19-.402-3.006-.868-.929-.531-1.981-1.132-3.998-1.132-1.417 0-2.354.298-3.111.659-1.546-1.121-2.558-2.787-2.823-4.659h13.43l3-4h11.455c-.318 3.501-2.304 6.633-5.347 8.443-.668-.255-1.483-.443-2.601-.443-2.015 0-3.068.601-3.995 1.132z"/><path d="m52.007 58c-.905 0-1.224.155-2.011.604-1.03.589-2.439 1.396-4.988 1.396-2.547 0-3.959-.806-4.99-1.395-.788-.45-1.106-.605-2.014-.605s-1.227.155-2.015.605c-1.03.589-2.442 1.395-4.989 1.395v2c3.078 0 4.896-1.038 5.981-1.658.599-.342.599-.342 1.023-.342s.424 0 1.022.342c1.086.62 2.904 1.658 5.982 1.658 3.08 0 4.896-1.039 5.981-1.659.597-.341.597-.341 1.018-.341.42 0 .42 0 1.017.342 1.085.62 2.901 1.658 5.976 1.658v-2c-2.544 0-3.954-.806-4.985-1.396-.786-.449-1.103-.604-2.008-.604z"/><path d="m13 14h6v2h-6z"/><path d="m12.011 42h10.958c.728 3.912 1.836 7.254 3.233 9.535l1.705-1.044c-1.24-2.026-2.236-4.992-2.913-8.491h5.006v-2h-5.349c-.376-2.495-.596-5.202-.639-8h13.966c-.01.655-.015 1.316-.044 1.951l1.998.092c.03-.666.036-1.357.046-2.043h15.022v-1c0-13.233-10.767-24-24-24-1.762 0-3.52.192-5.227.571l.434 1.952c1.564-.347 3.177-.523 4.793-.523 2.259 0 4.691 4.21 6.011 11h-12.195c.076-.213.125-.437.151-.669l7.033-2.638v-4.693h-9.405c-.6-1.181-1.814-2-3.227-2h-.463l-.138-1.385 5.233-.748v-4.867h-5.795l-.3-3h-3.811l-.3 3h-5.794v4.867l5.233.748-.138 1.385h-.463c-1.413 0-2.627.819-3.227 2h-9.405v4.693l7.033 2.638c.168 1.497 1.426 2.669 2.967 2.669.956 0 1.815-.462 2.365-1.177 1.042.74 2.3 1.177 3.635 1.177s2.593-.438 3.635-1.177c.55.715 1.409 1.177 2.365 1.177h15.356c.364 2.415.583 5.107.626 8h-13.955c.031-2.009.133-3.991.344-5.89l-1.988-.221c-.219 1.972-.325 4.028-.356 6.111h-12.989c.087-1.943.411-3.856.999-5.696l-1.904-.608c-.752 2.352-1.133 4.809-1.133 7.304 0 12.374 9.646 22.878 21.962 23.915l.168-1.993c-7.325-.617-13.602-4.899-17.119-10.922zm17.989-26.693-5.49 2.058c-.456-.699-1.196-1.187-2.055-1.32l.404-1.416c.059-.206.093-.417.115-.63h7.026zm-8-10.307v1.133l-3.432.491-.163-1.624zm-12 1.133v-1.133h3.595l-.162 1.623zm5.905-4.133h.189l.8 8h-1.79zm-13.905 12h7.026c.022.212.055.423.114.629l.405 1.417c-.858.132-1.598.621-2.054 1.32l-5.491-2.059zm8 6c-.552 0-1-.449-1-1 0-.606.556-1.092 1.164-.979.195.488.438.948.741 1.364-.152.36-.499.615-.905.615zm1.863-3.121-.801-2.8c-.041-.145-.062-.296-.062-.448 0-.899.732-1.631 1.632-1.631h6.736c.9 0 1.632.732 1.632 1.631 0 .151-.021.302-.063.448l-.8 2.799c-.525 1.839-2.226 3.122-4.137 3.122s-3.612-1.283-4.137-3.121zm9.232 2.506c.303-.416.546-.875.741-1.364.606-.112 1.164.374 1.164.979 0 .551-.448 1-1 1-.406 0-.753-.255-.905-.615zm1.539 20.615h-11.657c-1.124-2.473-1.798-5.173-1.929-8h12.963c.043 2.779.256 5.484.623 8zm12.453-30.609c6.384 1.205 11.803 5.169 14.958 10.609h-11.007c-.817-4.436-2.144-8.275-3.951-10.609zm4.278 12.609h11.698c1.109 2.462 1.786 5.16 1.914 8h-12.985c-.042-2.702-.254-5.422-.627-8z"/><path d="m56.118 24.259.62 2.318 4.126-7.073-1.729-1.008-1.774 3.044c-1.921-5.343-5.457-10.026-10.125-13.354l-1.16 1.629c4.921 3.508 8.487 8.638 10.042 14.444z"/><path d="m45.52 7.054c-.666-.405-1.364-.79-2.074-1.143l-.891 1.791c.659.328 1.308.685 1.926 1.061z"/><path d="m41.371 4.984c-.681-.271-1.379-.519-2.075-.734l-.592 1.911c.646.2 1.294.429 1.925.681z"/><path d="m5.882 37.741-.62-2.318-4.126 7.073 1.729 1.008 1.774-3.044c1.921 5.343 5.457 10.026 10.125 13.354l1.16-1.629c-4.921-3.508-8.487-8.638-10.042-14.444z"/><path d="m16.48 54.946c.666.405 1.364.79 2.074 1.143l.891-1.791c-.659-.328-1.308-.685-1.926-1.061z"/><path d="m20.629 57.016c.681.271 1.379.519 2.075.734l.592-1.911c-.646-.2-1.294-.429-1.925-.681z"/></g></svg>