<svg height="512" viewBox="0 0 32 32" width="512" xmlns="http://www.w3.org/2000/svg"><g id="fast_forward"><g><path d="m30.7744141 16.6328125-9 11c-.1904297.2324219-.4746094.3671875-.7744141.3671875h-7c-.3867188 0-.7382813-.2226563-.9033203-.5712891-.1660156-.3496094-.1152344-.7626953.1289063-1.0615234l8.4824218-10.3671875-8.4824219-10.3671875c-.2441406-.2988281-.2949219-.7119141-.1289063-1.0615234.1650392-.3486328.5166017-.5712891.9033204-.5712891h7c.2998047 0 .5839844.1347656.7744141.3671875l9 11c.3007812.3681641.3007812.8974609 0 1.265625z" fill="#66bb6a"/><path d="m18.7744141 15.3671875-9-11c-.1904297-.2324219-.4746094-.3671875-.7744141-.3671875h-7c-.3867187 0-.7382812.2226563-.9033203.5712891-.1660156.3496093-.1152344.7626953.1289062 1.0615234l8.4824219 10.3671875-8.4824219 10.3671875c-.2441406.2988281-.2949219.7119141-.1289063 1.0615234.1650392.3486329.5166017.5712891.9033204.5712891h7c.2998047 0 .5839844-.1347656.7744141-.3671875l9-11c.3007812-.3681641.3007812-.8974609 0-1.265625z" fill="#66bb6a"/><g opacity=".1"><path d="m31 16c0 .2197266-.0800781.4404297-.2304688.6298828l-9 11c-.1894531.2402344-.4697265.3701172-.7695312.3701172h-7c-.3896484 0-.7402344-.2197266-.9003906-.5703125-.1699219-.3496094-.1191406-.7597656.1308594-1.0595703l8.4794921-10.3701172z"/><path d="m19 16c0 .2197266-.0800781.4404297-.2304688.6298828l-9 11c-.1894531.2402344-.4697265.3701172-.7695312.3701172h-7c-.3896484 0-.7402344-.2197266-.9003906-.5703125-.1699219-.3496094-.1191406-.7597656.1308594-1.0595703l8.4794921-10.3701172z"/></g></g></g></svg>