<svg xmlns="http://www.w3.org/2000/svg" version="1.1" xmlns:xlink="http://www.w3.org/1999/xlink" width="512" height="512" x="0" y="0" viewBox="0 0 510 510" style="enable-background:new 0 0 512 512" xml:space="preserve" fill-rule="evenodd" class=""><g transform="matrix(1.02,0,0,1.02,-5.10004356384249,-5.099943237304615)"><path d="m158.174 451.723 5.897 10.42.011.02c5.193 9.237 1.899 21.023-7.284 26.21l-21.427 12.145-.024.013c-9.237 5.193-21.024 1.9-26.213-7.289L46.125 381.907c-5.241-9.246-1.947-21.043 7.249-26.237l21.452-12.144.007-.004c9.191-5.192 20.982-1.929 26.216 7.262l.01.019 4.749 8.391 55.757-32.281c16.972-9.816 34.32-16.194 52.962-10.14 18.027 5.845 47.457 18.448 77.493 23.876a8.1 8.1 0 0 1 1.042.261c15.376 4.979 24.715 20.529 20.517 36.142a34.164 34.164 0 0 1-2.146 5.863c2.939-.907 5.821-2.174 8.658-3.827l76.402-44.497c27.807-16.2 46.353-14.384 56.846-7.343 9.08 6.091 13.295 16.488 13.024 26.698-.275 10.319-5.203 20.17-13.295 25.154l-138.634 85.355c-14.682 9.061-30.764 11.19-47.425 6.745l-.009-.002-97.363-26.094zm-44.485-78.603 36.604 64.678 14.213-8.207a8.002 8.002 0 0 1 6.071-.8l100.558 26.95c12.256 3.269 24.096 1.764 34.896-4.902l.008-.004 138.639-85.359c3.766-2.319 5.563-7.153 5.69-11.955.151-5.686-2.224-11.709-8.236-14.211-7.891-3.283-19.999-1.139-37.586 9.106l-76.399 44.496c-12.336 7.189-25.264 9.179-39.354 6.936l-.028-.004-9.471-1.541-.01-.002a8.795 8.795 0 0 1-.324-.06l-.011-.002c-17.25-3.541-33.248-8.751-51-13.522-4.264-1.146-6.796-5.538-5.65-9.802s5.538-6.796 9.802-5.65c17.317 4.654 32.928 9.758 49.739 13.234 8.292.912 14.379-2.493 16.286-9.598l.001-.004c1.931-7.176-2.573-14.123-9.539-16.61-30.631-5.628-60.61-18.333-78.999-24.295l-.003-.001c-14.16-4.599-27.118 1.316-40.011 8.772zm-26.546-14.421c-.888-1.557-2.883-2.126-4.441-1.246l-21.446 12.141-.007.003c-1.548.875-2.087 2.864-1.205 4.42l.003.004 63.011 111.341.004.006c.878 1.555 2.876 2.094 4.439 1.219l21.407-12.134.011-.005c1.555-.879 2.094-2.878 1.218-4.441zm-7.686 11.508c4.863-.724 9.379 2.634 10.103 7.497.694 4.863-2.663 9.408-7.526 10.103-4.864.723-9.379-2.663-10.103-7.526-.695-4.864 2.663-9.379 7.526-10.074zm72.94-116.429a76.17 76.17 0 0 1-5.915.229c-41.585 0-75.553-33.917-75.553-75.553 0-38.884 29.699-71.109 67.553-75.131v-27.78c0-10.85 8.859-19.679 19.709-19.679h75.342V39.447C233.533 21.603 248.136 7 265.979 7h72.899c17.844 0 32.447 14.603 32.447 32.447v16.417h75.342c10.85 0 19.708 8.829 19.708 19.679v55.659c0 12.218-5.46 21.947-13.915 29.813v98.98c0 16.924-13.865 30.829-30.828 30.829H183.226c-16.964 0-30.829-13.905-30.829-30.829zm2.085-150.456c35.454 3.76 63.698 32.21 67.19 67.705 14.19 2.342 29.913 3.981 46.261 4.93 5.155-14.024 18.624-24.072 34.496-24.072 15.864 0 29.328 10.038 34.488 24.052 41.138-2.385 78.272-8.902 96.171-20.221 2.212-1.405 4.323-2.884 6.275-4.497l.022-.018c6.316-5.185 10.99-11.508 10.99-19.999V75.543c0-2.035-1.673-3.679-3.708-3.679h-54.809v30.038c0 12.462-10.188 22.65-22.65 22.65H235.649c-12.462 0-22.65-10.188-22.65-22.65V71.864h-54.808c-2.035 0-3.709 1.644-3.709 3.679zm67.049 83.889c-3.5 30.14-24.836 54.949-53.134 63.552v9.232c0 8.141 6.669 14.829 14.829 14.829h238.406c8.159 0 14.828-6.688 14.828-14.829v-87.83c-20.565 10.449-57.103 17.197-97.427 19.67-1.623 18.802-17.378 33.533-36.604 33.533-19.218 0-34.967-14.717-36.602-33.508-15.577-.937-30.587-2.488-44.296-4.649zM375.859 71.864h-146.86v30.038c0 3.659 2.991 6.65 6.65 6.65h133.559c3.659 0 6.65-2.991 6.65-6.65zm-20.534-16V39.447c0-9.045-7.402-16.447-16.447-16.447h-72.899c-9.044 0-16.446 7.402-16.446 16.447v16.417zM146.482 238.007c32.819 0 59.554-26.735 59.554-59.553 0-32.779-26.735-59.554-59.554-59.554-32.778 0-59.553 26.775-59.553 59.554 0 32.818 26.775 59.553 59.553 59.553zm-37.39-51.989c-3.122-3.123-3.122-8.192 0-11.314s8.191-3.122 11.313 0l13.135 13.134 39.346-35.693a8.004 8.004 0 0 1 11.301.55 8.004 8.004 0 0 1-.55 11.3l-44.991 40.814a8 8 0 0 1-11.032-.269zm172.595 2.609c0 11.464 9.278 20.741 20.742 20.741s20.741-9.277 20.741-20.741c0-11.422-9.256-20.742-20.741-20.742-11.486 0-20.742 9.32-20.742 20.742z" fill="#ffffff" opacity="1" data-original="#000000" class=""></path></g></svg>