<svg version="1.1" id="Capa_1" xmlns="http://www.w3.org/2000/svg" xmlns:xlink="http://www.w3.org/1999/xlink" x="0px" y="0px" viewBox="0 0 512 512" style="enable-background:new 0 0 512 512;" xml:space="preserve">
<g>
	
		<circle style="fill:none;stroke:#ffffff;stroke-width:15;stroke-linecap:round;stroke-linejoin:round;stroke-miterlimit:10;" cx="208.553" cy="216.097" r="159.911"/>
	<path style="fill:none;stroke:#ffffff;stroke-width:15;stroke-linecap:round;stroke-linejoin:round;stroke-miterlimit:10;" d="&#10;&#9;&#9;M208.553,349.008c-35.502,0-68.879-13.825-93.982-38.929c-51.822-51.822-51.822-136.143,0-187.965&#10;&#9;&#9;c25.104-25.104,58.48-38.929,93.982-38.929s68.879,13.825,93.982,38.929c51.822,51.822,51.822,136.143,0,187.965&#10;&#9;&#9;C277.432,335.183,244.055,349.008,208.553,349.008z"/>
	<path style="fill:none;stroke:#ffffff;stroke-width:15;stroke-linecap:round;stroke-linejoin:round;stroke-miterlimit:10;" d="&#10;&#9;&#9;M356.02,154.112h133.7c8.16,0,14.78,6.61,14.78,14.78v94.41c0,8.16-6.62,14.78-14.78,14.78h-133.7"/>
	<path style="fill:none;stroke:#ffffff;stroke-width:15;stroke-linecap:round;stroke-linejoin:round;stroke-miterlimit:10;" d="&#10;&#9;&#9;M61.1,278.082H22.28c-8.16,0-14.78-6.62-14.78-14.78v-94.41c0-8.17,6.62-14.78,14.78-14.78H61.1"/>
	<path style="fill:none;stroke:#ffffff;stroke-width:15;stroke-linecap:round;stroke-linejoin:round;stroke-miterlimit:10;" d="&#10;&#9;&#9;M337.53,310.672l130.57,130.57c9.5,9.5,9.5,24.9,0,34.4s-24.9,9.5-34.4,0l-130.57-130.57"/>
	<path style="fill:none;stroke:#ffffff;stroke-width:15;stroke-linecap:round;stroke-linejoin:round;stroke-miterlimit:10;" d="&#10;&#9;&#9;M468.098,475.642L468.098,475.642c-9.498,9.498-24.898,9.498-34.396,0l-17.198-17.198l34.396-34.396l17.198,17.198&#10;&#9;&#9;C477.597,450.744,477.597,466.144,468.098,475.642z"/>
	<g>
		<g>
			
				<polyline style="fill:none;stroke:#fff;stroke-width:15;stroke-linecap:round;stroke-linejoin:round;stroke-miterlimit:10;" points="&#10;&#9;&#9;&#9;&#9;211.179,189.486 188.958,189.486 188.958,242.222 211.179,242.222 &#9;&#9;&#9;"/>
			
				<line style="fill:none;stroke:#ffffff;stroke-width:15;stroke-linecap:round;stroke-linejoin:round;stroke-miterlimit:10;" x1="209.541" y1="215.854" x2="188.958" y2="215.854"/>
		</g>
		<g>
			<path style="fill:none;stroke:#ffffff;stroke-width:15;stroke-linecap:round;stroke-linejoin:round;stroke-miterlimit:10;" d="&#10;&#9;&#9;&#9;&#9;M157.437,194.957c0,0-9.55-8.028-20.812-4.635c-10.341,3.115-11.787,15.039-4.306,19.916c0,0,7.341,3.275,15.483,6.278&#10;&#9;&#9;&#9;&#9;c19.6,7.23,11.157,26.192-4.621,26.192c-7.901,0-14.533-3.46-18.547-7.889"/>
		</g>
		
			<circle style="fill:none;stroke:#ffffff;stroke-width:15;stroke-linecap:round;stroke-linejoin:round;stroke-miterlimit:10;" cx="266.681" cy="216.097" r="26.611"/>
	</g>
	<path style="fill:none;stroke:#ffffff;stroke-width:15;stroke-linecap:round;stroke-linejoin:round;stroke-miterlimit:10;" d="&#10;&#9;&#9;M248.219,153.357l92.686-92.686c3.393-3.393,8.894-3.393,12.287,0l18.834,18.834c3.393,3.393,8.894,3.393,12.287,0l50.273-50.273"/>
	
		<polyline style="fill:none;stroke:#ffffff;stroke-width:15;stroke-linecap:round;stroke-linejoin:round;stroke-miterlimit:10;" points="&#10;&#9;&#9;407.349,29.233 434.585,29.233 434.585,56.469 &#9;"/>
	<path style="fill:none;stroke:#ffffff;stroke-width:15;stroke-linecap:round;stroke-linejoin:round;stroke-miterlimit:10;" d="&#10;&#9;&#9;M438.668,189.685l6.154,12.47l13.762,2c3.735,0.543,5.226,5.133,2.524,7.767l-9.958,9.707l2.351,13.706&#10;&#9;&#9;c0.638,3.72-3.266,6.557-6.607,4.8l-12.309-6.471l-12.309,6.471c-3.341,1.756-7.245-1.08-6.607-4.8l2.351-13.706l-9.958-9.707&#10;&#9;&#9;c-2.703-2.634-1.211-7.224,2.524-7.767l13.762-2l6.154-12.47C432.172,186.301,436.998,186.301,438.668,189.685z"/>
</g>
<g>
</g>
<g>
</g>
<g>
</g>
<g>
</g>
<g>
</g>
<g>
</g>
<g>
</g>
<g>
</g>
<g>
</g>
<g>
</g>
<g>
</g>
<g>
</g>
<g>
</g>
<g>
</g>
<g>
</g>
</svg>