<svg id="Layer_1" enable-background="new 0 0 100 100" viewBox="0 0 100 100" xmlns="http://www.w3.org/2000/svg"><g fill="#AC3B61"><path d="m94.8599854 47.3599854h-4.2999268c-1.3100586-20.3200074-17.6000977-36.6099854-37.920044-37.919983v-4.2999878c0-1.4600219-1.1800537-2.6400146-2.6400146-2.6400146s-2.6400146 1.1799927-2.6400146 2.6400146v4.2999878c-20.3199444 1.3099976-36.6099835 17.5999756-37.9200421 37.919983h-4.2999267c-1.460083 0-2.6400146 1.1799927-2.6400146 2.6400146s1.1799316 2.6400146 2.6400146 2.6400146h4.2999268c1.3100585 20.3200074 17.6000976 36.6099854 37.920042 37.919983v4.2999878c0 1.4600219 1.1800537 2.6400146 2.6400146 2.6400146s2.6400146-1.1799927 2.6400146-2.6400146v-4.2999878c20.3199463-1.3099976 36.6099854-17.5999756 37.920044-37.919983h4.2999268c1.460083 0 2.6400146-1.1799926 2.6400146-2.6400146s-1.1799316-2.6400146-2.6400146-2.6400146zm-47.5-32.6300049v6.9200439c-13.5899658 1.25-24.459959 12.0999756-25.709959 25.7099609h-6.9200439c1.2900389-17.4099731 15.2199687-31.3399658 32.6300029-32.6300048zm0 70.540039c-17.4100342-1.2900391-31.3399639-15.2200317-32.6300049-32.6300049h6.9200439c1.25 13.5899658 12.0999737 24.4599609 25.709959 25.7099609v6.920044zm5.2600097-12.2300415c-.079956-1.3800049-1.2199707-2.4899902-2.6199951-2.4899902s-2.5400391 1.1099854-2.6199951 2.4899902c-10.6900635-1.2199707-19.2000732-9.7299805-20.420042-20.4199829 1.380125-.0800171 2.4899883-1.2199707 2.4899883-2.6199951s-1.1098633-2.539978-2.4899883-2.6199951c1.2199688-10.6900024 9.7299786-19.2000122 20.420042-20.4199829.079956 1.3800049 1.2199707 2.4899902 2.6199951 2.4899902s2.5400391-1.1099854 2.6199951-2.4899902c10.6900635 1.2199707 19.2000732 9.7299805 20.4200439 20.4199829-1.3801269.0800171-2.4899902 1.2199707-2.4899902 2.6199951s1.1098633 2.539978 2.4899902 2.6199951c-1.1999511 10.6900025-9.7299804 19.2200318-20.4200439 20.4199829zm.0200195 12.2300415v-6.9200439c13.5899658-1.25 24.4599609-12.1199951 25.7099609-25.7099609h6.9200439c-1.2900389 17.4099731-15.2199706 31.3399658-32.6300048 32.6300048zm25.709961-37.9100341c-1.25-13.5899658-12.0999756-24.4599609-25.7099609-25.7099609v-6.9200439c17.4100342 1.2900391 31.3399658 15.2200317 32.6300049 32.6300049h-6.920044z"/><circle cx="50" cy="50" r="6.652"/></g></svg>