<svg id="Layer_1" viewBox="0 0 512 512" xmlns="http://www.w3.org/2000/svg" data-name="Layer 1"><g fill-rule="evenodd"><path d="m267.946 179.766c-3.301 0-5.977-2.676-5.977-5.976s2.676-5.977 5.977-5.977h33.942s37.234-138.959 37.234-138.959c.756-2.827 3.412-4.64 6.228-4.43h82.228c3.301 0 5.977 2.676 5.977 5.977s-2.676 5.977-5.977 5.977h-78.065s-37.234 138.959-37.234 138.959l-.014-.004c-.68 2.553-3.008 4.433-5.775 4.433z" fill="#77899b"/><path d="m427.578 50.803c11.237 0 20.401-9.165 20.401-20.401s-9.165-20.401-20.401-20.401-20.402 9.165-20.402 20.401 9.165 20.401 20.402 20.401z" fill="#fd7a6e"/><path d="m267.946 344.187c-3.301 0-5.977-2.676-5.977-5.976s2.676-5.977 5.977-5.977h38.544c2.767 0 5.095 1.88 5.775 4.433l.014-.004 37.234 138.959h78.065c3.301 0 5.977 2.676 5.977 5.976s-2.676 5.977-5.977 5.977h-82.228c-2.816.21-5.472-1.602-6.228-4.429l-37.234-138.959z" fill="#77899b"/><path d="m427.578 502c11.237 0 20.401-9.165 20.401-20.401s-9.165-20.402-20.401-20.402-20.402 9.165-20.402 20.402 9.165 20.401 20.402 20.401z" fill="#ffe54e"/><path d="m228.098 220.895c-3.314 0-6-2.686-6-6s2.686-6 6-6h116.568l25.456-95.004c.755-2.828 3.412-4.64 6.228-4.43h82.228c3.301 0 5.976 2.676 5.976 5.977s-2.676 5.977-5.976 5.977h-78.065s-25.378 94.713-25.378 94.713c-.569 2.722-2.982 4.767-5.873 4.767h-121.163z" fill="#77899b"/><path d="m460.911 133.318c11.237 0 20.401-9.165 20.401-20.401s-9.165-20.401-20.401-20.401-20.402 9.165-20.402 20.401 9.165 20.401 20.402 20.401z" fill="#80e0b7"/><path d="m460.91 250c3.314 0 6 2.686 6 6s-2.686 6-6 6h-273.602c-3.314 0-6-2.686-6-6s2.686-6 6-6z" fill="#77899b"/><path d="m460.911 276.402c11.237 0 20.401-9.165 20.401-20.402s-9.165-20.401-20.401-20.401-20.402 9.165-20.402 20.401 9.165 20.402 20.402 20.402z" fill="#83deff"/><path d="m230.431 305.627c-3.314 0-6-2.686-6-6s2.686-6 6-6h121.164c2.891 0 5.305 2.045 5.873 4.768l25.378 94.713h78.065c3.301 0 5.976 2.676 5.976 5.976s-2.676 5.977-5.976 5.977h-82.228c-2.816.21-5.473-1.602-6.228-4.429l-25.456-95.004h-116.568z" fill="#77899b"/><path d="m460.911 419.486c11.237 0 20.401-9.165 20.401-20.401s-9.165-20.401-20.401-20.401-20.402 9.165-20.402 20.401 9.165 20.401 20.402 20.401z" fill="#a9e082"/><path d="m276.688 10h-32.368c-9.6 0-17.43 7.83-17.43 17.428v24.377c-21.231 5.162-41.201 13.548-59.361 24.612l-17.252-17.253c-6.788-6.789-17.861-6.789-24.649 0l-45.775 45.775c-6.79 6.788-6.79 17.862 0 24.649l17.247 17.247c-11.067 18.161-19.455 38.133-24.616 59.367h-24.366c-9.599 0-17.429 7.83-17.429 17.43v64.738c0 9.598 7.83 17.428 17.429 17.428h24.366c5.161 21.234 13.548 41.208 24.615 59.369l-17.246 17.245c-6.79 6.788-6.79 17.861 0 24.649l45.775 45.775c6.788 6.789 17.861 6.789 24.649 0l17.255-17.255c18.159 11.063 38.128 19.454 59.358 24.613v24.377c0 9.599 7.83 17.429 17.43 17.429h32.368v-102.229c-79.4 0-143.769-64.368-143.769-143.771s64.369-143.769 143.769-143.769z" fill="#5f7080"/><path d="m276.688 10h-32.368c-9.6 0-17.43 7.83-17.43 17.428v24.377c-21.231 5.162-41.201 13.548-59.361 24.612l-17.252-17.253c-6.788-6.789-17.861-6.789-24.649 0l-45.775 45.775c-6.79 6.788-6.79 17.862 0 24.649l17.247 17.247c-11.067 18.161-19.455 38.133-24.616 59.367h-24.366c-9.599 0-17.429 7.83-17.429 17.43v64.738c0 9.598 7.83 17.428 17.429 17.428h24.366c5.161 21.234 13.548 41.208 24.615 59.369l-17.246 17.245c-6.79 6.788-6.79 17.861 0 24.649l45.775 45.775c6.788 6.789 17.861 6.789 24.649 0l17.255-17.255c18.159 11.063 38.128 19.454 59.358 24.613v24.377c0 9.599 7.83 17.429 17.43 17.429h32.368v-45.392c-55.989-11.018-105.706-45.182-135.846-95.413-38.852-64.75-38.852-145.642 0-210.391 30.14-50.231 79.857-84.395 135.846-95.413z" fill="#566573"/></g><circle cx="276.688" cy="256" fill="#57cffa" r="98.563" transform="matrix(.972 -.233 .233 .972 -52.038 71.523)"/><path d="m289.063 158.209c48.593 6.087 86.188 47.548 86.188 97.791s-37.595 91.704-86.188 97.791c-48.593-6.087-86.188-47.548-86.188-97.791s37.595-91.704 86.188-97.791z" fill="#83deff" fill-rule="evenodd"/><path d="m276.688 151.437c28.873 0 55.014 11.704 73.937 30.626 18.922 18.922 30.626 45.063 30.626 73.937s-11.704 55.014-30.626 73.937c-18.922 18.922-45.063 30.626-73.937 30.626s-55.014-11.704-73.937-30.626c-18.922-18.922-30.626-45.063-30.626-73.937s11.704-55.015 30.626-73.937 45.063-30.626 73.937-30.626zm65.452 39.11c-16.75-16.75-39.891-27.11-65.452-27.11s-48.702 10.36-65.452 27.11-27.11 39.891-27.11 65.453 10.36 48.703 27.11 65.452c16.75 16.75 39.891 27.11 65.452 27.11s48.703-10.361 65.452-27.11c16.75-16.75 27.11-39.891 27.11-65.452s-10.361-48.703-27.11-65.453z" fill="#29bff5" fill-rule="evenodd"/><path d="m357.939 321.784c-9.72 11.99-22.054 21.792-36.144 28.544-13.69 6.56-28.989 10.235-45.107 10.235s-31.417-3.675-45.107-10.235c-14.201-6.805-26.618-16.707-36.373-28.825-2.071-2.576-1.662-6.343.914-8.414.154-.124.312-.238.474-.344l-.005-.007c9.751-6.375 22.082-11.563 36.114-15.102 13.352-3.367 28.27-5.253 43.981-5.253s30.63 1.886 43.981 5.253c14.032 3.538 26.363 8.727 36.114 15.102 2.77 1.812 3.547 5.527 1.735 8.297-.176.269-.37.519-.58.75zm-41.301 17.762c10.443-5.004 19.807-11.92 27.645-20.297-7.581-4.078-16.546-7.474-26.52-9.989-12.398-3.126-26.326-4.878-41.075-4.878s-28.678 1.751-41.075 4.878c-9.973 2.515-18.939 5.911-26.52 9.989 7.837 8.377 17.202 15.293 27.645 20.297 12.059 5.779 25.606 9.016 39.95 9.016s27.891-3.237 39.95-9.016z" fill="#29bff5" fill-rule="evenodd"/><path d="m276.688 151.437c16.117 0 31.417 3.675 45.107 10.235 14.201 6.805 26.618 16.708 36.372 28.825 2.071 2.576 1.662 6.343-.914 8.414-.154.124-.312.238-.474.344l.005.007c-9.751 6.375-22.082 11.563-36.114 15.102-13.352 3.367-28.27 5.253-43.981 5.253s-30.63-1.886-43.981-5.253c-14.032-3.538-26.363-8.727-36.114-15.102-2.77-1.812-3.546-5.527-1.734-8.297.176-.269.37-.519.58-.75 9.719-11.989 22.054-21.792 36.144-28.544 13.69-6.56 28.989-10.235 45.107-10.235zm39.95 21.016c-12.059-5.779-25.606-9.016-39.95-9.016s-27.891 3.237-39.95 9.016c-10.443 5.004-19.807 11.921-27.645 20.297 7.581 4.078 16.547 7.474 26.52 9.989 12.398 3.126 26.326 4.878 41.075 4.878s28.678-1.751 41.075-4.878c9.973-2.515 18.939-5.911 26.52-9.989-7.837-8.377-17.202-15.293-27.645-20.297z" fill="#29bff5" fill-rule="evenodd"/><path d="m276.688 151.437c17.524 0 33.102 12.215 44.123 31.962 10.432 18.692 16.885 44.37 16.885 72.601s-6.453 53.908-16.885 72.601c-11.021 19.747-26.6 31.962-44.123 31.962s-33.102-12.215-44.123-31.962c-10.432-18.692-16.885-44.37-16.885-72.601s6.453-53.908 16.885-72.601c11.021-19.747 26.6-31.962 44.123-31.962zm33.671 37.775c-8.888-15.924-20.814-25.774-33.671-25.774s-24.783 9.85-33.671 25.774c-9.476 16.98-15.338 40.585-15.338 66.788s5.862 49.808 15.338 66.788c8.888 15.924 20.814 25.775 33.671 25.775s24.783-9.85 33.671-25.775c9.476-16.98 15.338-40.585 15.338-66.788s-5.862-49.808-15.338-66.788z" fill="#29bff5" fill-rule="evenodd"/><path d="m270.688 157.437h12v197.126h-12z" fill="#29bff5"/><path d="m178.125 250h197.126v12h-197.126z" fill="#29bff5"/></svg>