<svg enable-background="new 0 0 512 512" fill="white" height="512" viewBox="0 0 512 512" width="512" xmlns="http://www.w3.org/2000/svg"><g id="_x32_4_Telephone"><g><path d="m465.072 112.348c-131.703-53.321-276.764-53.32-408.457-.001-19.708 7.97-34.924 24.105-41.749 44.27-11.386 33.649 6.717 61.207 6.824 61.53-12.807 9.086-20.388 23.66-20.388 39.489v95.82c0 26.166 20.853 47.499 46.807 48.384v24.705c0 7.222 5.876 13.098 13.096 13.098h399.317c7.221 0 13.096-5.876 13.096-13.098v-54.443c0-7.221-5.876-13.096-13.096-13.096h-1.14c-20.268-88.176-43.936-127.187-100.525-166.124-3.64-2.499-5.812-6.576-5.812-10.905v-38.867c10.98 2.136 21.905 4.63 32.749 7.537-12.299 45.06-8.057 29.519-8.975 32.881-2.871 10.494 2.987 21.274 13.338 24.543 25.749 8.135 50.86 18.772 74.64 31.617 9.508 5.134 21.34 1.896 26.901-7.509.155-.262 6.611-11.188 8.815-14.918 22.703-38.402 5.958-88.173-35.441-104.913zm-328.181 61.725 2.96 10.825c2.132 7.791-2.211 15.792-9.886 18.217-26.058 8.231-51.477 18.997-75.551 31.999-7.079 3.825-15.843 1.372-19.954-5.58l-5.705-9.645c33.426-19.507 69.012-34.875 108.136-45.816zm-130.39 179.383v-95.82c0-13.984 6.62-26.879 17.838-35.006l5.647 9.549c5.567 9.417 17.406 12.639 26.901 7.508 23.784-12.846 48.898-23.483 74.642-31.615 10.35-3.269 16.208-14.051 13.338-24.544-.918-3.362 3.324 12.179-8.975-32.879 10.999-2.949 22.084-5.468 33.223-7.624v38.64c0 4.332-2.18 8.407-5.838 10.905-56.917 39.071-80.689 78.155-100.969 166.437h-1.102c-7.221 0-13.096 5.876-13.096 13.096v24.54c-23.086-.883-41.609-19.888-41.609-43.187zm461.921 18.646v54.443c0 4.355-3.543 7.9-7.898 7.9h-399.317c-4.355 0-7.898-3.544-7.898-7.9v-54.443c0-4.355 3.543-7.898 7.898-7.898.268 0 425.948.016 399.317 0 4.355-.001 7.898 3.543 7.898 7.898zm-112.507-174.938c55.066 37.89 78.279 75.981 98.141 161.841h-386.42c19.875-85.971 43.187-124.125 98.578-162.148 5.071-3.462 8.099-9.141 8.099-15.193v-39.584c11.375-2.072 22.804-3.74 34.272-4.989l10.883 43.154c2.541 7.409 9.513 12.386 17.35 12.386h48.523c7.84 0 14.812-4.977 17.414-12.593l10.822-42.893c11.468 1.26 22.898 2.937 34.272 5.02v39.81c0 6.043 3.015 11.722 8.066 15.189zm-142.12-60.665c31.445-3.077 63.127-3.06 94.571.049l-10.591 42.012c-1.817 5.307-6.815 8.873-12.434 8.873h-48.523c-5.617 0-10.614-3.566-12.371-8.665zm273.432 93.033c-4.112 6.951-12.876 9.409-19.957 5.582-24.069-13-49.485-23.766-75.548-32-7.675-2.424-12.018-10.425-9.886-18.216l2.96-10.826c38.658 10.81 74.141 25.979 108.133 45.815zm8.812-14.911c-.003.003-.005.004-.005.006l-.444.754c-35.138-20.511-73.001-36.174-109.406-46.354l5.31-19.525c.376-1.383-.439-2.811-1.822-3.189-86.734-23.751-176.763-22.15-257.655 0-1.383.378-2.198 1.805-1.822 3.188l5.31 19.527c-37.137 10.38-74.955 26.241-109.409 46.354-.098-.296-16.846-25.948-6.305-57.098 6.338-18.73 20.472-33.716 38.774-41.118 130.44-52.809 274.113-52.812 404.558.001 38.412 15.533 54.023 61.745 32.916 97.454z"/><path d="m260.844 205.683c-38.68 0-70.147 31.467-70.147 70.146 0 38.678 31.467 70.145 70.147 70.145 38.678 0 70.145-31.467 70.145-70.145-.001-38.679-31.468-70.146-70.145-70.146zm0 135.093c-35.812 0-64.949-29.135-64.949-64.947s29.137-64.948 64.949-64.948 64.947 29.136 64.947 64.948-29.135 64.947-64.947 64.947z"/><path d="m260.844 252.923c-12.629 0-22.906 10.275-22.906 22.906s10.277 22.906 22.906 22.906 22.906-10.275 22.906-22.906-10.277-22.906-22.906-22.906zm0 40.614c-9.764 0-17.708-7.944-17.708-17.708s7.944-17.708 17.708-17.708 17.708 7.944 17.708 17.708-7.944 17.708-17.708 17.708z"/><path d="m260.823 243.795c8.211 0 14.888-6.679 14.888-14.888s-6.678-14.888-14.888-14.888c-8.188 0-14.85 6.679-14.85 14.888s6.662 14.888 14.85 14.888zm0-24.579c5.343 0 9.69 4.346 9.69 9.69s-4.348 9.69-9.69 9.69c-5.322 0-9.652-4.346-9.652-9.69 0-5.343 4.33-9.69 9.652-9.69z"/><path d="m260.823 307.862c-8.188 0-14.85 6.679-14.85 14.888s6.662 14.888 14.85 14.888c8.211 0 14.888-6.679 14.888-14.888.001-8.209-6.677-14.888-14.888-14.888zm0 24.579c-5.322 0-9.652-4.346-9.652-9.69s4.33-9.69 9.652-9.69c5.343 0 9.69 4.346 9.69 9.69.001 5.343-4.347 9.69-9.69 9.69z"/><path d="m283.509 232.135c-5.796 5.796-5.848 15.209-.03 21.029 5.805 5.8 15.252 5.805 21.056-.001 5.805-5.806 5.805-15.251 0-21.055-5.793-5.795-15.207-5.787-21.026.027zm17.35 17.353c-3.774 3.774-9.921 3.779-13.706 0-3.754-3.751-3.769-9.88.03-13.676 3.778-3.778 9.914-3.789 13.675-.028 3.777 3.777 3.777 9.924.001 13.704z"/><path d="m217.151 298.491c-5.785 5.783-5.859 15.197-.03 21.028 5.805 5.8 15.252 5.805 21.056-.001 5.805-5.805 5.805-15.25 0-21.055-5.785-5.786-15.222-5.776-21.026.028zm17.35 17.352c-3.777 3.775-9.924 3.778-13.706 0-3.76-3.758-3.761-9.885.03-13.676 3.778-3.778 9.914-3.789 13.675-.028 3.78 3.778 3.78 9.926.001 13.704z"/><path d="m307.762 260.96c-8.232 0-14.886 6.655-14.886 14.846 0 8.208 6.678 14.888 14.888 14.89 8.211 0 14.888-6.679 14.888-14.888 0-8.187-6.678-14.848-14.888-14.848zm9.693 14.847c0 5.344-4.348 9.69-9.69 9.69-5.343-.001-9.69-4.349-9.69-9.692 0-5.309 4.321-9.648 9.688-9.648h.003c5.342.001 9.689 4.329 9.689 9.65z"/><path d="m228.811 275.805c0-8.187-6.678-14.848-14.888-14.848-8.211 0-14.888 6.661-14.888 14.848 0 8.209 6.678 14.888 14.888 14.888s14.888-6.679 14.888-14.888zm-24.579 0c0-5.321 4.348-9.65 9.69-9.65 5.343 0 9.69 4.329 9.69 9.65 0 5.344-4.348 9.69-9.69 9.69s-9.69-4.346-9.69-9.69z"/><path d="m283.509 298.462c-5.805 5.805-5.805 15.251 0 21.056 5.8 5.803 15.249 5.805 21.056 0 5.789-5.791 5.774-15.223-.03-21.027-5.806-5.808-15.242-5.814-21.026-.029zm17.38 17.38c-3.782 3.779-9.929 3.778-13.706.001-3.777-3.779-3.777-9.926 0-13.706 3.761-3.759 9.898-3.747 13.675.029 3.78 3.778 3.793 9.913.031 13.676z"/><path d="m238.209 253.16c5.824-5.824 5.76-15.24-.03-21.025-5.812-5.817-15.233-5.824-21.025-.029-5.805 5.805-5.805 15.25 0 21.055 5.799 5.802 15.248 5.804 21.055-.001zm-17.381-17.379c3.763-3.76 9.883-3.761 13.675.03 3.807 3.802 3.774 9.929.03 13.673-3.782 3.779-9.929 3.778-13.706.001-3.778-3.778-3.778-9.926.001-13.704z"/></g></g></svg>