<svg id="Flat" viewBox="0 0 64 64" xmlns="http://www.w3.org/2000/svg"><path d="m54 4h-48c-1.1 0-2 .9-2 2v41c0 1.1.9 2 2 2h48c1.1 0 2-.9 2-2v-41c0-1.1-.9-2-2-2z" fill="#536882"/><path d="m23 4-1 8h-18v-6c0-1.1.9-2 2-2z" fill="#d3dce5"/><path d="m56 6v6h-34l1-8h31c1.1 0 2 .9 2 2z" fill="#b8c3d5"/><circle cx="8" cy="8" fill="#e26677" r="1"/><circle cx="13" cy="8" fill="#edae65" r="1"/><circle cx="18" cy="8" fill="#78b24c" r="1"/><path d="m43 20h-6c-.55 0-1-.45-1-1s.45-1 1-1h6c.55 0 1 .45 1 1s-.45 1-1 1z" fill="#edae65"/><path d="m37 26h-6c-.55 0-1-.45-1-1s.45-1 1-1h6c.55 0 1 .45 1 1s-.45 1-1 1z" fill="#e26677"/><path d="m51 32h-6c-.55 0-1-.45-1-1s.45-1 1-1h6c.55 0 1 .45 1 1s-.45 1-1 1z" fill="#85b9db"/><path d="m21 38h-6c-.55 0-1-.45-1-1s.45-1 1-1h6c.55 0 1 .45 1 1s-.45 1-1 1z" fill="#85b9db"/><path d="m15 44h-6c-.55 0-1-.45-1-1s.45-1 1-1h6c.55 0 1 .45 1 1s-.45 1-1 1z" fill="#edae65"/><path d="m33 20h-2c-.55 0-1-.45-1-1s.45-1 1-1h2c.55 0 1 .45 1 1s-.45 1-1 1z" fill="#edae65"/><path d="m51 26h-2c-.55 0-1-.45-1-1s.45-1 1-1h2c.55 0 1 .45 1 1s-.45 1-1 1z" fill="#ce9ddb"/><path d="m41 32h-2c-.55 0-1-.45-1-1s.45-1 1-1h2c.55 0 1 .45 1 1s-.45 1-1 1z" fill="#edae65"/><path d="m11 38h-2c-.55 0-1-.45-1-1s.45-1 1-1h2c.55 0 1 .45 1 1s-.45 1-1 1z" fill="#85b9db"/><path d="m51 20h-4c-.55 0-1-.45-1-1s.45-1 1-1h4c.55 0 1 .45 1 1s-.45 1-1 1z" fill="#85b9db"/><path d="m30 38h-5c-.55 0-1-.45-1-1s.45-1 1-1h5c.55 0 1 .45 1 1s-.45 1-1 1z" fill="#ce9ddb"/><path d="m30 44h-11c-.55 0-1-.45-1-1s.45-1 1-1h11c.55 0 1 .45 1 1s-.45 1-1 1z" fill="#e26677"/><path d="m45 26h-4c-.55 0-1-.45-1-1s.45-1 1-1h4c.55 0 1 .45 1 1s-.45 1-1 1z" fill="#e26677"/><path d="m35 32h-4c-.55 0-1-.45-1-1s.45-1 1-1h4c.55 0 1 .45 1 1s-.45 1-1 1z" fill="#ce9ddb"/><path d="m26.64 23.73-3.6-3c-.43-.35-1.06-.3-1.41.13s-.3 1.06.13 1.41l2.68 2.23-2.68 2.23c-.42.35-.48.98-.13 1.41.2.24.48.36.77.36.23 0 .45-.08.64-.23l3.6-3c.23-.19.36-.47.36-.77s-.13-.58-.36-.77z" fill="#d3dce5"/><path d="m12.37 20.86c-.35-.42-.98-.48-1.41-.13l-3.6 3c-.23.19-.36.47-.36.77s.13.58.36.77l3.6 3c.19.16.41.23.64.23.29 0 .57-.12.77-.36.35-.42.3-1.06-.13-1.41l-2.68-2.23 2.68-2.23c.42-.35.48-.98.13-1.41z" fill="#d3dce5"/><path d="m18.74 17.53c-.54-.14-1.08.19-1.21.73l-3 12c-.13.54.19 1.08.73 1.21.08.02.16.03.24.03.45 0 .86-.3.97-.76l3-12c.13-.54-.19-1.08-.73-1.21z" fill="#d3dce5"/><path d="m60 38v4c0 .36-.1.71-.27 1-.35.6-.99 1-1.73 1h-22c-.74 0-1.38-.4-1.73-1-.17-.29-.27-.64-.27-1v-4c0-1.1.9-2 2-2h22c1.1 0 2 .9 2 2z" fill="#d3dce5"/><path d="m60 46v4c0 .36-.1.71-.27 1-.35.6-.99 1-1.73 1h-22c-.74 0-1.38-.4-1.73-1-.17-.29-.27-.64-.27-1v-4c0-.36.1-.71.27-1 .35-.6.99-1 1.73-1h22c.74 0 1.38.4 1.73 1 .17.29.27.64.27 1z" fill="#d3dce5"/><path d="m60 54v4c0 1.1-.9 2-2 2h-22c-1.1 0-2-.9-2-2v-4c0-.36.1-.71.27-1 .35-.6.99-1 1.73-1h22c.74 0 1.38.4 1.73 1 .17.29.27.64.27 1z" fill="#d3dce5"/><g fill="#78b24c"><path d="m39.49 39h-1.49c-.55 0-1 .45-1 1s.45 1 1 1h1.49c.55 0 1-.45 1-1s-.45-1-1-1z"/><path d="m44.49 39h-1.49c-.55 0-1 .45-1 1s.45 1 1 1h1.49c.55 0 1-.45 1-1s-.45-1-1-1z"/><path d="m56.49 39h-8.49c-.55 0-1 .45-1 1s.45 1 1 1h8.49c.55 0 1-.45 1-1s-.45-1-1-1z"/><path d="m39.49 47h-1.49c-.55 0-1 .45-1 1s.45 1 1 1h1.49c.55 0 1-.45 1-1s-.45-1-1-1z"/><path d="m44.49 47h-1.49c-.55 0-1 .45-1 1s.45 1 1 1h1.49c.55 0 1-.45 1-1s-.45-1-1-1z"/><path d="m56.49 47h-8.49c-.55 0-1 .45-1 1s.45 1 1 1h8.49c.55 0 1-.45 1-1s-.45-1-1-1z"/><path d="m39.49 57h-1.49c-.55 0-1-.45-1-1s.45-1 1-1h1.49c.55 0 1 .45 1 1s-.45 1-1 1z"/><path d="m44.49 57h-1.49c-.55 0-1-.45-1-1s.45-1 1-1h1.49c.55 0 1 .45 1 1s-.45 1-1 1z"/><path d="m56.49 57h-8.49c-.55 0-1-.45-1-1s.45-1 1-1h8.49c.55 0 1 .45 1 1s-.45 1-1 1z"/></g><path d="m59.73 45h-25.46c.35-.6.99-1 1.73-1-.74 0-1.38-.4-1.73-1h25.46c-.35.6-.99 1-1.73 1 .74 0 1.38.4 1.73 1z" fill="#b8c3d5"/><path d="m59.73 53h-25.46c.35-.6.99-1 1.73-1-.74 0-1.38-.4-1.73-1h25.46c-.35.6-.99 1-1.73 1 .74 0 1.38.4 1.73 1z" fill="#b8c3d5"/></svg>