<svg id="Icons" height="512" viewBox="0 0 60 60" width="512" xmlns="http://www.w3.org/2000/svg"><path d="m30 8 1 1v49l-1 1h-24a5 5 0 0 1 -5-5v-45l1-1z" fill="#2a2a49"/><path d="m59 9v45a5 5 0 0 1 -5 5h-24v-51h28z" fill="#daeeef"/><path d="m59 6v3h-58v-3a5 5 0 0 1 5-5h48a5 5 0 0 1 5 5z" fill="#447"/><rect fill="#2a2a49" height="36" rx="3" width="20" x="34" y="16"/><path d="m48 16v2a2 2 0 0 1 -2 2h-4a2 2 0 0 1 -2-2v-2z" fill="#c7dfe5"/><path d="m7 6h-1a1 1 0 0 1 0-2h1a1 1 0 0 1 0 2z" fill="#ff4d4d"/><path d="m12 6h-1a1 1 0 0 1 0-2h1a1 1 0 0 1 0 2z" fill="#f7bb26"/><path d="m17 6h-1a1 1 0 0 1 0-2h1a1 1 0 0 1 0 2z" fill="#25e572"/><path d="m45 6h-18a1 1 0 0 1 0-2h18a1 1 0 0 1 0 2z" fill="#2a2a49"/><path d="m48 49h-8a1 1 0 0 1 0-2h8a1 1 0 0 1 0 2z" fill="#17172b"/><path d="m6 15h-1a1 1 0 0 1 0-2h1a1 1 0 0 1 0 2z" fill="#ff4d4d"/><path d="m25 15h-15a1 1 0 0 1 0-2h15a1 1 0 0 1 0 2z" fill="#f7bb26"/><path d="m6 30h-1a1 1 0 0 1 0-2h1a1 1 0 0 1 0 2z" fill="#ff4d4d"/><path d="m25 30h-15a1 1 0 0 1 0-2h15a1 1 0 0 1 0 2z" fill="#f7bb26"/><path d="m8 20h-1a1 1 0 0 1 0-2h1a1 1 0 0 1 0 2z" fill="#ff4d4d"/><path d="m25 20h-4a1 1 0 0 1 0-2h4a1 1 0 0 1 0 2z" fill="#fff"/><path d="m17 20h-5a1 1 0 0 1 0-2h5a1 1 0 0 1 0 2z" fill="#2074ef"/><path d="m8 25h-1a1 1 0 0 1 0-2h1a1 1 0 0 1 0 2z" fill="#ff4d4d"/><path d="m25 25h-4a1 1 0 0 1 0-2h4a1 1 0 0 1 0 2z" fill="#fff"/><path d="m17 25h-5a1 1 0 0 1 0-2h5a1 1 0 0 1 0 2z" fill="#2074ef"/><path d="m8 35h-1a1 1 0 0 1 0-2h1a1 1 0 0 1 0 2z" fill="#ff4d4d"/><path d="m25 35h-4a1 1 0 0 1 0-2h4a1 1 0 0 1 0 2z" fill="#fff"/><path d="m17 35h-5a1 1 0 0 1 0-2h5a1 1 0 0 1 0 2z" fill="#2074ef"/><path d="m8 40h-1a1 1 0 0 1 0-2h1a1 1 0 0 1 0 2z" fill="#ff4d4d"/><path d="m25 40h-4a1 1 0 0 1 0-2h4a1 1 0 0 1 0 2z" fill="#fff"/><path d="m17 40h-5a1 1 0 0 1 0-2h5a1 1 0 0 1 0 2z" fill="#2074ef"/><path d="m6 45h-1a1 1 0 0 1 0-2h1a1 1 0 0 1 0 2z" fill="#ff4d4d"/><path d="m25 45h-15a1 1 0 0 1 0-2h15a1 1 0 0 1 0 2z" fill="#f7bb26"/><path d="m8 50h-1a1 1 0 0 1 0-2h1a1 1 0 0 1 0 2z" fill="#ff4d4d"/><path d="m25 50h-4a1 1 0 0 1 0-2h4a1 1 0 0 1 0 2z" fill="#fff"/><path d="m17 50h-5a1 1 0 0 1 0-2h5a1 1 0 0 1 0 2z" fill="#2074ef"/><path d="m8 55h-1a1 1 0 0 1 0-2h1a1 1 0 0 1 0 2z" fill="#ff4d4d"/><path d="m25 55h-4a1 1 0 0 1 0-2h4a1 1 0 0 1 0 2z" fill="#fff"/><path d="m17 55h-5a1 1 0 0 1 0-2h5a1 1 0 0 1 0 2z" fill="#2074ef"/><path d="m51 53h-14a4 4 0 0 1 -4-4v-30a4 4 0 0 1 4-4h14a4 4 0 0 1 4 4v30a4 4 0 0 1 -4 4zm-14-36a2 2 0 0 0 -2 2v30a2 2 0 0 0 2 2h14a2 2 0 0 0 2-2v-30a2 2 0 0 0 -2-2z" fill="#c7dfe5"/></svg>