<svg height="512" viewBox="0 0 64 64" width="512" xmlns="http://www.w3.org/2000/svg"><g id="_07-Landing_Page" data-name="07-Landing Page"><path d="m24 1c4 0 4 4 4 4v4h-27v-4a4 4 0 0 1 4-4z" fill="#f2f2f2"/><path d="m59 1a4 4 0 0 1 4 4v4h-35v-4s0-4-4-4z" fill="#3db6fd"/><path d="m63 9v50a4 4 0 0 1 -4 4h-54a4 4 0 0 1 -4-4v-50z" fill="#dedede"/><path d="m32 3.5a2.5 2.5 0 0 0 2.5 2.5h28.5v-1a4 4 0 0 0 -4-4h-29.5a2.5 2.5 0 0 1 2.5 2.5z" fill="#5acafa"/><circle cx="51" cy="5" fill="#fd5f53" r="1"/><path d="m51 5a.985.985 0 0 1 -.847-.5.977.977 0 0 0 -.153.5 1 1 0 0 0 2 0 .977.977 0 0 0 -.153-.5.985.985 0 0 1 -.847.5z" fill="#db392b"/><path d="m51 6a.985.985 0 0 1 -.847-.5.977.977 0 0 0 -.153.5 1 1 0 0 0 2 0 .977.977 0 0 0 -.153-.5.985.985 0 0 1 -.847.5z" fill="#3db6fd"/><path d="m55 6a.985.985 0 0 1 -.847-.5.977.977 0 0 0 -.153.5 1 1 0 0 0 2 0 .977.977 0 0 0 -.153-.5.985.985 0 0 1 -.847.5z" fill="#3db6fd"/><path d="m59 6a.985.985 0 0 1 -.847-.5.977.977 0 0 0 -.153.5 1 1 0 0 0 2 0 .977.977 0 0 0 -.153-.5.985.985 0 0 1 -.847.5z" fill="#3db6fd"/><circle cx="55" cy="5" fill="#fcd22b" r="1"/><circle cx="59" cy="5" fill="#16cd37" r="1"/><path d="m55 5a.985.985 0 0 1 -.847-.5.977.977 0 0 0 -.153.5 1 1 0 0 0 2 0 .977.977 0 0 0 -.153-.5.985.985 0 0 1 -.847.5z" fill="#ebad00"/><path d="m59 5a.985.985 0 0 1 -.847-.5.977.977 0 0 0 -.153.5 1 1 0 0 0 2 0 .977.977 0 0 0 -.153-.5.985.985 0 0 1 -.847.5z" fill="#12a32c"/><rect fill="#dedede" height="2" rx="1" width="17" x="4" y="4"/><rect fill="#dedede" height="2" rx="1" width="3" x="22" y="4"/><path d="m30 8v-3s0-4-4-4h-2c4 0 4 4 4 4v4h35v-1z" fill="#1c99eb"/><path d="m59 61h-54a2 2 0 0 1 -2-2v-50h58v50a2 2 0 0 1 -2 2z" fill="#f2f2f2"/><path d="m58 57h3v-48h-51a48 48 0 0 0 48 48z" fill="#fff"/><path d="m28 5s0-4-4-4h-19a4 4 0 0 0 -4 4v4h2v-4a2 2 0 0 1 2-2h19a2 2 0 0 1 2 2v4h2z" fill="#dedede"/><path d="m41 35h18v24h-18z" fill="#3db6fd"/><path d="m12 54-7 5v-10z" fill="#f2f2f2"/><path d="m19 49v10l-7-5z" fill="#f2f2f2"/><path d="m30 54-7 5v-10z" fill="#f2f2f2"/><path d="m37 49v10l-7-5z" fill="#f2f2f2"/><path d="m37 59h-14l7-5z" fill="#fff"/><path d="m19 59h-14l7-5z" fill="#fff"/><path d="m19 49-7 5-7-5z" fill="#fff"/><path d="m37 49-7 5-7-5z" fill="#fff"/><path d="m5 35h32v10h-32z" fill="#0af"/><circle cx="9" cy="16" fill="#ffdf64" r="3"/><path d="m29 25 12-12 18 18h-54l15-15z" fill="#12a32c"/><path d="m63 9v22h-4l-18-18-12 12-9-9-15 15h-4v-22zm-51 7a3 3 0 1 0 -3 3 3 3 0 0 0 3-3z" fill="#3db6fd"/><path d="m19 48h-14a1 1 0 0 0 -1 1v10a1 1 0 0 0 1 1h14a1 1 0 0 0 1-1v-10a1 1 0 0 0 -1-1zm-.86 1-6.14 4.386-6.14-4.386zm-13.14.614 6.14 4.386-6.14 4.386zm.86 9.386 6.14-4.386 6.14 4.386zm13.14-.614-6.14-4.386 6.14-4.386z" fill="#b5b5b5"/><path d="m37 48h-14a1 1 0 0 0 -1 1v10a1 1 0 0 0 1 1h14a1 1 0 0 0 1-1v-10a1 1 0 0 0 -1-1zm-.86 1-6.14 4.386-6.14-4.386zm-13.14.614 6.14 4.386-6.14 4.386zm.86 9.386 6.14-4.386 6.14 4.386zm13.14-.614-6.14-4.386 6.14-4.386z" fill="#b5b5b5"/><path d="m37 34h-32a1 1 0 0 0 -1 1v10a1 1 0 0 0 1 1h32a1 1 0 0 0 1-1v-10a1 1 0 0 0 -1-1zm0 11h-32v-10h32z" fill="#dedede"/><path d="m41 35v18.892a47.867 47.867 0 0 0 17 3.108h1v-22z" fill="#5acafa"/><path d="m26.268 45h10.732v-10h-19.339a48.218 48.218 0 0 0 8.607 10z" fill="#5acafa"/><path d="m12 16a2.994 2.994 0 0 0 -1.8-2.749 47.865 47.865 0 0 0 .71 5.048 2.979 2.979 0 0 0 1.09-2.299z" fill="#ffdf64"/><path d="m41 13-12 12-9-9-7.7 7.7a47.548 47.548 0 0 0 3.043 7.3h43.657z" fill="#16cd37"/><path d="m61 9h-51c0 1.434.075 2.849.2 4.251a2.984 2.984 0 0 1 .71 5.048 47.789 47.789 0 0 0 1.39 5.401l7.7-7.7 9 9 12-12 18 18h4v-22z" fill="#5acafa"/><path d="m38 45v-10a1 1 0 0 0 -1-1h-19.98c.207.338.426.667.641 1h19.339v10h-10.732c.382.337.762.675 1.154 1h9.578a1 1 0 0 0 1-1z" fill="#dedede"/><path d="m24 14h-2a1 1 0 0 1 0-2h2a1 1 0 0 1 0 2z" fill="#3db6fd"/><path d="m36 14h-9a1 1 0 0 1 0-2h9a1 1 0 0 1 0 2z" fill="#3db6fd"/><path d="m60 14h-13a1 1 0 0 1 0-2h13a1 1 0 0 1 0 2z" fill="#3db6fd"/><g fill="#0af"><path d="m45 40h-1a1 1 0 0 1 0-2h1a1 1 0 0 1 0 2z"/><path d="m55 40h-7a1 1 0 0 1 0-2h7a1 1 0 0 1 0 2z"/><path d="m55 44h-11a1 1 0 0 1 0-2h11a1 1 0 0 1 0 2z"/><path d="m55 48h-9a1 1 0 0 1 0-2h9a1 1 0 0 1 0 2z"/><path d="m55 52h-11a1 1 0 0 1 0-2h11a1 1 0 0 1 0 2z"/></g></g></svg>