<svg xmlns="http://www.w3.org/2000/svg" version="1.1" xmlns:xlink="http://www.w3.org/1999/xlink" width="512" height="512" x="0" y="0" viewBox="0 0 256 256" style="enable-background:new 0 0 512 512" xml:space="preserve"><g><path fill="#58595b" d="M240.195 16.219H62.445c-5.523 0-10 4.477-10 10v42.225h82.487a5 5 0 0 1 5 5v88.163h100.263c5.523 0 10-4.477 10-10V26.219c0-5.523-4.477-10-10-10z" opacity="1" data-original="#58595b"></path><path fill="#414042" d="M244.305 17.109a9.95 9.95 0 0 1 .89 4.11v125.388c0 5.523-4.477 10-10 10h-95.263v5h100.263c5.523 0 10-4.477 10-10V26.219c0-4.057-2.419-7.541-5.89-9.11z" opacity="1" data-original="#414042"></path><path fill="#939598" d="M139.932 186.61h41.051l-5.318-25.003h-35.733z" opacity="1" data-original="#939598"></path><path fill="#808285" d="M169.808 181.61h-29.875v5h41.051l-5.317-25.003h-3.937l2.969 13.963c.661 3.11-1.711 6.04-4.891 6.04z" opacity="1" data-original="#808285"></path><path fill="#58595b" d="M202.636 186.61h-62.704v13.171h67.704v-8.171a5 5 0 0 0-5-5z" opacity="1" data-original="#58595b"></path><path fill="#414042" d="M202.636 186.61v6.171a2 2 0 0 1-2 2h-60.704v5h67.704v-8.171a5 5 0 0 0-5-5z" opacity="1" data-original="#414042"></path><path fill="#f1f2f2" d="M232.671 28.743H69.97a5 5 0 0 0-5 5v34.7h69.963a5 5 0 0 1 5 5v66.693h92.739a5 5 0 0 0 5-5V33.743a5.001 5.001 0 0 0-5.001-5z" opacity="1" data-original="#f1f2f2"></path><path fill="#ffffff" d="M126.25 36.743h-.28a2 2 0 0 1 0-4h.28a2 2 0 0 1 0 4zm-8.28 0h-47a2 2 0 0 1 0-4h47a2 2 0 0 1 0 4z" opacity="1" data-original="#ffffff"></path><path fill="#e6e7e8" d="M232.671 28.743h-5v96.394a5 5 0 0 1-5 5h-82.739v10h92.739a5 5 0 0 0 5-5V33.743a5 5 0 0 0-5-5z" opacity="1" data-original="#e6e7e8"></path><path fill="#d1d3d4" d="M232.671 28.743v101.394a5 5 0 0 1-5 5h-87.739v5h92.739a5 5 0 0 0 5-5V33.743a5 5 0 0 0-5-5z" opacity="1" data-original="#d1d3d4"></path><path fill="#893add" d="M220.555 42.258H82.084a2 2 0 0 0-2 2v24.186h54.848a5 5 0 0 1 5 5v6.507h80.623a2 2 0 0 0 2-2V44.258a2 2 0 0 0-2-2z" opacity="1" data-original="#893add"></path><path fill="#ffc91d" d="M168.879 87.37h-28.947v38.563h28.947a2 2 0 0 0 2-2V89.37a2 2 0 0 0-2-2zM183.437 123.933V89.37a2 2 0 0 1 2-2h35.118a2 2 0 0 1 2 2v34.563a2 2 0 0 1-2 2h-35.118a2 2 0 0 1-2-2z" opacity="1" data-original="#ffc91d"></path><circle cx="151.32" cy="150.477" r="5.367" fill="#939598" opacity="1" data-original="#939598"></circle><path fill="#58595b" d="M134.932 68.443H49.39a5 5 0 0 0-5 5v43.678h24.742a5 5 0 0 1 5 5v97.659h60.801a5 5 0 0 0 5-5V73.443a5.001 5.001 0 0 0-5.001-5z" opacity="1" data-original="#58595b"></path><path fill="#414042" d="M134.932 68.443v141.338a5 5 0 0 1-5 5h-55.8v5h60.801a5 5 0 0 0 5-5V73.443a5.001 5.001 0 0 0-5.001-5z" opacity="1" data-original="#414042"></path><path fill="#f1f2f2" d="M44.39 82.792v34.33h24.742a5 5 0 0 1 5 5v77.141h65.801V82.792z" opacity="1" data-original="#f1f2f2"></path><path fill="#e6e7e8" d="M134.932 82.792v106.471a5 5 0 0 1-5 5h-55.8v5h65.801V82.792z" opacity="1" data-original="#e6e7e8"></path><path fill="#ffc91d" d="M85.606 150.136H74.132v35.187h11.475a2 2 0 0 0 2-2v-31.187a2 2 0 0 0-2.001-2z" opacity="1" data-original="#ffc91d"></path><path fill="#893add" d="M130.568 96.62H53.755a2 2 0 0 0-2 2v18.502h17.377a5 5 0 0 1 5 5v21.986h56.436a2 2 0 0 0 2-2V98.62a2 2 0 0 0-2-2z" opacity="1" data-original="#893add"></path><path fill="#ffc91d" d="M94.842 183.323v-31.187a2 2 0 0 1 2-2h31.852a2 2 0 0 1 2 2v31.187a2 2 0 0 1-2 2H96.842a2 2 0 0 1-2-2z" opacity="1" data-original="#ffc91d"></path><path fill="#939598" d="M103.758 77.324H80.564a1.566 1.566 0 0 1-1.561-1.561c0-.859.703-1.561 1.561-1.561h23.194c.859 0 1.561.703 1.561 1.561 0 .859-.702 1.561-1.561 1.561z" opacity="1" data-original="#939598"></path><circle cx="111.564" cy="75.763" r="1.713" fill="#939598" opacity="1" data-original="#939598"></circle><path fill="#939598" d="M101.535 212.44H82.787c-1.1 0-2-.9-2-2v-3.583c0-1.1.9-2 2-2h18.748c1.1 0 2 .9 2 2v3.583c0 1.1-.9 2-2 2z" opacity="1" data-original="#939598"></path><path fill="#58595b" d="M69.132 239.781H10.805a5 5 0 0 1-5-5V122.122a5 5 0 0 1 5-5h58.327a5 5 0 0 1 5 5v112.659a5 5 0 0 1-5 5z" opacity="1" data-original="#58595b"></path><path fill="#414042" d="M69.132 117.122v112.659a5 5 0 0 1-5 5H5.805a5 5 0 0 0 5 5h58.327a5 5 0 0 0 5-5V122.122a5 5 0 0 0-5-5z" opacity="1" data-original="#414042"></path><path fill="#f1f2f2" d="M74.132 128.751v94.4H5.805v-94.4z" opacity="1" data-original="#f1f2f2"></path><path fill="#e6e7e8" d="M69.132 128.751v84.4a5 5 0 0 1-5 5H5.805v5h68.327v-94.4z" opacity="1" data-original="#e6e7e8"></path><path fill="#893add" d="M16.114 165.48v-24.418a2 2 0 0 1 2-2h43.708a2 2 0 0 1 2 2v24.418a2 2 0 0 1-2 2H18.114a2 2 0 0 1-2-2z" opacity="1" data-original="#893add"></path><path fill="#ffc91d" d="M16.114 210.842v-36.79a2 2 0 0 1 2-2h43.708a2 2 0 0 1 2 2v36.79a2 2 0 0 1-2 2H18.114a2 2 0 0 1-2-2z" opacity="1" data-original="#ffc91d"></path><path fill="#939598" d="M49.368 124.32H30.569a1.268 1.268 0 0 1-1.265-1.265c0-.696.569-1.265 1.265-1.265h18.799c.696 0 1.265.569 1.265 1.265s-.569 1.265-1.265 1.265z" opacity="1" data-original="#939598"></path><circle cx="55.694" cy="123.055" r="1.389" fill="#939598" opacity="1" data-original="#939598"></circle><path fill="#939598" d="M47.187 233.832H32.749c-1.1 0-2-.9-2-2v-2.146c0-1.1.9-2 2-2h14.437c1.1 0 2 .9 2 2v2.146c.001 1.1-.899 2-1.999 2z" opacity="1" data-original="#939598"></path></g></svg>