<svg xmlns="http://www.w3.org/2000/svg" version="1.1" xmlns:xlink="http://www.w3.org/1999/xlink" width="512" height="512" x="0" y="0" viewBox="0 0 52 52" style="enable-background:new 0 0 512 512" xml:space="preserve"><g transform="matrix(1.0799999999999996,0,0,1.0799999999999996,-2.079999847412104,-2.080000152587882)"><path fill="#565656" d="M15 43.7c-3.1 0-5.6-2.5-5.6-5.6V13.9c0-3.1 2.5-5.6 5.6-5.6h22c3.1 0 5.6 2.5 5.6 5.6v24.2c0 3.1-2.5 5.6-5.6 5.6z" opacity="1" data-original="#565656"></path><path fill="#ffffff" d="M15 40.9c-1.5 0-2.8-1.2-2.8-2.8V13.9c0-1.5 1.2-2.8 2.8-2.8h22c1.5 0 2.8 1.2 2.8 2.8v24.2c0 1.5-1.2 2.8-2.8 2.8z" opacity="1" data-original="#ffffff"></path><path fill="#e7edf2" d="M39.6 13c-.3-.1-.6-.1-.9-.1H15.2c-.6 0-1.2.5-1.2 1.2v25.8c0 .3 0 .6.1.9-1.1-.4-1.9-1.4-1.9-2.6V13.9c0-1.5 1.2-2.8 2.8-2.8h22c1.2 0 2.2.8 2.6 1.9z" opacity="1" data-original="#e7edf2"></path><path fill="#404040" d="M37 41.3H15c-1.8 0-3.2-1.4-3.2-3.2V13.9c0-1.8 1.4-3.2 3.2-3.2h22c1.8 0 3.2 1.4 3.2 3.2v24.2c0 1.8-1.4 3.2-3.2 3.2zM15 11.6c-1.3 0-2.3 1-2.3 2.3v24.2c0 1.3 1 2.3 2.3 2.3h22c1.3 0 2.3-1 2.3-2.3V13.9c0-1.3-1-2.3-2.3-2.3z" opacity="1" data-original="#404040"></path><path fill="#e7edf2" d="M27.9 25.6c-.3 0-.6-.2-.7-.5L25 18.4l-2 3.4c-.1.2-.4.3-.6.3h-5.9c-.4 0-.7-.3-.7-.7s.3-.7.7-.7H22l2.5-4.4c.1-.2.4-.4.7-.3.3 0 .5.2.6.5l2.2 6.6 2-4c.1-.2.3-.3.5-.4.2 0 .5 0 .6.2l1.6 1.7h2.7c.4 0 .7.3.7.7s-.2.7-.6.7h-3c-.2 0-.4-.1-.5-.2l-1.2-1.2-2.3 4.6c-.1.3-.3.4-.6.4z" opacity="1" data-original="#e7edf2"></path><path fill="#404040" d="m36.5 43.7-1.9 4.9c-.3.8-1.1 1.4-2 1.4H19.5c-.9 0-1.7-.6-2-1.4l-1.9-4.9z" opacity="1" data-original="#404040"></path><g fill="#565656"><path d="M31.8 45.7c0 .3-.2.5-.5.5H20.7c-.3 0-.5-.2-.5-.5s.2-.6.5-.6h10.5c.4 0 .6.3.6.6zM31.8 47.7c0 .3-.2.5-.5.5H20.7c-.3 0-.5-.2-.5-.5s.2-.6.5-.6h10.5c.4 0 .6.3.6.6z" fill="#565656" opacity="1" data-original="#565656"></path></g><path fill="#404040" d="m15.5 8.3 1.9-4.9c.3-.8 1.1-1.4 2-1.4h13.1c.9 0 1.7.6 2 1.4l1.9 4.9z" opacity="1" data-original="#404040"></path><g fill="#565656"><path d="M20.2 6.3c0-.3.2-.5.5-.5h10.5c.3 0 .5.2.5.5s-.2.6-.5.6H20.7c-.3 0-.5-.3-.5-.6zM20.2 4.3c0-.3.2-.5.5-.5h10.5c.3 0 .5.2.5.5s-.2.6-.5.6H20.7c-.3 0-.5-.3-.5-.6z" fill="#565656" opacity="1" data-original="#565656"></path></g><path fill="#fc7777" d="m23.5 33.7-3 3c-.4.4-1 .4-1.3 0l-2.9-2.9-.1-.1c-.9-1-.9-2.6.1-3.5.5-.5 1.2-.8 1.8-.8s1.2.2 1.7.7c.5-.5 1.1-.7 1.7-.7.7 0 1.3.3 1.8.8 1.1.9 1.1 2.5.2 3.5z" opacity="1" data-original="#fc7777"></path><g fill="#3fd18f"><path d="M28 37.2V37l2-4.5h-2.6c-.1 0-.1 0-.1-.1l-.1-.1v-.6c0-.1 0-.1.1-.1l.1-.1H31c.1 0 .1 0 .1.1l.1.1v.5c0 .1 0 .2-.1.4l-2 4.5c0 .1-.1.1-.1.1s-.1.1-.2.1H28c.1 0 .1-.1 0-.1zM32.5 36.7c-.4-.4-.6-.9-.6-1.6v-1.6c0-.6.2-1.2.6-1.6s.9-.6 1.6-.6 1.3.2 1.6.6c.4.4.6.9.6 1.6v1.6c0 .7-.2 1.2-.6 1.6s-.9.6-1.6.6-1.2-.2-1.6-.6zm2.4-.7c.2-.2.3-.5.3-.9v-1.4c0-.4-.1-.7-.3-.9s-.4-.3-.8-.3c-.3 0-.6.1-.8.3s-.3.5-.3.9v1.4c0 .4.1.7.3.9s.4.3.8.3c.4.1.6 0 .8-.3z" fill="#3fd18f" opacity="1" data-original="#3fd18f"></path></g></g></svg>