<svg id="Layer_1" enable-background="new 0 0 1000 1000" viewBox="0 0 1000 1000" xmlns="http://www.w3.org/2000/svg"><g><g><g><g><g><g><g><g><g><g><g><g><path d="m900 606.56v72.86c0 34.63-28.12 62.74-62.74 62.74h-674.51c-34.63 0-62.75-28.12-62.75-62.74v-72.86z" fill="#d8f1f7"/><path d="m900 162.69v443.87h-800v-443.87c0-34.62 28.12-62.69 62.75-62.69h674.5c34.62 0 62.75 28.06 62.75 62.69z" fill="#3b4c53"/><path d="m542.75 582.25c-.94 8.13-2.25 16.25-3.88 24.31h-438.87v-443.87c0-34.62 28.12-62.69 62.75-62.69h171.62c-31.62 29-40.69 80.81-26.44 122.75 16.69 49 57.44 117.5 100.56 146.06 42.63 28.12 91.19 52.44 116.62 96.69 19.95 34.75 22.39 77 17.64 116.75z" fill="#2a3c42"/><path d="m659 876.75h-311.81c25.87-31.25 44-62.44 54.44-93.69 4.56-13.63 7.63-27.25 9.25-40.88h184.44c1.31 11.06 3.63 22.13 6.88 33.19 9.86 33.75 28.86 67.57 56.8 101.38z" fill="#d8f1f7"/></g><path d="m602.19 775.37c-30.44.19-61.25-.19-90.5-8.44-10.75-3-21.44-7.13-32.63-7.19-14.25-.13-27.56 6.25-40.44 12.31-10.25 4.75-20.88 9.56-32.25 10.81-1.5.12-3.06.25-4.75.19 4.56-13.63 7.63-27.25 9.25-40.88h184.44c1.32 11.08 3.63 22.14 6.88 33.2z" fill="#bee2ea"/></g><path d="m693.03 876.75c0 6.44-2.62 12.25-6.81 16.44-4.19 4.25-10.06 6.81-16.44 6.81h-335.69c-12.88 0-23.31-10.37-23.31-23.25 0-6.44 2.62-12.19 6.81-16.44 4.25-4.19 10.06-6.81 16.5-6.81h335.69c12.81 0 23.25 10.44 23.25 23.25z" fill="#3b4c53"/><path d="m424.94 900h-90.88c-12.87 0-23.31-10.37-23.31-23.25 0-6.44 2.62-12.19 6.81-16.44 4.25-4.19 10.06-6.81 16.5-6.81h90.88c-6.44 0-12.25 2.63-16.5 6.81-4.19 4.25-6.81 10-6.81 16.44 0 12.88 10.43 23.25 23.31 23.25z" fill="#2a3c42"/></g><path d="m667.03 871.92c-46.38 6.42-93.59 6.47-139.96 0 46.37-6.48 93.59-6.42 139.96 0z" fill="#fff"/></g><g><g><path d="m741.1 676.82c0-8.05 6.53-14.57 14.57-14.57h73.35c8.05 0 14.57 6.53 14.57 14.57 0 8.05-6.53 14.57-14.57 14.57h-73.35c-8.04 0-14.57-6.52-14.57-14.57z" fill="#ffde51"/></g><g><path d="m797.76 691.41h-42.07c-8.1 0-14.62-6.52-14.62-14.62 0-8 6.52-14.52 14.62-14.52h42.07c-8 0-14.52 6.52-14.52 14.52 0 8.1 6.52 14.62 14.52 14.62z" fill="#ffcb4a"/></g></g><g><g><g><path d="m607.77 676.82c0-8.05 6.53-14.57 14.57-14.57h73.35c8.05 0 14.57 6.53 14.57 14.57 0 8.05-6.53 14.57-14.57 14.57h-73.35c-8.05 0-14.57-6.52-14.57-14.57z" fill="#9783fe"/></g></g><g><g><path d="m664.43 691.41h-42.07c-8.1 0-14.62-6.52-14.62-14.62 0-8 6.52-14.52 14.62-14.52h42.07c-8 0-14.52 6.52-14.52 14.52 0 8.1 6.52 14.62 14.52 14.62z" fill="#7d6cd4"/></g></g></g><g><g><path d="m474.43 676.82c0-8.05 6.53-14.57 14.57-14.57h73.35c8.05 0 14.57 6.53 14.57 14.57 0 8.05-6.53 14.57-14.57 14.57h-73.35c-8.04 0-14.57-6.52-14.57-14.57z" fill="#f88778"/></g><g><path d="m531.09 691.41h-42.07c-8.1 0-14.62-6.52-14.62-14.62 0-8 6.52-14.52 14.62-14.52h42.07c-8 0-14.52 6.52-14.52 14.52 0 8.1 6.52 14.62 14.52 14.62z" fill="#e67567"/></g></g></g></g></g></g></g><g><path d="m134.88 234.44h730.25v337.25h-730.25z" fill="#d8f1f7"/><path d="m865.13 234.45v-71.76c0-15.37-12.5-27.87-27.88-27.87h-674.5c-15.38 0-27.88 12.5-27.88 27.87v71.76z" fill="#f88778"/></g><g><g><g><path d="m256.68 184.64c0 6.61-5.36 11.96-11.96 11.96h-60.22c-6.6 0-11.96-5.36-11.96-11.96 0-6.61 5.36-11.96 11.96-11.96h60.22c6.6 0 11.96 5.36 11.96 11.96z" fill="#ffde51"/></g><g><path d="m210.16 172.66h34.54c6.65 0 12 5.35 12 12 0 6.57-5.35 11.92-12 11.92h-34.54c6.57 0 11.92-5.35 11.92-11.92 0-6.64-5.36-12-11.92-12z" fill="#ffcb4a"/></g></g><g><g><g><path d="m366.14 184.64c0 6.61-5.36 11.96-11.96 11.96h-60.22c-6.6 0-11.96-5.36-11.96-11.96s5.36-11.96 11.96-11.96h60.22c6.6 0 11.96 5.36 11.96 11.96z" fill="#9783fe"/></g></g><g><g><path d="m319.62 172.66h34.54c6.65 0 12 5.35 12 12 0 6.57-5.35 11.92-12 11.92h-34.54c6.57 0 11.92-5.35 11.92-11.92 0-6.64-5.35-12-11.92-12z" fill="#7d6cd4"/></g></g></g><g><g><path d="m475.61 184.64c0 6.61-5.36 11.96-11.96 11.96h-60.22c-6.6 0-11.96-5.36-11.96-11.96s5.36-11.96 11.96-11.96h60.22c6.6 0 11.96 5.36 11.96 11.96z" fill="#b3d049"/></g><g><path d="m429.09 172.66h34.54c6.65 0 12 5.35 12 12 0 6.57-5.35 11.92-12 11.92h-34.54c6.57 0 11.92-5.35 11.92-11.92 0-6.64-5.35-12-11.92-12z" fill="#9dba44"/></g></g></g><g><g><path d="m818.87 184.64c0 6.61-5.36 11.96-11.96 11.96h-207.74c-6.6 0-11.96-5.36-11.96-11.96 0-6.61 5.36-11.96 11.96-11.96h207.74c6.6 0 11.96 5.36 11.96 11.96z" fill="#d8f1f7"/></g><g><path d="m772.35 172.66h34.54c6.65 0 12 5.35 12 12 0 6.57-5.35 11.92-12 11.92h-34.54c6.57 0 11.92-5.35 11.92-11.92 0-6.64-5.35-12-11.92-12z" fill="#bee2ea"/></g></g></g><path d="m366.57 282.69v93.72c0 7.84-6.35 14.19-14.19 14.19h-163.96c-7.84 0-14.19-6.35-14.19-14.19v-93.72c0-7.84 6.35-14.19 14.19-14.19h163.96c7.83-.01 14.19 6.35 14.19 14.19z" fill="#9783fe"/><path d="m598.63 282.69v93.72c0 7.84-6.35 14.19-14.19 14.19h-163.96c-7.84 0-14.19-6.35-14.19-14.19v-93.72c0-7.84 6.35-14.19 14.19-14.19h163.96c7.84-.01 14.19 6.35 14.19 14.19z" fill="#ffde51"/><path d="m830.7 282.69v93.72c0 7.84-6.35 14.19-14.19 14.19h-163.96c-7.84 0-14.19-6.35-14.19-14.19v-93.72c0-7.84 6.35-14.19 14.19-14.19h163.95c7.84-.01 14.2 6.35 14.2 14.19z" fill="#b3d049"/><path d="m352.38 390.63h-163.94c-7.88 0-14.19-6.37-14.19-14.19v-93.75s3.13 107.94 178.13 107.94z" fill="#7d6cd4"/><path d="m584.41 390.63h-163.93c-7.88 0-14.19-6.37-14.19-14.19v-93.75s3.12 107.94 178.12 107.94z" fill="#ffcb4a"/><path d="m816.48 390.63h-163.94c-7.88 0-14.19-6.37-14.19-14.19v-93.75s3.13 107.94 178.13 107.94z" fill="#9dba44"/><g><g><path d="m244.56 458.54h-60.9c-5.21 0-9.44-4.23-9.44-9.44v-12.53c0-5.21 4.23-9.44 9.44-9.44h60.9c5.21 0 9.44 4.23 9.44 9.44v12.53c0 5.21-4.23 9.44-9.44 9.44z" fill="#b3d049"/></g><g><path d="m465.56 458.54h-165.68c-5.21 0-9.44-4.23-9.44-9.44v-12.53c0-5.21 4.23-9.44 9.44-9.44h165.67c5.21 0 9.44 4.23 9.44 9.44v12.53c.01 5.21-4.22 9.44-9.43 9.44z" fill="#b3d049"/></g></g><g><g><path d="m244.56 526.45h-60.9c-5.21 0-9.44-4.23-9.44-9.44v-12.53c0-5.21 4.23-9.44 9.44-9.44h60.9c5.21 0 9.44 4.23 9.44 9.44v12.53c0 5.21-4.23 9.44-9.44 9.44z" fill="#f88778"/></g><g><path d="m825.98 526.45h-526.1c-5.21 0-9.44-4.23-9.44-9.44v-12.53c0-5.21 4.23-9.44 9.44-9.44h526.09c5.21 0 9.44 4.23 9.44 9.44v12.53c.01 5.21-4.22 9.44-9.43 9.44z" fill="#f88778"/></g></g></g><g fill="#3b4c53"><path d="m743.06 402.8 44.55 44.55c4.86 4.86 4.86 12.73.05 17.55-4.86 4.86-12.73 4.86-17.59 0l-44.55-44.55z"/><path d="m774.94 417.86-34.35 34.35c-5.32 5.32-14.39 3.09-16.63-4.1l-15.6-49.99c-2.41-7.71 4.84-14.94 12.54-12.53l49.95 15.63c7.18 2.26 9.41 11.32 4.09 16.64z"/></g><g fill="#fff"><path d="m480.72 288.8c35-9.43 70.83-9 105.85 0-35.28 3.92-70.56 3.38-105.85 0z"/><path d="m346.93 281.89c8.49 31.52 8.1 63.79 0 95.32-3.53-31.78-3.05-63.54 0-95.32z"/></g></g></svg>