<svg xmlns="http://www.w3.org/2000/svg" version="1.1" xmlns:xlink="http://www.w3.org/1999/xlink" width="512" height="512" x="0" y="0" viewBox="0 0 512 512" style="enable-background:new 0 0 512 512" xml:space="preserve" class=""><circle r="256" cx="256" cy="256" fill="#ffffff" shape="circle"></circle><g transform="matrix(0.7,0,0,0.7,76.79985351562505,76.79985008239748)"><linearGradient id="a" x1="34.929" x2="605.179" y1="233.39" y2="233.39" gradientTransform="matrix(1.0039 0 0 -1.0039 .192 516.56)" gradientUnits="userSpaceOnUse"><stop offset="0" style="stop-color:#4D4D4D" stop-color="#4d4d4d"></stop><stop offset="1" style="stop-color:#333333" stop-color="#333333"></stop></linearGradient><path d="M481.953 469.749H30.047C13.453 469.749 0 456.296 0 439.702V124.81c0-16.595 13.453-30.047 30.047-30.047h451.905c16.595 0 30.047 13.453 30.047 30.047v314.892c.001 16.594-13.452 30.047-30.046 30.047z" style="fill:url(#a);" fill=""></path><linearGradient id="b" x1="254.809" x2="254.809" y1="120.453" y2="293.963" gradientTransform="matrix(1.0039 0 0 -1.0039 .192 516.56)" gradientUnits="userSpaceOnUse"><stop offset="0" style="stop-color:#4D4D4D;stop-opacity:0" stop-color="#4d4d4d;stop-opacity:0"></stop><stop offset="1" style="stop-color:#000000" stop-color="#000000"></stop></linearGradient><path d="m25.96 260.632 209.117 209.117h246.875c16.595 0 30.047-13.453 30.047-30.047V124.81a29.903 29.903 0 0 0-5.204-16.901c-.313-.461-.643-.91-.981-1.35-.072-.094-.147-.187-.22-.279a32.854 32.854 0 0 0-.855-1.042l-.259-.299c-.318-.36-.645-.713-.979-1.057-.055-.056-.108-.115-.164-.172a30.143 30.143 0 0 0-2.515-2.276c-.103-.084-.21-.165-.315-.248a28.687 28.687 0 0 0-1.027-.773c-.124-.089-.249-.179-.374-.266a31.679 31.679 0 0 0-1.107-.735c-.099-.063-.198-.13-.298-.191a29.297 29.297 0 0 0-1.479-.857l-.027-.014c-.478-.258-.965-.5-1.457-.732-.143-.067-.287-.13-.431-.195a30.899 30.899 0 0 0-1.12-.48c-.167-.067-.334-.134-.503-.199a30.811 30.811 0 0 0-1.162-.416c-.149-.05-.296-.103-.447-.152a29.823 29.823 0 0 0-1.636-.474l-.071-.016a29.656 29.656 0 0 0-1.587-.354c-.175-.034-.352-.063-.529-.094a28.935 28.935 0 0 0-2.993-.378c-.182-.014-.362-.031-.545-.041a30.17 30.17 0 0 0-1.76-.055H30.047C13.453 94.763 0 108.216 0 124.811v79.324c0 22.598 10.074 42.831 25.96 56.497z" style="fill:url(#b);" fill=""></path><linearGradient id="c" x1="71.397" x2="36.278" y1="375.648" y2="356.826" gradientTransform="matrix(1.0039 0 0 -1.0039 .192 516.56)" gradientUnits="userSpaceOnUse"><stop offset="0" style="stop-color:#4D4D4D" stop-color="#4d4d4d"></stop><stop offset="1" style="stop-color:#333333" stop-color="#333333"></stop></linearGradient><path d="M167.662 106.381h-8.413c-6.527 0-11.818-5.292-11.818-11.818V86.15c0-6.527 5.292-11.818 11.818-11.818h8.413c6.527 0 11.818 5.292 11.818 11.818v8.413c0 6.527-5.291 11.818-11.818 11.818z" style="fill:url(#c);" fill=""></path><linearGradient id="d" x1="112.536" x2="77.416" y1="298.887" y2="280.065" gradientTransform="matrix(1.0039 0 0 -1.0039 .192 516.56)" gradientUnits="userSpaceOnUse"><stop offset="0" style="stop-color:#4D4D4D" stop-color="#4d4d4d"></stop><stop offset="1" style="stop-color:#333333" stop-color="#333333"></stop></linearGradient><path d="M352.751 106.381h-8.413c-6.528 0-11.818-5.292-11.818-11.818V86.15c0-6.527 5.292-11.818 11.818-11.818h8.413c6.527 0 11.818 5.292 11.818 11.818v8.413c.001 6.527-5.291 11.818-11.818 11.818z" style="fill:url(#d);" fill=""></path><linearGradient id="e" x1="254.953" x2="219.833" y1="349.753" y2="137.173" gradientTransform="matrix(1.0039 0 0 -1.0039 .192 516.56)" gradientUnits="userSpaceOnUse"><stop offset="0" style="stop-color:#4D4D4D" stop-color="#4d4d4d"></stop><stop offset="1" style="stop-color:#333333" stop-color="#333333"></stop></linearGradient><path d="M481.953 94.763H30.047C13.453 94.763 0 108.216 0 124.811v79.324c0 41.155 33.362 74.516 74.516 74.516h362.967c41.155 0 74.516-33.362 74.516-74.516v-79.324c.001-16.596-13.452-30.048-30.046-30.048z" style="fill:url(#e);" fill=""></path><linearGradient id="f" x1="220.092" x2="91.792" y1="153.576" y2="281.876" gradientTransform="matrix(1.0039 0 0 -1.0039 .192 516.56)" gradientUnits="userSpaceOnUse"><stop offset="0" style="stop-color:#4D4D4D;stop-opacity:0" stop-color="#4d4d4d;stop-opacity:0"></stop><stop offset="1" style="stop-color:#000000" stop-color="#000000"></stop></linearGradient><path d="M168.467 257.69c-3.008-3.356-7.362-5.48-12.224-5.48H115.38c-9.071 0-16.426 7.354-16.426 16.425v16.827c0 4.861 2.124 9.216 5.48 12.224l63.924 63.924c3.008 3.356 7.362 5.48 12.224 5.48h40.864c9.071 0 16.425-7.354 16.425-16.426v-16.827c0-4.861-2.124-9.216-5.48-12.224l-63.924-63.923z" style="fill:url(#f);" fill=""></path><linearGradient id="g" x1="135.09" x2="135.09" y1="254.573" y2="222.023" gradientTransform="matrix(1.0039 0 0 -1.0039 .192 516.56)" gradientUnits="userSpaceOnUse"><stop offset="0" style="stop-color:#FCC344" stop-color="#fcc344"></stop><stop offset="1" style="stop-color:#D48000" stop-color="#d48000"></stop></linearGradient><path d="m145.313 284.334 23.31-9.646a6.551 6.551 0 0 0 4.047-6.054c0-9.071-7.354-16.425-16.425-16.425h-40.864c-9.071 0-16.426 7.354-16.426 16.426 0 2.65 1.597 5.04 4.047 6.054l23.31 9.646a24.846 24.846 0 0 0 19.001-.001z" style="fill:url(#g);" fill=""></path><linearGradient id="h" x1="135.09" x2="135.09" y1="227.003" y2="210.923" gradientTransform="matrix(1.0039 0 0 -1.0039 .192 516.56)" gradientUnits="userSpaceOnUse"><stop offset="0" style="stop-color:#FCC344" stop-color="#fcc344"></stop><stop offset="1" style="stop-color:#D48000" stop-color="#d48000"></stop></linearGradient><path d="M156.244 301.886H115.38c-9.071 0-16.426-7.354-16.426-16.426v-16.827c0-9.071 7.354-16.426 16.426-16.426h40.864c9.071 0 16.425 7.354 16.425 16.426v16.827c0 9.073-7.353 16.426-16.425 16.426z" style="fill:url(#h);" fill=""></path><linearGradient id="i" x1="135.09" x2="135.09" y1="214.383" y2="238.913" gradientTransform="matrix(1.0039 0 0 -1.0039 .192 516.56)" gradientUnits="userSpaceOnUse"><stop offset="0" style="stop-color:#D48000;stop-opacity:0" stop-color="#d48000;stop-opacity:0"></stop><stop offset="1" style="stop-color:#D48000" stop-color="#d48000"></stop></linearGradient><path d="m101.464 273.778 28.108 28.108h26.672c9.071 0 16.425-7.354 16.425-16.426v-16.827c0-4.266-1.639-8.139-4.306-11.059l-.001-.001c-.374-.41-.769-.8-1.182-1.171l-.008-.007c-.403-.36-.823-.7-1.259-1.019l-.059-.044c-.415-.301-.846-.58-1.288-.842-.046-.027-.09-.056-.137-.083-.415-.24-.844-.458-1.281-.662-.078-.036-.155-.077-.235-.113a16.27 16.27 0 0 0-1.25-.489c-.113-.04-.224-.087-.339-.124a16.14 16.14 0 0 0-1.225-.336c-.142-.034-.279-.078-.423-.108a16.296 16.296 0 0 0-1.257-.205c-.148-.019-.29-.051-.439-.067-.57-.06-1.149-.093-1.736-.093h-40.866c-9.071 0-16.426 7.354-16.426 16.426a6.553 6.553 0 0 0 2.512 5.142z" style="fill:url(#i);" fill=""></path><linearGradient id="j" x1="135.09" x2="135.09" y1="247.753" y2="227.743" gradientTransform="matrix(1.0039 0 0 -1.0039 .192 516.56)" gradientUnits="userSpaceOnUse"><stop offset="0" style="stop-color:#FCC344" stop-color="#fcc344"></stop><stop offset="1" style="stop-color:#D48000" stop-color="#d48000"></stop></linearGradient><path d="m145.313 284.334 23.31-9.646a6.551 6.551 0 0 0 4.047-6.054c0-9.071-7.354-16.425-16.425-16.425h-40.864c-9.071 0-16.426 7.354-16.426 16.426 0 2.65 1.597 5.04 4.047 6.054l23.31 9.646a24.846 24.846 0 0 0 19.001-.001z" style="fill:url(#j);" fill=""></path><linearGradient id="k" x1="459.53" x2="331.23" y1="153.574" y2="281.874" gradientTransform="matrix(1.0039 0 0 -1.0039 .192 516.56)" gradientUnits="userSpaceOnUse"><stop offset="0" style="stop-color:#4D4D4D;stop-opacity:0" stop-color="#4d4d4d;stop-opacity:0"></stop><stop offset="1" style="stop-color:#000000" stop-color="#000000"></stop></linearGradient><path d="M408.843 257.69c-3.008-3.356-7.362-5.48-12.224-5.48h-40.864c-9.071 0-16.426 7.354-16.426 16.425v16.827c0 4.861 2.124 9.216 5.48 12.224l63.924 63.924c3.008 3.356 7.362 5.48 12.224 5.48h40.864c9.071 0 16.425-7.354 16.425-16.426v-16.827c0-4.861-2.124-9.216-5.48-12.224l-63.923-63.923z" style="fill:url(#k);" fill=""></path><linearGradient id="l" x1="374.527" x2="374.527" y1="254.573" y2="222.023" gradientTransform="matrix(1.0039 0 0 -1.0039 .192 516.56)" gradientUnits="userSpaceOnUse"><stop offset="0" style="stop-color:#FCC344" stop-color="#fcc344"></stop><stop offset="1" style="stop-color:#D48000" stop-color="#d48000"></stop></linearGradient><path d="m385.689 284.334 23.31-9.646a6.551 6.551 0 0 0 4.047-6.054c0-9.071-7.354-16.425-16.425-16.425h-40.864c-9.071 0-16.426 7.354-16.426 16.426 0 2.65 1.597 5.04 4.047 6.054l23.31 9.646a24.846 24.846 0 0 0 19.001-.001z" style="fill:url(#l);" fill=""></path><linearGradient id="m" x1="374.526" x2="374.526" y1="227.003" y2="210.923" gradientTransform="matrix(1.0039 0 0 -1.0039 .192 516.56)" gradientUnits="userSpaceOnUse"><stop offset="0" style="stop-color:#FCC344" stop-color="#fcc344"></stop><stop offset="1" style="stop-color:#D48000" stop-color="#d48000"></stop></linearGradient><path d="M396.619 301.886h-40.864c-9.071 0-16.426-7.354-16.426-16.426v-16.827c0-9.071 7.354-16.426 16.426-16.426h40.864c9.071 0 16.425 7.354 16.425 16.426v16.827c.002 9.073-7.352 16.426-16.425 16.426z" style="fill:url(#m);" fill=""></path><linearGradient id="n" x1="374.528" x2="374.528" y1="214.383" y2="238.913" gradientTransform="matrix(1.0039 0 0 -1.0039 .192 516.56)" gradientUnits="userSpaceOnUse"><stop offset="0" style="stop-color:#D48000;stop-opacity:0" stop-color="#d48000;stop-opacity:0"></stop><stop offset="1" style="stop-color:#D48000" stop-color="#d48000"></stop></linearGradient><path d="m341.84 273.778 28.108 28.108h26.672c9.071 0 16.425-7.354 16.425-16.426v-16.827c0-4.266-1.639-8.139-4.306-11.059l-.001-.001c-.374-.41-.769-.8-1.182-1.171l-.008-.007c-.403-.36-.823-.7-1.259-1.019l-.059-.044c-.415-.301-.846-.58-1.288-.842-.046-.027-.09-.056-.137-.083-.415-.24-.844-.458-1.281-.662-.078-.036-.155-.077-.235-.113a16.27 16.27 0 0 0-1.25-.489c-.113-.04-.224-.087-.339-.124a16.14 16.14 0 0 0-1.225-.336c-.142-.034-.279-.078-.423-.108a16.217 16.217 0 0 0-1.257-.205c-.148-.019-.29-.051-.439-.067-.57-.06-1.15-.093-1.736-.093h-40.864c-9.071 0-16.426 7.354-16.426 16.426a6.542 6.542 0 0 0 2.51 5.142z" style="fill:url(#n);" fill=""></path><linearGradient id="o" x1="374.527" x2="374.527" y1="247.753" y2="227.743" gradientTransform="matrix(1.0039 0 0 -1.0039 .192 516.56)" gradientUnits="userSpaceOnUse"><stop offset="0" style="stop-color:#FCC344" stop-color="#fcc344"></stop><stop offset="1" style="stop-color:#D48000" stop-color="#d48000"></stop></linearGradient><path d="m385.689 284.334 23.31-9.646a6.551 6.551 0 0 0 4.047-6.054c0-9.071-7.354-16.425-16.425-16.425h-40.864c-9.071 0-16.426 7.354-16.426 16.426 0 2.65 1.597 5.04 4.047 6.054l23.31 9.646a24.846 24.846 0 0 0 19.001-.001z" style="fill:url(#o);" fill=""></path><linearGradient id="p" x1="254.809" x2="254.809" y1="115.663" y2="29.433" gradientTransform="matrix(1.0039 0 0 -1.0039 .192 516.56)" gradientUnits="userSpaceOnUse"><stop offset="0" style="stop-color:#4D4D4D;stop-opacity:0" stop-color="#4d4d4d;stop-opacity:0"></stop><stop offset="1" style="stop-color:#000000" stop-color="#000000"></stop></linearGradient><path d="M0 359.577v80.125c0 16.595 13.453 30.047 30.047 30.047h451.905c16.595 0 30.047-13.453 30.047-30.047v-80.125H0z" style="fill:url(#p);" fill=""></path><linearGradient id="q" x1="254.808" x2="254.808" y1="460.755" y2="415.693" gradientTransform="matrix(1.0039 0 0 -1.0039 .192 516.56)" gradientUnits="userSpaceOnUse"><stop offset="0" style="stop-color:#FCC344" stop-color="#fcc344"></stop><stop offset="1" style="stop-color:#D48000" stop-color="#d48000"></stop></linearGradient><path d="M343.338 88.613c-1.81 0-3.651-.297-5.457-.925-22.619-7.86-51.697-12.187-81.881-12.187-30.184 0-59.261 4.328-81.881 12.187-8.667 3.011-18.147-1.574-21.161-10.248s1.574-18.147 10.248-21.161c26.038-9.046 58.991-14.029 92.793-14.029s66.756 4.982 92.793 14.029c8.674 3.014 13.261 12.487 10.248 21.161-2.385 6.867-8.82 11.173-15.702 11.173z" style="fill:url(#q);" fill=""></path><linearGradient id="r" x1="284.571" x2="284.571" y1="48.623" y2="132.883" gradientTransform="matrix(1.0039 0 0 -1.0039 .192 516.56)" gradientUnits="userSpaceOnUse"><stop offset="0" style="stop-color:#1A1A1A;stop-opacity:0" stop-color="#1a1a1a;stop-opacity:0"></stop><stop offset="1" style="stop-color:#000000" stop-color="#000000"></stop></linearGradient><path d="M311.161 409.591a3.54 3.54 0 0 0-3.152-1.949H203.991a3.55 3.55 0 0 0-3.551 3.551v10.227c0 1.381.797 2.565 1.948 3.152l45.175 45.175h123.754l-60.156-60.156z" style="fill:url(#r);" fill=""></path><linearGradient id="s" x1="254.809" x2="254.809" y1="106.553" y2="91.053" gradientTransform="matrix(1.0039 0 0 -1.0039 .192 516.56)" gradientUnits="userSpaceOnUse"><stop offset="0" style="stop-color:#FCC344" stop-color="#fcc344"></stop><stop offset="1" style="stop-color:#D48000" stop-color="#d48000"></stop></linearGradient><path d="M200.44 411.194v10.227a3.55 3.55 0 0 0 3.551 3.551h104.018a3.55 3.55 0 0 0 3.551-3.551v-10.227a3.55 3.55 0 0 0-3.551-3.551H203.991a3.551 3.551 0 0 0-3.551 3.551z" style="fill:url(#s);" fill=""></path></g></svg>