<svg xmlns="http://www.w3.org/2000/svg" version="1.1" xmlns:xlink="http://www.w3.org/1999/xlink" width="512" height="512" x="0" y="0" viewBox="0 0 128 128" style="enable-background:new 0 0 512 512" xml:space="preserve" class=""><circle r="64" cx="64" cy="64" fill="#ffffff" shape="circle"></circle><g transform="matrix(0.7,0,0,0.7,19.200000000000003,19.050000000000004)"><linearGradient id="a"><stop offset="0" stop-color="#e2dcca"></stop><stop offset=".667" stop-color="#f4eadd"></stop></linearGradient><linearGradient xlink:href="#a" id="i" x1="151.596" x2="115.039" y1="49.596" y2="59.155" gradientUnits="userSpaceOnUse"></linearGradient><linearGradient id="j" x1="67.48" x2="66.147" y1="96.088" y2="68.088" gradientUnits="userSpaceOnUse"><stop offset=".04" stop-color="#fb9e4b"></stop><stop offset=".809" stop-color="#f37e3e"></stop></linearGradient><linearGradient id="b"><stop offset="0" stop-color="#58595b"></stop><stop offset="1" stop-color="#414042"></stop></linearGradient><linearGradient xlink:href="#b" id="k" x1="57.059" x2="60.809" y1="62.695" y2="94.195" gradientUnits="userSpaceOnUse"></linearGradient><linearGradient id="l" x1="64" x2="64" y1="-9.551" y2="-1.728" gradientUnits="userSpaceOnUse"><stop offset="0" stop-color="#90d6ce"></stop><stop offset="1" stop-color="#65c6bb"></stop></linearGradient><linearGradient id="m" x1="-45.289" x2="-30.148" y1="22.503" y2="21.187" gradientUnits="userSpaceOnUse"><stop offset="0" stop-color="#f0f1f1"></stop><stop offset="1" stop-color="#e5e6e7"></stop></linearGradient><linearGradient id="c"><stop offset="0" stop-color="#d0d3d3"></stop><stop offset="1" stop-color="#aaaeb1"></stop></linearGradient><linearGradient xlink:href="#c" id="n" x1="154.361" x2="178.361" y1="73.321" y2="65.571" gradientUnits="userSpaceOnUse"></linearGradient><linearGradient xlink:href="#b" id="o" x1="64" x2="64" y1="58.25" y2="51.5" gradientUnits="userSpaceOnUse"></linearGradient><linearGradient xlink:href="#c" id="p" x1="43.206" x2="42.956" y1="70.51" y2="74.135" gradientUnits="userSpaceOnUse"></linearGradient><linearGradient xlink:href="#c" id="q" x1="88.989" x2="88.739" y1="73.667" y2="77.292" gradientUnits="userSpaceOnUse"></linearGradient><linearGradient xlink:href="#c" id="r" x1="66.097" x2="65.847" y1="72.089" y2="75.714" gradientUnits="userSpaceOnUse"></linearGradient><linearGradient xlink:href="#a" id="s" x1="48.606" x2="59.606" y1="154.824" y2="181.324" gradientUnits="userSpaceOnUse"></linearGradient><linearGradient id="d"><stop offset="0" stop-color="#ffd385"></stop><stop offset="1" stop-color="#ffb66a"></stop></linearGradient><linearGradient xlink:href="#d" id="t" x1="14.406" x2="21.593" y1="-62.964" y2="187.848" gradientUnits="userSpaceOnUse"></linearGradient><linearGradient id="e"><stop offset="0" stop-color="#b9d9ef"></stop><stop offset="1" stop-color="#9ecdef"></stop></linearGradient><linearGradient xlink:href="#e" id="u" x1="8.709" x2="11.459" y1="27.623" y2="48.373" gradientUnits="userSpaceOnUse"></linearGradient><linearGradient xlink:href="#e" id="v" x1="20.502" x2="23.252" y1="26.06" y2="46.81" gradientUnits="userSpaceOnUse"></linearGradient><linearGradient xlink:href="#e" id="w" x1="6.886" x2="9.636" y1="27.865" y2="48.615" gradientUnits="userSpaceOnUse"></linearGradient><linearGradient xlink:href="#e" id="x" x1="18.679" x2="21.429" y1="26.302" y2="47.052" gradientUnits="userSpaceOnUse"></linearGradient><linearGradient xlink:href="#e" id="y" x1="5.062" x2="7.812" y1="28.106" y2="48.856" gradientUnits="userSpaceOnUse"></linearGradient><linearGradient xlink:href="#e" id="z" x1="16.855" x2="19.605" y1="26.543" y2="47.293" gradientUnits="userSpaceOnUse"></linearGradient><linearGradient xlink:href="#a" id="A" x1="-30.725" x2="-19.725" y1="187.754" y2="214.254" gradientTransform="matrix(-1 0 0 1 35 0)" gradientUnits="userSpaceOnUse"></linearGradient><linearGradient xlink:href="#d" id="B" x1="-78.484" x2="-71.298" y1="-59.137" y2="191.675" gradientTransform="matrix(-1 0 0 1 35 0)" gradientUnits="userSpaceOnUse"></linearGradient><linearGradient xlink:href="#e" id="C" x1="-82.686" x2="-79.936" y1="39.736" y2="60.486" gradientTransform="matrix(-1 0 0 1 35 0)" gradientUnits="userSpaceOnUse"></linearGradient><linearGradient xlink:href="#e" id="D" x1="-70.893" x2="-68.143" y1="38.173" y2="58.923" gradientTransform="matrix(-1 0 0 1 35 0)" gradientUnits="userSpaceOnUse"></linearGradient><linearGradient xlink:href="#e" id="E" x1="-84.509" x2="-81.759" y1="39.977" y2="60.727" gradientTransform="matrix(-1 0 0 1 35 0)" gradientUnits="userSpaceOnUse"></linearGradient><linearGradient xlink:href="#e" id="F" x1="-72.716" x2="-69.966" y1="38.414" y2="59.164" gradientTransform="matrix(-1 0 0 1 35 0)" gradientUnits="userSpaceOnUse"></linearGradient><linearGradient xlink:href="#e" id="G" x1="-86.333" x2="-83.583" y1="40.219" y2="60.969" gradientTransform="matrix(-1 0 0 1 35 0)" gradientUnits="userSpaceOnUse"></linearGradient><linearGradient xlink:href="#e" id="H" x1="-74.54" x2="-71.79" y1="38.656" y2="59.406" gradientTransform="matrix(-1 0 0 1 35 0)" gradientUnits="userSpaceOnUse"></linearGradient><linearGradient xlink:href="#e" id="I" x1="41.714" x2="44.214" y1="-2.451" y2="122.799" gradientUnits="userSpaceOnUse"></linearGradient><linearGradient xlink:href="#e" id="J" x1="55.709" x2="58.209" y1="-2.69" y2="122.56" gradientUnits="userSpaceOnUse"></linearGradient><linearGradient xlink:href="#e" id="K" x1="41.474" x2="43.974" y1="-2.446" y2="122.804" gradientUnits="userSpaceOnUse"></linearGradient><linearGradient xlink:href="#e" id="L" x1="55.469" x2="57.969" y1="-2.686" y2="122.565" gradientUnits="userSpaceOnUse"></linearGradient><linearGradient xlink:href="#e" id="M" x1="69.704" x2="72.204" y1="-2.93" y2="122.32" gradientUnits="userSpaceOnUse"></linearGradient><linearGradient xlink:href="#e" id="N" x1="83.699" x2="86.199" y1="-3.169" y2="122.081" gradientUnits="userSpaceOnUse"></linearGradient><linearGradient xlink:href="#e" id="O" x1="69.465" x2="71.965" y1="-2.925" y2="122.325" gradientUnits="userSpaceOnUse"></linearGradient><linearGradient xlink:href="#e" id="P" x1="83.46" x2="85.96" y1="-3.164" y2="122.086" gradientUnits="userSpaceOnUse"></linearGradient><linearGradient xlink:href="#e" id="Q" x1="42.192" x2="44.692" y1="-2.46" y2="122.79" gradientUnits="userSpaceOnUse"></linearGradient><linearGradient xlink:href="#e" id="R" x1="56.188" x2="58.688" y1="-2.7" y2="122.55" gradientUnits="userSpaceOnUse"></linearGradient><linearGradient xlink:href="#e" id="S" x1="41.953" x2="44.453" y1="-2.456" y2="122.794" gradientUnits="userSpaceOnUse"></linearGradient><linearGradient xlink:href="#e" id="T" x1="55.948" x2="58.448" y1="-2.695" y2="122.555" gradientUnits="userSpaceOnUse"></linearGradient><linearGradient xlink:href="#e" id="U" x1="70.183" x2="72.683" y1="-2.939" y2="122.311" gradientUnits="userSpaceOnUse"></linearGradient><linearGradient xlink:href="#e" id="V" x1="84.178" x2="86.678" y1="-3.179" y2="122.071" gradientUnits="userSpaceOnUse"></linearGradient><linearGradient xlink:href="#e" id="W" x1="69.943" x2="72.443" y1="-2.935" y2="122.316" gradientUnits="userSpaceOnUse"></linearGradient><linearGradient xlink:href="#e" id="X" x1="83.939" x2="86.439" y1="-3.174" y2="122.076" gradientUnits="userSpaceOnUse"></linearGradient><linearGradient id="f"><stop offset="0" stop-color="#ab766a"></stop><stop offset="1" stop-color="#92634d"></stop></linearGradient><linearGradient xlink:href="#f" id="Y" x1="-183.937" x2="-182.186" y1="90.511" y2="111.274" gradientTransform="matrix(-1 0 0 1 -158 0)" gradientUnits="userSpaceOnUse"></linearGradient><linearGradient id="g"><stop offset="0" stop-color="#a5af46"></stop><stop offset="1" stop-color="#9ba628"></stop></linearGradient><linearGradient xlink:href="#g" id="Z" x1="-182.173" x2="-182.548" y1="101.87" y2="86.12" gradientTransform="matrix(-1 0 0 1 -158 0)" gradientUnits="userSpaceOnUse"></linearGradient><linearGradient xlink:href="#f" id="aa" x1="-175" x2="-173.249" y1="89.757" y2="110.52" gradientTransform="matrix(-1 0 0 1 -158 0)" gradientUnits="userSpaceOnUse"></linearGradient><linearGradient id="h"><stop offset="0" stop-color="#808f00"></stop><stop offset="1" stop-color="#6b7f00"></stop></linearGradient><linearGradient xlink:href="#h" id="ab" x1="-134.545" x2="-130.17" y1="8.184" y2="-3.066" gradientTransform="matrix(-1 0 0 1 -158 0)" gradientUnits="userSpaceOnUse"></linearGradient><linearGradient xlink:href="#f" id="ac" x1="102.063" x2="103.814" y1="90.511" y2="111.274" gradientUnits="userSpaceOnUse"></linearGradient><linearGradient xlink:href="#g" id="ad" x1="103.827" x2="103.452" y1="101.87" y2="86.12" gradientUnits="userSpaceOnUse"></linearGradient><linearGradient xlink:href="#f" id="ae" x1="111" x2="112.751" y1="89.757" y2="110.52" gradientUnits="userSpaceOnUse"></linearGradient><linearGradient xlink:href="#h" id="af" x1="151.455" x2="155.83" y1="8.184" y2="-3.066" gradientUnits="userSpaceOnUse"></linearGradient><path fill="url(#i)" d="M33 28h62v89H33z" opacity="1" data-original="url(#i)"></path><path fill="url(#j)" d="M96 28H32a2 2 0 0 1-2-2v-6a2 2 0 0 1 2-2h64a2 2 0 0 1 2 2v6a2 2 0 0 1-2 2z" opacity="1" data-original="url(#j)"></path><path fill="url(#k)" d="M124 125H4a2 2 0 0 1-2-2v-4a2 2 0 0 1 2-2h120a2 2 0 0 1 2 2v4a2 2 0 0 1-2 2z" opacity="1" data-original="url(#k)" class=""></path><circle cx="64" cy="13" r="11" fill="url(#l)" opacity="1" data-original="url(#l)"></circle><path fill="url(#m)" d="M70 10h-3V7a1 1 0 0 0-1-1h-4a1 1 0 0 0-1 1v3h-3a1 1 0 0 0-1 1v4a1 1 0 0 0 1 1h3v3a1 1 0 0 0 1 1h4a1 1 0 0 0 1-1v-3h3a1 1 0 0 0 1-1v-4a1 1 0 0 0-1-1z" opacity="1" data-original="url(#m)"></path><path fill="url(#n)" d="M41 88h46v29H41z" opacity="1" data-original="url(#n)"></path><path fill="url(#o)" d="M88 88H40a1 1 0 0 1-1-1v-2a1 1 0 0 1 1-1h48a1 1 0 0 1 1 1v2a1 1 0 0 1-1 1z" opacity="1" data-original="url(#o)"></path><path fill="url(#p)" d="M40 88h2v29h-2z" opacity="1" data-original="url(#p)"></path><path fill="url(#q)" d="M86 88h2v29h-2z" opacity="1" data-original="url(#q)"></path><path fill="url(#r)" d="M63 88h2v29h-2z" opacity="1" data-original="url(#r)"></path><path fill="url(#s)" d="M5 50h28v67H5z" opacity="1" data-original="url(#s)"></path><path fill="url(#t)" d="M33 50H3a1 1 0 0 1-1-1v-7a1 1 0 0 1 1-1h30z" opacity="1" data-original="url(#t)"></path><path fill="url(#u)" d="M16 64h-6a1 1 0 0 1-1-1v-6a1 1 0 0 1 1-1h6a1 1 0 0 1 1 1v6a1 1 0 0 1-1 1z" opacity="1" data-original="url(#u)"></path><path fill="url(#v)" d="M28 64h-6a1 1 0 0 1-1-1v-6a1 1 0 0 1 1-1h6a1 1 0 0 1 1 1v6a1 1 0 0 1-1 1z" opacity="1" data-original="url(#v)"></path><path fill="url(#w)" d="M16 78h-6a1 1 0 0 1-1-1v-6a1 1 0 0 1 1-1h6a1 1 0 0 1 1 1v6a1 1 0 0 1-1 1z" opacity="1" data-original="url(#w)"></path><path fill="url(#x)" d="M28 78h-6a1 1 0 0 1-1-1v-6a1 1 0 0 1 1-1h6a1 1 0 0 1 1 1v6a1 1 0 0 1-1 1z" opacity="1" data-original="url(#x)"></path><path fill="url(#y)" d="M16 92h-6a1 1 0 0 1-1-1v-6a1 1 0 0 1 1-1h6a1 1 0 0 1 1 1v6a1 1 0 0 1-1 1z" opacity="1" data-original="url(#y)"></path><path fill="url(#z)" d="M28 92h-6a1 1 0 0 1-1-1v-6a1 1 0 0 1 1-1h6a1 1 0 0 1 1 1v6a1 1 0 0 1-1 1z" opacity="1" data-original="url(#z)"></path><path fill="url(#A)" d="M123 117H95V50h28z" opacity="1" data-original="url(#A)"></path><path fill="url(#B)" d="M95 50h30a1 1 0 0 0 1-1v-7a1 1 0 0 0-1-1H95z" opacity="1" data-original="url(#B)"></path><path fill="url(#C)" d="M112 64h6a1 1 0 0 0 1-1v-6a1 1 0 0 0-1-1h-6a1 1 0 0 0-1 1v6a1 1 0 0 0 1 1z" opacity="1" data-original="url(#C)"></path><path fill="url(#D)" d="M100 64h6a1 1 0 0 0 1-1v-6a1 1 0 0 0-1-1h-6a1 1 0 0 0-1 1v6a1 1 0 0 0 1 1z" opacity="1" data-original="url(#D)"></path><path fill="url(#E)" d="M112 78h6a1 1 0 0 0 1-1v-6a1 1 0 0 0-1-1h-6a1 1 0 0 0-1 1v6a1 1 0 0 0 1 1z" opacity="1" data-original="url(#E)"></path><path fill="url(#F)" d="M100 78h6a1 1 0 0 0 1-1v-6a1 1 0 0 0-1-1h-6a1 1 0 0 0-1 1v6a1 1 0 0 0 1 1z" opacity="1" data-original="url(#F)"></path><path fill="url(#G)" d="M112 92h6a1 1 0 0 0 1-1v-6a1 1 0 0 0-1-1h-6a1 1 0 0 0-1 1v6a1 1 0 0 0 1 1z" opacity="1" data-original="url(#G)"></path><path fill="url(#H)" d="M100 92h6a1 1 0 0 0 1-1v-6a1 1 0 0 0-1-1h-6a1 1 0 0 0-1 1v6a1 1 0 0 0 1 1z" opacity="1" data-original="url(#H)"></path><path fill="url(#I)" d="M46 66h-6a1 1 0 0 1-1-1v-6a1 1 0 0 1 1-1h6a1 1 0 0 1 1 1v6a1 1 0 0 1-1 1z" opacity="1" data-original="url(#I)"></path><path fill="url(#J)" d="M60 66h-6a1 1 0 0 1-1-1v-6a1 1 0 0 1 1-1h6a1 1 0 0 1 1 1v6a1 1 0 0 1-1 1z" opacity="1" data-original="url(#J)"></path><path fill="url(#K)" d="M46 78h-6a1 1 0 0 1-1-1v-6a1 1 0 0 1 1-1h6a1 1 0 0 1 1 1v6a1 1 0 0 1-1 1z" opacity="1" data-original="url(#K)"></path><path fill="url(#L)" d="M60 78h-6a1 1 0 0 1-1-1v-6a1 1 0 0 1 1-1h6a1 1 0 0 1 1 1v6a1 1 0 0 1-1 1z" opacity="1" data-original="url(#L)"></path><path fill="url(#M)" d="M74 66h-6a1 1 0 0 1-1-1v-6a1 1 0 0 1 1-1h6a1 1 0 0 1 1 1v6a1 1 0 0 1-1 1z" opacity="1" data-original="url(#M)"></path><path fill="url(#N)" d="M88 66h-6a1 1 0 0 1-1-1v-6a1 1 0 0 1 1-1h6a1 1 0 0 1 1 1v6a1 1 0 0 1-1 1z" opacity="1" data-original="url(#N)"></path><path fill="url(#O)" d="M74 78h-6a1 1 0 0 1-1-1v-6a1 1 0 0 1 1-1h6a1 1 0 0 1 1 1v6a1 1 0 0 1-1 1z" opacity="1" data-original="url(#O)"></path><path fill="url(#P)" d="M88 78h-6a1 1 0 0 1-1-1v-6a1 1 0 0 1 1-1h6a1 1 0 0 1 1 1v6a1 1 0 0 1-1 1z" opacity="1" data-original="url(#P)"></path><path fill="url(#Q)" d="M46 42h-6a1 1 0 0 1-1-1v-6a1 1 0 0 1 1-1h6a1 1 0 0 1 1 1v6a1 1 0 0 1-1 1z" opacity="1" data-original="url(#Q)"></path><path fill="url(#R)" d="M60 42h-6a1 1 0 0 1-1-1v-6a1 1 0 0 1 1-1h6a1 1 0 0 1 1 1v6a1 1 0 0 1-1 1z" opacity="1" data-original="url(#R)"></path><path fill="url(#S)" d="M46 54h-6a1 1 0 0 1-1-1v-6a1 1 0 0 1 1-1h6a1 1 0 0 1 1 1v6a1 1 0 0 1-1 1z" opacity="1" data-original="url(#S)"></path><path fill="url(#T)" d="M60 54h-6a1 1 0 0 1-1-1v-6a1 1 0 0 1 1-1h6a1 1 0 0 1 1 1v6a1 1 0 0 1-1 1z" opacity="1" data-original="url(#T)"></path><path fill="url(#U)" d="M74 42h-6a1 1 0 0 1-1-1v-6a1 1 0 0 1 1-1h6a1 1 0 0 1 1 1v6a1 1 0 0 1-1 1z" opacity="1" data-original="url(#U)"></path><path fill="url(#V)" d="M88 42h-6a1 1 0 0 1-1-1v-6a1 1 0 0 1 1-1h6a1 1 0 0 1 1 1v6a1 1 0 0 1-1 1z" opacity="1" data-original="url(#V)"></path><path fill="url(#W)" d="M74 54h-6a1 1 0 0 1-1-1v-6a1 1 0 0 1 1-1h6a1 1 0 0 1 1 1v6a1 1 0 0 1-1 1z" opacity="1" data-original="url(#W)"></path><path fill="url(#X)" d="M88 54h-6a1 1 0 0 1-1-1v-6a1 1 0 0 1 1-1h6a1 1 0 0 1 1 1v6a1 1 0 0 1-1 1z" opacity="1" data-original="url(#X)"></path><path fill="url(#Y)" d="M21.998 117h4v-7h-4z" opacity="1" data-original="url(#Y)"></path><path fill="url(#Z)" d="M24 100c1.726 0 5 4.548 5 9.176 0 2.252-2.239 3.824-5 3.824s-5-1.571-5-3.824c0-4.628 3.274-9.176 5-9.176z" opacity="1" data-original="url(#Z)"></path><path fill="url(#aa)" d="M12.998 117h4v-7h-4z" opacity="1" data-original="url(#aa)"></path><path fill="url(#ab)" d="M15 97c2.071 0 6 4.947 6 11 0 2.946-2.686 5-6 5s-6-2.054-6-5c0-6.053 3.929-11 6-11z" opacity="1" data-original="url(#ab)"></path><path fill="url(#ac)" d="M102.002 110h4v7h-4z" opacity="1" data-original="url(#ac)"></path><path fill="url(#ad)" d="M104 100c-1.726 0-5 4.548-5 9.176 0 2.252 2.239 3.824 5 3.824s5-1.571 5-3.824c0-4.628-3.274-9.176-5-9.176z" opacity="1" data-original="url(#ad)"></path><path fill="url(#ae)" d="M111.002 110h4v7h-4z" opacity="1" data-original="url(#ae)"></path><path fill="url(#af)" d="M113 97c-2.071 0-6 4.947-6 11 0 2.946 2.686 5 6 5s6-2.054 6-5c0-6.053-3.929-11-6-11z" opacity="1" data-original="url(#af)"></path></g></svg>