<svg xmlns="http://www.w3.org/2000/svg" version="1.1" xmlns:xlink="http://www.w3.org/1999/xlink" width="512" height="512" x="0" y="0" viewBox="0 0 135 135" style="enable-background:new 0 0 512 512" xml:space="preserve"><circle r="67.5" cx="67.5" cy="67.5" fill="#ffffff" shape="circle"></circle><g transform="matrix(0.7,0,0,0.7,20.25,20.249991059303284)"><path fill="#cccccc" d="M130.27 62.431v65.91H89.344v-71.96l13.66 6.05v-6.05l13.606 6.05v-6.05z" opacity="1" data-original="#cccccc"></path><path fill="#4f4e4d" d="M103.443 111.207h12.727v17.135h-12.727z" opacity="1" data-original="#4f4e4d"></path><path fill="#ffffff" d="M116.81 128.341h-1.28v-16.494h-11.447v16.494h-1.28v-17.774h14.008z" opacity="1" data-original="#ffffff"></path><g fill="#dbdbdb"><path d="M88.114 67.4H131.5v1.661H88.114zM88.114 74.56H131.5v1.661H88.114z" fill="#dbdbdb" opacity="1" data-original="#dbdbdb"></path></g><path fill="#4f4e4d" d="M93.403 78.363h8.417v5.649h-8.417z" opacity="1" data-original="#4f4e4d"></path><path fill="#ffffff" d="M102.17 84.362h-9.117v-6.35h9.117zm-8.417-.7h7.717v-4.95h-7.717z" opacity="1" data-original="#ffffff"></path><path fill="#4f4e4d" d="M105.599 78.363h8.417v5.649h-8.417z" opacity="1" data-original="#4f4e4d"></path><path fill="#ffffff" d="M114.366 84.362h-9.118v-6.35h9.118zm-8.417-.7h7.716v-4.95h-7.716z" opacity="1" data-original="#ffffff"></path><path fill="#4f4e4d" d="M117.794 78.363h8.417v5.649h-8.417z" opacity="1" data-original="#4f4e4d"></path><path fill="#ffffff" d="M126.561 84.362h-9.117v-6.35h9.117zm-8.417-.7h7.717v-4.95h-7.717z" opacity="1" data-original="#ffffff"></path><path fill="#4f4e4d" d="M93.403 88.526h8.417v5.649h-8.417z" opacity="1" data-original="#4f4e4d"></path><path fill="#ffffff" d="M102.17 94.525h-9.117v-6.35h9.117zm-8.417-.7h7.717v-4.95h-7.717z" opacity="1" data-original="#ffffff"></path><path fill="#4f4e4d" d="M105.599 88.526h8.417v5.649h-8.417z" opacity="1" data-original="#4f4e4d"></path><path fill="#ffffff" d="M114.366 94.525h-9.118v-6.35h9.118zm-8.417-.7h7.716v-4.95h-7.716z" opacity="1" data-original="#ffffff"></path><path fill="#4f4e4d" d="M117.794 88.526h8.417v5.649h-8.417z" opacity="1" data-original="#4f4e4d"></path><path fill="#ffffff" d="M126.561 94.525h-9.117v-6.35h9.117zm-8.417-.7h7.717v-4.95h-7.717z" opacity="1" data-original="#ffffff"></path><path fill="#4f4e4d" d="M93.403 98.688h8.417v5.649h-8.417z" opacity="1" data-original="#4f4e4d"></path><path fill="#ffffff" d="M102.17 104.688h-9.117v-6.35h9.117zm-8.417-.7h7.717v-4.95h-7.717z" opacity="1" data-original="#ffffff"></path><path fill="#4f4e4d" d="M105.599 98.688h8.417v5.649h-8.417z" opacity="1" data-original="#4f4e4d"></path><path fill="#ffffff" d="M114.366 104.688h-9.118v-6.35h9.118zm-8.417-.7h7.716v-4.95h-7.716z" opacity="1" data-original="#ffffff"></path><path fill="#4f4e4d" d="M117.794 98.688h8.417v5.649h-8.417z" opacity="1" data-original="#4f4e4d"></path><path fill="#ffffff" d="M126.561 104.688h-9.117v-6.35h9.117zm-8.417-.7h7.717v-4.95h-7.717z" opacity="1" data-original="#ffffff"></path><path fill="#4f4e4d" d="M119.178 108.61h5.649v8.417h-5.649z" opacity="1" data-original="#4f4e4d"></path><path fill="#ffffff" d="M118.828 117.377v-9.117h6.35v9.117zm.7-8.416v7.716h4.95v-7.716z" opacity="1" data-original="#ffffff"></path><path fill="#4f4e4d" d="M94.787 108.61h5.649v8.417h-5.649z" opacity="1" data-original="#4f4e4d"></path><path fill="#ffffff" d="M94.437 117.377v-9.117h6.35v9.117zm.7-8.416v7.716h4.949v-7.716z" opacity="1" data-original="#ffffff"></path><g fill="#4f4e4d"><path d="M93.434 70.409h6.086v2.804h-6.086zM102.321 70.409h6.086v2.804h-6.086zM111.207 70.409h6.086v2.804h-6.086zM120.094 70.409h6.086v2.804h-6.086z" fill="#4f4e4d" opacity="1" data-original="#4f4e4d"></path></g><path d="M89.344 93.647h11.442v34.694H89.344z" opacity="1" fill="#00000008" data-original="#00000008"></path><path fill="#cccccc" d="m74.901 27.968 5.376 97.399H58.525L63.9 27.968z" opacity="1" data-original="#cccccc"></path><path d="m60.265 93.843-1.74 31.524h21.752l-1.74-31.524z" opacity="1" fill="#00000008" data-original="#00000008"></path><g fill="#ab5033"><path d="M76.275 52.89H62.527l.685-12.406H75.59zM77.808 80.562H60.994l.685-12.405h15.445zM79.328 108.248H59.474l.685-12.405h18.485z" fill="#ab5033" opacity="1" data-original="#ab5033"></path></g><path fill="#4f4e4d" d="M75.994 27.23c0 .41-.329.739-.74.739H63.548a.733.733 0 1 1 0-1.465h11.708c.41 0 .74.328.74.725z" opacity="1" data-original="#4f4e4d"></path><path fill="#b7b6b6" d="M70.182 22.697a2.455 2.455 0 0 1-2.465 2.465 2.437 2.437 0 0 1-2.355-1.739 2.854 2.854 0 0 1-1.821-.945 2.896 2.896 0 0 1-1.876.685c-1.068 0-2-.575-2.492-1.424a2.847 2.847 0 0 1-2.136.958c-1.356 0-2.506-.93-2.794-2.19a3.813 3.813 0 0 1-3.258 1.793c-1.986 0-3.615-1.438-3.862-3.354a3.67 3.67 0 0 1-1.643.37c-2.15 0-3.889-1.712-3.889-3.848 0-1.178.52-2.219 1.342-2.93a3.84 3.84 0 0 1-.684-2.178c0-2.15 1.739-3.86 3.888-3.86.356 0 .699.04 1.027.136.329-1.794 1.917-3.136 3.82-3.136a3.83 3.83 0 0 1 3.834 3.465 3.816 3.816 0 0 1 1.849-.466 3.828 3.828 0 0 1 3.848 3.861c0 .069 0 .137-.014.206h.027a2.84 2.84 0 0 1 2.862 2.848v.027a3.27 3.27 0 0 1 .37-.027 2.84 2.84 0 0 1 2.848 2.861c0 .562-.151 1.082-.425 1.52a2.812 2.812 0 0 1 2.355 2.588 2.433 2.433 0 0 1 1.644 2.314zM40.894 56.452a3.393 3.393 0 0 1-4.276 2.22 3.368 3.368 0 0 1-2.38-3.273 3.946 3.946 0 0 1-2.005-2.005 4.003 4.003 0 0 1-2.758.12 3.976 3.976 0 0 1-2.69-2.916 3.935 3.935 0 0 1-3.215.372c-1.787-.565-2.915-2.271-2.768-4.052a5.271 5.271 0 0 1-5.043 1.005c-2.617-.828-4.165-3.402-3.69-6.03a5.073 5.073 0 0 1-2.32-.199c-2.833-.896-4.411-3.877-3.52-6.692a5.33 5.33 0 0 1 2.99-3.303 5.31 5.31 0 0 1 .006-3.154c.896-2.833 3.901-4.364 6.735-3.467.469.148.903.345 1.296.608 1.181-2.227 3.834-3.333 6.343-2.54a5.294 5.294 0 0 1 3.607 6.165 5.275 5.275 0 0 1 2.63.158c2.834.896 4.358 3.86 3.462 6.693a1.43 1.43 0 0 1-.104.264l.036.012a3.926 3.926 0 0 1 2.584 4.947l-.011.036c.168.033.336.067.499.118a3.925 3.925 0 0 1 2.56 4.959 3.944 3.944 0 0 1-1.194 1.827 3.887 3.887 0 0 1 2.025 4.392 3.363 3.363 0 0 1 1.2 3.735z" opacity="1" data-original="#b7b6b6"></path><path fill="#7a8490" d="M3.5 128.34h128v3.16H3.5z" opacity="1" data-original="#7a8490"></path><path fill="#cccccc" d="M64.969 128.34C55.946 97.63 50.298 73.978 51.627 58.834H21.98c1.33 15.144-4.319 38.797-13.342 69.506z" opacity="1" data-original="#cccccc"></path><path d="M37.06 128.34H64.97c-3.713-12.637-6.841-24.058-9.16-34.204H37.06z" opacity="1" fill="#00000008" data-original="#00000008"></path><path fill="#dbdbdb" d="M15.55 128.341H8.64c9.02-30.71 14.67-54.36 13.34-69.51h6.91c1.33 15.15-4.32 38.8-13.34 69.51z" opacity="1" data-original="#dbdbdb"></path><path fill="#b7b6b6" d="M64.969 128.341h-6.91c-9.02-30.71-14.67-54.36-13.34-69.51h6.91c-1.33 15.15 4.32 38.8 13.34 69.51z" opacity="1" data-original="#b7b6b6"></path><path fill="#4f4e4d" d="M53.413 57.611c0 .67-.55 1.22-1.22 1.22h-30.78a1.225 1.225 0 0 1 0-2.45h30.78c.67 0 1.22.55 1.22 1.23z" opacity="1" data-original="#4f4e4d"></path><path fill="#dbdbdb" d="M39.785 97.971h58.301v30.37H39.785z" opacity="1" data-original="#dbdbdb"></path><path d="M39.785 97.971h58.301v2.382H39.785z" opacity="1" fill="#00000008" data-original="#00000008"></path><path fill="#4f4e4d" d="M38.495 95.733h60.879v2.239H38.495zM45.268 108.26h14.916v20.081H45.268z" opacity="1" data-original="#4f4e4d"></path><path fill="#ffffff" d="M60.934 128.341h-1.5v-19.33H46.018v19.33h-1.5v-20.83h16.416z" opacity="1" data-original="#ffffff"></path><path fill="#4f4e4d" d="M65.079 109.732H77.1v12.021H65.079z" opacity="1" data-original="#4f4e4d"></path><path fill="#ffffff" d="M77.6 122.254H64.58v-13.022H77.6zm-12.02-1H76.6v-11.022H65.58z" opacity="1" data-original="#ffffff"></path><path fill="#4f4e4d" d="M80.831 109.732h12.021v12.021H80.831z" opacity="1" data-original="#4f4e4d"></path><path fill="#ffffff" d="M93.352 122.254H80.33v-13.022h13.02zm-12.021-1h11.02v-11.022h-11.02z" opacity="1" data-original="#ffffff"></path><g fill="#4f4e4d"><path d="M43.676 102.613h6.086v2.339h-6.086zM52.562 102.613h6.086v2.339h-6.086zM61.449 102.613h6.086v2.339h-6.086zM70.335 102.613h6.086v2.339h-6.086zM79.222 102.613h6.086v2.339h-6.086zM88.108 102.613h6.086v2.339h-6.086z" fill="#4f4e4d" opacity="1" data-original="#4f4e4d"></path></g></g></svg>