<svg xmlns="http://www.w3.org/2000/svg" version="1.1" xmlns:xlink="http://www.w3.org/1999/xlink" width="512" height="512" x="0" y="0" viewBox="0 0 512 512" style="enable-background:new 0 0 512 512" xml:space="preserve"><circle r="256" cx="256" cy="256" fill="#ffffff" shape="circle"></circle><g transform="matrix(0.7,0,0,0.7,76.80000000000001,75.6000005722046)"><path fill="#51a37e" d="M288 128h184v216H288z" opacity="1" data-original="#51a37e"></path><path fill="#308c72" d="M288 184h184v16H288zM312 144h16v32h-16zM336 144h16v32h-16zM360 144h16v32h-16zM288 248h184v16H288zM336 208h16v32h-16zM360 208h16v32h-16z" opacity="1" data-original="#308c72"></path><path fill="#a6bce3" d="M48 392h416v96H48z" opacity="1" data-original="#a6bce3"></path><path fill="#4e96ed" d="M208 392h96v96h-96z" opacity="1" data-original="#4e96ed"></path><path fill="#407de6" d="M248 392h16v24h-16zM248 432h16v56h-16z" opacity="1" data-original="#407de6"></path><path fill="#cad8ed" d="M24 448h192v40H24zM296 448h192v40H296zM48 248H24v-40h288l176 128v56H24v-40h24z" opacity="1" data-original="#cad8ed"></path><path fill="#7ab8f5" d="M48 248h240v104H48z" opacity="1" data-original="#7ab8f5"></path><path fill="#4e96ed" d="M88 248h16v24H88zM88 288h16v64H88zM136 248h16v104h-16zM184 248h16v104h-16zM232 248h16v104h-16z" opacity="1" data-original="#4e96ed"></path><g fill="#7ab8f5"><path d="M312 344h24v16h-24zM352 344h24v16h-24zM392 344h24v16h-24zM432 344h24v16h-24zM312 312h24v16h-24zM352 312h24v16h-24zM392 312h24v16h-24zM312 280h24v16h-24zM352 280h24v16h-24zM312 248h24v16h-24z" fill="#7ab8f5" opacity="1" data-original="#7ab8f5"></path></g><circle cx="88" cy="440" r="24" fill="#51a37e" opacity="1" data-original="#51a37e"></circle><path fill="#b36f42" d="M80 440h16v48H80z" opacity="1" data-original="#b36f42"></path><circle cx="160" cy="440" r="24" fill="#51a37e" opacity="1" data-original="#51a37e"></circle><path fill="#b36f42" d="M152 440h16v48h-16z" opacity="1" data-original="#b36f42"></path><circle cx="352" cy="440" r="24" fill="#51a37e" opacity="1" data-original="#51a37e"></circle><path fill="#b36f42" d="M344 440h16v48h-16z" opacity="1" data-original="#b36f42"></path><circle cx="424" cy="440" r="24" fill="#51a37e" opacity="1" data-original="#51a37e"></circle><path fill="#b36f42" d="M416 440h16v48h-16z" opacity="1" data-original="#b36f42"></path><path fill="#f7d179" d="M200 160h88v16h-88zM288 144h-72a8.002 8.002 0 0 1-5.657-2.343l-32-32 11.314-11.314L219.313 128H288zM312 128h-16V80h-40V64h48a8 8 0 0 1 8 8zM328 56h16v72h-16zM384 128h-16V72a8.002 8.002 0 0 1 2.343-5.657l24-24 11.314 11.314L384 75.313zM448 80h16v48h-16z" opacity="1" data-original="#f7d179"></path><circle cx="440" cy="160" r="8" fill="#b6e3cc" opacity="1" data-original="#b6e3cc"></circle><circle cx="440" cy="224" r="8" fill="#b6e3cc" opacity="1" data-original="#b6e3cc"></circle><circle cx="184" cy="168" r="16" fill="#f7c04a" opacity="1" data-original="#f7c04a"></circle><path fill="#fcedc0" d="M184 192a24 24 0 1 1 24-24 24.027 24.027 0 0 1-24 24zm0-32a8 8 0 1 0 8 8 8.01 8.01 0 0 0-8-8z" opacity="1" data-original="#fcedc0"></path><circle cx="176" cy="96" r="16" fill="#f7c04a" opacity="1" data-original="#f7c04a"></circle><path fill="#fcedc0" d="M176 120a24 24 0 1 1 24-24 24.027 24.027 0 0 1-24 24zm0-32a8 8 0 1 0 8 8 8.01 8.01 0 0 0-8-8z" opacity="1" data-original="#fcedc0"></path><circle cx="240" cy="72" r="16" fill="#f7c04a" opacity="1" data-original="#f7c04a"></circle><path fill="#fcedc0" d="M240 96a24 24 0 1 1 24-24 24.027 24.027 0 0 1-24 24zm0-32a8 8 0 1 0 8 8 8.01 8.01 0 0 0-8-8z" opacity="1" data-original="#fcedc0"></path><circle cx="336" cy="40" r="16" fill="#f7c04a" opacity="1" data-original="#f7c04a"></circle><path fill="#fcedc0" d="M336 64a24 24 0 1 1 24-24 24.027 24.027 0 0 1-24 24zm0-32a8 8 0 1 0 8 8 8.01 8.01 0 0 0-8-8z" opacity="1" data-original="#fcedc0"></path><circle cx="408" cy="40" r="16" fill="#f7c04a" opacity="1" data-original="#f7c04a"></circle><path fill="#fcedc0" d="M408 64a24 24 0 1 1 24-24 24.027 24.027 0 0 1-24 24zm0-32a8 8 0 1 0 8 8 8.01 8.01 0 0 0-8-8z" opacity="1" data-original="#fcedc0"></path><circle cx="456" cy="64" r="16" fill="#f7c04a" opacity="1" data-original="#f7c04a"></circle><path fill="#fcedc0" d="M456 88a24 24 0 1 1 24-24 24.027 24.027 0 0 1-24 24zm0-32a8 8 0 1 0 8 8 8.01 8.01 0 0 0-8-8z" opacity="1" data-original="#fcedc0"></path></g></svg>