<svg xmlns="http://www.w3.org/2000/svg" version="1.1" xmlns:xlink="http://www.w3.org/1999/xlink" width="512" height="512" x="0" y="0" viewBox="0 0 128 128" style="enable-background:new 0 0 512 512" xml:space="preserve"><g><linearGradient id="a"><stop offset="0" stop-color="#000f96" stop-opacity=".2"></stop><stop offset="1" stop-color="#000f96" stop-opacity="0"></stop></linearGradient><linearGradient xlink:href="#a" id="b" x1="56" x2="56" y1="99" y2="106" gradientUnits="userSpaceOnUse"></linearGradient><linearGradient id="c" x1="94" x2="82" y1="78.553" y2="78.553" gradientUnits="userSpaceOnUse"><stop offset="0" stop-opacity=".5"></stop><stop offset=".359" stop-opacity=".12"></stop><stop offset="1" stop-opacity="0"></stop></linearGradient><linearGradient xlink:href="#a" id="d" x1="111" x2="111" y1="117" y2="124" gradientUnits="userSpaceOnUse"></linearGradient><path fill="url(#a)" d="M2 99h108a7 7 0 0 1-7 7H9a7 7 0 0 1-7-7z" opacity="1" data-original="url(#a)"></path><path fill="#000b6a" fill-opacity=".08" d="M2 99h108a3 3 0 0 1-3 3H5a3 3 0 0 1-3-3z" opacity="1" data-original="#000b6a"></path><rect width="112" height="80" y="20" fill="#3f3f3f" rx="4" opacity="1" data-original="#3f3f3f"></rect><rect width="112" height="80" y="18" fill="#555555" rx="4" opacity="1" data-original="#555555"></rect><rect width="108" height="70" x="2" y="26" fill="#1a1a1a" rx="2" opacity="1" data-original="#1a1a1a"></rect><path fill="#000000" fill-opacity=".2" fill-rule="evenodd" d="M4 26a2 2 0 0 0-2 2v66a2 2 0 0 0 2 2h104a2 2 0 0 0 2-2V28a2 2 0 0 0-2-2zm0 2a1 1 0 0 0-1 1v65a1 1 0 0 0 1 1h104a1 1 0 0 0 1-1V29a1 1 0 0 0-1-1z" clip-rule="evenodd" opacity="1" data-original="#000000"></path><circle cx="4" cy="22" r="2" fill="#513838" opacity="1" data-original="#513838"></circle><circle cx="10" cy="22" r="2" fill="#443b2e" opacity="1" data-original="#443b2e"></circle><circle cx="16" cy="22" r="2" fill="#374732" opacity="1" data-original="#374732"></circle><rect width="8" height="1" x="37" y="38" fill="#798051" rx=".5" opacity="1" data-original="#798051"></rect><rect width="5" height="1" x="37" y="56" fill="#42618f" rx=".5" opacity="1" data-original="#42618f"></rect><rect width="5" height="1" x="37" y="72" fill="#42618f" rx=".5" opacity="1" data-original="#42618f"></rect><rect width="5" height="1" x="33" y="36" fill="#6d3240" rx=".5" opacity="1" data-original="#6d3240"></rect><path fill="#4e4e4e" fill-rule="evenodd" d="M29 36.5a.5.5 0 0 1 .5-.5h1a.5.5 0 0 1 0 1h-1a.5.5 0 0 1-.5-.5zm0 12a.5.5 0 0 1 .5-.5h1a.5.5 0 0 1 0 1h-1a.5.5 0 0 1-.5-.5zm.5-8.5a.5.5 0 0 0 0 1h1a.5.5 0 0 0 0-1zM29 52.5a.5.5 0 0 1 .5-.5h1a.5.5 0 0 1 0 1h-1a.5.5 0 0 1-.5-.5zm.5-8.5a.5.5 0 0 0 0 1h1a.5.5 0 0 0 0-1zM29 56.5a.5.5 0 0 1 .5-.5h1a.5.5 0 0 1 0 1h-1a.5.5 0 0 1-.5-.5zm.5-18.5a.5.5 0 0 0 0 1h1a.5.5 0 0 0 0-1zM29 50.5a.5.5 0 0 1 .5-.5h1a.5.5 0 0 1 0 1h-1a.5.5 0 0 1-.5-.5zm.5-8.5a.5.5 0 0 0 0 1h1a.5.5 0 0 0 0-1zM29 54.5a.5.5 0 0 1 .5-.5h1a.5.5 0 0 1 0 1h-1a.5.5 0 0 1-.5-.5zm.5-8.5a.5.5 0 0 0 0 1h1a.5.5 0 0 0 0-1zM29 58.5a.5.5 0 0 1 .5-.5h1a.5.5 0 0 1 0 1h-1a.5.5 0 0 1-.5-.5zm.5 1.5a.5.5 0 0 0 0 1h1a.5.5 0 0 0 0-1zm0 12a.5.5 0 0 0 0 1h1a.5.5 0 0 0 0-1zm-.5-7.5a.5.5 0 0 1 .5-.5h1a.5.5 0 0 1 0 1h-1a.5.5 0 0 1-.5-.5zm.5 11.5a.5.5 0 0 0 0 1h1a.5.5 0 0 0 0-1zm-.5-7.5a.5.5 0 0 1 .5-.5h1a.5.5 0 0 1 0 1h-1a.5.5 0 0 1-.5-.5zm.5-6.5a.5.5 0 0 0 0 1h1a.5.5 0 0 0 0-1zM29 74.5a.5.5 0 0 1 .5-.5h1a.5.5 0 0 1 0 1h-1a.5.5 0 0 1-.5-.5zm.5-8.5a.5.5 0 0 0 0 1h1a.5.5 0 0 0 0-1zm-.5 4.5a.5.5 0 0 1 .5-.5h1a.5.5 0 0 1 0 1h-1a.5.5 0 0 1-.5-.5z" clip-rule="evenodd" opacity="1" data-original="#4e4e4e"></path><rect width="8" height="1" x="37" y="54" fill="#798051" rx=".5" opacity="1" data-original="#798051"></rect><rect width="5" height="1" x="37" y="70" fill="#42618f" rx=".5" opacity="1" data-original="#42618f"></rect><rect width="5" height="1" x="37" y="76" fill="#42618f" rx=".5" opacity="1" data-original="#42618f"></rect><rect width="7" height="1" x="41" y="52" fill="#4e4e4e" rx=".5" opacity="1" data-original="#4e4e4e"></rect><rect width="5" height="1" x="41" y="46" fill="#4e4e4e" rx=".5" opacity="1" data-original="#4e4e4e"></rect><rect width="5" height="1" x="41" y="68" fill="#4e4e4e" rx=".5" opacity="1" data-original="#4e4e4e"></rect><rect width="9" height="1" x="41" y="74" fill="#4e4e4e" rx=".5" opacity="1" data-original="#4e4e4e"></rect><rect width="21" height="1" x="44" y="50" fill="#4e4e4e" rx=".5" opacity="1" data-original="#4e4e4e"></rect><rect width="12" height="1" x="44" y="44" fill="#4e4e4e" rx=".5" opacity="1" data-original="#4e4e4e"></rect><rect width="12" height="1" x="44" y="62" fill="#4e4e4e" rx=".5" opacity="1" data-original="#4e4e4e"></rect><rect width="9" height="1" x="44" y="64" fill="#4e4e4e" rx=".5" opacity="1" data-original="#4e4e4e"></rect><rect width="6" height="1" x="44" y="66" fill="#4e4e4e" rx=".5" opacity="1" data-original="#4e4e4e"></rect><rect width="25" height="1" x="44" y="42" fill="#353535" rx=".5" opacity="1" data-original="#353535"></rect><rect width="24" height="1" x="44" y="60" fill="#353535" rx=".5" opacity="1" data-original="#353535"></rect><rect width="7" height="1" x="41" y="48" fill="#4e4e4e" rx=".5" opacity="1" data-original="#4e4e4e"></rect><rect width="5" height="1" x="41" y="40" fill="#4e4e4e" rx=".5" opacity="1" data-original="#4e4e4e"></rect><rect width="5" height="1" x="41" y="58" fill="#4e4e4e" rx=".5" opacity="1" data-original="#4e4e4e"></rect><g fill="#434343"><rect width="8" height="2" x="5" y="29" rx="1" fill="#434343" opacity="1" data-original="#434343"></rect><rect width="9" height="2" x="16" y="29" rx="1" fill="#434343" opacity="1" data-original="#434343"></rect><rect width="11" height="2" x="28" y="29" rx="1" fill="#434343" opacity="1" data-original="#434343"></rect><path d="M47 29h3v3h-3zM51 29h3v3h-3zM63 29h3v3h-3zM71 29h3v3h-3zM55 29h3v3h-3zM59 29h3v3h-3zM67 29h3v3h-3zM75 29h3v3h-3zM85 29h3v3h-3zM89 29h3v3h-3zM101 29h3v3h-3zM93 29h3v3h-3zM97 29h3v3h-3zM105 29h3v3h-3z" fill="#434343" opacity="1" data-original="#434343"></path></g><path fill="#282828" d="M3 34h24v61H4a1 1 0 0 1-1-1z" opacity="1" data-original="#282828"></path><path fill="#5b5b5b" d="M3 34h24v6H3z" opacity="1" data-original="#5b5b5b"></path><rect width="12" height="2" x="5" y="36" fill="#898989" rx="1" opacity="1" data-original="#898989"></rect><path fill="#5b5b5b" fill-rule="evenodd" d="M8 40H7v15a1 1 0 0 0 1 1h14a1 1 0 1 0 0-2H12a1 1 0 0 0-1 1H8v-5h12a1 1 0 1 0 0-2h-8a1 1 0 0 0-1 1H8v-5h14a1 1 0 1 0 0-2H12a1 1 0 0 0-1 1H8zm0 26v5h3a1 1 0 0 1 1-1h7a1 1 0 1 1 0 2H8v5h3a1 1 0 0 1 1-1h10a1 1 0 1 1 0 2H8a1 1 0 0 1-1-1V65a1 1 0 0 1 1-1h14a1 1 0 1 1 0 2zm-3-6a1 1 0 0 1 1-1h11a1 1 0 1 1 0 2H6a1 1 0 0 1-1-1zm1 21a1 1 0 1 0 0 2h11a1 1 0 1 0 0-2z" clip-rule="evenodd" opacity="1" data-original="#5b5b5b"></path><path fill="#282828" d="M85 34h24v60a1 1 0 0 1-1 1H85z" opacity="1" data-original="#282828"></path><rect width="12" height="2" x="87" y="36" fill="#444444" rx="1" opacity="1" data-original="#444444"></rect><rect width="12" height="2" x="90" y="40" fill="#573a3a" rx="1" opacity="1" data-original="#573a3a"></rect><rect width="14" height="2" x="90" y="43" fill="#573a3a" rx="1" opacity="1" data-original="#573a3a"></rect><rect width="15" height="2" x="90" y="46" fill="#605e41" rx="1" opacity="1" data-original="#605e41"></rect><rect width="11" height="2" x="90" y="49" fill="#425642" rx="1" opacity="1" data-original="#425642"></rect><rect width="12" height="2" x="90" y="73" fill="#425642" rx="1" opacity="1" data-original="#425642"></rect><rect width="15" height="2" x="90" y="76" fill="#425642" rx="1" opacity="1" data-original="#425642"></rect><rect width="13" height="2" x="90" y="79" fill="#425642" rx="1" opacity="1" data-original="#425642"></rect><rect width="11" height="2" x="90" y="82" fill="#425642" rx="1" opacity="1" data-original="#425642"></rect><rect width="13" height="2" x="90" y="58" fill="#425642" rx="1" opacity="1" data-original="#425642"></rect><rect width="14" height="2" x="90" y="52" fill="#573a3a" rx="1" opacity="1" data-original="#573a3a"></rect><rect width="16" height="2" x="90" y="55" fill="#573a3a" rx="1" opacity="1" data-original="#573a3a"></rect><rect width="10" height="2" x="90" y="61" fill="#573a3a" rx="1" opacity="1" data-original="#573a3a"></rect><rect width="12" height="2" x="90" y="64" fill="#573a3a" rx="1" opacity="1" data-original="#573a3a"></rect><rect width="11" height="2" x="90" y="67" fill="#573a3a" rx="1" opacity="1" data-original="#573a3a"></rect><rect width="14" height="2" x="90" y="70" fill="#573a3a" rx="1" opacity="1" data-original="#573a3a"></rect><circle cx="88" cy="41" r="1" fill="#9a5e5e" opacity="1" data-original="#9a5e5e"></circle><circle cx="88" cy="44" r="1" fill="#9a5e5e" opacity="1" data-original="#9a5e5e"></circle><circle cx="88" cy="47" r="1" fill="#8e8556" opacity="1" data-original="#8e8556"></circle><circle cx="88" cy="50" r="1" fill="#50774f" opacity="1" data-original="#50774f"></circle><circle cx="88" cy="74" r="1" fill="#50774f" opacity="1" data-original="#50774f"></circle><circle cx="88" cy="77" r="1" fill="#50774f" opacity="1" data-original="#50774f"></circle><circle cx="88" cy="80" r="1" fill="#50774f" opacity="1" data-original="#50774f"></circle><circle cx="88" cy="83" r="1" fill="#50774f" opacity="1" data-original="#50774f"></circle><circle cx="88" cy="59" r="1" fill="#50774f" opacity="1" data-original="#50774f"></circle><circle cx="88" cy="53" r="1" fill="#9a5e5e" opacity="1" data-original="#9a5e5e"></circle><circle cx="88" cy="56" r="1" fill="#9a5e5e" opacity="1" data-original="#9a5e5e"></circle><circle cx="88" cy="62" r="1" fill="#9a5e5e" opacity="1" data-original="#9a5e5e"></circle><circle cx="88" cy="65" r="1" fill="#9a5e5e" opacity="1" data-original="#9a5e5e"></circle><circle cx="88" cy="68" r="1" fill="#9a5e5e" opacity="1" data-original="#9a5e5e"></circle><circle cx="88" cy="71" r="1" fill="#9a5e5e" opacity="1" data-original="#9a5e5e"></circle><path fill="#282828" d="M28 78h56v17H28z" opacity="1" data-original="#282828"></path><path fill="#487081" fill-rule="evenodd" d="M30 84.5a.5.5 0 0 1 .5-.5h8a.5.5 0 0 1 0 1h-8a.5.5 0 0 1-.5-.5zm0 2a.5.5 0 0 1 .5-.5h14a.5.5 0 0 1 0 1h-14a.5.5 0 0 1-.5-.5zm.5 3.5a.5.5 0 0 0 0 1h12a.5.5 0 0 0 0-1zm-.5 2.5a.5.5 0 0 1 .5-.5h17a.5.5 0 0 1 0 1h-17a.5.5 0 0 1-.5-.5zm.5-4.5a.5.5 0 0 0 0 1h10a.5.5 0 0 0 0-1z" clip-rule="evenodd" opacity="1" data-original="#487081"></path><path fill="#505050" d="M76 79h3v3h-3zM80 79h3v3h-3z" opacity="1" data-original="#505050"></path><rect width="12" height="2" x="30" y="80" fill="#444444" rx="1" opacity="1" data-original="#444444"></rect><path fill="url(#c)" d="M82 70c0-6.627 5.373-12 12-12v42H82z" opacity="1" data-original="url(#c)"></path><path fill="#000000" fill-opacity=".3" d="M92 64a2 2 0 0 1 2-2v38h-2z" opacity="1" data-original="#000000"></path><path fill="url(#a)" d="M96 117h30a7 7 0 0 1-7 7h-16a7 7 0 0 1-7-7z" opacity="1" data-original="url(#a)"></path><path fill="#000b6a" fill-opacity=".08" d="M96 117h30a3 3 0 0 1-3 3H99a3 3 0 0 1-3-3z" opacity="1" data-original="#000b6a"></path><rect width="34" height="62" x="94" y="56" fill="#3f3f3f" rx="3" opacity="1" data-original="#3f3f3f"></rect><rect width="34" height="60" x="94" y="56" fill="#7b7b7b" rx="3" opacity="1" data-original="#7b7b7b"></rect><rect width="32" height="58" x="95" y="57" fill="#333333" rx="2" opacity="1" data-original="#333333"></rect><path fill="#191919" fill-rule="evenodd" d="M97 57a2 2 0 0 0-2 2v54a2 2 0 0 0 2 2h28a2 2 0 0 0 2-2V59a2 2 0 0 0-2-2zm0 1a1 1 0 0 0-1 1v54a1 1 0 0 0 1 1h28a1 1 0 0 0 1-1V59a1 1 0 0 0-1-1z" clip-rule="evenodd" opacity="1" data-original="#191919"></path><rect width="20" height="1" x="101" y="94" fill="#5f5f5f" rx=".5" opacity="1" data-original="#5f5f5f"></rect><rect width="8" height="1" x="101" y="94" fill="#d6d6d6" rx=".5" opacity="1" data-original="#d6d6d6"></rect><path stroke="#40a56d" stroke-linecap="round" d="m106 78 2.5 4.5" fill="#000000" opacity="1" data-original="#000000"></path><path fill="#40a56d" fill-rule="evenodd" d="M103 87c.496-3.946 3.889-7 8-7s7.504 3.054 8 7zm6-3a1 1 0 1 1-2 0 1 1 0 0 1 2 0zm5 1a1 1 0 1 0 0-2 1 1 0 0 0 0 2z" clip-rule="evenodd" opacity="1" data-original="#40a56d"></path><path stroke="#40a56d" stroke-linecap="round" d="m116 78-2.5 4.5" fill="#000000" opacity="1" data-original="#000000"></path><path fill="#1a1a1a" d="M103 57h16v1a2 2 0 0 1-2 2h-12a2 2 0 0 1-2-2z" opacity="1" data-original="#1a1a1a"></path></g></svg>