<svg xmlns="http://www.w3.org/2000/svg" version="1.1" xmlns:xlink="http://www.w3.org/1999/xlink" width="512" height="512" x="0" y="0" viewBox="0 0 256 256" style="enable-background:new 0 0 512 512" xml:space="preserve" class=""><g transform="matrix(1.01,0,0,1.01,-1.280000071525535,-1.2800001525878884)"><path fill="#e6e9ed" d="M195.893 202.437H60.107v-9.948a7.427 7.427 0 0 1 7.427-7.427h120.932a7.427 7.427 0 0 1 7.427 7.427z" opacity="1" data-original="#7bac51" class=""></path><path fill="#ccd1d9" d="M188.466 185.061h-8.392a7.427 7.427 0 0 1 7.427 7.427v9.948h8.392v-9.948a7.427 7.427 0 0 0-7.427-7.427z" opacity="1" data-original="#5d8e33" class=""></path><path fill="#e6e9ed" d="M67.534 185.061h8.392a7.427 7.427 0 0 0-7.427 7.427v9.948h-8.392v-9.948a7.427 7.427 0 0 1 7.427-7.427z" opacity="1" data-original="#99ca6f" class=""></path><path fill="#ccd1d9" d="M88.14 172.342h79.72v12.719H88.14z" opacity="1" data-original="#5d8e33" class=""></path><path fill="#656d78" d="M195.893 204.437H60.107a2 2 0 0 1-2-2v-9.948c0-5.198 4.229-9.427 9.427-9.427h120.933c5.198 0 9.427 4.229 9.427 9.427v9.948a2.002 2.002 0 0 1-2.001 2zm-133.786-4h131.786v-7.948a5.434 5.434 0 0 0-5.427-5.427H67.534a5.434 5.434 0 0 0-5.427 5.427z" opacity="1" data-original="#690589" class=""></path><path fill="#656d78" d="M167.86 187.062H88.14a2 2 0 0 1-2-2v-12.719a2 2 0 0 1 2-2h79.72a2 2 0 0 1 2 2v12.719a2 2 0 0 1-2 2zm-77.72-4h75.72v-8.719H90.14z" opacity="1" data-original="#690589" class=""></path><path fill="#f7f7f7" d="M224.635 172.342H31.365a7.427 7.427 0 0 1-7.427-7.427V45.918a7.427 7.427 0 0 1 7.427-7.427h193.271a7.427 7.427 0 0 1 7.427 7.427v118.998a7.428 7.428 0 0 1-7.428 7.426z" opacity="1" data-original="#f4efed" class=""></path><path fill="#f4b942" d="M117.058 101.724V79.536l-24.422 3.093v19.095zM123.865 101.724h32.677V74.905l-32.677 4.138zM117.058 108.531H92.636v19.361l24.422 4.075zM123.865 108.531v24.086l32.677 5.453v-29.539z" opacity="1" data-original="#fcc24c" class=""></path><path fill="#f9f9f9" d="M224.635 38.491h-8.392a7.427 7.427 0 0 1 7.427 7.427v118.998a7.427 7.427 0 0 1-7.427 7.427h8.392a7.427 7.427 0 0 0 7.427-7.427V45.918a7.427 7.427 0 0 0-7.427-7.427z" opacity="1" data-original="#d6d1cf" class=""></path><path fill="#ffffff" d="M31.365 172.342h8.392a7.427 7.427 0 0 1-7.427-7.427V45.918a7.427 7.427 0 0 1 7.427-7.427h-8.392a7.427 7.427 0 0 0-7.427 7.427v118.998a7.427 7.427 0 0 0 7.427 7.426z" opacity="1" data-original="#ffffff" class=""></path><g fill="#690589"><path d="M224.635 174.343H31.365c-5.198 0-9.427-4.229-9.427-9.428V45.918c0-5.198 4.229-9.427 9.427-9.427h193.271c5.198 0 9.427 4.229 9.427 9.427v118.997c-.001 5.198-4.23 9.428-9.428 9.428zM31.365 40.491a5.433 5.433 0 0 0-5.427 5.427v118.997a5.434 5.434 0 0 0 5.427 5.428h193.271a5.433 5.433 0 0 0 5.427-5.428V45.918a5.434 5.434 0 0 0-5.427-5.427z" fill="#656d78" opacity="1" data-original="#690589" class=""></path><path d="M30.651 71a2 2 0 0 1-2-2V57a2 2 0 0 1 4 0v12a2 2 0 0 1-2 2zM117.058 103.724H92.636a2 2 0 0 1-2-2V82.629a2 2 0 0 1 1.749-1.984l24.421-3.093a2 2 0 0 1 2.252 1.984v22.188a2 2 0 0 1-2 2zm-22.422-4h20.421V81.806l-20.421 2.586zM156.542 103.724h-32.677a2 2 0 0 1-2-2V79.043a2 2 0 0 1 1.749-1.984l32.677-4.138a1.998 1.998 0 0 1 2.252 1.984v26.818a2.002 2.002 0 0 1-2.001 2.001zm-30.677-4h28.677V77.175l-28.677 3.631zM117.058 133.968c-.109 0-.22-.009-.329-.027l-24.421-4.076a2 2 0 0 1-1.671-1.973v-19.36a2 2 0 0 1 2-2h24.421a2 2 0 0 1 2 2v23.437a2 2 0 0 1-2 1.999zm-22.422-7.771 20.421 3.409v-19.075H94.636zM156.542 140.07c-.109 0-.22-.009-.329-.027l-32.677-5.454a2 2 0 0 1-1.671-1.973v-24.085a2 2 0 0 1 2-2h32.677a2 2 0 0 1 2 2v29.539a2 2 0 0 1-2 2zm-30.677-9.148 28.677 4.787v-25.178h-28.677z" fill="#656d78" opacity="1" data-original="#690589" class=""></path></g><path fill="#f7f7f7" d="M66.751 217.509H9.914A5.914 5.914 0 0 1 4 211.595v-90.833a5.914 5.914 0 0 1 5.914-5.914h56.838a5.914 5.914 0 0 1 5.914 5.914v90.833a5.916 5.916 0 0 1-5.915 5.914z" opacity="1" data-original="#f4efed" class=""></path><path fill="#f9f9f9" d="M66.751 114.849h-5.914a5.914 5.914 0 0 1 5.914 5.914v90.833a5.914 5.914 0 0 1-5.914 5.914h5.914a5.914 5.914 0 0 0 5.914-5.914v-90.833a5.914 5.914 0 0 0-5.914-5.914z" opacity="1" data-original="#d6d1cf" class=""></path><path fill="#ffffff" d="M9.914 217.509h5.914a5.914 5.914 0 0 1-5.914-5.914v-90.833a5.914 5.914 0 0 1 5.914-5.914H9.914A5.914 5.914 0 0 0 4 120.762v90.833a5.914 5.914 0 0 0 5.914 5.914z" opacity="1" data-original="#ffffff" class=""></path><path fill="#e6e9ed" d="M51.518 124.623H25.147a4.14 4.14 0 0 1-3.812-2.525l-3.07-7.249H58.4l-3.07 7.249a4.142 4.142 0 0 1-3.812 2.525z" opacity="1" data-original="#7bac51" class=""></path><path fill="#656d78" d="M66.751 219.509H9.914c-4.364 0-7.914-3.55-7.914-7.913v-90.833c0-4.364 3.55-7.914 7.914-7.914h56.837c4.364 0 7.914 3.55 7.914 7.914v90.833c0 4.363-3.55 7.913-7.914 7.913zM9.914 116.849A3.919 3.919 0 0 0 6 120.763v90.833a3.918 3.918 0 0 0 3.914 3.913h56.837a3.918 3.918 0 0 0 3.914-3.913v-90.833a3.919 3.919 0 0 0-3.914-3.914z" opacity="1" data-original="#690589" class=""></path><path fill="#656d78" d="M51.518 126.623H25.147a6.129 6.129 0 0 1-5.653-3.745l-3.07-7.249a2 2 0 0 1 1.841-2.781h40.134a2.001 2.001 0 0 1 1.841 2.781l-3.07 7.249a6.127 6.127 0 0 1-5.652 3.745zm-30.234-9.774 1.893 4.469a2.135 2.135 0 0 0 1.97 1.306h26.371c.861 0 1.634-.513 1.971-1.306l1.892-4.469z" opacity="1" data-original="#690589" class=""></path><path fill="#e6e9ed" d="M247.402 98.314h-79.346a4.599 4.599 0 0 0-4.598 4.598v109.999a4.599 4.599 0 0 0 4.598 4.598h79.346a4.599 4.599 0 0 0 4.598-4.598V102.912a4.599 4.599 0 0 0-4.598-4.598z" opacity="1" data-original="#7bac51" class=""></path><path fill="#ccd1d9" d="M247.402 98.314h-7.78a4.597 4.597 0 0 1 4.598 4.598v109.999a4.598 4.598 0 0 1-4.598 4.598h7.78a4.598 4.598 0 0 0 4.598-4.598V102.912a4.598 4.598 0 0 0-4.598-4.598z" opacity="1" data-original="#5d8e33" class=""></path><path fill="#e6e9ed" d="M168.056 98.314h7.78a4.598 4.598 0 0 0-4.598 4.598v109.999a4.598 4.598 0 0 0 4.598 4.598h-7.78a4.598 4.598 0 0 1-4.598-4.598V102.912a4.597 4.597 0 0 1 4.598-4.598z" opacity="1" data-original="#99ca6f" class=""></path><path fill="#656d78" d="M247.402 219.509h-79.346a6.606 6.606 0 0 1-6.598-6.598V102.912a6.605 6.605 0 0 1 6.598-6.598h79.346a6.606 6.606 0 0 1 6.598 6.598v109.999a6.606 6.606 0 0 1-6.598 6.598zm-79.346-119.195a2.601 2.601 0 0 0-2.598 2.598v109.999a2.601 2.601 0 0 0 2.598 2.598h79.346a2.6 2.6 0 0 0 2.598-2.598V102.912a2.601 2.601 0 0 0-2.598-2.598z" opacity="1" data-original="#690589" class=""></path><path fill="#f7f7f7" d="M172.269 107.801h70.92v91.944h-70.92z" opacity="1" data-original="#f4efed" class=""></path><path fill="#656d78" d="M243.189 201.745h-70.92a2 2 0 0 1-2-2v-91.943a2 2 0 0 1 2-2h70.92a2 2 0 0 1 2 2v91.943a2 2 0 0 1-2 2zm-68.92-4h66.92v-87.943h-66.92zM211.407 208.821a3.678 3.678 0 1 1-7.355 0 3.678 3.678 0 0 1 7.355 0z" opacity="1" data-original="#690589" class=""></path><path fill="#e6e9ed" d="M226.77 171.427h-38.082v-7.99c0-10.516 8.525-19.041 19.041-19.041s19.041 8.525 19.041 19.041z" opacity="1" data-original="#7bac51" class=""></path><path fill="#656d78" d="M226.77 173.427h-38.082a2 2 0 0 1-2-2v-7.989c0-11.602 9.439-21.041 21.041-21.041s21.041 9.439 21.041 21.041v7.989a2 2 0 0 1-2 2zm-36.082-4h34.082v-5.989c0-9.396-7.645-17.041-17.041-17.041s-17.041 7.645-17.041 17.041z" opacity="1" data-original="#690589" class=""></path><path fill="#656d78" d="M195.298 150.575a1.992 1.992 0 0 1-1.414-.586l-7.132-7.131a2 2 0 1 1 2.829-2.828l7.132 7.131a2 2 0 0 1-1.415 3.414zM220.159 150.575a2 2 0 0 1-1.415-3.414l7.132-7.131a2 2 0 0 1 2.829 2.828l-7.132 7.131a1.99 1.99 0 0 1-1.414.586zM199.306 164.682a2 2 0 0 1-2-2v-3.776a2 2 0 0 1 4 0v3.776a2 2 0 0 1-2 2zM216.152 164.682a2 2 0 0 1-2-2v-3.776a2 2 0 0 1 4 0v3.776a2 2 0 0 1-2 2z" opacity="1" data-original="#690589" class=""></path><path fill="#656d78" d="M49.099 169.957a8.536 8.536 0 0 1 5.301-7.898c-2.384-3.946-6.967-5.738-14.589-2.541a3.841 3.841 0 0 1-2.962 0c-18.514-7.764-19.129 13.863-13.736 24.457 4.285 8.417 11.059 6.049 13.897 4.552a2.824 2.824 0 0 1 2.638 0c2.838 1.497 9.612 3.865 13.897-4.552.858-1.685 1.562-3.651 2.068-5.732-3.736-.91-6.514-4.269-6.514-8.286zM39.986 145.584a8.733 8.733 0 0 0-2.443 7.586c2.68.431 5.52-.377 7.586-2.443s2.874-4.906 2.443-7.586c-2.68-.431-5.521.377-7.586 2.443z" opacity="1" data-original="#ff4397" class=""></path><path fill="#656d78" d="M45.161 192.014c-2.693 0-5.065-.989-6.445-1.717a.824.824 0 0 0-.772-.001c-1.89.998-5.641 2.484-9.526 1.25-2.924-.929-5.309-3.171-7.087-6.664-3.982-7.823-4.682-20.036.624-25.749 2.45-2.637 7.156-5.027 15.668-1.46.45.189.965.189 1.416 0 10.447-4.382 15.182.218 17.074 3.352a2.002 2.002 0 0 1-.953 2.885 6.517 6.517 0 0 0-4.06 6.048 6.514 6.514 0 0 0 4.987 6.343 2 2 0 0 1 1.47 2.416c-.544 2.239-1.315 4.372-2.229 6.166-1.778 3.494-4.163 5.736-7.087 6.664a10.158 10.158 0 0 1-3.08.467zM38.33 186.2c.773 0 1.547.187 2.252.558 1.336.706 3.951 1.769 6.449.976 1.866-.592 3.458-2.162 4.733-4.666a23.01 23.01 0 0 0 1.426-3.562 10.5 10.5 0 0 1-6.09-9.549c0-3.408 1.619-6.522 4.274-8.477-2.34-2.102-5.958-2.143-10.79-.118a5.866 5.866 0 0 1-4.51-.001c-5.124-2.15-8.89-1.984-11.189.494-3.989 4.294-3.285 14.74.01 21.212 1.275 2.504 2.867 4.073 4.733 4.666 2.499.795 5.114-.27 6.45-.976a4.845 4.845 0 0 1 2.252-.557zM38.934 155.281c-.568 0-1.14-.045-1.709-.137a2.001 2.001 0 0 1-1.657-1.657 10.785 10.785 0 0 1 3.003-9.317 10.798 10.798 0 0 1 9.318-3.003c.852.138 1.52.805 1.657 1.656a10.785 10.785 0 0 1-3.003 9.318 10.775 10.775 0 0 1-7.609 3.14zm2.466-8.283a6.758 6.758 0 0 0-1.949 4.264 6.76 6.76 0 0 0 4.264-1.948 6.758 6.758 0 0 0 1.949-4.264 6.754 6.754 0 0 0-4.264 1.948z" opacity="1" data-original="#690589" class=""></path></g></svg>