<svg id="Layer_1" enable-background="new 0 0 66 66" viewBox="0 0 66 66" xmlns="http://www.w3.org/2000/svg"><g><g><path d="m59.34 1.92h-44.34c-2.68 0-4.86 2.18-4.86 4.86v45.15c0 2.42 1.96 4.37 4.37 4.37h45.37c2.42 0 4.37-1.96 4.37-4.37v-45.11c0-2.71-2.2-4.9-4.91-4.9z" fill="#c5dfdc"/></g><g><circle cx="22.37" cy="7.13" fill="#fecd04" r="1.93"/></g><g><path d="m17.92 7.13c0 1.06-.86 1.93-1.93 1.93-1.06 0-1.93-.86-1.93-1.93 0-1.06.86-1.93 1.93-1.93 1.06 0 1.93.87 1.93 1.93z" fill="#fa4968"/></g><g><circle cx="28.75" cy="7.13" fill="#559aff" r="1.93"/></g><g><path d="m58.4 9.06h-23.13c-1.06 0-1.93-.86-1.93-1.93 0-1.06.86-1.93 1.93-1.93h23.13c1.06 0 1.93.86 1.93 1.93 0 1.07-.87 1.93-1.93 1.93z" fill="#abb734"/></g><g><path d="m19.88 33.37h-15.64c-1.38 0-2.49-1.12-2.49-2.49v-15.64c0-1.38 1.12-2.49 2.49-2.49h15.64c1.38 0 2.49 1.12 2.49 2.49v15.64c0 1.38-1.12 2.49-2.49 2.49z" fill="#fa4968"/></g><g opacity=".4"><path d="m10.45 16.34h-5.03c-.37 0-.67-.3-.67-.67s.3-.67.67-.67h5.03c.37 0 .67.3.67.67s-.3.67-.67.67z" fill="#fff"/></g><g opacity=".4"><path d="m4.75 20.26c-.41 0-.75-.34-.75-.75v-1.1c0-.41.34-.75.75-.75s.75.34.75.75v1.1c0 .41-.34.75-.75.75z" fill="#fff"/></g><g><path d="m8.56 26.37-3.69-3.68 3.69-3.69z" fill="#fa4968"/><path d="m8.56 27.06c-.18 0-.35-.07-.49-.2l-3.69-3.69c-.27-.27-.27-.71 0-.98l3.69-3.69c.27-.27.71-.27.98 0s.27.71 0 .98l-3.2 3.2 3.2 3.2c.27.27.27.71 0 .98-.14.14-.31.2-.49.2z" fill="#525f70"/></g><g><path d="m15.18 27.07 4.01-4.01-4.01-4z" fill="#fa4968"/><path d="m15.18 27.82c-.19 0-.38-.07-.53-.22-.29-.29-.29-.77 0-1.06l3.47-3.47-3.47-3.47c-.29-.29-.29-.77 0-1.06s.77-.29 1.06 0l4 4c.29.29.29.77 0 1.06l-4 4c-.14.14-.33.22-.53.22z" fill="#525f70"/></g><g><path d="m13.31 16.39-2.5 13.34" fill="none"/><path d="m10.81 30.48c-.05 0-.09 0-.14-.01-.41-.08-.67-.47-.6-.88l2.5-13.34c.08-.41.47-.68.88-.6s.67.47.6.88l-2.5 13.34c-.07.36-.39.61-.74.61z" fill="#525f70"/></g><g><path d="m34.97 15.64h-9.22c-.41 0-.75-.34-.75-.75s.34-.75.75-.75h9.22c.41 0 .75.34.75.75 0 .42-.33.75-.75.75z" fill="#abb734"/></g><g><path d="m59.58 15.64h-6.55c-.41 0-.75-.34-.75-.75s.34-.75.75-.75h6.55c.41 0 .75.34.75.75 0 .42-.34.75-.75.75z" fill="#ffb95c"/></g><g><path d="m49.77 15.64h-11.43c-.41 0-.75-.34-.75-.75s.34-.75.75-.75h11.43c.41 0 .75.34.75.75 0 .42-.34.75-.75.75z" fill="#559aff"/></g><g><path d="m43.46 20.17h-17.71c-.41 0-.75-.34-.75-.75s.34-.75.75-.75h17.71c.41 0 .75.34.75.75 0 .42-.33.75-.75.75z" fill="#ff8c83"/></g><g><path d="m53.02 20.17h-6.19c-.41 0-.75-.34-.75-.75s.34-.75.75-.75h6.19c.41 0 .75.34.75.75 0 .42-.34.75-.75.75z" fill="#c9a28f"/></g><g><path d="m35.51 24.7h-9.75c-.41 0-.75-.34-.75-.75s.34-.75.75-.75h9.75c.41 0 .75.34.75.75 0 .42-.34.75-.75.75z" fill="#c9a28f"/></g><g><path d="m59.58 24.7h-6.55c-.41 0-.75-.34-.75-.75s.34-.75.75-.75h6.55c.41 0 .75.34.75.75 0 .42-.34.75-.75.75z" fill="#fecd04"/></g><g><path d="m50.36 24.7h-11.48c-.41 0-.75-.34-.75-.75s.34-.75.75-.75h11.48c.41 0 .75.34.75.75 0 .42-.34.75-.75.75z" fill="#6e9583"/></g><g><path d="m41.25 29.23h-15.5c-.41 0-.75-.34-.75-.75s.34-.75.75-.75h15.49c.41 0 .75.34.75.75s-.33.75-.74.75z" fill="#559aff"/></g><g><path d="m59.58 29.23h-4.49c-.41 0-.75-.34-.75-.75s.34-.75.75-.75h4.49c.41 0 .75.34.75.75s-.34.75-.75.75z" fill="#ffb95c"/></g><g><path d="m51.84 29.23h-7.22c-.41 0-.75-.34-.75-.75s.34-.75.75-.75h7.22c.41 0 .75.34.75.75s-.34.75-.75.75z" fill="#ff8c83"/></g><g><path d="m32.92 33.77h-7.17c-.41 0-.75-.34-.75-.75s.34-.75.75-.75h7.17c.41 0 .75.34.75.75s-.33.75-.75.75z" fill="#6e9583"/></g><g><path d="m47.93 33.77h-11.64c-.41 0-.75-.34-.75-.75s.34-.75.75-.75h11.64c.41 0 .75.34.75.75s-.33.75-.75.75z" fill="#abb734"/></g><g><path d="m17.12 38.3h-2.31c-.41 0-.75-.34-.75-.75s.34-.75.75-.75h2.31c.41 0 .75.34.75.75s-.33.75-.75.75z" fill="#425060"/></g><g><path d="m59.58 38.3h-10.6c-.41 0-.75-.34-.75-.75s.34-.75.75-.75h10.59c.41 0 .75.34.75.75.01.41-.33.75-.74.75z" fill="#fecd04"/></g><g><path d="m46.03 38.3h-15.67c-.41 0-.75-.34-.75-.75s.34-.75.75-.75h15.66c.41 0 .75.34.75.75.01.41-.33.75-.74.75z" fill="#559aff"/></g><g><path d="m27.21 38.3h-6.71c-.41 0-.75-.34-.75-.75s.34-.75.75-.75h6.72c.41 0 .75.34.75.75-.01.41-.34.75-.76.75z" fill="#ff8c83"/></g><g><path d="m17.12 42.83h-2.31c-.41 0-.75-.34-.75-.75s.34-.75.75-.75h2.31c.41 0 .75.34.75.75s-.33.75-.75.75z" fill="#425060"/></g><g><path d="m37.19 42.83h-3.85c-.41 0-.75-.34-.75-.75s.34-.75.75-.75h3.85c.41 0 .75.34.75.75s-.33.75-.75.75z" fill="#c9a28f"/></g><g><path d="m30.36 42.83h-9.86c-.41 0-.75-.34-.75-.75s.34-.75.75-.75h9.87c.41 0 .75.34.75.75-.01.41-.34.75-.76.75z" fill="#ffb95c"/></g><g><path d="m17.12 47.36h-2.31c-.41 0-.75-.34-.75-.75s.34-.75.75-.75h2.31c.41 0 .75.34.75.75s-.33.75-.75.75z" fill="#425060"/></g><g><path d="m54.28 47.36h-6.87c-.41 0-.75-.34-.75-.75s.34-.75.75-.75h6.87c.41 0 .75.34.75.75s-.34.75-.75.75z" fill="#682f2a"/></g><g><path d="m32.06 47.36h-4.08c-.41 0-.75-.34-.75-.75s.34-.75.75-.75h4.08c.41 0 .75.34.75.75s-.34.75-.75.75z" fill="#6e9583"/></g><g><path d="m24.85 47.36h-4.35c-.41 0-.75-.34-.75-.75s.34-.75.75-.75h4.35c.41 0 .75.34.75.75s-.34.75-.75.75z" fill="#fecd04"/></g><g><path d="m17.12 51.89h-2.31c-.41 0-.75-.34-.75-.75s.34-.75.75-.75h2.31c.41 0 .75.34.75.75s-.33.75-.75.75z" fill="#425060"/></g><g><path d="m28.69 51.89h-8.2c-.41 0-.75-.34-.75-.75s.34-.75.75-.75h8.2c.41 0 .75.34.75.75s-.34.75-.75.75z" fill="#abb734"/></g><g><path d="m54.74 42.49c-1.43-.9-3-1.47-4.62-1.7-.31 1.18-1.09 2.02-2.05 2.06-.95.04-1.8-.74-2.21-1.89-1.59.36-3.11 1.05-4.46 2.06.61 1.05.66 2.2.01 2.9s-1.8.75-2.9.23c-.9 1.43-1.47 3-1.7 4.62 1.18.31 2.02 1.09 2.06 2.05.04.95-.74 1.8-1.89 2.21.36 1.59 1.05 3.11 2.06 4.46 1.05-.61 2.2-.66 2.9-.01s.75 1.8.23 2.9c1.43.9 3 1.47 4.62 1.7.31-1.18 1.09-2.02 2.05-2.06.95-.04 1.8.74 2.21 1.89 1.59-.36 3.11-1.05 4.46-2.06-.61-1.05-.66-2.2-.01-2.91.65-.7 1.8-.75 2.9-.23.9-1.43 1.47-3 1.7-4.62-1.18-.31-2.02-1.09-2.06-2.05-.04-.95.74-1.8 1.89-2.21-.36-1.59-1.05-3.11-2.06-4.46-1.05.61-2.2.66-2.91.01-.7-.64-.75-1.79-.22-2.89z" fill="#abb734"/></g><g><path d="m52.75 56.39c-2.18 2.37-5.87 2.52-8.24.34s-2.52-5.87-.34-8.24 5.87-2.52 8.24-.34 2.52 5.87.34 8.24z" fill="#e5e5e5"/></g></g></svg>