<svg xmlns="http://www.w3.org/2000/svg" version="1.1" xmlns:xlink="http://www.w3.org/1999/xlink" width="512" height="512" x="0" y="0" viewBox="0 0 64 64" style="enable-background:new 0 0 512 512" xml:space="preserve" class=""><g><g data-name="Mobile apps"><path fill="#8a9299" d="M52 6v52a6 6 0 0 1-6 6H18a6 6 0 0 1-6-6V6a6 6 0 0 1 6-6c30.32 0 28.68-.17 30.14.4A6 6 0 0 1 52 6z" opacity="1" data-original="#00bebd" class=""></path><path fill="#ffffff" d="M50 6v50a4 4 0 0 1-4 4H18a4 4 0 0 1-4-4V6a4 4 0 0 1 4-4h5.28a1 1 0 0 1 .95.68c.27.83.56 2.32 2.21 2.32h11.12a2 2 0 0 0 1.9-1.37l.31-.95a1 1 0 0 1 .95-.68h5.77A4 4 0 0 1 50 6z" opacity="1" data-original="#ffffff" class=""></path><path fill="#d9d9d9" d="M43 58H21a1 1 0 0 1 0-2h22a1 1 0 0 1 0 2z" opacity="1" data-original="#d9d9d9" class=""></path><path fill="#e16a92" d="M18 11h10a1 1 0 0 1 1 1v5a3 3 0 0 1-3 3h-6a3 3 0 0 1-3-3v-5a1 1 0 0 1 1-1z" opacity="1" data-original="#ffac00" class=""></path><path fill="#e16a92" d="M19 13a1 1 0 0 1-.83-1.55l2-3a1 1 0 0 1 1.66 1.1C19.7 12.75 19.7 13 19 13zM27 13c-.71 0-.72-.28-2.83-3.45a1 1 0 0 1 1.66-1.1l2 3A1 1 0 0 1 27 13z" opacity="1" data-original="#ffac00" class=""></path><path fill="#f3f3f3" d="M20 17v-3a1 1 0 0 1 2 0v3a1 1 0 0 1-2 0zM24 17v-3a1 1 0 0 1 2 0v3a1 1 0 0 1-2 0z" opacity="1" data-original="#f3f3f3" class=""></path><path fill="#d9d9d9" d="M31 11h16v2H31zM31 15h12v2H31z" opacity="1" data-original="#d9d9d9" class=""></path><rect width="10" height="14" x="17" y="24" fill="#8a9299" rx="2" opacity="1" data-original="#00bebd" class=""></rect><rect width="10" height="14" x="30" y="24" fill="#dddddd" rx="2" opacity="1" data-original="#50d9d7" class=""></rect><path fill="#dddddd" d="M45 24h2v14h-2a2 2 0 0 1-2-2V26a2 2 0 0 1 2-2z" opacity="1" data-original="#93e6e5" class=""></path><path fill="#dddddd" d="M24 36h-2a1 1 0 0 1 0-2h2a1 1 0 0 1 0 2z" opacity="1" data-original="#50d9d7" class=""></path><path fill="#8a9299" d="M37 36h-2a1 1 0 0 1 0-2h2a1 1 0 0 1 0 2z" opacity="1" data-original="#00bebd" class=""></path><g fill="#d9d9d9"><path d="M17 40h10v2H17zM17 44h10v2H17zM30 40h10v2H30zM30 44h10v2H30zM43 40h4v2h-4zM43 44h4v2h-4z" fill="#d9d9d9" opacity="1" data-original="#d9d9d9" class=""></path></g><path fill="#e16a92" d="M19 48h26a2 2 0 0 1 2 2v3H17v-3a2 2 0 0 1 2-2z" opacity="1" data-original="#ffac00" class=""></path></g></g></svg>