<svg xmlns="http://www.w3.org/2000/svg" version="1.1" xmlns:xlink="http://www.w3.org/1999/xlink" width="512" height="512" x="0" y="0" viewBox="0 0 512 512" style="enable-background:new 0 0 512 512" xml:space="preserve" class=""><g><path fill="#9facba" d="M267.661 512h-198.3c-28.448 0-51.509-23.061-51.509-51.509V51.509C17.852 23.061 40.913 0 69.361 0h198.3c28.448 0 51.509 23.061 51.509 51.509v408.982c0 28.448-23.062 51.509-51.509 51.509z" opacity="1" data-original="#9facba" class=""></path><path fill="#8d9ca8" d="M267.661 0h-10.302v30.905h10.302c11.379 0 20.604 9.225 20.604 20.604v408.982c0 11.379-9.225 20.604-20.604 20.604h-198.3c-11.379 0-20.604-9.224-20.604-20.604v-10.302H17.852v10.302c0 28.448 23.061 51.509 51.509 51.509h198.3c28.448 0 51.509-23.062 51.509-51.509V51.509C319.17 23.061 296.109 0 267.661 0z" opacity="1" data-original="#8d9ca8"></path><path fill="#ffffff" d="M267.661 30.905h-21.726a20.604 20.604 0 0 0-19.595 14.237l-.623 1.916a20.604 20.604 0 0 1-19.595 14.237h-75.22a20.604 20.604 0 0 1-19.595-14.237l-.623-1.917a20.604 20.604 0 0 0-19.595-14.237H69.361c-11.379 0-20.604 9.225-20.604 20.604V460.49c0 11.379 9.225 20.604 20.604 20.604h198.3c11.379 0 20.604-9.225 20.604-20.604V51.509c-.001-11.379-9.225-20.604-20.604-20.604z" opacity="1" data-original="#ffffff"></path><path fill="#f5f8f9" d="M267.661 30.905h-10.302v408.982c0 5.69-4.612 10.302-10.302 10.302h-198.3v10.302c0 11.379 9.225 20.604 20.604 20.604h198.3c11.379 0 20.604-9.225 20.604-20.604V51.509c-.001-11.379-9.225-20.604-20.604-20.604z" opacity="1" data-original="#f5f8f9"></path><path fill="#fd8087" d="M112.128 299.022H91.316a4.044 4.044 0 0 1-4.044-4.044v-20.811a4.044 4.044 0 0 1 4.044-4.044h20.811a4.044 4.044 0 0 1 4.044 4.044v20.811a4.043 4.043 0 0 1-4.043 4.044z" opacity="1" data-original="#fd8087"></path><path fill="#0593fc" d="M112.128 361.195H91.316a4.044 4.044 0 0 1-4.044-4.044V336.34a4.044 4.044 0 0 1 4.044-4.044h20.811a4.044 4.044 0 0 1 4.044 4.044v20.811a4.043 4.043 0 0 1-4.043 4.044z" opacity="1" data-original="#0593fc"></path><path fill="#5de1c4" d="M112.128 423.368H91.316a4.044 4.044 0 0 1-4.044-4.044v-20.811a4.044 4.044 0 0 1 4.044-4.044h20.811a4.044 4.044 0 0 1 4.044 4.044v20.811a4.042 4.042 0 0 1-4.043 4.044z" opacity="1" data-original="#5de1c4"></path><path fill="#e8edf2" d="M377.698 122.844H237.966l-1 1v93.523c0 7.112 5.765 12.877 12.877 12.877H365.82c7.112 0 12.877-5.765 12.877-12.877v-93.523z" opacity="1" data-original="#e8edf2"></path><path fill="#d9e7ec" d="M365.82 88.513h-18.028v97.949c0 7.112-5.765 12.877-12.877 12.877h-97.949v18.028c0 7.112 5.765 12.877 12.877 12.877H365.82c7.112 0 12.877-5.765 12.877-12.877V101.39c.001-7.112-5.765-12.877-12.877-12.877z" opacity="1" data-original="#d9e7ec"></path><path fill="#0593fc" d="M365.82 88.513H249.843c-7.112 0-12.877 5.765-12.877 12.877v22.454h141.732V101.39c0-7.112-5.766-12.877-12.878-12.877z" opacity="1" data-original="#0593fc"></path><path fill="#0182fc" d="M365.82 88.513h-18.028v35.331h30.905V101.39c.001-7.112-5.765-12.877-12.877-12.877z" opacity="1" data-original="#0182fc"></path><path fill="#ffe177" d="M481.271 408.085H365.294c-7.112 0-12.877-5.765-12.877-12.877V279.23c0-7.112 5.765-12.877 12.877-12.877h115.977c7.112 0 12.877 5.765 12.877 12.877v115.977c0 7.112-5.765 12.878-12.877 12.878z" opacity="1" data-original="#ffe177"></path><path fill="#ffd15b" d="M481.271 266.353h-18.028v97.949c0 7.112-5.765 12.877-12.877 12.877h-97.949v18.028c0 7.112 5.765 12.877 12.877 12.877h115.977c7.112 0 12.877-5.765 12.877-12.877V279.23c0-7.112-5.765-12.877-12.877-12.877z" opacity="1" data-original="#ffd15b"></path><path fill="#596c76" d="M198.386 45.905h-59.75c-4.142 0-7.5-3.357-7.5-7.5s3.358-7.5 7.5-7.5h59.75c4.142 0 7.5 3.357 7.5 7.5s-3.358 7.5-7.5 7.5z" opacity="1" data-original="#596c76"></path><path fill="#b6c4cf" d="M249.75 292.072h-97.924c-4.142 0-7.5-3.357-7.5-7.5s3.358-7.5 7.5-7.5h97.924c4.142 0 7.5 3.357 7.5 7.5s-3.358 7.5-7.5 7.5zM249.75 354.245h-97.924c-4.142 0-7.5-3.357-7.5-7.5s3.358-7.5 7.5-7.5h97.924c4.142 0 7.5 3.357 7.5 7.5s-3.358 7.5-7.5 7.5zM249.75 416.419h-97.924c-4.142 0-7.5-3.357-7.5-7.5s3.358-7.5 7.5-7.5h97.924c4.142 0 7.5 3.357 7.5 7.5s-3.358 7.5-7.5 7.5z" opacity="1" data-original="#b6c4cf"></path><path fill="#0593fc" d="M302.008 196.115a7.5 7.5 0 0 1-5.303-2.196l-21.112-21.112a7.5 7.5 0 0 1 10.606-10.607l15.809 15.81 27.457-27.457a7.501 7.501 0 0 1 10.606 10.607l-32.76 32.76a7.503 7.503 0 0 1-5.303 2.195z" opacity="1" data-original="#0593fc"></path><path fill="#0ed2b3" d="M113.451 212.512v-68.885c0-4.143-3.358-7.5-7.5-7.5s-7.5 3.357-7.5 7.5v68.885z" opacity="1" data-original="#0ed2b3"></path><path fill="#fe646f" d="M154.282 212.512v-28.053c0-4.143-3.358-7.5-7.5-7.5s-7.5 3.357-7.5 7.5v28.053z" opacity="1" data-original="#fe646f"></path><path fill="#ffd15b" d="M195.113 212.512v-51.966c0-4.143-3.358-7.5-7.5-7.5s-7.5 3.357-7.5 7.5v51.966z" opacity="1" data-original="#ffd15b"></path><path fill="#b6c4cf" d="M142.762 110.357h-55.49c-4.142 0-7.5-3.357-7.5-7.5s3.358-7.5 7.5-7.5h55.49c4.142 0 7.5 3.357 7.5 7.5s-3.358 7.5-7.5 7.5z" opacity="1" data-original="#b6c4cf"></path><path fill="#ffffff" d="M457.791 310.211h-69.016c-4.142 0-7.5-3.357-7.5-7.5s3.358-7.5 7.5-7.5h69.016c4.142 0 7.5 3.357 7.5 7.5s-3.358 7.5-7.5 7.5zM457.791 344.456h-69.016c-4.142 0-7.5-3.357-7.5-7.5s3.358-7.5 7.5-7.5h69.016c4.142 0 7.5 3.357 7.5 7.5s-3.358 7.5-7.5 7.5zM423.282 379.227h-34.508c-4.142 0-7.5-3.357-7.5-7.5s3.358-7.5 7.5-7.5h34.508c4.142 0 7.5 3.357 7.5 7.5s-3.358 7.5-7.5 7.5z" opacity="1" data-original="#ffffff"></path><path fill="#b6c4cf" d="M202.271 226.512H91.292c-4.142 0-7.5-3.357-7.5-7.5s3.358-7.5 7.5-7.5h110.979c4.142 0 7.5 3.357 7.5 7.5s-3.357 7.5-7.5 7.5z" opacity="1" data-original="#b6c4cf"></path></g></svg>