<svg id="Flat" viewBox="0 0 64 64" xmlns="http://www.w3.org/2000/svg"><path d="m56 6h-48c-1.1 0-2 .9-2 2v48c0 1.1.9 2 2 2h48c1.1 0 2-.9 2-2v-48c0-1.1-.9-2-2-2z" fill="#536882"/><path d="m25 6-1 8h-18v-6c0-1.1.9-2 2-2z" fill="#d3dce5"/><path d="m58 8v6h-34l1-8h31c1.1 0 2 .9 2 2z" fill="#b8c3d5"/><path d="m58 14v42c0 1.1-.9 2-2 2h-24v-44z" fill="#78b24c"/><circle cx="10" cy="10" fill="#e26677" r="1"/><circle cx="15" cy="10" fill="#edae65" r="1"/><circle cx="20" cy="10" fill="#78b24c" r="1"/><path d="m21 40.25h-5c-.55 0-1-.45-1-1s.45-1 1-1h5c.55 0 1 .45 1 1s-.45 1-1 1z" fill="#ce9ddb"/><path d="m15 46.25h-5c-.55 0-1-.45-1-1s.45-1 1-1h5c.55 0 1 .45 1 1s-.45 1-1 1z" fill="#85b9db"/><path d="m28 52.25h-5c-.55 0-1-.45-1-1s.45-1 1-1h5c.55 0 1 .45 1 1s-.45 1-1 1z" fill="#85b9db"/><path d="m12 40.25h-2c-.55 0-1-.45-1-1s.45-1 1-1h2c.55 0 1 .45 1 1s-.45 1-1 1z" fill="#edae65"/><path d="m28 46.25h-2c-.55 0-1-.45-1-1s.45-1 1-1h2c.55 0 1 .45 1 1s-.45 1-1 1z" fill="#e26677"/><path d="m19 52.25h-2c-.55 0-1-.45-1-1s.45-1 1-1h2c.55 0 1 .45 1 1s-.45 1-1 1z" fill="#85b9db"/><path d="m28 40.25h-3c-.55 0-1-.45-1-1s.45-1 1-1h3c.55 0 1 .45 1 1s-.45 1-1 1z" fill="#ce9ddb"/><path d="m22 46.25h-3c-.55 0-1-.45-1-1s.45-1 1-1h3c.55 0 1 .45 1 1s-.45 1-1 1z" fill="#e26677"/><path d="m13 52.25h-3c-.55 0-1-.45-1-1s.45-1 1-1h3c.55 0 1 .45 1 1s-.45 1-1 1z" fill="#ce9ddb"/><g fill="#d3dce5"><path d="m28.64 25.98-3.6-3c-.43-.35-1.06-.3-1.41.13s-.3 1.06.13 1.41l2.68 2.23-2.68 2.23c-.42.35-.48.98-.13 1.41.2.24.48.36.77.36.23 0 .45-.08.64-.23l3.6-3c.23-.19.36-.47.36-.77s-.13-.58-.36-.77z"/><path d="m14.37 23.11c-.35-.42-.98-.48-1.41-.13l-3.6 3c-.23.19-.36.47-.36.77s.13.58.36.77l3.6 3c.19.16.41.23.64.23.29 0 .57-.12.77-.36.35-.42.3-1.06-.13-1.41l-2.68-2.23 2.68-2.23c.42-.35.48-.98.13-1.41z"/><path d="m20.74 19.78c-.54-.14-1.08.19-1.21.73l-3 12c-.13.54.19 1.08.73 1.21.08.02.16.03.24.03.45 0 .86-.3.97-.76l3-12c.13-.54-.19-1.08-.73-1.21z"/><path d="m37 19h16v8h-16z"/><path d="m37 32h16v8h-16z"/><path d="m37 45h6v8h-6z"/><path d="m47 45h6v8h-6z"/></g></svg>