<svg xmlns="http://www.w3.org/2000/svg" version="1.1" xmlns:xlink="http://www.w3.org/1999/xlink" width="512" height="512" x="0" y="0" viewBox="0 0 96 96" style="enable-background:new 0 0 512 512" xml:space="preserve" class=""><g transform="matrix(1.02,0,0,1.02,-0.9600000190734903,-0.960000000000008)"><g data-name="UI UX Design"><rect width="56" height="94" x="21.57" y="1" fill="#484f79" rx="3.67" opacity="1" data-original="#484f79" class=""></rect><rect width="38.33" height="89.25" x="30.4" y="1" fill="#486d97" rx="3.67" opacity="1" data-original="#486d97" class=""></rect><path fill="#34ccff" d="M77.57 10.33v69.84a3.66 3.66 0 0 1-3.67 3.66H25.24a3.67 3.67 0 0 1-3.4-2.28c-.4-1-.27 3.54-.27-71.22a3.66 3.66 0 0 1 3.67-3.66H73.9a3.66 3.66 0 0 1 3.67 3.66z" opacity="1" data-original="#34ccff"></path><g fill="#348bf0"><path d="M77.57 55.39v18.39L67.52 83.83H49.13zM77.57 41.64V48L41.74 83.83h-6.37zM77.57 19.44v6.38L21.84 81.55c-.38-1-.27-1.35-.27-6.11zM37.1 6.67 21.57 22.2v-6.38l9.15-9.15zM77.45 9.4 21.57 65.28V47.19L62.08 6.67H73.9a3.66 3.66 0 0 1 3.55 2.73z" fill="#348bf0" opacity="1" data-original="#348bf0" class=""></path><path d="M49.57 48.14h28V64h-28zM21.57 18.97h25.25v33.92H21.57z" fill="#348bf0" opacity="1" data-original="#348bf0" class=""></path></g><path fill="#34a4ff" d="M21.57 62.64h25.42V78.5H21.57z" opacity="1" data-original="#34a4ff"></path><path fill="#2f3156" d="M55.49 90.25H43.82a1 1 0 1 1 0-2h11.67a1 1 0 1 1 0 2z" opacity="1" data-original="#2f3156"></path><path fill="#dceaff" d="M52.01 43.2h28.78v15.86H52.01z" opacity="1" data-original="#dceaff"></path><path fill="#ffffff" d="M54.61 45.25h23.58v5.89H54.61z" opacity="1" data-original="#ffffff"></path><circle cx="61.74" cy="24" r="4.67" fill="#ffb942" opacity="1" data-original="#ffb942"></circle><path fill="#2f3156" d="M70.65 33.92H52.82a1 1 0 0 1-1-1V15.08a1 1 0 0 1 1-1h17.83a1 1 0 0 1 1 1v17.84a1 1 0 0 1-1 1zm-16.83-2h15.83V16.08H53.82z" opacity="1" data-original="#2f3156"></path><path fill="#ff2c63" d="M50.9 31h3.83v3.83H50.9zM68.74 31h3.83v3.83h-3.83zM50.9 13.17h3.83V17H50.9zM68.74 13.17h3.83V17h-3.83z" opacity="1" data-original="#ff2c63"></path><path fill="#7aeaff" d="M15.37 14.04h28.45v33.92H15.37z" opacity="1" data-original="#7aeaff"></path><path fill="#a2ffff" d="M18.37 17.04h22.45v27.92H18.37z" opacity="1" data-original="#a2ffff"></path><path fill="#08827d" d="M43.82 32.65V48H25.35v-6.81l13.51-13.5z" opacity="1" data-original="#08827d"></path><path fill="#08a57d" d="M40.82 29.65V45H25.35v-3.81c11.83-11.82 8.89-8.87 13.51-13.5z" opacity="1" data-original="#08a57d"></path><path fill="#17d77d" d="M43.82 40v8H15.37v-9.45l13.51-13.5z" opacity="1" data-original="#17d77d"></path><path fill="#7ceb7d" d="M40.82 36.99v7.97H18.37v-9.41l10.51-10.5z" opacity="1" data-original="#7ceb7d"></path><path fill="#08827d" d="M33.59 43.16h-8a1 1 0 1 1 0-2h8a1 1 0 0 1 0 2z" opacity="1" data-original="#08827d"></path><path fill="#dceaff" d="M15.21 58.89h28.78v15.86H15.21z" opacity="1" data-original="#dceaff"></path><path fill="#ffffff" d="M17.88 61.44h23.43v5.38H17.88z" opacity="1" data-original="#ffffff"></path><path fill="#484f79" d="M75.76 49.14H57.05a1 1 0 0 1 0-2h18.71a1 1 0 0 1 0 2zM64.57 54.89h-7.52a1 1 0 0 1 0-2h7.52a1 1 0 0 1 0 2zM75.76 54.89H69.2a1 1 0 0 1 0-2h6.56a1 1 0 0 1 0 2zM39 64.82H20.24a1 1 0 1 1 0-2H39a1 1 0 1 1 0 2zM27.76 70.57h-7.52a1 1 0 1 1 0-2h7.52a1 1 0 1 1 0 2zM39 70.57h-6.61a1 1 0 0 1 0-2H39a1 1 0 0 1 0 2z" opacity="1" data-original="#484f79" class=""></path><path fill="#ffffff" d="M73.57 69.55a1 1 0 0 0-1 1v1.1H53v-1.1a1 1 0 0 0-2 0v4.2a1 1 0 0 0 2 0v-1.1h19.57v1.1a1 1 0 0 0 2 0v-4.2a1 1 0 0 0-1-1z" opacity="1" data-original="#ffffff"></path></g></g></svg>