<svg xmlns="http://www.w3.org/2000/svg" version="1.1" xmlns:xlink="http://www.w3.org/1999/xlink" width="512" height="512" x="0" y="0" viewBox="0 0 512 512" style="enable-background:new 0 0 512 512" xml:space="preserve" class=""><g><path fill="#114559" d="M369.347 7.5H155.374c-19.33 0-35 15.67-35 35v50.237H235.21c7.688 0 13.943 6.254 13.943 13.942v120.115c0 7.688-6.255 13.943-13.943 13.943h-34.064v33.736c0 2.498-2.042 3.991-4.017 3.991-.731 0-1.807-.204-2.779-1.176l-36.551-36.551h-37.425V469.5c0 19.33 15.67 35 35 35h213.973c19.33 0 35-15.67 35-35v-427c0-19.33-15.67-35-35-35z" opacity="1" data-original="#7a8c98" class=""></path><path fill="#c5d3dd" d="M295.259 467.5h-65.797c-11.046 0-20 8.954-20 20v17h105.797v-17c0-11.046-8.954-20-20-20z" opacity="1" data-original="#c5d3dd" class=""></path><path fill="#b6c4cf" d="M295.259 467.5h-42.108c11.046 0 20 8.954 20 20v17h42.108v-17c0-11.046-8.954-20-20-20z" opacity="1" data-original="#b6c4cf" class=""></path><path fill="#114559" d="M369.347 7.5h-50.993c19.33 0 35 15.67 35 35v427c0 19.33-15.67 35-35 35h50.993c19.33 0 35-15.67 35-35v-427c0-19.33-15.67-35-35-35z" opacity="1" data-original="#596c76" class=""></path><path fill="#205b75" d="M369.347 0H155.374c-23.435 0-42.5 19.065-42.5 42.5v50.431a13.907 13.907 0 0 1 2.222-.194h12.778V42.5c0-15.164 12.336-27.5 27.5-27.5h213.973c15.164 0 27.5 12.336 27.5 27.5v427c0 15.164-12.336 27.5-27.5 27.5H155.374c-15.164 0-27.5-12.336-27.5-27.5V240.737h-12.778c-.758 0-1.496-.077-2.222-.194V469.5c0 23.435 19.065 42.5 42.5 42.5h213.973c23.435 0 42.5-19.065 42.5-42.5v-427c0-23.435-19.065-42.5-42.5-42.5z" opacity="1" data-original="#465a61" class=""></path><path fill="#b6c4cf" d="M304.7 56.827h-84.678a7.5 7.5 0 0 1 0-15H304.7a7.5 7.5 0 0 1 0 15zM367.361 56.827h-10c-4.143 0-7.5-3.358-7.5-7.5s3.357-7.5 7.5-7.5h10a7.5 7.5 0 0 1 0 15zM167.361 56.827h-10a7.5 7.5 0 0 1 0-15h10a7.5 7.5 0 0 1 0 15z" opacity="1" data-original="#b6c4cf" class=""></path><g fill="#fff"><path d="m348.843 367.757-1.781 1.036 1.916.758a54.284 54.284 0 0 1 11.604 6.332v-18.556a39.711 39.711 0 0 1-11.739 10.43zM308.817 369.551l1.916-.758-1.781-1.036c-12.213-7.103-19.799-20.273-19.799-34.372 0-21.915 17.83-39.745 39.745-39.745 12.923 0 24.42 6.202 31.684 15.783V236.62H245.09a13.896 13.896 0 0 1-9.88 4.117h-34.064v33.736c0 2.498-2.042 3.991-4.017 3.991-.731 0-1.807-.204-2.779-1.176l-30.211-30.211v139.22a8.195 8.195 0 0 0 8.195 8.195h108.463c6.042-11.177 15.912-20.151 28.02-24.941z" fill="#ffffff" opacity="1" data-original="#ffffff" class=""></path></g><g fill="#f2fbff"><path d="m348.843 367.757-1.781 1.036 1.916.758a54.284 54.284 0 0 1 11.604 6.332v-18.556a39.711 39.711 0 0 1-11.739 10.43zM328.898 293.641c12.923 0 24.42 6.202 31.684 15.783V236.62h-33.786v57.077a40.69 40.69 0 0 1 2.102-.056z" fill="#f2fbff" opacity="1" data-original="#f2fbff" class=""></path></g><path fill="#fd4755" d="M352.387 192.667H249.153v34.127c0 4.307-1.965 8.164-5.044 10.723h116.473v-36.655a8.195 8.195 0 0 0-8.195-8.195z" opacity="1" data-original="#fd4755" class=""></path><path fill="#fb2b3a" d="M352.387 192.667h-33.785a8.195 8.195 0 0 1 8.195 8.195v36.655h33.786v-36.655a8.196 8.196 0 0 0-8.196-8.195z" opacity="1" data-original="#fb2b3a" class=""></path><path fill="#c5d3dd" d="M327.393 280h-69.966a7.5 7.5 0 0 1 0-15h69.966c4.143 0 7.5 3.358 7.5 7.5s-3.357 7.5-7.5 7.5zM326.703 293.704h-86.027a7.5 7.5 0 0 0 0 15h57.104c6.861-8.632 17.223-14.36 28.923-15zM217.354 308.704h-20.025a7.5 7.5 0 0 1 0-15h20.025a7.5 7.5 0 0 1 0 15z" opacity="1" data-original="#c5d3dd" class=""></path><g fill="#c5d3dd"><path d="M289.367 337.266a39.09 39.09 0 0 1-.214-3.881c0-3.631.499-7.145 1.415-10.489a7.476 7.476 0 0 0-2.643-.488h-90.597a7.5 7.5 0 0 0 0 15h90.597c.494 0 .975-.051 1.442-.142zM293.36 351.112h-96.031a7.5 7.5 0 0 0 0 15H306.38a39.936 39.936 0 0 1-13.02-15z" fill="#c5d3dd" opacity="1" data-original="#c5d3dd" class=""></path></g><path fill="#00f2a6" d="M383.793 411.283c-3.276-19.966-17.186-36.347-35.72-43.154-5.688 3.152-12.225 4.953-19.176 4.953s-13.487-1.801-19.176-4.953c-18.533 6.807-32.443 23.187-35.72 43.154-.781 4.758 2.92 9.076 7.742 9.076h94.307c4.823.001 8.524-4.318 7.743-9.076z" opacity="1" data-original="#00f2a6" class=""></path><path fill="#05e39c" d="M383.793 411.283c-3.276-19.966-17.187-36.347-35.72-43.154a39.446 39.446 0 0 1-19.176 4.953c-2.087 0-4.131-.181-6.132-.494 13.775 8.233 23.696 22.244 26.396 38.694.781 4.758-2.92 9.076-7.742 9.076h34.632c4.822.002 8.523-4.317 7.742-9.075z" opacity="1" data-original="#05e39c" class=""></path><circle cx="328.898" cy="333.385" r="40.745" fill="#6cf5c2" transform="rotate(-71.53 328.876 333.23)" opacity="1" data-original="#6cf5c2" class=""></circle><path fill="#00f2a6" d="M328.898 292.64c-4.67 0-9.151.796-13.329 2.242 15.955 5.523 27.416 20.67 27.416 38.503s-11.461 32.98-27.416 38.503a40.669 40.669 0 0 0 13.329 2.242c22.503 0 40.745-18.242 40.745-40.745s-18.242-40.745-40.745-40.745z" opacity="1" data-original="#00f2a6" class=""></path><path fill="#ffe177" d="M115.096 91.737H235.21c8.253 0 14.943 6.69 14.943 14.943v120.115c0 8.253-6.69 14.943-14.943 14.943h-33.064v32.736c0 4.438-5.365 6.66-8.503 3.522l-36.258-36.258h-42.29c-8.253 0-14.943-6.69-14.943-14.943V106.679c.001-8.252 6.691-14.942 14.944-14.942z" opacity="1" data-original="#ffe177" class=""></path><path fill="#ffd15b" d="M235.21 91.737h-30.298c8.253 0 14.943 6.69 14.943 14.943v120.115c0 8.253-6.69 14.943-14.943 14.943h30.298c8.253 0 14.943-6.69 14.943-14.943V106.679c0-8.252-6.69-14.942-14.943-14.942z" opacity="1" data-original="#ffd15b" class=""></path><path fill="#f6ab31" d="M175.153 191.684c-4.142 0-7.5-3.336-7.5-7.479 0-9.082 5.36-17.18 13.656-20.674 6.216-2.618 10.111-8.916 9.691-15.672-.486-7.824-6.996-14.334-14.821-14.82-4.444-.277-8.673 1.241-11.899 4.273-3.229 3.035-5.008 7.145-5.008 11.574a7.5 7.5 0 0 1-15 0c0-8.487 3.548-16.69 9.735-22.505 6.274-5.896 14.475-8.849 23.102-8.313 15.492.961 27.9 13.369 28.862 28.862.813 13.11-6.758 25.337-18.841 30.425-2.72 1.146-4.478 3.817-4.478 6.807.001 4.143-3.357 7.522-7.499 7.522zM175.153 216.577a7.5 7.5 0 0 1-7.5-7.5v-3.98a7.5 7.5 0 0 1 15 0v3.98a7.5 7.5 0 0 1-7.5 7.5z" opacity="1" data-original="#f6ab31"></path><path fill="#60b7ff" d="M352.582 157.5h-62.221a8 8 0 0 1-8-8v-25a8 8 0 0 1 8-8h62.221a8 8 0 0 1 8 8v25a8 8 0 0 1-8 8z" opacity="1" data-original="#60b7ff" class=""></path><path fill="#26a6fe" d="M352.582 116.5h-33.228a8 8 0 0 1 8 8v25a8 8 0 0 1-8 8h33.228a8 8 0 0 0 8-8v-25a8 8 0 0 0-8-8z" opacity="1" data-original="#26a6fe" class=""></path></g></svg>