<svg clip-rule="evenodd" fill-rule="evenodd" stroke-linejoin="round" stroke-miterlimit="2" viewBox="0 0 96 96" xmlns="http://www.w3.org/2000/svg" xmlns:serif="http://www.serif.com/"><g><path d="m94 5.422c0-1.657-1.343-3-3-3-13.915 0-72.085 0-86 0-1.657 0-3 1.343-3 3v64.59c0 1.657 1.343 3 3 3h86c1.657 0 3-1.343 3-3 0-11.546 0-53.044 0-64.59z" fill="#ebebeb"/><path d="m2 15.106h92v-9.684c0-1.657-1.343-3-3-3-13.915 0-72.085 0-86 0-1.657 0-3 1.343-3 3z" fill="#aaaaaa"/><path d="m87.749 7.264h-3.22c-.828 0-1.5.672-1.5 1.5s.672 1.5 1.5 1.5h3.22c.828 0 1.5-.672 1.5-1.5s-.672-1.5-1.5-1.5z" fill="#ff6455"/><path d="m77.301 7.264h-3.22c-.828 0-1.5.672-1.5 1.5s.672 1.5 1.5 1.5h3.22c.828 0 1.5-.672 1.5-1.5s-.672-1.5-1.5-1.5z" fill="#f3b725"/><path d="m66.853 7.264h-3.219c-.828 0-1.5.672-1.5 1.5s.672 1.5 1.5 1.5h3.219c.828 0 1.5-.672 1.5-1.5s-.672-1.5-1.5-1.5z" fill="#ebebeb"/><g fill="#caceec"><path d="m51.833 28.469h15.783c.828 0 1.5-.673 1.5-1.5 0-.828-.672-1.5-1.5-1.5h-15.783c-.828 0-1.5.672-1.5 1.5 0 .827.672 1.5 1.5 1.5z"/><path d="m51.833 34.469h30.606c.828 0 1.5-.673 1.5-1.5 0-.828-.672-1.5-1.5-1.5h-30.606c-.828 0-1.5.672-1.5 1.5 0 .827.672 1.5 1.5 1.5z"/><path d="m51.833 40.469h30.606c.828 0 1.5-.673 1.5-1.5 0-.828-.672-1.5-1.5-1.5h-30.606c-.828 0-1.5.672-1.5 1.5 0 .827.672 1.5 1.5 1.5z"/></g><path d="m27.236 26.969c1.372 0 2.57.931 2.908 2.261 1.627 6.41 6.153 24.236 6.153 24.236h-21.488s4.526-17.826 6.154-24.236c.338-1.33 1.535-2.261 2.908-2.261z" fill="#f3b725"/><path d="m10.44 54.966h30.227c.828 0 1.5-.672 1.5-1.5s-.672-1.5-1.5-1.5h-30.227c-.828 0-1.5.672-1.5 1.5s.672 1.5 1.5 1.5z" fill="#cf9c1f"/><path d="m34.506 46.41h-17.905l.762-3h16.381zm-2.799-11.022h-12.308l.762-3h10.784z" fill="#fff"/><path d="m70.784 53.936c-.231-.793-.927-1.362-1.75-1.432-1.064-.077-2.133-.077-3.197.005-.821.07-1.515.638-1.746 1.429-.098.318-.198.659-.288.969-.192.656-.707 1.169-1.364 1.359-1.15.338-2.26.798-3.315 1.368-.597.329-1.322.33-1.92.002-.286-.15-.597-.32-.889-.481-.725-.397-1.619-.308-2.251.225-.807.698-1.563 1.454-2.257 2.265-.531.63-.62 1.521-.224 2.244.156.295.326.606.481.889.329.6.328 1.326-.002 1.926-.575 1.052-1.035 2.162-1.377 3.311-.19.655-.702 1.168-1.357 1.359-.308.096-.649.196-.969.289-.793.232-1.362.927-1.432 1.75-.077 1.065-.077 2.134.005 3.197.07.821.638 1.515 1.429 1.746.318.099.659.198.969.289.656.192 1.169.706 1.359 1.363.338 1.15.798 2.26 1.368 3.315.329.598.33 1.322.002 1.92-.15.286-.32.597-.481.89-.397.724-.308 1.619.225 2.25.698.807 1.454 1.563 2.265 2.257.63.531 1.521.62 2.244.224.295-.155.606-.326.889-.481.6-.328 1.326-.327 1.926.003 1.052.574 2.162 1.034 3.311 1.377.655.19 1.168.701 1.359 1.356.096.308.196.649.289.969.232.793.927 1.362 1.75 1.433 1.065.077 2.134.077 3.197-.006.821-.07 1.515-.637 1.746-1.428.099-.319.198-.66.289-.969.192-.657.706-1.17 1.363-1.36 1.15-.338 2.26-.798 3.315-1.368.598-.329 1.322-.33 1.92-.002.286.15.597.321.89.481.724.397 1.619.308 2.25-.225.807-.698 1.563-1.454 2.257-2.264.531-.63.62-1.522.224-2.245-.155-.295-.326-.606-.481-.889-.328-.6-.327-1.326.003-1.925.574-1.053 1.034-2.163 1.377-3.312.19-.655.701-1.168 1.356-1.359.308-.096.649-.195.969-.289.793-.231 1.362-.927 1.433-1.75.077-1.064.077-2.133-.006-3.197-.07-.821-.637-1.515-1.428-1.746-.319-.098-.66-.198-.969-.288-.657-.192-1.17-.707-1.36-1.364-.338-1.15-.798-2.26-1.368-3.315-.329-.597-.33-1.322-.002-1.92.15-.286.321-.597.481-.889.397-.725.308-1.619-.225-2.251-.698-.807-1.454-1.563-2.264-2.257-.63-.531-1.522-.62-2.245-.224-.295.156-.606.326-.889.481-.6.329-1.326.328-1.925-.002-1.053-.575-2.163-1.035-3.312-1.377-.655-.19-1.168-.702-1.359-1.357-.096-.308-.195-.649-.289-.969zm-3.349 9.205c5.448 0 9.871 4.423 9.871 9.871s-4.423 9.871-9.871 9.871-9.871-4.423-9.871-9.871 4.423-9.871 9.871-9.871z" fill="#536782"/></g></svg>