<svg xmlns="http://www.w3.org/2000/svg" version="1.1" xmlns:xlink="http://www.w3.org/1999/xlink" width="512" height="512" x="0" y="0" viewBox="0 0 512 512" style="enable-background:new 0 0 512 512" xml:space="preserve" class=""><g><path fill="#4981f8" d="M321.283 395.447H190.717l-28.376 72.846h187.318z" opacity="1" data-original="#4981f8"></path><path fill="#80b6fc" d="M491.187 395.447H20.813C9.318 395.447 0 386.129 0 374.634V31.22c0-11.495 9.318-20.813 20.813-20.813h470.374c11.495 0 20.813 9.318 20.813 20.813v343.415c0 11.494-9.318 20.812-20.813 20.812z" opacity="1" data-original="#80b6fc" class=""></path><path fill="#62a4fb" d="M491.187 10.407h-28.715c11.495 0 20.813 9.318 20.813 20.813v343.415c0 11.495-9.318 20.813-20.813 20.813h28.715c11.495 0 20.813-9.318 20.813-20.813V31.22c0-11.495-9.318-20.813-20.813-20.813z" opacity="1" data-original="#62a4fb"></path><path fill="#ffffff" d="M478.694 52.034v270.567a8.327 8.327 0 0 1-8.324 8.324H41.63l-8.324-71.804v-33.79l19.007-38.014-19.007-38.014v-33.79l8.324-71.804h428.74c4.595.002 8.324 3.731 8.324 8.325z" opacity="1" data-original="#d3effd" class=""></path><path fill="#88f2a9" d="M233.001 194.817h-66.393c-4.143 0-7.5-3.357-7.5-7.5s3.357-7.5 7.5-7.5h66.393c4.143 0 7.5 3.357 7.5 7.5s-3.357 7.5-7.5 7.5zM191.375 131.293h-66.393c-4.143 0-7.5-3.357-7.5-7.5s3.357-7.5 7.5-7.5h66.393c4.143 0 7.5 3.357 7.5 7.5s-3.357 7.5-7.5 7.5zM191.375 258.341h-66.393c-4.143 0-7.5-3.357-7.5-7.5s3.357-7.5 7.5-7.5h66.393c4.143 0 7.5 3.357 7.5 7.5s-3.357 7.5-7.5 7.5z" opacity="1" data-original="#88f2a9"></path><path fill="#9facba" d="m90.283 285.704 24.732 12.955a10.117 10.117 0 0 0 11.848-1.808l15.972-15.972a10.117 10.117 0 0 0 1.808-11.848l-12.955-24.732c-1.51-2.883-1.506-6.3-.083-9.227a108.463 108.463 0 0 0 4.979-12.018c1.063-3.073 3.476-5.489 6.58-6.459l26.648-8.327a10.117 10.117 0 0 0 7.099-9.656v-22.588c0-4.425-2.876-8.336-7.099-9.656l-26.648-8.327c-3.104-.97-5.517-3.385-6.58-6.459a108.576 108.576 0 0 0-4.979-12.018c-1.424-2.927-1.428-6.344.083-9.227l12.955-24.732a10.117 10.117 0 0 0-1.808-11.848l-15.972-15.972a10.117 10.117 0 0 0-11.848-1.808L90.283 88.93c-2.883 1.51-6.3 1.506-9.227.083a108.56 108.56 0 0 0-11.938-4.951c-3.159-1.095-5.53-3.747-6.367-6.984l-6.674-25.789a10.116 10.116 0 0 0-9.794-7.582h-4.656a8.325 8.325 0 0 0-8.325 8.325v63.48c39.593 0 71.805 32.212 71.805 71.805s-32.211 71.805-71.805 71.805v63.48a8.325 8.325 0 0 0 8.325 8.325h4.656c4.611 0 8.639-3.118 9.794-7.582l6.674-25.788c.838-3.237 3.208-5.889 6.367-6.984a108.641 108.641 0 0 0 11.938-4.951c2.926-1.425 6.343-1.428 9.227.082z" opacity="1" data-original="#9facba"></path><path fill="#9facba" d="M71.315 187.317c0-20.995-17.02-38.014-38.014-38.014v76.029c20.995-.001 38.014-17.02 38.014-38.015z" opacity="1" data-original="#9facba"></path><path fill="#b2e5fb" d="M470.374 43.707h-22.006c4.59 0 8.325 3.735 8.325 8.325v270.569c0 4.59-3.735 8.325-8.325 8.325h22.006c4.59 0 8.325-3.735 8.325-8.325V52.033c0-4.591-3.735-8.326-8.325-8.326z" opacity="1" data-original="#b2e5fb"></path><path fill="#80b6fc" d="M370.576 501.594H141.424c-5.69 0-10.302-4.612-10.302-10.302v-12.697c0-5.69 4.612-10.302 10.302-10.302h229.152c5.69 0 10.302 4.612 10.302 10.302v12.697c0 5.689-4.612 10.302-10.302 10.302z" opacity="1" data-original="#80b6fc" class=""></path><path fill="#62a4fb" d="M370.576 501.594h-20.918v-33.301h20.918c5.69 0 10.302 4.612 10.302 10.302v12.697c0 5.689-4.612 10.302-10.302 10.302z" opacity="1" data-original="#62a4fb"></path><circle cx="239.35" cy="187.317" r="16.65" fill="#f7e365" opacity="1" data-original="#f7e365"></circle><circle cx="197.724" cy="123.793" r="16.65" fill="#f7e365" opacity="1" data-original="#f7e365"></circle><circle cx="197.724" cy="250.841" r="16.65" fill="#f7e365" opacity="1" data-original="#f7e365"></circle><path fill="#e279b3" d="M346.536 84.508h-57.235c-4.143 0-7.5-3.357-7.5-7.5s3.357-7.5 7.5-7.5h57.235c4.143 0 7.5 3.357 7.5 7.5s-3.357 7.5-7.5 7.5z" opacity="1" data-original="#e279b3" class=""></path><path fill="#75cff9" d="M322.602 117.809h-33.301c-4.143 0-7.5-3.357-7.5-7.5s3.357-7.5 7.5-7.5h33.301c4.143 0 7.5 3.357 7.5 7.5s-3.358 7.5-7.5 7.5z" opacity="1" data-original="#75cff9"></path><path fill="#f7e365" d="M445.398 117.809h-89.496c-4.143 0-7.5-3.357-7.5-7.5s3.357-7.5 7.5-7.5h89.496c4.143 0 7.5 3.357 7.5 7.5s-3.357 7.5-7.5 7.5z" opacity="1" data-original="#f7e365"></path><path fill="#75cff9" d="M406.895 151.109h-15.61c-4.143 0-7.5-3.357-7.5-7.5s3.357-7.5 7.5-7.5h15.61c4.143 0 7.5 3.357 7.5 7.5s-3.358 7.5-7.5 7.5zM357.983 151.109H289.3c-4.143 0-7.5-3.357-7.5-7.5s3.357-7.5 7.5-7.5h68.683c4.143 0 7.5 3.357 7.5 7.5s-3.357 7.5-7.5 7.5z" opacity="1" data-original="#75cff9"></path><path fill="#e279b3" d="M346.536 184.41h-57.235c-4.143 0-7.5-3.357-7.5-7.5s3.357-7.5 7.5-7.5h57.235c4.143 0 7.5 3.357 7.5 7.5s-3.357 7.5-7.5 7.5z" opacity="1" data-original="#e279b3" class=""></path><path fill="#75cff9" d="M322.602 217.711h-33.301c-4.143 0-7.5-3.357-7.5-7.5s3.357-7.5 7.5-7.5h33.301c4.143 0 7.5 3.357 7.5 7.5s-3.358 7.5-7.5 7.5z" opacity="1" data-original="#75cff9"></path><path fill="#f7e365" d="M445.398 217.711h-89.496c-4.143 0-7.5-3.357-7.5-7.5s3.357-7.5 7.5-7.5h89.496c4.143 0 7.5 3.357 7.5 7.5s-3.357 7.5-7.5 7.5z" opacity="1" data-original="#f7e365"></path><path fill="#75cff9" d="M406.895 251.012h-15.61c-4.143 0-7.5-3.357-7.5-7.5s3.357-7.5 7.5-7.5h15.61c4.143 0 7.5 3.357 7.5 7.5s-3.358 7.5-7.5 7.5zM357.983 251.012H289.3c-4.143 0-7.5-3.357-7.5-7.5s3.357-7.5 7.5-7.5h68.683c4.143 0 7.5 3.357 7.5 7.5s-3.357 7.5-7.5 7.5z" opacity="1" data-original="#75cff9"></path></g></svg>