<svg height="512pt" viewBox="0 0 512 512" width="512pt" xmlns="http://www.w3.org/2000/svg"><path d="m150.070312 406.070312h211.859376v88.273438h-211.859376zm0 0" fill="#a5a5a4"/><path d="m512 26.484375v344.273437h-273.65625v-370.757812h247.171875c14.628906 0 26.484375 11.855469 26.484375 26.484375zm0 0" fill="#90bae1"/><path d="m256 0v370.757812h-256v-344.273437c0-14.628906 11.855469-26.484375 26.484375-26.484375zm0 0" fill="#464f5d"/><path d="m88.277344 476.691406h335.445312c4.875 0 8.828125 3.949219 8.828125 8.824219v17.65625c0 4.875-3.953125 8.828125-8.828125 8.828125h-335.445312c-4.875 0-8.828125-3.953125-8.828125-8.828125v-17.65625c0-4.875 3.953125-8.824219 8.828125-8.824219zm0 0" fill="#d1d4d1"/><path d="m512 353.101562v35.3125c0 19.5-15.808594 35.308594-35.308594 35.308594h-441.382812c-19.5 0-35.308594-15.808594-35.308594-35.308594v-35.3125zm0 0" fill="#d1d4d1"/><path d="m273.65625 397.242188h-35.3125c-4.875 0-8.828125-3.953126-8.828125-8.828126s3.953125-8.828124 8.828125-8.828124h35.3125c4.875 0 8.828125 3.953124 8.828125 8.828124s-3.953125 8.828126-8.828125 8.828126zm0 0" fill="#464f5d"/><g fill="#67b9cc"><path d="m35.308594 44.136719c-2.339844-.011719-4.585938-.929688-6.265625-2.558594-1.617188-1.691406-2.53125-3.929687-2.558594-6.269531.011719-1.152344.253906-2.292969.703125-3.351563.429688-1.082031 1.058594-2.070312 1.855469-2.914062l1.316406-1.058594c.496094-.332031 1.03125-.601563 1.597656-.796875.5-.253906 1.035157-.433594 1.585938-.527344 1.722656-.363281 3.511719-.175781 5.121093.527344 2.21875.804688 3.964844 2.550781 4.769532 4.769531.449218 1.058594.691406 2.199219.703125 3.351563-.03125 2.339844-.945313 4.578125-2.558594 6.269531-.433594.398437-.90625.753906-1.414063 1.058594-.449218.347656-.957031.617187-1.5.796875-1.058593.449218-2.199218.691406-3.355468.703125zm0 0"/><path d="m35.308594 79.449219c-2.339844-.015625-4.585938-.933594-6.265625-2.5625-1.617188-1.6875-2.53125-3.929688-2.558594-6.265625.011719-1.152344.253906-2.292969.703125-3.355469.429688-1.078125 1.058594-2.070313 1.855469-2.914063l1.316406-1.058593c.496094-.332031 1.03125-.597657 1.597656-.792969.5-.253906 1.035157-.433594 1.585938-.53125 1.722656-.359375 3.511719-.175781 5.121093.53125 2.21875.800781 3.964844 2.546875 4.769532 4.765625.449218 1.0625.691406 2.203125.703125 3.355469-.03125 2.335937-.945313 4.574218-2.558594 6.265625-.433594.402343-.90625.753906-1.414063 1.0625-.449218.347656-.957031.617187-1.5.792969-1.058593.453124-2.199218.691406-3.355468.707031zm0 0"/><path d="m35.308594 114.757812c-2.339844-.011718-4.585938-.929687-6.265625-2.558593-1.617188-1.691407-2.53125-3.929688-2.558594-6.269531.011719-1.152344.253906-2.292969.703125-3.351563.429688-1.082031 1.058594-2.070313 1.855469-2.914063l1.316406-1.058593c.496094-.335938 1.03125-.601563 1.597656-.796875.5-.253906 1.035157-.433594 1.585938-.527344 1.722656-.363281 3.511719-.175781 5.121093.527344 2.21875.804687 3.964844 2.550781 4.769532 4.769531.449218 1.058594.691406 2.199219.703125 3.351563-.03125 2.339843-.945313 4.578124-2.558594 6.269531-.433594.398437-.90625.753906-1.414063 1.058593-.449218.347657-.957031.617188-1.5.792969-1.058593.453125-2.199218.695313-3.355468.707031zm0 0"/><path d="m35.308594 150.070312c-2.339844-.015624-4.585938-.933593-6.265625-2.5625-1.617188-1.6875-2.53125-3.929687-2.558594-6.265624.011719-1.15625.253906-2.292969.703125-3.355469.429688-1.082031 1.058594-2.070313 1.855469-2.914063l1.316406-1.058594c.496094-.332031 1.03125-.597656 1.597656-.792968.5-.257813 1.035157-.433594 1.585938-.53125 1.722656-.359375 3.511719-.175782 5.121093.53125 2.21875.800781 3.964844 2.546875 4.769532 4.765625.449218 1.0625.691406 2.199219.703125 3.355469-.03125 2.335937-.945313 4.574218-2.558594 6.265624-.433594.402344-.90625.753907-1.414063 1.058594-.449218.351563-.957031.617188-1.5.796875-1.058593.453125-2.199218.691407-3.355468.707031zm0 0"/><path d="m35.308594 185.378906c-2.339844-.011718-4.585938-.929687-6.265625-2.558594-1.617188-1.691406-2.53125-3.929687-2.558594-6.269531.011719-1.152343.253906-2.292969.703125-3.355469.429688-1.078124 1.058594-2.066406 1.855469-2.910156l1.316406-1.058594c.496094-.335937 1.03125-.601562 1.597656-.796874.5-.253907 1.035157-.433594 1.585938-.527344 1.722656-.363282 3.511719-.175782 5.121093.527344 2.21875.804687 3.964844 2.550781 4.769532 4.765624.449218 1.0625.691406 2.203126.703125 3.355469-.03125 2.335938-.945313 4.574219-2.558594 6.269531-.433594.398438-.90625.753907-1.414063 1.058594-.449218.347656-.957031.617188-1.5.792969-1.058593.453125-2.199218.695313-3.355468.707031zm0 0"/><path d="m35.308594 220.691406c-2.339844-.015625-4.585938-.933594-6.265625-2.5625-1.617188-1.691406-2.53125-3.929687-2.558594-6.265625.011719-1.15625.253906-2.292969.703125-3.355469.429688-1.082031 1.058594-2.070312 1.855469-2.914062l1.316406-1.058594c.496094-.332031 1.03125-.601562 1.597656-.792968.5-.257813 1.035157-.433594 1.585938-.53125 1.722656-.359376 3.511719-.175782 5.121093.53125 2.21875.800781 3.964844 2.546874 4.769532 4.765624.449218 1.0625.691406 2.199219.703125 3.355469-.03125 2.335938-.945313 4.574219-2.558594 6.265625-.433594.398438-.90625.753906-1.414063 1.058594-.449218.351562-.957031.617188-1.5.796875-1.058593.453125-2.199218.691406-3.355468.707031zm0 0"/><path d="m35.308594 256c-2.339844-.015625-4.585938-.929688-6.265625-2.558594-1.617188-1.691406-2.53125-3.929687-2.558594-6.269531.011719-1.152344.253906-2.292969.703125-3.355469.429688-1.078125 1.058594-2.066406 1.855469-2.910156l1.316406-1.0625c.496094-.332031 1.03125-.597656 1.597656-.792969.5-.253906 1.035157-.433593 1.585938-.53125 1.722656-.359375 3.511719-.175781 5.121093.53125 2.21875.804688 3.964844 2.550781 4.769532 4.765625.449218 1.0625.691406 2.203125.703125 3.355469-.03125 2.335937-.945313 4.574219-2.558594 6.269531-.433594.398438-.90625.753906-1.414063 1.058594-.449218.347656-.957031.617188-1.5.792969-1.058593.453125-2.199218.691406-3.355468.707031zm0 0"/><path d="m35.308594 291.308594c-2.339844-.011719-4.585938-.929688-6.265625-2.558594-1.617188-1.691406-2.53125-3.929688-2.558594-6.265625.011719-1.15625.253906-2.292969.703125-3.355469.429688-1.082031 1.058594-2.070312 1.855469-2.914062l1.316406-1.058594c.496094-.332031 1.03125-.601562 1.597656-.792969.5-.257812 1.035157-.433593 1.585938-.53125 1.722656-.359375 3.511719-.175781 5.121093.53125 2.21875.800781 3.964844 2.546875 4.769532 4.765625.449218 1.0625.691406 2.199219.703125 3.355469-.03125 2.335937-.945313 4.574219-2.558594 6.265625-.433594.398438-.90625.753906-1.414063 1.058594-.449218.347656-.957031.617187-1.5.796875-1.058593.449219-2.199218.691406-3.355468.703125zm0 0"/><path d="m35.308594 326.621094c-2.339844-.015625-4.585938-.929688-6.265625-2.558594-1.617188-1.691406-2.53125-3.929688-2.558594-6.269531.011719-1.152344.253906-2.292969.703125-3.355469.429688-1.078125 1.058594-2.066406 1.855469-2.910156l1.316406-1.0625c.496094-.332032 1.03125-.597656 1.597656-.792969.5-.253906 1.035157-.433594 1.585938-.53125 1.722656-.359375 3.511719-.175781 5.121093.53125 2.21875.800781 3.964844 2.550781 4.769532 4.765625.449218 1.0625.691406 2.203125.703125 3.355469-.03125 2.335937-.945313 4.574219-2.558594 6.269531-.433594.398438-.90625.753906-1.414063 1.058594-.449218.347656-.957031.617187-1.5.792968-1.058593.453126-2.199218.691407-3.355468.707032zm0 0"/></g><path d="m88.277344 44.136719h-17.65625c-4.875 0-8.828125-3.949219-8.828125-8.828125 0-4.875 3.953125-8.824219 8.828125-8.824219h17.65625c4.875 0 8.824218 3.949219 8.824218 8.824219 0 4.878906-3.949218 8.828125-8.824218 8.828125zm0 0" fill="#f0c419"/><path d="m114.757812 79.449219h-26.480468c-4.875 0-8.828125-3.953125-8.828125-8.828125s3.953125-8.828125 8.828125-8.828125h26.480468c4.875 0 8.828126 3.953125 8.828126 8.828125s-3.953126 8.828125-8.828126 8.828125zm0 0" fill="#f0c419"/><path d="m185.378906 79.449219h-35.308594c-4.875 0-8.828124-3.953125-8.828124-8.828125s3.953124-8.828125 8.828124-8.828125h35.308594c4.875 0 8.828125 3.953125 8.828125 8.828125s-3.953125 8.828125-8.828125 8.828125zm0 0" fill="#e64c3c"/><path d="m150.070312 114.757812h-61.792968c-4.875 0-8.828125-3.953124-8.828125-8.828124s3.953125-8.828126 8.828125-8.828126h61.792968c4.875 0 8.828126 3.953126 8.828126 8.828126s-3.953126 8.828124-8.828126 8.828124zm0 0" fill="#f0c419"/><path d="m220.691406 114.757812h-35.3125c-4.875 0-8.828125-3.953124-8.828125-8.828124s3.953125-8.828126 8.828125-8.828126h35.3125c4.875 0 8.824219 3.953126 8.824219 8.828126s-3.949219 8.828124-8.824219 8.828124zm0 0" fill="#e64c3c"/><path d="m150.070312 150.070312h-61.792968c-4.875 0-8.828125-3.953124-8.828125-8.828124s3.953125-8.828126 8.828125-8.828126h61.792968c4.875 0 8.828126 3.953126 8.828126 8.828126s-3.953126 8.828124-8.828126 8.828124zm0 0" fill="#f0c419"/><path d="m220.691406 150.070312h-35.3125c-4.875 0-8.828125-3.953124-8.828125-8.828124s3.953125-8.828126 8.828125-8.828126h35.3125c4.875 0 8.824219 3.953126 8.824219 8.828126s-3.949219 8.828124-8.824219 8.828124zm0 0" fill="#e64c3c"/><path d="m88.277344 185.378906h-17.65625c-4.875 0-8.828125-3.953125-8.828125-8.828125s3.953125-8.828125 8.828125-8.828125h17.65625c4.875 0 8.824218 3.953125 8.824218 8.828125s-3.949218 8.828125-8.824218 8.828125zm0 0" fill="#f0c419"/><path d="m88.277344 326.621094h-17.65625c-4.875 0-8.828125-3.953125-8.828125-8.828125s3.953125-8.828125 8.828125-8.828125h17.65625c4.875 0 8.824218 3.953125 8.824218 8.828125s-3.949218 8.828125-8.824218 8.828125zm0 0" fill="#f0c419"/><path d="m114.757812 220.691406h-26.480468c-4.875 0-8.828125-3.953125-8.828125-8.828125s3.953125-8.828125 8.828125-8.828125h26.480468c4.875 0 8.828126 3.953125 8.828126 8.828125s-3.953126 8.828125-8.828126 8.828125zm0 0" fill="#f0c419"/><path d="m185.378906 220.691406h-35.308594c-4.875 0-8.828124-3.953125-8.828124-8.828125s3.953124-8.828125 8.828124-8.828125h35.308594c4.875 0 8.828125 3.953125 8.828125 8.828125s-3.953125 8.828125-8.828125 8.828125zm0 0" fill="#e64c3c"/><path d="m150.070312 256h-61.792968c-4.875 0-8.828125-3.953125-8.828125-8.828125s3.953125-8.828125 8.828125-8.828125h61.792968c4.875 0 8.828126 3.953125 8.828126 8.828125s-3.953126 8.828125-8.828126 8.828125zm0 0" fill="#f0c419"/><path d="m220.691406 256h-35.3125c-4.875 0-8.828125-3.953125-8.828125-8.828125s3.953125-8.828125 8.828125-8.828125h35.3125c4.875 0 8.824219 3.953125 8.824219 8.828125s-3.949219 8.828125-8.824219 8.828125zm0 0" fill="#e64c3c"/><path d="m150.070312 291.308594h-61.792968c-4.875 0-8.828125-3.949219-8.828125-8.824219 0-4.878906 3.953125-8.828125 8.828125-8.828125h61.792968c4.875 0 8.828126 3.949219 8.828126 8.828125 0 4.875-3.953126 8.824219-8.828126 8.824219zm0 0" fill="#f0c419"/><path d="m220.691406 291.308594h-35.3125c-4.875 0-8.828125-3.949219-8.828125-8.824219 0-4.878906 3.953125-8.828125 8.828125-8.828125h35.3125c4.875 0 8.824219 3.949219 8.824219 8.828125 0 4.875-3.949219 8.824219-8.824219 8.824219zm0 0" fill="#e64c3c"/><path d="m326.621094 282.484375h114.757812c9.75 0 17.65625 7.902344 17.65625 17.652344s-7.90625 17.65625-17.65625 17.65625h-114.757812c-9.75 0-17.65625-7.90625-17.65625-17.65625s7.90625-17.652344 17.65625-17.652344zm0 0" fill="#f0c419"/><path d="m379.585938 220.691406c0 14.625-11.855469 26.480469-26.484376 26.480469-14.625 0-26.480468-11.855469-26.480468-26.480469 0-14.628906 11.855468-26.484375 26.480468-26.484375 14.628907 0 26.484376 11.855469 26.484376 26.484375zm0 0" fill="#7f8c8d"/><path d="m467.863281 220.691406c0 14.625-11.859375 26.480469-26.484375 26.480469s-26.480468-11.855469-26.480468-26.480469c0-14.628906 11.855468-26.484375 26.480468-26.484375s26.484375 11.855469 26.484375 26.484375zm0 0" fill="#7f8c8d"/><path d="m482.5 70.621094c2.785156 0 5.410156 1.316406 7.074219 3.554687 1.667969 2.234375 2.179687 5.125 1.378906 7.796875l-4.640625 15.570313-5.210938 17.214843-11.351562 37.84375c-1.117188 3.738282-4.554688 6.296876-8.457031 6.296876h-143.5l-6.621094-88.277344zm0 0" fill="#e6e7e8"/><path d="m486.3125 97.542969-5.210938 17.214843h-110.34375c-4.875 0-8.828124-3.953124-8.828124-8.828124s3.953124-8.828126 8.828124-8.828126h112.992188c.875.011719 1.738281.160157 2.5625.441407zm0 0" fill="#d1d4d1"/><path d="m476.691406 203.035156h-141.242187c-14.628907 0-26.484375-11.855468-26.484375-26.484375l-8.289063-132.414062h-9.367187c-4.875 0-8.824219-3.949219-8.824219-8.828125 0-4.875 3.949219-8.824219 8.824219-8.824219h17.65625c4.671875-.011719 8.539062 3.617187 8.828125 8.277344l8.828125 141.242187c-.101563 2.421875.777344 4.785156 2.4375 6.546875 1.664062 1.765625 3.964844 2.785157 6.390625 2.828125h141.242187c4.875 0 8.824219 3.953125 8.824219 8.828125s-3.949219 8.828125-8.824219 8.828125zm0 0" fill="#95a5a5"/></svg>