<svg xmlns="http://www.w3.org/2000/svg" version="1.1" xmlns:xlink="http://www.w3.org/1999/xlink" width="512" height="512" x="0" y="0" viewBox="0 0 512 512" style="enable-background:new 0 0 512 512" xml:space="preserve"><g transform="matrix(1.01,0,0,1.01,-2.5600000000000023,-2.5600000000000023)"><path d="M210.016 383.579c.077 2.299-.019 24.948-.213 28.497a7.003 7.003 0 0 0 6.989 7.384h99.422a6.998 6.998 0 0 0 6.996-7.218c-1.201-38.542 17.13-72.934 34.858-106.193 20.171-37.843 39.223-73.586 31.219-114.335-5.738-29.202-21.896-55.208-45.496-73.228-25.021-19.107-63.902-28.573-104.016-25.315-41.559 3.373-76.647 19.389-96.267 43.94-.122.152-.237.31-.346.472-7.521 11.216-3.604 18.438-1.013 23.215 1.172 2.162 2.099 3.87 2.341 6.071.354 3.243-3.457 16.901-5.734 25.062-2.157 7.732-4.195 15.034-5.092 20.207-2.096 12.117 2.439 18.019 5.751 22.328 2.14 2.785 3.005 4.019 2.938 6.629-.092 3.629-2.746 11.85-14.889 30.437-.387.599-.764 1.169-1.127 1.719-3.082 4.665-6.269 9.489-5.284 17.007 1.256 9.601 9.428 11.902 14.31 13.276 3.908 1.101 5.701 1.747 6.466 3.308.062.127.212.718-.268 3.163-2.612 6.193-2.782 11.097-.546 15.383a13.506 13.506 0 0 0 2.18 3.056 20.803 20.803 0 0 0-1.69 2.91c-.119.25-.224.508-.312.771-1.154 3.421-.974 9.204 1.487 14.01.042.548.021 1.784-.33 4.561-.757 6.019-2.167 17.221 6.272 24.146 6.655 5.461 16.372 5.122 26.585 4.239.106-.009.211-.021.317-.035 10.899-1.444 21.256-3.275 31.042-5.484 2.29 1.931 3.147 6.34 3.449 10.016zm-36.174-18.432c-4.506.388-13.574 1.143-16.338-1.127-2.276-1.868-1.896-6.542-1.263-11.574.642-5.086.742-8.87-.738-12.009a7.598 7.598 0 0 0-.277-.529c-.621-1.07-.74-2.451-.717-3.195 1.113-1.792 2.966-3.052 3.622-3.498.227-.154.397-.274.506-.354a6.999 6.999 0 0 0-1.406-12.053c-1.326-.569-3.31-1.422-3.771-1.866 0-.313.094-1.466 1.209-3.972.198-.444.349-.908.451-1.384 1.021-4.781 1.291-8.805-.717-12.904-3.601-7.344-10.607-9.317-15.243-10.623-1.418-.399-3.523-.992-4.199-1.471a2.062 2.062 0 0 1-.024-.147c-.28-2.139.292-3.248 3.083-7.472.39-.59.794-1.202 1.188-1.812 11.647-17.828 16.934-29.457 17.143-37.706.196-7.67-3.288-12.205-5.833-15.516-2.648-3.446-4.106-5.344-3.058-11.409.776-4.476 2.813-11.775 4.783-18.833 4.242-15.201 6.773-24.829 6.166-30.355-.542-4.932-2.512-8.563-3.951-11.215-2.054-3.787-2.457-4.53.173-8.502 17.016-21.107 49.239-35.49 86.278-38.496 36.761-2.984 72.042 5.423 94.387 22.488 20.881 15.942 35.177 38.955 40.255 64.799 7.043 35.86-10.871 69.469-29.836 105.051-17.524 32.877-35.61 66.806-36.524 105.996h-85.252c.105-8.645.139-21.471.042-22.883-.42-5.28-1.539-9.411-3.06-12.64 15.685-4.411 29.686-9.911 41.876-16.463 3.405-1.83 4.682-6.075 2.851-9.48s-6.073-4.683-9.48-2.851c-21.422 11.515-49.121 19.592-82.326 24.005zm108.648-66.516 2.635-13.361 11.111-4.609 11.316 7.589a7.002 7.002 0 0 0 8.849-.864l19.95-19.95a7 7 0 0 0 .864-8.849l-7.589-11.317 4.609-11.111 13.361-2.635a7 7 0 0 0 5.646-6.868v-28.214a7 7 0 0 0-5.646-6.868l-13.361-2.635-4.609-11.111 7.589-11.317a7.002 7.002 0 0 0-.864-8.849l-19.95-19.95a7 7 0 0 0-8.849-.864l-11.316 7.589-11.111-4.609-2.635-13.361a7 7 0 0 0-6.868-5.646h-28.214a7 7 0 0 0-6.868 5.646l-2.635 13.361-11.111 4.609-11.316-7.589a7 7 0 0 0-8.849.864l-19.95 19.95a7 7 0 0 0-.864 8.849l7.589 11.317-4.609 11.111-13.362 2.635a7 7 0 0 0-5.646 6.868v28.214a7 7 0 0 0 5.646 6.868l13.362 2.635 4.609 11.111-7.589 11.317a7.002 7.002 0 0 0 .864 8.849l19.95 19.95a7.003 7.003 0 0 0 8.849.864l11.316-7.589 11.111 4.609 2.635 13.361a7 7 0 0 0 6.868 5.646h28.214a7 7 0 0 0 6.868-5.646zm-10.376-19.746-2.246 11.392h-16.705l-2.246-11.392a6.999 6.999 0 0 0-4.186-5.112l-18.037-7.482a7.003 7.003 0 0 0-6.581.652l-9.653 6.474-11.812-11.812 6.473-9.653a6.998 6.998 0 0 0 .652-6.581l-7.482-18.037a7.001 7.001 0 0 0-5.112-4.186l-11.392-2.246v-16.705l11.392-2.246a6.999 6.999 0 0 0 5.112-4.186l7.482-18.037a7 7 0 0 0-.652-6.581l-6.473-9.653 11.812-11.812 9.653 6.473a6.997 6.997 0 0 0 6.581.652l18.037-7.482a7.001 7.001 0 0 0 4.186-5.112l2.246-11.392h16.705l2.246 11.392a6.999 6.999 0 0 0 4.186 5.112l18.038 7.482a6.998 6.998 0 0 0 6.581-.652l9.653-6.473 11.812 11.812-6.474 9.653a7 7 0 0 0-.652 6.581l7.482 18.037a7.001 7.001 0 0 0 5.112 4.186l11.392 2.246v16.705l-11.392 2.246a6.999 6.999 0 0 0-5.112 4.186l-7.482 18.037a7 7 0 0 0 .652 6.581l6.474 9.653-11.812 11.812-9.653-6.474a7.003 7.003 0 0 0-6.581-.652l-18.038 7.482a7.001 7.001 0 0 0-4.186 5.112zm39.852-66.335c0-27.818-22.632-50.451-50.45-50.451s-50.451 22.632-50.451 50.451S233.697 263 261.516 263s50.45-22.632 50.45-50.45zM261.516 249c-20.099 0-36.451-16.352-36.451-36.45s16.352-36.451 36.451-36.451 36.45 16.352 36.45 36.451S281.614 249 261.516 249zm116.891 219.386a7 7 0 0 1-2.833 9.485C339.076 497.581 297.729 508 256.001 508a253.011 253.011 0 0 1-60.654-7.368 7 7 0 0 1 3.359-13.591 239.029 239.029 0 0 0 57.295 6.958c39.413 0 78.46-9.837 112.921-28.447a6.998 6.998 0 0 1 9.485 2.833zM47.44 397.476C19.021 355.667 4 306.746 4 256c0-40.425 9.288-79.043 27.604-114.782a7 7 0 0 1 12.459 6.385C26.769 181.347 18 217.816 18 255.999c0 47.927 14.184 94.127 41.019 133.605a7 7 0 0 1-11.578 7.87zM508 256c0 35.378-7.204 69.616-21.41 101.76a7.002 7.002 0 0 1-6.407 4.172 6.972 6.972 0 0 1-2.826-.6 7 7 0 0 1-3.573-9.232c13.414-30.351 20.215-62.684 20.215-96.101 0-35.042-7.453-68.811-22.153-100.367a7 7 0 0 1 12.691-5.911c15.568 33.421 23.462 69.179 23.462 106.278zM138.182 41.027a7 7 0 0 1 3.037-9.422C176.958 13.288 215.576 4 256 4c37.105 0 72.863 7.894 106.279 23.463a7 7 0 0 1-5.912 12.69C324.816 25.453 291.048 18 256 18c-38.182 0-74.652 8.769-108.396 26.063a6.998 6.998 0 0 1-9.422-3.037zm324.456 1.336h-72.114a7 7 0 0 0-7 7v72.115a7 7 0 0 0 7 7h72.114a7 7 0 0 0 7-7V49.363a7 7 0 0 0-7-7zm-7 72.115h-58.114V56.363h58.114zM104.139 374.762a6.999 6.999 0 0 0-12.124 0l-48.714 84.375a7.002 7.002 0 0 0 6.062 10.5h97.428a6.999 6.999 0 0 0 6.062-10.5zm-42.652 80.875 36.59-63.375 36.589 63.375zm32.126-310.774c28.259 0 51.25-22.991 51.25-51.25s-22.991-51.25-51.25-51.25-51.25 22.991-51.25 51.25 22.991 51.25 51.25 51.25zm0-88.5c20.54 0 37.25 16.71 37.25 37.25s-16.71 37.25-37.25 37.25-37.25-16.71-37.25-37.25 16.71-37.25 37.25-37.25zm372.524 324.508-43.708-25.235a6.997 6.997 0 0 0-7 0l-43.708 25.235a6.999 6.999 0 0 0-3.5 6.062v50.47a6.999 6.999 0 0 0 3.5 6.062l43.708 25.235a7 7 0 0 0 7 0l43.708-25.235a6.999 6.999 0 0 0 3.5-6.062v-50.47a6.999 6.999 0 0 0-3.5-6.062zm-47.208-11.09 29.708 17.152-29.708 17.152-29.708-17.152zm-36.708 29.276 29.708 17.152v34.304l-29.708-17.152zm43.708 51.456v-34.304l29.708-17.152v34.304z" fill="#ffffff" opacity="1" data-original="#000000"></path></g></svg>