<svg xmlns="http://www.w3.org/2000/svg" version="1.1" xmlns:xlink="http://www.w3.org/1999/xlink" width="512" height="512" x="0" y="0" viewBox="0 0 64 64" style="enable-background:new 0 0 512 512" xml:space="preserve" class=""><g transform="matrix(1.0300000000000007,0,0,1.0300000000000007,-0.9600000000000222,-0.959999962449082)"><path fill="#fff094" d="M32 1a19.992 19.992 0 0 0-14.71 33.539A13.958 13.958 0 0 1 21 44a2 2 0 0 0 2 2h18a2 2 0 0 0 2-2 13.958 13.958 0 0 1 3.71-9.461A19.992 19.992 0 0 0 32 1z" opacity="1" data-original="#fff094" class=""></path><g fill="#ffe66e"><path d="M43 44a13.958 13.958 0 0 1 3.71-9.461 19.971 19.971 0 0 0-2.222-29.147A19.905 19.905 0 0 0 35 3c-11.046 0-20 8-20 18a19.9 19.9 0 0 0 5.29 13.539A13.958 13.958 0 0 1 24 44a2 2 0 0 0 2 2h15a2 2 0 0 0 2-2z" fill="#ffe66e" opacity="1" data-original="#ffe66e"></path><rect width="7.5" height="1.5" x="55.25" y="20.25" rx=".75" fill="#ffe66e" opacity="1" data-original="#ffe66e"></rect><rect width="7.5" height="1.5" x="1.25" y="20.25" rx=".75" fill="#ffe66e" opacity="1" data-original="#ffe66e"></rect><rect width="7.5" height="1.5" x="51.632" y="6.75" rx=".75" transform="rotate(-30 55.39 7.502)" fill="#ffe66e" opacity="1" data-original="#ffe66e"></rect><rect width="7.5" height="1.5" x="4.868" y="33.75" rx=".75" transform="rotate(-30 8.619 34.504)" fill="#ffe66e" opacity="1" data-original="#ffe66e"></rect><rect width="1.5" height="7.5" x="54.632" y="30.75" rx=".75" transform="rotate(-60 55.383 34.501)" fill="#ffe66e" opacity="1" data-original="#ffe66e"></rect><rect width="1.5" height="7.5" x="7.868" y="3.75" rx=".75" transform="rotate(-60 8.618 7.5)" fill="#ffe66e" opacity="1" data-original="#ffe66e"></rect></g><path fill="#9398ae" d="M31.512 26.57 28.5 23.987l-2.887 2.475-.976-1.139 3.375-2.892a.749.749 0 0 1 .976 0L32 25.012l3.012-2.581a.749.749 0 0 1 .976 0l3.375 2.892-.976 1.139-2.887-2.475-3.012 2.583a.749.749 0 0 1-.976 0z" opacity="1" data-original="#9398ae"></path><path fill="#a1a5ba" d="M36 46.75a.75.75 0 0 1-.75-.75v-8.789a24.489 24.489 0 0 1 4.126-13.627.75.75 0 1 1 1.248.832 23 23 0 0 0-3.874 12.795V46a.75.75 0 0 1-.75.75zM28 46.75a.75.75 0 0 1-.75-.75v-8.789a23 23 0 0 0-3.874-12.795.75.75 0 0 1 1.248-.832 24.489 24.489 0 0 1 4.126 13.627V46a.75.75 0 0 1-.75.75z" opacity="1" data-original="#a1a5ba"></path><path fill="#767e97" d="M26 59h12a4 4 0 0 1-4 4h-4a4 4 0 0 1-4-4z" opacity="1" data-original="#767e97"></path><path fill="#68718b" d="M29 59h9a4 4 0 0 1-4 4h-1a4 4 0 0 1-4-4z" opacity="1" data-original="#68718b"></path><path fill="#9398ae" d="M23 46h18v10a3 3 0 0 1-3 3H26a3 3 0 0 1-3-3V46z" opacity="1" data-original="#9398ae"></path><path fill="#858ba2" d="M26 46h15v10a3 3 0 0 1-3 3h-9a3 3 0 0 1-3-3V46z" opacity="1" data-original="#858ba2"></path><rect width="20" height="1.5" x="22" y="50.25" fill="#a1a5ba" rx=".75" opacity="1" data-original="#a1a5ba"></rect><rect width="20" height="1.5" x="22" y="54.25" fill="#a1a5ba" rx=".75" opacity="1" data-original="#a1a5ba"></rect><rect width="17" height="1.5" x="25" y="50.25" fill="#9398ae" rx=".75" opacity="1" data-original="#9398ae"></rect><rect width="17" height="1.5" x="25" y="54.25" fill="#9398ae" rx=".75" opacity="1" data-original="#9398ae"></rect></g></svg>