<?xml version="1.0"?>
<svg xmlns="http://www.w3.org/2000/svg" id="Layer_1" data-name="Layer 1" fill="#AC3B61" viewBox="0 0 512 512"><path d="M121.621,232.043H94.112V209.681h27.509Zm197.5,165.389H291.643v22.332h27.479Zm0-93.86H291.643V325.9h27.479Zm-197.5,0H94.112V325.9h27.509Zm98.735,0H192.877V325.9h27.479Zm0-93.891H192.877v22.362h27.479Zm0,187.751H192.877v22.332h27.479Zm202.049,92.559H42.755A33.2,33.2,0,0,1,25.75,485.33,17.427,17.427,0,0,0,42.755,499h426.52a17.392,17.392,0,0,0,17.372-17.373V429.063l-58.585,58.584A8,8,0,0,1,422.405,489.991ZM319.122,209.681H291.643v22.362h27.479ZM469.271,56.69h-61.63V32.48c0-10.92-11.5-19.48-26.171-19.48-14.7,0-26.2,8.56-26.2,19.48V56.69h16V32.59c.47-1.04,4.14-3.59,10.2-3.59,6.03,0,9.69,2.55,10.17,3.59v24.1H371.27V84.2c.49,1.05,4.171,3.61,10.2,3.61a8,8,0,1,1,0,16c-14.7,0-26.2-8.56-26.2-19.48V56.69H282.2V32.48C282.2,21.56,270.69,13,256,13s-26.2,8.56-26.2,19.48V56.69h16V32.6c.48-1.05,4.16-3.6,10.2-3.6s9.71,2.55,10.2,3.6V56.69H245.8V84.2c.5,1.05,4.18,3.61,10.2,3.61a8,8,0,0,1,0,16c-14.69,0-26.2-8.56-26.2-19.48V56.69H156.76V32.48c0-10.92-11.511-19.48-26.2-19.48s-26.2,8.56-26.2,19.48V56.69h16V32.6c.489-1.05,4.17-3.6,10.2-3.6s9.721,2.55,10.2,3.6V56.69h-20.4V84.2c.5,1.05,4.19,3.61,10.2,3.61a8,8,0,0,1,0,16c-14.69,0-26.2-8.56-26.2-19.48V56.69h-61.6a17.427,17.427,0,0,0-17.41,17.4V130.4h461.3V74.09A17.415,17.415,0,0,0,469.271,56.69ZM25.352,146.4h461.3V401.749H422.405a8,8,0,0,0-8,8v64.242H42.755a17.423,17.423,0,0,1-17.4-17.4ZM433.887,295.572a8,8,0,0,0-8-8H382.408a8,8,0,0,0-8,8V333.9a8,8,0,0,0,8,8h43.479a8,8,0,0,0,8-8ZM375.56,225.857l17.56,17.44a8,8,0,0,0,5.638,2.324c.115,0,.231,0,.346-.008a8,8,0,0,0,5.761-2.824l28.34-33.487a8,8,0,1,0-12.213-10.336l-22.744,26.873L386.835,214.5a8,8,0,0,0-11.275,11.353Zm-99.917,14.186a8,8,0,0,0,8,8h43.479a8,8,0,0,0,8-8V201.681a8,8,0,0,0-8-8H283.643a8,8,0,0,0-8,8Zm0,93.86a8,8,0,0,0,8,8h43.479a8,8,0,0,0,8-8V295.572a8,8,0,0,0-8-8H283.643a8,8,0,0,0-8,8Zm0,93.861a8,8,0,0,0,8,8h43.479a8,8,0,0,0,8-8V389.432a8,8,0,0,0-8-8H283.643a8,8,0,0,0-8,8ZM176.877,240.043a8,8,0,0,0,8,8h43.479a8,8,0,0,0,8-8V201.681a8,8,0,0,0-8-8H184.877a8,8,0,0,0-8,8Zm0,93.86a8,8,0,0,0,8,8h43.479a8,8,0,0,0,8-8V295.572a8,8,0,0,0-8-8H184.877a8,8,0,0,0-8,8Zm0,93.861a8,8,0,0,0,8,8h43.479a8,8,0,0,0,8-8V389.432a8,8,0,0,0-8-8H184.877a8,8,0,0,0-8,8ZM78.112,240.043a8,8,0,0,0,8,8h43.509a8,8,0,0,0,8-8V201.681a8,8,0,0,0-8-8H86.112a8,8,0,0,0-8,8Zm0,93.86a8,8,0,0,0,8,8h43.509a8,8,0,0,0,8-8V295.572a8,8,0,0,0-8-8H86.112a8,8,0,0,0-8,8Zm0,93.861a8,8,0,0,0,8,8h43.509a8,8,0,0,0,8-8V389.432a8,8,0,0,0-8-8H86.112a8,8,0,0,0-8,8Zm352.293,34.913,44.929-44.928H430.405ZM121.621,397.432H94.112v22.332h27.509ZM390.408,325.9h27.479V303.572H390.408Z"/></svg>
