<svg xmlns="http://www.w3.org/2000/svg" version="1.1" xmlns:xlink="http://www.w3.org/1999/xlink" width="512" height="512" x="0" y="0" viewBox="0 0 24 24" style="enable-background:new 0 0 512 512" xml:space="preserve" class=""><g transform="matrix(1.2000000000000004,0,0,1.2000000000000004,-2.400000762939456,-2.39999918937683)"><path fill="#318867" d="M12 22c5.523 0 10-4.477 10-10a9.957 9.957 0 0 0-1.118-4.598.477.477 0 0 0-.764-.106L12.414 15a2 2 0 0 1-2.828 0l-2.793-2.793a1 1 0 1 1 1.414-1.414L11 13.586l8.021-8.016a.482.482 0 0 0 .007-.684A9.968 9.968 0 0 0 12 2C6.477 2 2 6.477 2 12s4.477 10 10 10z" opacity="1" data-original="#000000" class=""></path></g></svg>