<svg xmlns="http://www.w3.org/2000/svg" version="1.1" xmlns:xlink="http://www.w3.org/1999/xlink" width="512" height="512" x="0" y="0" viewBox="0 0 512 512" style="enable-background:new 0 0 512 512" xml:space="preserve" class=""><g transform="matrix(1.0199999999999996,0,0,1.0199999999999996,-10.180670471191263,-5.09545011520359)"><path d="M390.888 238.431c0-23.57-19.176-42.746-42.747-42.746-16.8 0-31.359 9.758-38.332 23.904a71.362 71.362 0 0 0-24.664-16.525c10.101-7.826 16.621-20.061 16.621-33.798 0-23.571-19.176-42.747-42.746-42.747s-42.747 19.176-42.747 42.747c0 13.737 6.52 25.972 16.621 33.798a71.255 71.255 0 0 0-24.652 16.537c-7.062-14.231-21.828-23.916-38.343-23.916-23.571 0-42.747 19.176-42.747 42.746 0 13.74 6.523 25.978 16.628 33.804a71.024 71.024 0 0 0-21.26 13.23c-14.873 13.432-23.403 32.564-23.403 52.491a7.001 7.001 0 0 0 7.001 7.001h42.378a70.337 70.337 0 0 0-7.2 31.068 7.001 7.001 0 0 0 7.001 7.001h221.471a7.001 7.001 0 0 0 7.001-7.001 70.337 70.337 0 0 0-7.2-31.068h42.378a7.001 7.001 0 0 0 7.001-7.001c0-19.918-8.53-39.046-23.404-52.479a71.063 71.063 0 0 0-21.265-13.235c.409-.316.817-.636 1.217-.968 9.78-8.139 15.389-20.109 15.389-32.842zM334.705 276.5c0 15.849-12.881 28.744-28.715 28.744s-28.744-12.895-28.744-28.744 12.895-28.743 28.744-28.743 28.715 12.894 28.715 28.743zm-79.927-.708h8.483c-.004.237-.018.471-.018.708 0 13.742 6.525 25.982 16.632 33.807a71.167 71.167 0 0 0-20.827 12.829 70.902 70.902 0 0 0-20.825-12.867c10.073-7.827 16.573-20.049 16.573-33.77 0-.238-.014-.472-.018-.708zm-24.502-106.526c0-15.849 12.895-28.744 28.744-28.744s28.743 12.895 28.743 28.744-12.894 28.743-28.743 28.743-28.744-12.894-28.744-28.743zm28.744 42.746c17.376 0 33.85 8.106 44.651 21.807-17.396.935-32.062 12.316-37.817 27.97h-13.665c-5.753-15.657-20.415-27.04-37.804-27.97 10.639-13.546 27.041-21.806 44.636-21.806zm-46.942 35.745c15.833 0 28.715 12.894 28.715 28.743s-12.882 28.744-28.715 28.744-28.743-12.895-28.743-28.744 12.894-28.743 28.743-28.743zm-70.923-9.326c0-15.849 12.895-28.743 28.744-28.743 13.68 0 25.579 9.875 28.201 23.175a70.918 70.918 0 0 0-2.241 4.096c-12.756 5.252-22.426 16.5-25.491 30.218-.275-.001-.55-.013-.824-.011-15.686-.192-28.389-13.005-28.389-28.735zm-27.595 92.523c1.687-13.391 8.165-25.902 18.346-35.097 10.402-9.395 23.866-14.586 37.675-14.687h.01c1.289 11.807 7.407 22.178 16.33 29.105a71.102 71.102 0 0 0-28.378 20.68h-43.984zm42.169 38.069c1.216-9.844 4.969-18.909 10.571-26.536.185-.218.358-.446.516-.686 10.376-13.689 26.798-22.555 45.261-22.555 16.238 0 30.905 6.853 41.263 17.817.273.378.588.734.945 1.061.022.02.045.036.067.056 7.539 8.412 12.62 19.07 14.073 30.842H155.728zm126.78 0c-1.31-13.282-6.308-25.494-13.952-35.602 10.323-9.067 23.66-14.174 37.432-14.174 18.375 0 34.73 8.781 45.114 22.359.233.38.5.735.799 1.062 5.528 7.589 9.229 16.59 10.435 26.355zm103.651-73.155c10.181 9.195 16.659 21.702 18.346 35.085h-43.983a71.104 71.104 0 0 0-28.389-20.684c8.912-6.925 15.022-17.291 16.312-29.092l.148-.003c13.77.136 27.189 5.322 37.566 14.694zm-19.62-35.359a28.723 28.723 0 0 1-18.029 6.657c-.206-.001-.412.005-.619.006-.074 0-.147.003-.221.002-3.273-14.655-14.082-26.488-28.133-31.204 1.252-14.701 13.598-26.283 28.603-26.283 15.849 0 28.744 12.894 28.744 28.743 0 8.561-3.77 16.608-10.344 22.078zm132.488-24.913h-48.586v-9.865a7.002 7.002 0 0 0-11.004-5.745l-41.698 29.055a7.004 7.004 0 0 0 .002 11.491l41.698 29.027a6.993 6.993 0 0 0 7.241.46 7.002 7.002 0 0 0 3.76-6.206v-9.836h48.586a7.001 7.001 0 0 0 7.001-7.001v-24.378a7.001 7.001 0 0 0-7.001-7.001zm-7.001 24.378h-48.586a7.001 7.001 0 0 0-7.001 7.001v3.433l-22.445-15.625 22.445-15.64v3.454a7.001 7.001 0 0 0 7.001 7.001h48.586v10.375zM285.272 45.588a7 7 0 0 1 8.021-5.807c44.148 7.068 83.682 27.118 114.655 56.176l15.832-15.832a7.001 7.001 0 0 1 9.901 9.901l-15.835 15.835c29.02 30.969 49.058 70.499 56.15 114.649a7.001 7.001 0 1 1-13.826 2.22c-6.978-43.441-27.344-82.104-56.795-111.697-.106-.094-.215-.184-.316-.286-.105-.105-.199-.217-.296-.328-29.595-29.485-68.256-49.859-111.684-56.812a7.002 7.002 0 0 1-5.807-8.021zm-61.484 21.535a7.004 7.004 0 0 0 .459 7.242l29.027 41.698a7.001 7.001 0 0 0 5.745 3.001h.001c2.29 0 4.436-1.12 5.745-2.999l29.055-41.698a7.002 7.002 0 0 0-5.745-11.004h-9.865V14.777a7.001 7.001 0 0 0-7.001-7.001h-24.378a7.001 7.001 0 0 0-7.001 7.001v48.586h-9.836a7.002 7.002 0 0 0-6.206 3.76zm23.044 10.243a7.001 7.001 0 0 0 7.001-7.001V21.779h10.375v48.586a7.001 7.001 0 0 0 7.001 7.001h3.454l-15.64 22.445-15.625-22.445h3.433zM67.598 283.813a7.002 7.002 0 0 0 11.001 5.746l41.697-29.027a7 7 0 0 0 .002-11.491l-41.697-29.055a7.002 7.002 0 0 0-11.004 5.745v9.865H19.04a7.001 7.001 0 0 0-7.001 7.001v24.378a7.001 7.001 0 0 0 7.001 7.001h48.558v9.836zm-41.556-23.839v-10.375H74.6a7.001 7.001 0 0 0 7.001-7.001v-3.454l22.445 15.64-22.445 15.625v-3.433a7.001 7.001 0 0 0-7.001-7.001H26.041zm447.984 29.056c-7.069 44.163-27.12 83.706-56.18 114.68l15.836 15.836a7.001 7.001 0 1 1-9.902 9.901l-15.839-15.839c-30.969 29.018-70.497 49.047-114.647 56.125a7.003 7.003 0 0 1-2.217-13.826c43.47-6.969 82.156-27.351 111.757-56.835.075-.083.145-.168.224-.248.084-.084.174-.157.261-.236 29.521-29.603 49.921-68.298 56.879-111.772.611-3.818 4.205-6.421 8.02-5.807a7.002 7.002 0 0 1 5.807 8.02zM232.798 463.954a7.003 7.003 0 0 1-8.018 5.81c-44.153-7.053-83.693-27.1-114.669-56.165l-15.849 15.849c-1.367 1.367-3.159 2.051-4.951 2.051s-3.583-.684-4.951-2.051a7.001 7.001 0 0 1 0-9.901l15.853-15.853c-29.012-30.967-49.046-70.5-56.139-114.659a7.001 7.001 0 1 1 13.826-2.22c7.003 43.596 27.475 82.378 57.079 112.008l.004.004.006.007c29.635 29.657 68.418 50.143 112 57.104a7.003 7.003 0 0 1 5.81 8.019zM44.043 220.517c7.054-44.146 27.096-83.679 56.153-114.653L84.359 90.027a7.001 7.001 0 0 1 9.901-9.901l15.839 15.839c30.97-29.021 70.507-49.061 114.673-56.155a7.001 7.001 0 1 1 2.22 13.826c-43.495 6.986-82.198 27.384-111.802 56.88-.071.077-.135.158-.21.232-.078.078-.162.146-.243.22-29.527 29.604-49.923 68.294-56.867 111.758a7.004 7.004 0 0 1-8.019 5.81 7.003 7.003 0 0 1-5.81-8.019zm250.239 221.932a7.001 7.001 0 0 0-.462-7.243l-29.055-41.698a7.001 7.001 0 0 0-11.491.002l-29.027 41.698a7.002 7.002 0 0 0 5.747 11.002h9.836v48.558a7.001 7.001 0 0 0 7.001 7.001h24.378a7.001 7.001 0 0 0 7.001-7.001V446.21h9.865c2.608 0 5-1.449 6.207-3.761zm-23.073-10.242a7.001 7.001 0 0 0-7.001 7.001v48.558h-10.375v-48.558a7.001 7.001 0 0 0-7.001-7.001h-3.433l15.625-22.445 15.64 22.445h-3.454z" fill="#ffffff" opacity="1" data-original="#000000" class=""></path></g></svg>