<svg id="icons" height="512" viewBox="0 0 60 60" width="512" xmlns="http://www.w3.org/2000/svg"><path d="m11 38a10 10 0 0 1 -2.21-19.75.493.493 0 0 0 .38-.59 8.288 8.288 0 0 1 -.13-2.45 7.988 7.988 0 0 1 11-6.61.5.5 0 0 0 .63-.23 14.022 14.022 0 0 1 26.29 5.19.5.5 0 0 0 .48.45 12 12 0 0 1 1.55 23.82z" fill="#60dcdd"/><path d="m49 32v-6a3 3 0 0 0 -3-3h-32a3 3 0 0 0 -3 3v6a3 3 0 0 0 3 3 3 3 0 0 0 -3 3v6a3 3 0 0 0 3 3 3 3 0 0 0 -3 3v6a3 3 0 0 0 3 3h32a3 3 0 0 0 3-3v-6a3 3 0 0 0 -3-3 3 3 0 0 0 3-3v-6a3 3 0 0 0 -3-3 3 3 0 0 0 3-3z" fill="#5498c8"/><rect fill="#4184a9" height="12" rx="3" width="38" x="11" y="35"/><circle cx="17" cy="41" fill="#fde05e" r="2"/><circle cx="25" cy="41" fill="#60dcdd" r="2"/><circle cx="17" cy="29" fill="#fde05e" r="2"/><circle cx="25" cy="29" fill="#60dcdd" r="2"/><circle cx="17" cy="53" fill="#fde05e" r="2"/><circle cx="25" cy="53" fill="#60dcdd" r="2"/><path d="m25 19a1 1 0 0 1 -.707-.293l-3-3a1 1 0 0 1 0-1.414l3-3a1 1 0 0 1 1.414 1.414l-2.293 2.293 2.293 2.293a1 1 0 0 1 -.707 1.707z" fill="#fff"/><path d="m35 19a1 1 0 0 1 -.707-1.707l2.293-2.293-2.293-2.293a1 1 0 0 1 1.414-1.414l3 3a1 1 0 0 1 0 1.414l-3 3a1 1 0 0 1 -.707.293z" fill="#fff"/><path d="m29 19a1 1 0 0 1 -.948-1.316l2-6a1 1 0 0 1 1.9.632l-2 6a1 1 0 0 1 -.952.684z" fill="#fff"/><path d="m35 40h-1a1 1 0 0 1 0-2h1a1 1 0 0 1 0 2z" fill="#255a6b"/><path d="m35 44h-1a1 1 0 0 1 0-2h1a1 1 0 0 1 0 2z" fill="#255a6b"/><path d="m40 40h-1a1 1 0 0 1 0-2h1a1 1 0 0 1 0 2z" fill="#255a6b"/><path d="m40 44h-1a1 1 0 0 1 0-2h1a1 1 0 0 1 0 2z" fill="#255a6b"/><path d="m45 40h-1a1 1 0 0 1 0-2h1a1 1 0 0 1 0 2z" fill="#255a6b"/><path d="m45 44h-1a1 1 0 0 1 0-2h1a1 1 0 0 1 0 2z" fill="#255a6b"/><g fill="#35718a"><path d="m35 52h-1a1 1 0 0 1 0-2h1a1 1 0 0 1 0 2z"/><path d="m35 56h-1a1 1 0 0 1 0-2h1a1 1 0 0 1 0 2z"/><path d="m40 52h-1a1 1 0 0 1 0-2h1a1 1 0 0 1 0 2z"/><path d="m40 56h-1a1 1 0 0 1 0-2h1a1 1 0 0 1 0 2z"/><path d="m45 52h-1a1 1 0 0 1 0-2h1a1 1 0 0 1 0 2z"/><path d="m45 56h-1a1 1 0 0 1 0-2h1a1 1 0 0 1 0 2z"/><path d="m35 28h-1a1 1 0 0 1 0-2h1a1 1 0 0 1 0 2z"/><path d="m35 32h-1a1 1 0 0 1 0-2h1a1 1 0 0 1 0 2z"/><path d="m40 28h-1a1 1 0 0 1 0-2h1a1 1 0 0 1 0 2z"/><path d="m40 32h-1a1 1 0 0 1 0-2h1a1 1 0 0 1 0 2z"/><path d="m45 28h-1a1 1 0 0 1 0-2h1a1 1 0 0 1 0 2z"/><path d="m45 32h-1a1 1 0 0 1 0-2h1a1 1 0 0 1 0 2z"/></g></svg>