<svg xmlns="http://www.w3.org/2000/svg" version="1.1" xmlns:xlink="http://www.w3.org/1999/xlink" width="512" height="512" x="0" y="0" viewBox="0 0 512 512" style="enable-background:new 0 0 512 512" xml:space="preserve" class=""><g><path d="M256 26.991c-141.385 0-256 97.119-256 216.921 0 57.832 26.714 110.374 70.249 149.26 6.123 5.47 8.56 14.118 8.56 22.323v55.862c0 4.52 2.082 8.739 5.547 11.239.107.04 5.555 4.378 12.388 1.325 65.693-29.357 73.086-35.264 88.171-31.574C348.321 492.317 512 388.34 512 243.912 512 124.11 397.385 26.991 256 26.991z" style="" fill="#f8f8f8" data-original="#eae9e8" opacity="1" class=""></path><path d="M380.358 430.049C216.072 470.236 51.513 365.698 51.513 220.494c0-73.162 42.521-137.904 107.76-177.467C65.845 75.361 0 153.114 0 243.912c0 57.832 26.714 110.374 70.249 149.26 6.123 5.47 8.56 14.119 8.56 22.323v55.862c0 9.904 9.512 16.328 17.935 12.564 65.693-29.357 73.086-35.264 88.171-31.574 72.885 17.829 145.824 7.018 204.268-23.246-2.992-.16-5.75.196-8.825.948z" style="" fill="#e5e5e5" data-original="#dbdbdb" class="" opacity="1"></path><circle cx="151.476" cy="255.279" r="23.866" style="" fill="#656566" data-original="#656566" class=""></circle><circle cx="256" cy="255.279" r="23.866" style="" fill="#656566" data-original="#656566" class=""></circle><circle cx="360.524" cy="255.279" r="23.866" style="" fill="#656566" data-original="#656566" class=""></circle><path d="M151.472 255.279c-4.416-7.649-4.111-16.723.002-23.863a23.745 23.745 0 0 0-11.934 3.194c-11.414 6.59-15.326 21.186-8.735 32.601 6.591 11.415 21.186 15.326 32.601 8.735a23.748 23.748 0 0 0 8.734-8.738c-8.241-.008-16.252-4.28-20.668-11.929zM256 255.279c-4.416-7.649-4.111-16.723.002-23.863a23.745 23.745 0 0 0-11.934 3.194c-11.414 6.59-15.326 21.186-8.735 32.601 9.225 15.978 32.243 15.783 41.335-.003-8.241-.008-16.251-4.28-20.668-11.929zM360.53 231.416c-18.222-.019-29.894 19.819-20.67 35.796 6.591 11.415 21.186 15.326 32.601 8.735a23.748 23.748 0 0 0 8.734-8.738c-18.374-.019-29.831-19.88-20.665-35.793z" style="" fill="#545456" data-original="#545456"></path></g></svg>