<svg xmlns="http://www.w3.org/2000/svg" version="1.1" xmlns:xlink="http://www.w3.org/1999/xlink" width="512" height="512" x="0" y="0" viewBox="0 0 512 512" style="enable-background:new 0 0 512 512" xml:space="preserve"><g transform="matrix(1.0999999999999992,0,0,1.0999999999999992,-20.16399993896465,-25.66656455993632)"><path d="m386.1 185.49 53.66-37.42-77.1 17.38zm84.9-58.77c4.9-1.47 10.15 2.72 8.76 8.56l-8.96 43.6c7.65 3.37 12.84 11.03 12.84 19.62v79.57c0 11.82-9.64 21.46-21.46 21.46h-68.23c-5.47 9.84-12.5 17.49-22.25 22.51v88.67c0 19.19-15.68 34.84-34.84 34.84H215.43c-1.56 4.08-4.93 7.34-9.55 8.59l-15 4.03c-7.57 2.01-16.07-1.96-19.5-9.04l-1.7-3.57h-17.15c-19.19 0-34.87-15.65-34.87-34.84v-3.49c-6.46 1.56-13.1-2.35-14.83-8.82l-6.77-25.31c-1.76-6.55 2.15-13.38 8.73-15.14l9.07-2.44c.82-5.19 3.74-8.22 3.8-8.36v-102.6c-3.15-3.49-5.9-7.43-8.33-11.79H41.1c-11.82 0-21.46-9.64-21.46-21.46v-79.57c0-11.82 9.64-21.46 21.46-21.46h76.56v-20.8c0-19.19 15.68-34.84 34.87-34.84h184.34c19.16 0 34.84 15.65 34.84 34.84v59.64zm-11.37 37.17-30.33 42.04 19.64 9.98zm-46.09 40.05 29.79-41.33-49.35 34.41 12.36 35.72 5.61-25.23c.26-1.39.65-2.46 1.59-3.57zm-33.85-5.53-8.59-7.34h-43.26c-4.08 0-7.46 3.34-7.46 7.43v79.57c0 4.08 3.37 7.46 7.46 7.46h28.83c4.08 0 7.31 3.37 6.94 7.85-.2 4.79-1.19 11.88-4.73 18.82 11.59-3.51 18.88-11.11 24.52-22.73 1.22-2.47 3.71-3.91 6.29-3.94h72.48c4.08 0 7.46-3.37 7.46-7.46V198.5c0-1.87-.71-3.6-1.84-4.9l-7.03 34.1c-.91 4.54-5.92 6.89-9.98 4.82l-.03.03-23.7-12.08a6.745 6.745 0 0 1-3.37-1.47l-5.81 26.14h29.82c3.88 0 7 3.12 7 7 0 3.85-3.12 7-7 7h-32.94l-.14.65c-1.5 6.83-11.2 7.48-13.46.57l-.43-1.22h-17.89c-3.88 0-7-3.15-7-7 0-3.88 3.12-7 7-7h13.04l-8.5-24.58h-45.04c-3.86 0-7-3.15-7-7 0-3.88 3.15-7 7-7h40.2zm-24.97-21.34L342.99 167c-4.31-3.69-2.69-10.91 3.2-12.16l11.51-2.58V89.48c0-11.45-9.38-20.86-20.83-20.86h-10.03l-14.77 33.28a6.932 6.932 0 0 1-6.35 4.17v.03H183.68c-3.12 0-5.75-2.01-6.66-4.82l-14.49-32.66h-10.01c-11.48 0-20.86 9.41-20.86 20.86v20.81h43.77c11.79 0 21.46 9.64 21.46 21.46v79.57c0 11.82-9.64 21.46-21.46 21.46h-20.92c1.56 6.46 4.99 12.22 11.42 15.93 6.15 3.57 3.57 13.04-3.51 13.04v.03c-12.53 0-22.54-2.27-30.76-6.46v84.78l22.37-5.98c13.04-3.51 22.99-7.91 31.75-13.49 8.59-5.5 16.33-12.25 24.8-20.47 4.71-8.56 11.59-14.66 20.27-16.98 12.1-3.12 24.43 1.39 35.18 11.65 20.49 19.56 30.67 56.1 23.84 83.76h67.83v-51.68c-5.05 1.08-10.63 1.62-16.84 1.62v-.03c-7.09 0-9.67-9.47-3.51-13.01 6.43-3.71 9.86-9.5 11.42-15.96h-20.92c-11.79 0-21.43-9.64-21.43-21.46V198.5c0-11.79 9.64-21.43 21.43-21.43zm-12.39 82.06c-3.86 0-7-3.15-7-7 0-3.88 3.15-7 7-7h19.64c3.86 0 7 3.12 7 7 0 3.85-3.15 7-7 7zm-181.39-80.79c3.86 0 7 3.15 7 7 0 3.88-3.15 7-7 7H141.3c-3.86 0-7-3.12-7-7 0-3.86 3.15-7 7-7zm-40.5 0c3.88 0 7 3.15 7 7 0 3.88-3.12 7-7 7H55.58c-3.88 0-7-3.12-7-7 0-3.86 3.12-7 7-7zm-64.86-24.57c-3.88 0-7-3.12-7-7 0-3.86 3.12-6.97 7-6.97H75.2c3.88 0 7 3.12 7 6.97 0 3.88-3.12 7-7 7zm40.48 0c-3.86 0-7-3.12-7-7 0-3.86 3.15-6.97 7-6.97h64.89c3.86 0 7 3.12 7 6.97 0 3.88-3.15 7-7 7zm48.33 91.64c-3.46-6.77-4.79-14.88-4.79-19.64 0-3.88 3.15-7 7-7h28.83c4.08 0 7.46-3.37 7.46-7.46v-79.57c0-4.08-3.37-7.46-7.46-7.46H41.1c-4.08 0-7.46 3.37-7.46 7.46v79.57c0 4.08 3.37 7.46 7.46 7.46h72.48c2.58 0 5.07 1.45 6.29 3.94 5.44 11.16 12.53 19.07 24.52 22.7zm74.32 72.88c24.07 3.85 38.15 30.25 28.03 52.75a36.419 36.419 0 0 1-10.29 13.46c6.26 6.92 15.22 13.18 24.75 10.77 7.43-1.9 12.33-10.46 14.57-18.03 6.72-22.96-2.07-55.81-19.36-72.31-16.38-15.62-31.24-9.21-36.82 9.84-.31 1.14-.62 2.3-.88 3.52zm9.59 54.85c14.34-12.59 7.77-37.22-10.97-40.9.08 13.83 4.11 28.88 10.97 40.9zm56.09 19.45c-4.68 8.16-11.45 14.06-19.9 16.27-8.65 2.32-17.63.51-25.97-4.56-11.51-2.86-21.57-4.88-31.75-5.3-5.3-.25-10.69-.06-16.41.62 1.39 2.89 11.03 23.5 11.85 24.41 1.5 1.56 7.85 3.66 11.03 7.51h123.62c11.45 0 20.83-9.38 20.83-20.83V392.6h-73.3zm-64.32-6.35c-11.85-17.09-18.11-40.54-16.41-61.29-11.76 9.27-23.84 15.82-39.32 20.69l11.37 42.35c15.82-3.51 29.54-3.88 44.36-1.75zm-69.19-36.83c-2.49.68-20.95 5.41-21.74 5.98-1.19.88-1.81 2.1-1.42 3.66l9.58 35.66a3.266 3.266 0 0 0 4.03 2.32l20.83-5.56zm21.63 53.75-6.86 1.84 18.31 38.1c.48.99 2.24 1.81 3.32 1.53l15.08-4.03-.06-.28c-5.78-3.37-10.32-5.07-13.24-11.17l-12.9-26.93zm-20.58 5.53c-7.4 1.98-12.93 4.31-20.27 0v2.01c0 11.45 9.38 20.83 20.86 20.83h10.4zm-29.96-17.1-5.92-22.2-6.07 1.64 5.92 22.17zm55.78-322.98 10.43 23.47h112.99l10.43-23.47z" fill="white" opacity="1" data-original="#000000"></path></g></svg>