<?xml version="1.0" encoding="UTF-8"?>
<svg xmlns="http://www.w3.org/2000/svg" xmlns:xlink="http://www.w3.org/1999/xlink" version="1.1" id="Capa_1" x="0px" y="0px" viewBox="0 0 512 512" style="enable-background:new 0 0 512 512;" xml:space="preserve" width="512" height="512">
<g>
	
		<line style="fill:none;stroke:#fff;stroke-width:15;stroke-linecap:round;stroke-linejoin:round;stroke-miterlimit:10;" x1="312.518" y1="349.688" x2="358.323" y2="376.134"/>
	
		<line style="fill:none;stroke:#fff;stroke-width:15;stroke-linecap:round;stroke-linejoin:round;stroke-miterlimit:10;" x1="337.348" y1="306.681" x2="392.425" y2="338.479"/>
	<path style="fill:none;stroke:#fff;stroke-width:15;stroke-linecap:round;stroke-linejoin:round;stroke-miterlimit:10;" d="&#10;&#9;&#9;M300.302,212.811c-1.084,4.365-3.067,8.376-5.741,11.824"/>
	
		<line style="fill:none;stroke:#fff;stroke-width:15;stroke-linecap:round;stroke-linejoin:round;stroke-miterlimit:10;" x1="287.543" y1="392.612" x2="310.571" y2="405.907"/>
	<path style="fill:none;stroke:#fff;stroke-width:15;stroke-linecap:round;stroke-linejoin:round;stroke-miterlimit:10;" d="&#10;&#9;&#9;M129.529,152.573l11.556,6.672c0.673,0.388,0.903,1.248,0.515,1.921L63.144,297.054c-0.388,0.673-1.248,0.903-1.921,0.515&#10;&#9;&#9;l-53.02-30.611c-0.673-0.388-0.903-1.248-0.515-1.921l78.455-135.889c0.388-0.673,1.248-0.903,1.921-0.515l11.051,6.381"/>
	<g>
		<g>
			
				<line style="fill:none;stroke:#fff;stroke-width:15;stroke-linecap:round;stroke-linejoin:round;stroke-miterlimit:10;" x1="101.155" y1="167.183" x2="101.155" y2="167.183"/>
		</g>
	</g>
	<path style="fill:none;stroke:#fff;stroke-width:15;stroke-linecap:round;stroke-linejoin:round;stroke-miterlimit:10;" d="&#10;&#9;&#9;M503.797,266.958c0.673-0.388,0.903-1.248,0.515-1.921l-78.455-135.889c-0.388-0.673-1.249-0.903-1.921-0.515l-53.02,30.611&#10;&#9;&#9;c-0.673,0.388-0.903,1.248-0.515,1.921l78.455,135.889c0.388,0.673,1.248,0.903,1.921,0.515L503.797,266.958z"/>
	<g>
		<g>
			
				<line style="fill:none;stroke:#fff;stroke-width:15;stroke-linecap:round;stroke-linejoin:round;stroke-miterlimit:10;" x1="410.845" y1="167.183" x2="410.845" y2="167.183"/>
		</g>
	</g>
	<path style="fill:none;stroke:#fff;stroke-width:15;stroke-linecap:round;stroke-linejoin:round;stroke-miterlimit:10;" d="&#10;&#9;&#9;M124.63,276.245c-1.532,0.518-3.036,1.193-4.49,2.033l-27.965,16.146c-8.624,4.979-11.578,16.006-6.6,24.63l6.8,11.778&#10;&#9;&#9;c4.979,8.624,16.006,11.578,24.63,6.6l27.965-16.146c11.649-6.725,15.787-21.465,9.47-33.233"/>
	<path style="fill:none;stroke:#fff;stroke-width:15;stroke-linecap:round;stroke-linejoin:round;stroke-miterlimit:10;" d="&#10;&#9;&#9;M145.678,378.219l19.003-10.971c11.876-6.857,15.945-22.043,9.088-33.919l0,0c-6.857-11.876-22.043-15.945-33.919-9.088&#10;&#9;&#9;l-19.003,10.971c-8.624,4.979-11.578,16.006-6.6,24.63l6.8,11.778C126.027,380.243,137.054,383.198,145.678,378.219z"/>
	<path style="fill:none;stroke:#fff;stroke-width:15;stroke-linecap:round;stroke-linejoin:round;stroke-miterlimit:10;" d="&#10;&#9;&#9;M184.201,413.32l17.724-10.233c11.876-6.857,15.945-22.043,9.088-33.919l0,0c-6.857-11.876-22.043-15.945-33.919-9.088&#10;&#9;&#9;l-17.724,10.233c-8.624,4.979-11.578,16.006-6.6,24.63l6.8,11.778C164.551,415.345,175.578,418.299,184.201,413.32z"/>
	<path style="fill:none;stroke:#fff;stroke-width:15;stroke-linecap:round;stroke-linejoin:round;stroke-miterlimit:10;" d="&#10;&#9;&#9;M226.755,446.095l12.603-7.276c11.876-6.857,15.945-22.043,9.088-33.919l0,0c-6.857-11.876-22.043-15.945-33.919-9.088&#10;&#9;&#9;l-12.603,7.276c-8.624,4.979-11.578,16.006-6.6,24.63l6.8,11.778C207.104,448.119,218.131,451.074,226.755,446.095z"/>
	<path style="fill:none;stroke:#fff;stroke-width:15;stroke-linecap:round;stroke-linejoin:round;stroke-miterlimit:10;" d="&#10;&#9;&#9;M255.479,117.954L255.479,117.954c-7.624,0-13.805-6.181-13.805-13.805V76.54c0-7.624,6.181-13.805,13.805-13.805h0&#10;&#9;&#9;c7.624,0,13.805,6.181,13.805,13.805v27.609C269.283,111.774,263.103,117.954,255.479,117.954z"/>
	<path style="fill:none;stroke:#fff;stroke-width:15;stroke-linecap:round;stroke-linejoin:round;stroke-miterlimit:10;" d="&#10;&#9;&#9;M317.597,129.907L317.597,129.907c-6.603-3.812-8.865-12.255-5.053-18.857l13.805-23.91c3.812-6.603,12.255-8.865,18.857-5.053l0,0&#10;&#9;&#9;c6.603,3.812,8.865,12.255,5.053,18.857l-13.805,23.91C332.642,131.457,324.2,133.719,317.597,129.907z"/>
	<path style="fill:none;stroke:#fff;stroke-width:15;stroke-linecap:round;stroke-linejoin:round;stroke-miterlimit:10;" d="&#10;&#9;&#9;M193.36,129.907L193.36,129.907c6.603-3.812,8.865-12.255,5.053-18.857l-13.805-23.91c-3.812-6.603-12.255-8.865-18.857-5.053l0,0&#10;&#9;&#9;c-6.603,3.812-8.865,12.255-5.053,18.857l13.805,23.91C178.315,131.457,186.758,133.719,193.36,129.907z"/>
	<path style="fill:none;stroke:#fff;stroke-width:15;stroke-linecap:round;stroke-linejoin:round;stroke-miterlimit:10;" d="&#10;&#9;&#9;M249.329,428.063l3.399,1.791l29.429,16.991c8.74,5.046,19.919,1.937,24.798-6.897l6.577-11.907&#10;&#9;&#9;c4.75-8.6,1.741-19.419-6.767-24.332l-16.714-9.65l40.653,23.471c8.739,5.046,19.918,1.937,24.798-6.897l6.577-11.906&#10;&#9;&#9;c4.75-8.6,1.741-19.42-6.767-24.332l-24.806-14.323l36.791,21.241c8.624,4.979,19.651,2.024,24.63-6.6l6.8-11.778&#10;&#9;&#9;c4.978-8.623,2.025-19.648-6.596-24.628l-22.497-12.994l28.205,16.288c8.807,5.086,20.076,1.885,24.895-7.071l6.446-11.98&#10;&#9;&#9;c4.618-8.584,1.578-19.284-6.863-24.157l-0.735-0.424"/>
	
		<line style="fill:none;stroke:#fff;stroke-width:15;stroke-linecap:round;stroke-linejoin:round;stroke-miterlimit:10;" x1="69.243" y1="286.491" x2="88.27" y2="297.456"/>
	<path style="fill:none;stroke:#fff;stroke-width:15;stroke-linecap:round;stroke-linejoin:round;stroke-miterlimit:10;" d="&#10;&#9;&#9;M187.796,193.038c-9.956-0.249-19.75-3-28.464-8.029l-23.635-13.62"/>
	<path style="fill:none;stroke:#fff;stroke-width:15;stroke-linecap:round;stroke-linejoin:round;stroke-miterlimit:10;" d="&#10;&#9;&#9;M279.497,165.618l-1.105-0.638c-12.994-7.502-29.004-7.502-41.999,0l-65.635,37.895c-3.628,2.095-4.872,6.735-2.777,10.363&#10;&#9;&#9;l2.446,4.237c10.267,17.783,33.01,23.875,50.794,13.609c4.256-2.457,8.059-4.652,10.719-6.188&#10;&#9;&#9;c4.584-2.646,10.446-1.892,14.059,1.976c5.825,6.236,14.121,10.135,23.327,10.135c10.264,0,19.395-4.845,25.233-12.373&#10;&#9;&#9;l28.248,16.309l0,0l46.516,26.856l52.256,30.17l20.84-12.061"/>
	<path style="fill:none;stroke:#fff;stroke-width:15;stroke-linecap:round;stroke-linejoin:round;stroke-miterlimit:10;" d="&#10;&#9;&#9;M376.423,171.597l-22.629,13.036c-12.8,7.388-28.569,7.386-41.368-0.003l-0.486-0.28"/>
</g>















</svg>
