<svg id="Layer_1" enable-background="new 0 0 512 512" fill="white" height="512" viewBox="0 0 512 512" width="512" xmlns="http://www.w3.org/2000/svg"><path d="m502.351 184.816-15.368-26.619c-3.146-5.446-9.849-7.628-15.599-5.075-12.983 5.765-28.141.82-35.26-11.508-7.116-12.327-3.822-27.929 7.665-36.29 5.083-3.701 6.546-10.599 3.402-16.047l-15.369-26.621c-3.144-5.442-9.849-7.622-15.598-5.073-11.857 5.265-26.004 1.475-33.638-9.012-3.7-5.084-10.597-6.55-16.048-3.404l-195.388 112.806c-2.838 1.639-4.867 4.284-5.714 7.447l-2.696 10.062-10.062-2.696c-3.164-.849-6.468-.413-9.306 1.226l-74.234 42.858c-5.255 3.033-7.458 9.377-5.318 14.978h-8.03c-6.288 0-11.531 4.716-12.195 10.971-1.368 12.9-11.725 23.257-24.624 24.626-6.256.661-10.973 5.904-10.973 12.194v30.736c0 6.29 4.717 11.533 10.971 12.194 14.128 1.499 24.782 13.362 24.782 27.597s-10.654 26.098-24.784 27.597c-6.253.664-10.969 5.907-10.969 12.195v30.736c0 6.29 4.717 11.533 10.971 12.194 12.9 1.368 23.257 11.725 24.626 24.626.664 6.254 5.907 10.97 12.195 10.97h85.72c3.278 0 6.359-1.277 8.672-3.592l7.366-7.366 7.362 7.362c2.315 2.318 5.396 3.596 8.675 3.596h225.615c6.288 0 11.531-4.716 12.195-10.971 1.368-12.9 11.725-23.257 24.628-24.625 6.253-.664 10.968-5.907 10.968-12.195v-30.735c0-6.288-4.715-11.531-10.97-12.195-14.129-1.499-24.783-13.363-24.783-27.597s10.654-26.098 24.781-27.597c6.255-.661 10.972-5.904 10.972-12.194v-30.736c0-2.414-.699-4.67-1.909-6.576l39.776-22.964c5.444-3.145 7.627-9.85 5.075-15.599-5.266-11.856-1.475-26.004 9.015-33.639 5.084-3.702 6.547-10.599 3.403-16.045zm-71.36 122.327c-20.604 3.785-35.753 21.722-35.753 43.023 0 21.304 15.148 39.24 35.753 43.023v24.276c-17.677 3.287-31.731 17.344-35.02 35.019h-220.838l-8.913-8.914c-.216-.216-.444-.41-.672-.607v-16.791c0-4.418-3.582-8-8-8s-8 3.582-8 8v16.79c-.228.196-.457.391-.673.607l-8.913 8.914h-80.944c-3.288-17.675-17.345-31.73-35.02-35.019v-24.275c20.604-3.786 35.753-21.723 35.753-43.024s-15.147-39.238-35.753-43.023v-24.275c17.676-3.288 31.732-17.346 35.021-35.02h80.943l8.915 8.915c.216.216.444.41.671.606v16.79c0 4.418 3.582 8 8 8s8-3.582 8-8v-16.79c.228-.197.456-.391.672-.607l8.913-8.914h220.84c3.287 17.674 17.343 31.729 35.019 35.02v24.276zm-70.817-91.061c0-3.795 3.088-6.883 6.884-6.883 3.795 0 6.883 3.088 6.883 6.883 0 3.796-3.088 6.884-6.883 6.884-3.796 0-6.884-3.088-6.884-6.884zm113.888 21.775-46.902 27.079c-8.539-4.056-14.728-12.354-15.764-22.118-.664-6.254-5.907-10.97-12.195-10.97h-15.581c3.912-4.108 6.321-9.659 6.321-15.766 0-12.617-10.266-22.883-22.883-22.883-12.618 0-22.884 10.266-22.884 22.883 0 6.107 2.409 11.658 6.321 15.766h-15.155l8.173-81.877c.439-4.396-2.769-8.316-7.165-8.755-4.414-.45-8.317 2.769-8.755 7.165l-8.332 83.467h-114.74l-7.689-13.317c-2.208-3.825-7.1-5.14-10.928-2.928-3.826 2.209-5.138 7.102-2.928 10.928l3.07 5.317h-12.462c-3.278 0-6.359 1.277-8.672 3.592l-7.366 7.366-7.362-7.362c-2.315-2.318-5.396-3.596-8.675-3.596h-60.714c-.259-.92-.541-1.834-.86-2.736l70.098-40.471 12.177 3.263c.294.079.59.135.887.192l8.395 14.54c1.481 2.566 4.17 4.001 6.936 4.001 1.356 0 2.732-.346 3.992-1.073 3.826-2.209 5.138-7.102 2.928-10.928l-8.395-14.539c.099-.285.199-.57.277-.864l3.263-12.176 191.252-110.42c11.686 13.663 30.888 18.808 47.839 12.818l12.138 21.022c-15.951 13.58-20.103 36.688-9.451 55.137 10.651 18.448 32.741 26.407 52.474 19.383l12.138 21.022c-13.667 11.685-18.812 30.887-12.821 47.838zm-181.085-71.828c-12.618 0-22.884 10.266-22.884 22.884 0 12.617 10.266 22.883 22.884 22.883s22.884-10.266 22.884-22.883c-.001-12.619-10.266-22.884-22.884-22.884zm0 29.766c-3.796 0-6.884-3.088-6.884-6.883 0-3.796 3.088-6.884 6.884-6.884s6.884 3.088 6.884 6.884c-.001 3.795-3.089 6.883-6.884 6.883zm-127.429 101.338v20.04c0 4.418-3.582 8-8 8s-8-3.582-8-8v-20.04c0-4.418 3.582-8 8-8s8 3.582 8 8zm0 43.014v20.04c0 4.418-3.582 8-8 8s-8-3.582-8-8v-20.04c0-4.418 3.582-8 8-8s8 3.582 8 8zm0 43.013v20.04c0 4.418-3.582 8-8 8s-8-3.582-8-8v-20.04c0-4.418 3.582-8 8-8s8 3.582 8 8zm-32.622-83.231c0 4.418-3.582 8-8 8h-42.64c-4.418 0-8-3.582-8-8s3.582-8 8-8h42.64c4.418 0 8 3.582 8 8zm0 33.402c0 4.418-3.582 8-8 8h-42.64c-4.418 0-8-3.582-8-8s3.582-8 8-8h42.64c4.418 0 8 3.582 8 8zm0 33.402c0 4.418-3.582 8-8 8h-42.64c-4.418 0-8-3.582-8-8s3.582-8 8-8h42.64c4.418 0 8 3.582 8 8zm0 33.401c0 4.418-3.582 8-8 8h-42.64c-4.418 0-8-3.582-8-8s3.582-8 8-8h42.64c4.418 0 8 3.582 8 8zm153.578-80.579c0-12.618-10.266-22.884-22.884-22.884s-22.884 10.266-22.884 22.884c0 12.617 10.266 22.883 22.884 22.883s22.884-10.266 22.884-22.883zm-29.768 0c0-3.796 3.088-6.884 6.884-6.884s6.884 3.088 6.884 6.884c0 3.795-3.088 6.883-6.884 6.883s-6.884-3.088-6.884-6.883zm70.12-8.456-62.362 86.786c-1.563 2.175-4.016 3.333-6.504 3.333-1.616 0-3.248-.489-4.661-1.504-3.588-2.579-4.407-7.577-1.828-11.165l62.362-86.786c2.579-3.588 7.576-4.405 11.165-1.829 3.588 2.579 4.408 7.577 1.828 11.165zm-12.666 46.142c-12.617 0-22.883 10.266-22.883 22.884s10.266 22.884 22.883 22.884c12.618 0 22.884-10.266 22.884-22.884s-10.265-22.884-22.884-22.884zm0 29.768c-3.795 0-6.883-3.088-6.883-6.884s3.088-6.884 6.883-6.884c3.796 0 6.884 3.088 6.884 6.884s-3.088 6.884-6.884 6.884z"/></svg>