<svg xmlns="http://www.w3.org/2000/svg" version="1.1" xmlns:xlink="http://www.w3.org/1999/xlink" width="512" height="512" x="0" y="0" viewBox="0 0 453.54 453.54" style="enable-background:new 0 0 512 512" xml:space="preserve" class=""><rect width="453.54" height="453.54" fill="#ffffff" shape="square"></rect><g transform="matrix(0.9400000000000001,0,0,0.9400000000000001,13.606202316284197,28.60617695155554)"><path fill="#6d3176" d="M244.277.533c20.37-1.576 38.505.178 57.392 7.318 41.966 15.866 61.409 61.468 66.821 103.085 6.266 48.191-6.159 84.834-17.834 129.815-5.194 20.017-9.607 39.736-7.946 60.671 1.641 20.653 9.556 35.285 13.768 54.486.201.916 2.1 3.093 2.755 3.896-43.88-25.772-66.982-70.183-66.91-119.054.065-44.104 22.361-84.829 12.922-130.071-4.792-22.976-16.513-50.627-41.044-57.357-18.968-5.205-44.504 5.254-60.456-9.72C175.753 17.331 224.71 2.049 244.277.533z" opacity="1" data-original="#6d3176" class=""></path><path fill="#f9c5b8" d="M426.759 453.541c1.851-49.975-29.624-69.192-29.624-69.192l-132.598-74.961h-75.541L56.405 384.349s-31.474 19.218-29.624 69.192z" opacity="1" data-original="#f9c5b8"></path><path fill="#f9c5b8" d="M179.565 319.086h94.409c-20.917-11.298-15.281-54.72-15.281-54.72h-63.848c.001 0 5.638 43.422-15.28 54.72z" opacity="1" data-original="#f9c5b8"></path><path fill="#f5a997" d="M193.538 297.012c22.555-2.575 44.633-10.135 64.476-21.313.076-6.667.68-11.333.68-11.333h-63.848s2.215 17.111-1.308 32.646zM336.889 167.626c-1.988 15.36-10.677 26.765-19.411 25.474-8.733-1.291-14.202-14.79-12.218-30.149 1.988-15.359 10.681-26.764 19.414-25.473 8.734 1.291 14.202 14.789 12.215 30.148z" opacity="1" data-original="#f5a997"></path><path fill="#e9837b" d="M317.353 181.695a2.637 2.637 0 0 1-2.558-2.005c-2.178-8.813-3.166-19.258 6.003-29.894a2.638 2.638 0 0 1 3.994 3.444c-7.961 9.233-6.692 17.842-4.879 25.187a2.635 2.635 0 0 1-2.56 3.268z" opacity="1" data-original="#e9837b"></path><path fill="#e9837b" d="M326.214 166.391a2.69 2.69 0 0 1-.494-.047c-4.229-.805-8.591-.007-8.636 0-1.438.269-2.809-.673-3.078-2.103s.669-2.807 2.098-3.077c.216-.042 5.359-.994 10.6 0a2.636 2.636 0 0 1-.49 5.227z" opacity="1" data-original="#e9837b"></path><path fill="#f5a997" d="M116.651 167.626c1.988 15.36 10.677 26.765 19.411 25.474 8.733-1.291 14.203-14.79 12.218-30.149-1.988-15.359-10.68-26.764-19.414-25.473s-14.202 14.789-12.215 30.148z" opacity="1" data-original="#f5a997"></path><path fill="#e9837b" d="M136.187 181.695a2.635 2.635 0 0 1-2.561-3.268c1.813-7.345 3.082-15.953-4.879-25.187a2.636 2.636 0 0 1 .275-3.718 2.639 2.639 0 0 1 3.719.274c9.17 10.636 8.181 21.081 6.003 29.894a2.634 2.634 0 0 1-2.557 2.005z" opacity="1" data-original="#e9837b"></path><path fill="#e9837b" d="M127.326 166.391a2.638 2.638 0 0 1-.489-5.227c5.242-.994 10.384-.042 10.6 0a2.636 2.636 0 0 1 2.099 3.082 2.633 2.633 0 0 1-3.08 2.098c-.072-.012-4.417-.801-8.635 0a2.709 2.709 0 0 1-.495.047z" opacity="1" data-original="#e9837b"></path><path fill="#f9c5b8" d="M315.229 130.824c-1.565-43.819-28.46-97.948-83.602-97.653h-11.271c-55.142-.295-82.033 53.834-83.602 97.653-1.572 44.042 11.93 94.835 39.36 121.85 12.86 12.661 32.367 18.751 49.879 19.057 17.509-.306 37.015-6.396 49.875-19.057 27.432-27.015 40.934-77.808 39.361-121.85z" opacity="1" data-original="#f9c5b8"></path><path fill="#2a2e6d" d="M142.956 124.634c.031 51.813-3.364 53.319-3.364 53.319" opacity="1" data-original="#2a2e6d"></path><path fill="#793784" d="M311.137 181.193c9.043-6.608 1.868-38.216 14.368-39.102 0 0 31.604-78.408-32.48-119.735-31.931-17.36-59.405-17.36-59.405-17.36C93.929 6.139 129.31 140.464 129.31 140.464c7.635 8.504 5.218 21.182 10.282 40.878 3.658-7.903 9.097-51.102 9.097-51.102 3.05-34.173 23.431-68.354 58.865-74.778 22.097-4.007 49.578-1.648 67.786 12.489 16.413 12.747 23.623 33.656 27.375 53.358 1.201 6.308 10.412 58.431 8.422 59.884z" opacity="1" data-original="#793784"></path><path fill="#793784" d="M283.975 138.301c-2.252-15.603-35.206-16.187-41.64-9.891 0 0-2.482 4.467.598 8.642 18.487-6.805 35.553-.515 40.987 2.417.855.102.055-1.168.055-1.168zM168.01 138.301s-.8 1.271.055 1.168c5.435-2.932 22.5-9.222 40.987-2.417 3.079-4.175.597-8.642.597-8.642-6.433-6.296-39.387-5.712-41.639 9.891z" opacity="1" data-original="#793784"></path><ellipse cx="186.588" cy="183.154" fill="#f6afa8" rx="21.379" ry="9.712" opacity="1" data-original="#f6afa8"></ellipse><ellipse cx="265.4" cy="183.154" fill="#f6afa8" rx="21.379" ry="9.712" opacity="1" data-original="#f6afa8"></ellipse><path fill="#2a2d6b" d="M197.925 157.962c0 7.316-3.148 13.245-7.031 13.245s-7.031-5.929-7.031-13.245c0-7.312 3.148-13.241 7.031-13.241s7.031 5.929 7.031 13.241zM268.121 157.962c0 7.316-3.148 13.245-7.027 13.245-3.883 0-7.031-5.929-7.031-13.245 0-7.312 3.148-13.241 7.031-13.241 3.879 0 7.027 5.929 7.027 13.241z" opacity="1" data-original="#2a2d6b"></path><path fill="#e9837b" d="M227.81 211.277c-.335 0-.675-.063-1.002-.199-5.671-2.332-8.759-4.953-9.715-8.249-1.262-4.347 1.506-8.262 4.437-12.409 1.835-2.595 3.733-5.28 4.655-8.088a2.633 2.633 0 0 1 3.328-1.683 2.636 2.636 0 0 1 1.682 3.327c-1.17 3.562-3.395 6.71-5.359 9.488-2.177 3.08-4.233 5.987-3.679 7.895.316 1.09 1.729 2.815 6.657 4.845a2.634 2.634 0 0 1-1.004 5.073zM226.571 230.24c-12.481 0-21.659-6.182-21.796-6.275a2.64 2.64 0 0 1-.674-3.669 2.633 2.633 0 0 1 3.663-.676c.724.494 17.973 11.99 36.516-.04a2.636 2.636 0 1 1 2.869 4.425c-7.207 4.675-14.309 6.235-20.578 6.235z" opacity="1" data-original="#e9837b"></path><circle cx="318.589" cy="185.063" r="6.003" fill="#ffffff" opacity="1" data-original="#ffffff"></circle><circle cx="133.396" cy="185.063" r="6.003" fill="#ffffff" opacity="1" data-original="#ffffff"></circle><path fill="#ca98c5" d="m264.537 309.388 132.598 74.961s31.475 19.218 29.624 69.192H26.781c-1.85-49.975 29.624-69.192 29.624-69.192l132.591-74.961s33.695 39.054 75.541 0z" opacity="1" data-original="#ca98c5"></path><path fill="#ca98c5" d="M426.764 453.541H26.776c-1.845-49.975 29.636-69.186 29.636-69.186l14.537-8.226 4.235-2.39 113.813-64.353s33.697 39.058 75.548 0l113.813 64.353 4.236 2.39 14.536 8.226c-.002 0 31.48 19.211 29.634 69.186z" opacity="1" data-original="#ca98c5"></path><circle cx="188.965" cy="319.086" r="5.581" fill="#ba80b6" opacity="1" data-original="#ba80b6"></circle><circle cx="264.577" cy="319.086" r="5.581" fill="#ba80b6" opacity="1" data-original="#ba80b6"></circle><circle cx="132.254" cy="348.844" r="5.581" fill="#ba80b6" opacity="1" data-original="#ba80b6"></circle><circle cx="170.06" cy="348.844" r="5.581" fill="#ba80b6" opacity="1" data-original="#ba80b6"></circle><circle cx="207.867" cy="348.844" r="5.581" fill="#ba80b6" opacity="1" data-original="#ba80b6"></circle><circle cx="245.673" cy="348.844" r="5.581" fill="#ba80b6" opacity="1" data-original="#ba80b6"></circle><circle cx="283.48" cy="348.844" r="5.581" fill="#ba80b6" opacity="1" data-original="#ba80b6"></circle><circle cx="321.286" cy="348.844" r="5.581" fill="#ba80b6" opacity="1" data-original="#ba80b6"></circle><path fill="#ba80b6" d="M81.126 379.312c0 3.076-2.498 5.572-5.59 5.572a5.574 5.574 0 0 1-5.572-5.572c0-1.177.369-2.269.985-3.182l4.235-2.39c.124-.018.23-.018.352-.018a5.595 5.595 0 0 1 5.59 5.59z" opacity="1" data-original="#ba80b6"></path><circle cx="113.351" cy="379.312" r="5.581" fill="#ba80b6" opacity="1" data-original="#ba80b6"></circle><circle cx="151.158" cy="379.312" r="5.581" fill="#ba80b6" opacity="1" data-original="#ba80b6"></circle><circle cx="188.965" cy="379.312" r="5.581" fill="#ba80b6" opacity="1" data-original="#ba80b6"></circle><circle cx="226.771" cy="379.312" r="5.581" fill="#ba80b6" opacity="1" data-original="#ba80b6"></circle><circle cx="264.577" cy="379.312" r="5.581" fill="#ba80b6" opacity="1" data-original="#ba80b6"></circle><circle cx="302.384" cy="379.312" r="5.581" fill="#ba80b6" opacity="1" data-original="#ba80b6"></circle><circle cx="340.191" cy="379.312" r="5.581" fill="#ba80b6" opacity="1" data-original="#ba80b6"></circle><path fill="#ba80b6" d="M383.577 379.312a5.574 5.574 0 0 1-5.572 5.572 5.577 5.577 0 0 1-5.589-5.572 5.592 5.592 0 0 1 5.589-5.589c.124 0 .228 0 .352.018l4.236 2.39c.615.912.984 2.004.984 3.181z" opacity="1" data-original="#ba80b6"></path><circle cx="56.641" cy="409.069" r="5.581" fill="#ba80b6" opacity="1" data-original="#ba80b6"></circle><circle cx="94.447" cy="409.069" r="5.581" fill="#ba80b6" opacity="1" data-original="#ba80b6"></circle><circle cx="132.254" cy="409.069" r="5.581" fill="#ba80b6" opacity="1" data-original="#ba80b6"></circle><circle cx="170.06" cy="409.069" r="5.581" fill="#ba80b6" opacity="1" data-original="#ba80b6"></circle><circle cx="207.867" cy="409.069" r="5.581" fill="#ba80b6" opacity="1" data-original="#ba80b6"></circle><circle cx="245.673" cy="409.069" r="5.581" fill="#ba80b6" opacity="1" data-original="#ba80b6"></circle><circle cx="283.48" cy="409.069" r="5.581" fill="#ba80b6" opacity="1" data-original="#ba80b6"></circle><circle cx="321.286" cy="409.069" r="5.581" fill="#ba80b6" opacity="1" data-original="#ba80b6"></circle><circle cx="359.093" cy="409.069" r="5.581" fill="#ba80b6" opacity="1" data-original="#ba80b6"></circle><circle cx="396.899" cy="409.069" r="5.581" fill="#ba80b6" opacity="1" data-original="#ba80b6"></circle><circle cx="37.739" cy="439.538" r="5.581" fill="#ba80b6" opacity="1" data-original="#ba80b6"></circle><circle cx="75.545" cy="439.538" r="5.581" fill="#ba80b6" opacity="1" data-original="#ba80b6"></circle><circle cx="113.351" cy="439.538" r="5.581" fill="#ba80b6" opacity="1" data-original="#ba80b6"></circle><circle cx="151.158" cy="439.538" r="5.581" fill="#ba80b6" opacity="1" data-original="#ba80b6"></circle><circle cx="188.965" cy="439.538" r="5.581" fill="#ba80b6" opacity="1" data-original="#ba80b6"></circle><circle cx="226.771" cy="439.538" r="5.581" fill="#ba80b6" opacity="1" data-original="#ba80b6"></circle><circle cx="264.577" cy="439.538" r="5.581" fill="#ba80b6" opacity="1" data-original="#ba80b6"></circle><circle cx="302.384" cy="439.538" r="5.581" fill="#ba80b6" opacity="1" data-original="#ba80b6"></circle><circle cx="340.191" cy="439.538" r="5.581" fill="#ba80b6" opacity="1" data-original="#ba80b6"></circle><circle cx="377.997" cy="439.538" r="5.581" fill="#ba80b6" opacity="1" data-original="#ba80b6"></circle><circle cx="415.803" cy="439.538" r="5.581" fill="#ba80b6" opacity="1" data-original="#ba80b6"></circle></g></svg>