<svg id="Layer_1" enable-background="new 0 0 64 64" fill="white" viewBox="0 0 64 64" xmlns="http://www.w3.org/2000/svg"><path d="m42.7529297 17.875c-.1523438-.53125.1542969-1.0849609.6855469-1.2363281l1.921875-.5507813c.53125-.1533203 1.0849609.1542969 1.2363281.6855469.1523438.53125-.1542969 1.0849609-.6855469 1.2363281l-1.921875.5507813c-.0917969.0263672-.1845703.0390625-.2753906.0390625-.4355469 0-.8359375-.2851563-.9609375-.7246094zm3.4345627 1.0966797-1.9228439.5507813c-.53125.1513672-.8378906.7050781-.6855469 1.2363281.125.4384766.5253906.7246094.9599609.7246094.0917969 0 .1845703-.0126953.2763672-.0390625l1.9228516-.5507813c.53125-.1513672.8378906-.7050781.6855469-1.2363281-.1513673-.5292969-.7031251-.8388672-1.2363358-.6855469zm3.865242 20.7363281 1.9228516-.5507813c.53125-.1513672.8378906-.7050781.6855469-1.2363281-.1513672-.53125-.7080078-.8349609-1.2363281-.6855469l-1.9228516.5507813c-.53125.1513672-.8378906.7050781-.6855469 1.2363281.125.4384766.5253906.7246094.9609375.7246094.0908203 0 .1835937-.0126953.2753906-.0390625zm8.7998047 8.9199219-19.3023071 5.5354614c.4645386 3.3897095-1.614563 6.7047729-4.9974976 7.6744995-.6308594.1816406-1.28125.2734375-1.9335938.2734375-3.1035156 0-5.8691406-2.0859375-6.7246094-5.0722656-.3811035-1.3295898-.3432007-2.6784668.0264893-3.9135742l-1.5841064-12.4428711c-.0625-.4892578.2421875-.9511719.7167969-1.0869141l1.9232788-.5516357-7.7133179-26.8995361c-.3681641-1.2792969-1.5546875-2.1728516-2.8867188-2.1728516h-.0009766l-10.6074218-.2646484c-.5517578-.0136719-.9882813-.3261719-.9746094-.8789063.0136719-.5429687.4589844-.828125 1-.828125h.0253906 10.5810547.0029297c2.1933594 0 4.1699219 1.4750977 4.7822266 3.6069336l10.4874878 36.5681152c.315918-.0435181.6341553-.0666504.9529419-.0666504.7837524 0 1.5452881.1346436 2.2607422.3815918l-5.579834-19.458374-6.060791-19.1390381c-.0820313-.2568359-.0556641-.5371094.0722656-.7744141.1269531-.2382813.3457031-.4140625.6054688-.4882813l7.6879883-2.2043457c.0005493-.0001831.0009155-.0006104.0009155-.0006104l5.0061035-1.4349976 8.4524536-2.4235229c.5234375-.1494141 1.0654297.1445313 1.2285156.6591797l6.0634766 19.1474609c.0014648.0046387.0001221.0095825.0015259.0142212.0013428.0045166.0050049.0075684.0062866.012146l6.0644531 21.1474609c.1523437.5302736-.1542969 1.0839846-.6855469 1.2363283l-19.8984375 5.7062989c.461731.5203857.8522339 1.1054688 1.1446533 1.7529907l19.305542-5.536438c.5273438-.1513672 1.0839844.1533203 1.2363281.6855469.1523438.5302734-.1542968 1.0839843-.6855468 1.2363281zm-15.8173828-22.5107422-2.6644897.7634277-1.1801758.3383179 1.5165405 5.2908325.6835938-2.3974609c.0976563-.3408203.3671875-.6044922.7099609-.6933594.3408203-.0878906.7060547.0087891.9580078.2597656l1.3964844 1.3896484zm-6.0643311-19.1479492-3.8447876 1.1022949 1.5165405 5.2897949.6835938-2.3964844c.0976563-.3408203.3671875-.6035156.7099609-.6933594.3398438-.0888672.7060547.0097656.9570313.2587891l1.3974609 1.390625zm-11.5079346 3.2993164 5.4589844 17.2402344 19.2246094-5.5117188-5.458992-17.2402344-5.7946701 1.6613159 2.4812012 8.6511841c.1259766.4375-.0605469.9042969-.4521484 1.1367188-.3916016.2304688-.890625.1689453-1.2138672-.1523438l-2.9238281-2.9091797-1.1767578 4.1279297c-.1220703.4287109-.5146484.7255859-.9609375.7255859h-.0009766c-.4462891 0-.8378906-.2958984-.9609375-.7246094l-2.4810791-8.6507568zm2.1124878 40.0126953c.6099854-.6383667 1.3419189-1.1713257 2.1799316-1.5479736l-2.2272339-7.7672729-1.0983886.3152465zm9.8543091 3.4501953c-.6123047-2.1337891-2.5869141-3.6230469-4.8037109-3.6230469-.4608765 0-.9208374.0651855-1.3692627.1918945-.0043335.0012817-.0072021.0046997-.0115967.0059814-.0043335.0012817-.008728.0005493-.0130615.001709-2.6409912.7663574-4.1730957 3.5345459-3.4156494 6.1802979.6113281 2.1328125 2.5869141 3.6230469 4.8027344 3.6230469.4658203 0 .9306641-.0654297 1.3828125-.1953125 2.649414-.7597656 4.1874999-3.5341797 3.4277343-6.1845703zm18.8076172-10.5947265-5.5126953-19.2246094-5.767395 1.6535034 2.480278 8.6511841c.1259842.4375-.0605392.9052734-.4521408 1.1367188-.390625.2294922-.890625.1689453-1.2138672-.1523438l-2.9228516-2.9091797-1.1777344 4.1289063c-.1230469.4296875-.5146484.7255859-.9609375.7255859-.0009766 0-.0009766 0-.0009766 0-.4462891 0-.8378906-.2958984-.9609375-.7246094l-2.4802246-8.6516724-5.7678222 1.6536255 5.5126953 19.2255859zm-20.7304688 11.1464843c.2207031.7685547.1279297 1.5791016-.2607422 2.2802734-.3886719.7021484-1.0263672 1.2099609-1.7958984 1.4296875-.2695313.0771484-.546875.1162109-.8261719.1162109-1.3310547 0-2.5166016-.8925781-2.8847656-2.171875-.2207031-.7705077-.1279297-1.580078.2607422-2.2812499.3886719-.7021484 1.0273438-1.2099609 1.796875-1.4296875.2685547-.078125.546875-.1171875.8261719-.1171875 1.3310547 0 2.5175781.8935547 2.883789 2.1738281zm-1.921875.5507813c-.1230469-.4267578-.5185547-.7246094-.9619141-.7246094-.0917969 0-.1845703.0136719-.2744141.0390625-.2568359.0732422-.4697266.2431641-.5996094.4775391s-.1611328.5039063-.0878906.7597656c.1484375.5146484.71875.8339844 1.2382813.6855469.2558594-.0732422.4677734-.2431641.5976563-.4775391s.1611328-.5039062.0878906-.7597656zm19.9033204-14.0292969c-.1503906-.5292969-.703125-.8388672-1.2363281-.6855469l-1.9228516.5507813c-.53125.1513672-.8378906.7050781-.6855469 1.2363281.125.4384766.5253906.7246094.9599609.7246094.0917969 0 .1845703-.0126953.2763672-.0390625l1.9228516-.5507813c.53125-.1513672.8378906-.7050781.6855469-1.2363281z"/></svg>