<svg id="Capa_1" enable-background="new 0 0 512 512" height="512" viewBox="0 0 512 512" width="512" xmlns="http://www.w3.org/2000/svg"><g><g><g><path d="m206.74 74.888c0-19.233 15.647-34.879 34.879-34.879h50.468v-29.75c0-5.666-4.592-10.259-10.258-10.259h-204.488c-5.666 0-10.259 4.593-10.259 10.259v304.68h139.658z" fill="#0ed2b3"/></g><g><g><path d="m281.829 0h-42.213c5.666 0 10.259 4.593 10.259 10.258v29.75h42.213v-29.75c-.001-5.665-4.593-10.258-10.259-10.258z" fill="#0ab69f"/></g></g><path d="m206.74 237.016h-60.324c-4.142 0-7.5 3.357-7.5 7.5s3.358 7.5 7.5 7.5h60.324z" fill="#fff"/><g><g><g><path d="m206.74 74.888c0-5.521 1.295-10.743 3.588-15.388h-101.527c-2.833 0-5.129 2.296-5.129 5.129v141.569c0 2.833 2.296 5.129 5.129 5.129h97.939z" fill="#fff"/></g><g><path d="m121.795 252.016h-18.124c-4.142 0-7.5-3.357-7.5-7.5s3.358-7.5 7.5-7.5h18.124c4.142 0 7.5 3.357 7.5 7.5s-3.358 7.5-7.5 7.5z" fill="#fff"/></g><g><path d="m151.798 111.627h-27c-2.209 0-4-1.791-4-4v-27c0-2.209 1.791-4 4-4h27c2.209 0 4 1.791 4 4v27c0 2.209-1.79 4-4 4z" fill="#766e6e"/></g><g><path d="m151.798 194.2h-27c-2.209 0-4-1.791-4-4v-27c0-2.209 1.791-4 4-4h27c2.209 0 4 1.791 4 4v27c0 2.209-1.79 4-4 4z" fill="#766e6e"/></g><g><path d="m179.585 142.913h-28.498c-4.142 0-7.5-3.357-7.5-7.5s3.358-7.5 7.5-7.5h20.998v-48.435c0-4.143 3.358-7.5 7.5-7.5s7.5 3.357 7.5 7.5v55.936c0 4.142-3.358 7.499-7.5 7.499z" fill="#766e6e"/></g><g><path d="m130.974 142.913h-7.325c-4.142 0-7.5-3.357-7.5-7.5s3.358-7.5 7.5-7.5h7.325c4.142 0 7.5 3.357 7.5 7.5s-3.358 7.5-7.5 7.5z" fill="#766e6e"/></g><path d="m206.74 154.628c-.336-.046-.677-.078-1.026-.078h-26.129c-4.142 0-7.5 3.357-7.5 7.5v29.3c0 4.143 3.358 7.5 7.5 7.5s7.5-3.357 7.5-7.5v-21.8h18.629c.349 0 .69-.032 1.026-.078z" fill="#766e6e"/><path d="m206.74 265.961h-103.069c-4.142 0-7.5 3.357-7.5 7.5s3.358 7.5 7.5 7.5h103.069z" fill="#fff"/></g></g><g><path d="m206.74 313.913h-151.284c-8.499 0-15.388 6.889-15.388 15.388v21.543c0 2.833 2.296 5.129 5.129 5.129h161.543z" fill="#ffd15b"/></g><g><g><g><path d="m464.432 446.366v-371.478c0-19.83-16.075-35.905-35.905-35.905h-186.908c-19.83 0-35.905 16.075-35.905 35.905v371.478z" fill="#dff6fd"/></g><g><path d="m428.527 38.983h-41.777c19.83 0 35.905 16.075 35.905 35.905v371.478h41.777v-371.478c0-19.83-16.075-35.905-35.905-35.905z" fill="#c8effe"/></g><g><path d="m205.714 468.595c0 19.83 16.075 35.905 35.905 35.905h186.908c19.83 0 35.905-16.075 35.905-35.905v-23.255h-258.718z" fill="#8379c1"/></g><g><path d="m422.655 445.34v23.255c0 19.83-16.075 35.905-35.905 35.905h41.777c19.83 0 35.905-16.075 35.905-35.905v-23.255z" fill="#6e61b6"/></g><g><path d="m396.453 401.133h-122.761c-8.499 0-15.388-6.889-15.388-15.388v-25.601c0-8.499 6.889-15.388 15.388-15.388h122.761c8.499 0 15.388 6.889 15.388 15.388v25.601c0 8.499-6.889 15.388-15.388 15.388z" fill="#0ed2b3"/></g><g><path d="m396.453 344.757h-42.598c8.498 0 15.388 6.889 15.388 15.388v25.601c0 8.499-6.889 15.388-15.388 15.388h42.598c8.499 0 15.388-6.889 15.388-15.388v-25.601c0-8.499-6.889-15.388-15.388-15.388z" fill="#0ab69f"/></g><g><path d="m379.185 380.445h-88.224c-4.142 0-7.5-3.357-7.5-7.5s3.358-7.5 7.5-7.5h88.224c4.142 0 7.5 3.357 7.5 7.5s-3.358 7.5-7.5 7.5z" fill="#fff"/></g><g><g><path d="m262.337 75.497h-21.173c-4.142 0-7.5-3.357-7.5-7.5s3.358-7.5 7.5-7.5h21.173c4.142 0 7.5 3.357 7.5 7.5s-3.358 7.5-7.5 7.5z" fill="#8379c1"/></g></g><g><path d="m362.771 480.711h-55.396c-4.142 0-7.5-3.357-7.5-7.5s3.358-7.5 7.5-7.5h55.396c4.142 0 7.5 3.357 7.5 7.5s-3.358 7.5-7.5 7.5z" fill="#54469c"/></g></g><g><g><g><path d="m413.742 303.517h-157.339c-2.803 0-5.075-2.272-5.075-5.075v-157.34c0-2.803 2.272-5.075 5.075-5.075h157.339c2.803 0 5.075 2.272 5.075 5.075v157.339c.001 2.803-2.271 5.076-5.075 5.076z" fill="#fff"/></g><g><path d="m413.742 136.027h-30.546c2.803 0 5.075 2.272 5.075 5.075v157.339c0 2.803-2.272 5.075-5.075 5.075h30.546c2.803 0 5.075-2.272 5.075-5.075v-157.339c.001-2.803-2.271-5.075-5.075-5.075z" fill="#f9f3f1"/></g><g><path d="m413.743 311.017h-157.34c-6.934 0-12.575-5.642-12.575-12.575v-157.339c0-6.934 5.641-12.575 12.575-12.575h157.339c6.934 0 12.575 5.642 12.575 12.575v157.339c.001 6.933-5.64 12.575-12.574 12.575zm-154.915-15h152.49v-152.49h-152.49z" fill="#99e6fc"/></g><g><path d="m306.633 195.332h-32c-2.209 0-4-1.791-4-4v-32c0-2.209 1.791-4 4-4h32c2.209 0 4 1.791 4 4v32c0 2.209-1.791 4-4 4z" fill="#766e6e"/></g><g><path d="m395.513 195.332h-32c-2.209 0-4-1.791-4-4v-32c0-2.209 1.791-4 4-4h32c2.209 0 4 1.791 4 4v32c0 2.209-1.791 4-4 4z" fill="#766e6e"/></g><g><path d="m306.633 284.212h-32c-2.209 0-4-1.791-4-4v-32c0-2.209 1.791-4 4-4h32c2.209 0 4 1.791 4 4v32c0 2.209-1.791 4-4 4z" fill="#766e6e"/></g><g><path d="m395.282 287.481h-31.538c-4.142 0-7.5-3.357-7.5-7.5s3.358-7.5 7.5-7.5h24.038v-24.038c0-4.143 3.358-7.5 7.5-7.5s7.5 3.357 7.5 7.5v31.538c0 4.143-3.358 7.5-7.5 7.5z" fill="#766e6e"/></g><g><path d="m335.073 227.271h-30.675c-4.142 0-7.5-3.357-7.5-7.5s3.358-7.5 7.5-7.5h23.175v-52.709c0-4.143 3.358-7.5 7.5-7.5s7.5 3.357 7.5 7.5v60.209c0 4.143-3.358 7.5-7.5 7.5z" fill="#766e6e"/></g><g><path d="m282.748 227.271h-7.885c-4.142 0-7.5-3.357-7.5-7.5s3.358-7.5 7.5-7.5h7.885c4.142 0 7.5 3.357 7.5 7.5s-3.357 7.5-7.5 7.5z" fill="#766e6e"/></g><g><path d="m373.256 227.271h-9.512c-4.142 0-7.5-3.357-7.5-7.5s3.358-7.5 7.5-7.5h9.512c4.142 0 7.5 3.357 7.5 7.5s-3.358 7.5-7.5 7.5z" fill="#766e6e"/></g><g><path d="m395.282 227.271h-1.97c-4.142 0-7.5-3.357-7.5-7.5s3.358-7.5 7.5-7.5h1.97c4.142 0 7.5 3.357 7.5 7.5s-3.358 7.5-7.5 7.5z" fill="#766e6e"/></g><g><path d="m335.073 287.481c-4.142 0-7.5-3.357-7.5-7.5v-31.538c0-4.143 3.358-7.5 7.5-7.5h38.184c4.142 0 7.5 3.357 7.5 7.5s-3.358 7.5-7.5 7.5h-30.684v24.038c0 4.143-3.358 7.5-7.5 7.5z" fill="#766e6e"/></g></g></g></g></g><g><path d="m428.527 512h-186.908c-23.934 0-43.405-19.472-43.405-43.405v-393.707c0-23.934 19.472-43.405 43.405-43.405h186.908c23.934 0 43.405 19.472 43.405 43.405v393.707c0 23.933-19.472 43.405-43.405 43.405zm-186.908-465.518c-15.663 0-28.405 12.742-28.405 28.405v393.707c0 15.663 12.743 28.405 28.405 28.405h186.908c15.663 0 28.405-12.742 28.405-28.405v-393.706c0-15.663-12.743-28.405-28.405-28.405h-186.908z" fill="#54469c"/></g><g fill="#8379c1"><circle cx="403.25" cy="67.998" r="7.5"/><circle cx="428.98" cy="67.998" r="7.5"/></g></g></svg>