<svg xmlns="http://www.w3.org/2000/svg" version="1.1" xmlns:xlink="http://www.w3.org/1999/xlink" width="512" height="512" x="0" y="0" viewBox="0 0 512 512" style="enable-background:new 0 0 512 512" xml:space="preserve"><g transform="matrix(1.0300000000000002,0,0,1.0300000000000002,-7.680015420913605,-7.679984893798803)"><g fill-rule="evenodd"><path fill="#cd212d" d="m184.17 171.712-7.228 75.855-36.142 34.356L7.005 313.869l82.063-142.157z" opacity="1" data-original="#cd212d"></path><path fill="#ee2b39" d="m184.113 172.307-7.171 75.26-36.142 34.356-95.839 22.875 76.507-132.491zM226.236 367.359l44.844-56.806 65.367 18.822v89.716L194.29 501.154z" opacity="1" data-original="#ee2b39"></path><path fill="#cd212d" d="m226.236 367.359 44.844-56.806 65.367 18.822v26.022c-36.765 24.69-77.358 41.272-119.254 49.805l9.042-37.842z" opacity="1" data-original="#cd212d"></path><path fill="#cad1d8" d="M497.824 13.68c7.965 94.96-24.35 192.671-97.03 265.323-48.614 48.643-108.482 79.2-171.213 91.701L140.8 281.923c12.501-62.731 43.058-122.598 91.701-171.213C305.153 38.058 402.863 5.715 497.824 13.68z" opacity="1" data-original="#cad1d8"></path><path fill="#e2e5e7" d="M497.909 14.956c7.568 94.564-24.775 191.736-97.115 264.047-48.614 48.643-108.482 79.2-171.213 91.701l-68.967-68.967c12.501-62.731 43.058-122.599 91.701-171.213 67.55-67.578 156.813-112.535 245.594-115.568z" opacity="1" data-original="#e2e5e7"></path><path fill="#cd212d" d="M497.824 13.68c4.054 48.302-2.324 97.313-19.134 143.376-24.803-11.792-49.748-29.253-72.369-51.874-22.62-22.62-40.082-47.565-51.874-72.368 46.063-16.81 95.074-23.159 143.376-19.134z" opacity="1" data-original="#cd212d"></path><path fill="#ee2b39" d="M497.909 14.956c3.855 47.906-2.58 96.435-19.219 142.101-24.803-11.792-49.748-29.253-72.369-51.874-17.32-17.32-31.606-36-42.661-54.935 42.86-21.09 88.611-33.732 134.249-35.292z" opacity="1" data-original="#ee2b39"></path><path fill="#1b6fab" d="M344.894 166.609c23.074 23.046 23.074 60.463 0 83.537-23.046 23.074-60.463 23.074-83.537 0-23.046-23.074-23.046-60.491 0-83.537 23.074-23.074 60.491-23.074 83.537 0z" opacity="1" data-original="#1b6fab"></path><path fill="#3589c9" d="M352.35 175.652c15.279 22.96 12.813 54.255-7.455 74.494-20.239 20.239-51.505 22.706-74.466 7.427-15.279-22.961-12.813-54.227 7.427-74.466 20.268-20.24 51.534-22.734 74.495-7.455z" opacity="1" data-original="#3589c9"></path><path fill="#595a66" d="m140.8 281.923 88.781 88.781-67.521 47.168-68.429-68.428z" opacity="1" data-original="#595a66"></path><path fill="#676873" d="m160.614 301.737 68.967 68.967-67.521 47.168-48.614-48.614z" opacity="1" data-original="#676873"></path></g><path fill="#676873" d="M52.643 381.561a6.056 6.056 0 0 1 8.504 0 6.058 6.058 0 0 1 0 8.504l-28.261 28.233c-2.353 2.353-6.151 2.353-8.476 0-2.353-2.324-2.353-6.123 0-8.476zm68.797 68.797a6.056 6.056 0 0 1 8.504 0 6.058 6.058 0 0 1 0 8.504l-28.261 28.233c-2.353 2.353-6.151 2.353-8.476 0-2.353-2.324-2.353-6.123 0-8.476zm-34.384-34.384c2.353-2.353 6.151-2.353 8.476 0 2.353 2.324 2.353 6.151 0 8.476l-61.115 61.115c-2.353 2.353-6.151 2.353-8.476 0-2.353-2.324-2.353-6.123 0-8.476z" opacity="1" data-original="#676873"></path><path fill="#ffcb5b" fill-rule="evenodd" d="M141.424 50.247c17.235-3.033 34.611-16.526 39.402-39.402 4.819 22.875 22.195 36.368 39.43 39.402-17.235 3.033-34.611 16.526-39.43 39.401-4.791-22.875-22.167-36.368-39.402-39.401zM379.931 416.823c17.235-3.033 34.611-16.526 39.401-39.401 4.819 22.875 22.167 36.368 39.43 39.401-17.263 3.033-34.611 16.526-39.43 39.402-4.791-22.876-22.167-36.369-39.401-39.402z" opacity="1" data-original="#ffcb5b"></path><path fill="#ffcb5b" d="M68.346 101.271c0-3.316 2.665-6.009 5.981-6.009s6.01 2.693 6.01 6.009v11.168h11.168c3.317 0 6.01 2.693 6.01 5.981a6.013 6.013 0 0 1-6.01 6.01H80.337v11.168c0 3.317-2.693 6.01-6.01 6.01s-5.981-2.693-5.981-6.01V124.43H57.149c-3.288 0-5.981-2.693-5.981-6.01 0-3.288 2.693-5.981 5.981-5.981h11.197zM475.827 279.768c0-3.317 2.693-6.01 5.981-6.01a6.013 6.013 0 0 1 6.01 6.01v11.168h11.168a6.013 6.013 0 0 1 6.01 6.01c0 3.288-2.693 5.981-6.01 5.981h-11.168v11.168a6.013 6.013 0 0 1-6.01 6.01c-3.288 0-5.981-2.693-5.981-6.01v-11.168h-11.168c-3.317 0-6.01-2.693-6.01-5.981a6.013 6.013 0 0 1 6.01-6.01h11.168z" opacity="1" data-original="#ffcb5b"></path></g></svg>