<svg id="Layer_1" height="512" viewBox="0 0 96 96" width="512" xmlns="http://www.w3.org/2000/svg" data-name="Layer 1"><path d="m33 90h30a5 5 0 0 1 5 5 0 0 0 0 1 0 0h-40a0 0 0 0 1 0 0 5 5 0 0 1 5-5z" fill="#c6ccda"/><path d="m60 90h-24l1.44-5.28 1.56-7.72h18l.69 3 1.62 7z" fill="#8288a1"/><path d="m59.31 87h-12.31a5.7 5.7 0 0 1 -5.6-6.83v-.17h16.3z" fill="#969cb2"/><rect fill="#b8c0ce" height="76" rx="6" width="94" x="1" y="1"/><path d="m7 1h82a6 6 0 0 1 6 6v58a0 0 0 0 1 0 0h-94a0 0 0 0 1 0 0v-58a6 6 0 0 1 6-6z" fill="#5c5f7d"/><rect fill="#ccd1dc" height="54" rx="2" width="84" x="6" y="6"/><path d="m90 8v49h-79a2 2 0 0 1 -2-2v-49h79a2 2 0 0 1 2 2z" fill="#dee1e7"/><path d="m12 21h71a4 4 0 0 1 4 4v26a4 4 0 0 1 -4 4h-37a34 34 0 0 1 -34-34 0 0 0 0 1 0 0z" fill="#f3f4f5"/><rect fill="#85bd79" height="4" rx="2" width="10" x="53" y="47"/><rect fill="#cf4055" height="4" rx="2" width="10" x="69" y="47"/><path d="m11 23h30v32h-30z" fill="#89a3ce"/><path d="m14 23h27a0 0 0 0 1 0 0v29a0 0 0 0 1 0 0 27 27 0 0 1 -27-27v-2a0 0 0 0 1 0 0z" fill="#a5b9db"/><rect fill="#c3d2e7" height="3" rx="1.5" width="21" x="17" y="26"/><path d="m17 34h18v16h-18z" fill="#cba07a"/><path d="m19 34h16a0 0 0 0 1 0 0v14a0 0 0 0 1 0 0h-2a14 14 0 0 1 -14-14 0 0 0 0 1 0 0z" fill="#d9b18c"/><path d="m90 8v10h-84v-10a2 2 0 0 1 2-2h80a2 2 0 0 1 2 2z" fill="#90d1d7"/><path d="m90 8v7h-72a9 9 0 0 1 -9-9h79a2 2 0 0 1 2 2z" fill="#abd9e6"/><circle cx="14" cy="12" fill="#cf4055" r="2"/><circle cx="24" cy="12" fill="#f6b756" r="2"/><circle cx="34" cy="12" fill="#85bd79" r="2"/><path d="m3 65h89a0 0 0 0 1 0 0v5a4 4 0 0 1 -4 4h-81a4 4 0 0 1 -4-4v-5a0 0 0 0 1 0 0z" fill="#ccd1dc"/><rect fill="#dee1e7" height="4" rx="2" width="76" x="14" y="68"/><path d="m88 5h-80a3 3 0 0 0 -3 3v50a3 3 0 0 0 3 3h80a3 3 0 0 0 3-3v-50a3 3 0 0 0 -3-3zm1 53a1 1 0 0 1 -1 1h-80a1 1 0 0 1 -1-1v-50a1 1 0 0 1 1-1h80a1 1 0 0 1 1 1z" fill="#39426a"/><path d="m48 68a3 3 0 1 0 3 3 3 3 0 0 0 -3-3zm0 4a1 1 0 1 1 1-1 1 1 0 0 1 -1 1z" fill="#39426a"/><circle cx="8" cy="70" fill="#dee1e7" r="2"/><g fill="#39426a"><path d="m89 0h-82a7 7 0 0 0 -7 7v64a7 7 0 0 0 7 7h30.78l-1.31 6.46-1.23 4.54h-2.24a6 6 0 0 0 -6 6 1 1 0 0 0 1 1h40a1 1 0 0 0 1-1 6 6 0 0 0 -6-6h-2.2l-2.54-11h30.74a7 7 0 0 0 7-7v-64a7 7 0 0 0 -7-7zm-22.13 94h-37.74a4 4 0 0 1 3.87-3h30a4 4 0 0 1 3.87 3zm-8.13-5h-21.43l1.11-4.08 1.4-6.92h16.38zm30.26-13h-82a5 5 0 0 1 -5-5v-5h92v5a5 5 0 0 1 -5 5zm5-12h-92v-57a5 5 0 0 1 5-5h82a5 5 0 0 1 5 5z"/><path d="m88 5h-80a3 3 0 0 0 -3 3v50a3 3 0 0 0 3 3h80a3 3 0 0 0 3-3v-50a3 3 0 0 0 -3-3zm-81 3a1 1 0 0 1 1-1h80a1 1 0 0 1 1 1v9h-82zm81 51h-80a1 1 0 0 1 -1-1v-39h82v39a1 1 0 0 1 -1 1z"/><path d="m48 68a3 3 0 1 0 3 3 3 3 0 0 0 -3-3zm0 4a1 1 0 1 1 1-1 1 1 0 0 1 -1 1z"/><path d="m14 9a3 3 0 1 0 3 3 3 3 0 0 0 -3-3zm0 4a1 1 0 1 1 1-1 1 1 0 0 1 -1 1z"/><path d="m24 9a3 3 0 1 0 3 3 3 3 0 0 0 -3-3zm0 4a1 1 0 1 1 1-1 1 1 0 0 1 -1 1z"/><path d="m34 9a3 3 0 1 0 3 3 3 3 0 0 0 -3-3zm0 4a1 1 0 1 1 1-1 1 1 0 0 1 -1 1z"/><path d="m41 22h-30a1 1 0 0 0 -1 1v32a1 1 0 0 0 1 1h30a1 1 0 0 0 1-1v-32a1 1 0 0 0 -1-1zm-1 32h-28v-30h28z"/></g><path d="m63 23h-16a1 1 0 0 0 0 2h16a1 1 0 0 0 0-2z" fill="#878c9f"/><path d="m63 28h-16a1 1 0 0 0 0 2h16a1 1 0 0 0 0-2z" fill="#878c9f"/><path d="m63 33h-16a1 1 0 0 0 0 2h16a1 1 0 0 0 0-2z" fill="#878c9f"/><path d="m58 39a1 1 0 0 0 -1-1h-10a1 1 0 0 0 0 2h10a1 1 0 0 0 1-1z" fill="#878c9f"/><path d="m85 23h-16a1 1 0 0 0 0 2h16a1 1 0 0 0 0-2z" fill="#878c9f"/><path d="m85 28h-16a1 1 0 0 0 0 2h16a1 1 0 0 0 0-2z" fill="#878c9f"/><path d="m78 35a1 1 0 0 0 0-2h-9a1 1 0 0 0 0 2z" fill="#878c9f"/><path d="m61 46h-6a3 3 0 0 0 0 6h6a3 3 0 0 0 0-6zm0 4h-6a1 1 0 0 1 0-2h6a1 1 0 0 1 0 2z" fill="#39426a"/><path d="m77 46h-6a3 3 0 0 0 0 6h6a3 3 0 0 0 0-6zm0 4h-6a1 1 0 0 1 0-2h6a1 1 0 0 1 0 2z" fill="#39426a"/><path d="m17 51h18a1 1 0 0 0 1-1v-16a1 1 0 0 0 -1-1h-4v-1a5 5 0 0 0 -10 0v1h-4a1 1 0 0 0 -1 1v16a1 1 0 0 0 1 1zm6-19a3 3 0 0 1 6 0v1h-6zm-5 3h3v2a1 1 0 0 0 2 0v-2h6v2a1 1 0 0 0 2 0v-2h3v14h-16z" fill="#39426a"/><rect fill="#c3e1f5" height="4" rx="2" width="37" x="50" y="9"/><circle cx="45" cy="11" fill="#c3e1f5" r="2"/><rect fill="#e5c2a1" height="7" rx="1" width="2" x="30" y="39"/></svg>