<svg xmlns="http://www.w3.org/2000/svg" version="1.1" xmlns:xlink="http://www.w3.org/1999/xlink" width="512" height="512" x="0" y="0" viewBox="0 0 64 64" style="enable-background:new 0 0 512 512" xml:space="preserve"><g><path d="M59.923 35.052 51 31.333v-2.67A9.948 9.948 0 0 0 55.8 22h.2a3 3 0 0 0 .082-6l.98-2.272a8.078 8.078 0 0 0-4.07-10.551L50.2 1.907a10.248 10.248 0 0 0-10.232 1.112l-1.556 1.174a6.259 6.259 0 0 0-3.8 2.831 6.2 6.2 0 0 0-.552 5.216 10.372 10.372 0 0 0-4.561.111 8.047 8.047 0 0 0-4.507-9.173L22.2 1.907a10.248 10.248 0 0 0-10.232 1.112l-1.556 1.174a6.23 6.23 0 0 0-4.03 8.822L7.876 16A3 3 0 0 0 8 22h.2a9.962 9.962 0 0 0 4.8 6.661v2.672l-8.923 3.719A4.987 4.987 0 0 0 1 39.667V53a1 1 0 0 0 1 1h7v8a1 1 0 0 0 1 1h44a1 1 0 0 0 1-1v-8h7a1 1 0 0 0 1-1V39.667a4.987 4.987 0 0 0-3.077-4.615Zm-24.55-20.325L38.164 16a6.078 6.078 0 0 1 3.061 7.939l-.3.685-1.025-2.071a1 1 0 0 0-1.5-.353l-1.6 1.2a8 8 0 0 1-9.6 0l-1.6-1.2a.989.989 0 0 0-.829-.173 1 1 0 0 0-.666.526L23 24.771l-.826-1.651a4.229 4.229 0 0 1 3.78-6.12 4.671 4.671 0 0 1 3.893 2.083l.314.472 1.664-1.11-.314-.471a6.661 6.661 0 0 0-3.771-2.724 8.213 8.213 0 0 1 7.633-.523ZM42 29h1a1 1 0 0 1 0 2h-1ZM29 40.539a9.992 9.992 0 0 0 6 0v2.047l-3 3-3-3ZM32 39a8.009 8.009 0 0 1-8-8v-3.764l1.358-2.717L26 25a10 10 0 0 0 12 0l.642-.481L40 27.236V31a8.009 8.009 0 0 1-8 8Zm-10-8h-1a1 1 0 0 1 0-2h1ZM9 51.04V52H3V39.667A2.994 2.994 0 0 1 4.846 36.9l9.539-3.974A1 1 0 0 0 15 32v-3.936a1.046 1.046 0 0 0-.579-.907 7.968 7.968 0 0 1-4.372-6.267 1 1 0 0 0-.994-.89H8a1 1 0 0 1 0-2h1a1 1 0 0 0 1-1.007l-.007-1a1 1 0 0 0-.105-.44L8.171 12.12a4.228 4.228 0 0 1 2.888-6.02 1.025 1.025 0 0 0 .391-.179l1.72-1.3a8.218 8.218 0 0 1 8.2-.89L24.164 5a6.078 6.078 0 0 1 3.061 7.939l-.162.375a9.687 9.687 0 0 0-1.093.705L24.393 15.2a6.221 6.221 0 0 0-4.014 8.812L21.875 27H21a3 3 0 0 0 0 6h1.2a10.024 10.024 0 0 0 4.8 6.647v2.593l-14.338 3.983A5.014 5.014 0 0 0 9 51.04ZM53 61h-6v-8h-2v8H19v-8h-2v8h-6v-9.96a3.007 3.007 0 0 1 2.2-2.89l14.509-4.03 3.587 3.587a1 1 0 0 0 1.414 0l3.587-3.587L50.8 48.15a3.007 3.007 0 0 1 2.2 2.89Zm8-9h-6v-.96a5.014 5.014 0 0 0-3.662-4.817L37 42.24v-2.593A10.024 10.024 0 0 0 41.8 33H43a3 3 0 0 0 0-6h-.918l.98-2.271a8.078 8.078 0 0 0-4.07-10.551l-2.32-1.057-.5-1A4.228 4.228 0 0 1 39.059 6.1a1.025 1.025 0 0 0 .391-.179l1.72-1.3a8.218 8.218 0 0 1 8.2-.89L52.164 5a6.078 6.078 0 0 1 3.061 7.939l-1.15 2.661a1 1 0 0 0-.082.4L54 17a1 1 0 0 0 1 1h1a1 1 0 0 1 0 2h-1.055a1 1 0 0 0-.994.89 7.964 7.964 0 0 1-4.4 6.279 1 1 0 0 0-.555.895V32a1 1 0 0 0 .615.923l9.543 3.977A2.994 2.994 0 0 1 61 39.667Z" fill="white" opacity="1" data-original="#000000"></path></g></svg>