<svg id="OBJECT" viewBox="0 0 512 512" xmlns="http://www.w3.org/2000/svg"><path d="m484.5 147h-49.5v-124.5c0-12.41-10.09-22.5-22.5-22.5h-390c-12.41 0-22.5 10.09-22.5 22.5v390c0 12.41 10.09 22.5 22.5 22.5h287.5v49.5c0 15.16 12.34 27.5 27.5 27.5h147c15.16 0 27.5-12.34 27.5-27.5v-310c0-15.16-12.34-27.5-27.5-27.5zm12.5 27.5v22.5h-172v-22.5c0-6.89 5.61-12.5 12.5-12.5h147c6.89 0 12.5 5.61 12.5 12.5zm-474.5-159.5h390c4.14 0 7.5 3.36 7.5 7.5v37.5h-405v-37.5c0-4.14 3.36-7.5 7.5-7.5zm0 405c-4.14 0-7.5-3.36-7.5-7.5v-337.5h405v72h-82.5c-15.16 0-27.5 12.34-27.5 27.5v245.5zm462 77h-147c-6.89 0-12.5-5.61-12.5-12.5v-272.5h172v272.5c0 6.89-5.61 12.5-12.5 12.5z"/><path d="m464.5 227h-107c-9.65 0-17.5 7.85-17.5 17.5v65.6c0 9.65 7.85 17.5 17.5 17.5h107c9.65 0 17.5-7.85 17.5-17.5v-65.6c0-9.65-7.85-17.5-17.5-17.5zm2.5 83.1c0 1.38-1.12 2.5-2.5 2.5h-107c-1.38 0-2.5-1.12-2.5-2.5v-65.6c0-1.38 1.12-2.5 2.5-2.5h107c1.38 0 2.5 1.12 2.5 2.5z"/><path d="m474.5 467h-127c-4.14 0-7.5 3.36-7.5 7.5s3.36 7.5 7.5 7.5h127c4.14 0 7.5-3.36 7.5-7.5s-3.36-7.5-7.5-7.5z"/><path d="m474.5 437h-87c-4.14 0-7.5 3.36-7.5 7.5s3.36 7.5 7.5 7.5h87c4.14 0 7.5-3.36 7.5-7.5s-3.36-7.5-7.5-7.5z"/><path d="m347.5 452h10c4.14 0 7.5-3.36 7.5-7.5s-3.36-7.5-7.5-7.5h-10c-4.14 0-7.5 3.36-7.5 7.5s3.36 7.5 7.5 7.5z"/><path d="m464.5 342.6h-107c-9.65 0-17.5 7.85-17.5 17.5v40c0 9.65 7.85 17.5 17.5 17.5h107c9.65 0 17.5-7.85 17.5-17.5v-40c0-9.65-7.85-17.5-17.5-17.5zm2.5 57.5c0 1.38-1.12 2.5-2.5 2.5h-107c-1.38 0-2.5-1.12-2.5-2.5v-40c0-1.38 1.12-2.5 2.5-2.5h107c1.38 0 2.5 1.12 2.5 2.5z"/><path d="m347.5 187h5c4.14 0 7.5-3.36 7.5-7.5s-3.36-7.5-7.5-7.5h-5c-4.14 0-7.5 3.36-7.5 7.5s3.36 7.5 7.5 7.5z"/><path d="m377.5 187h5c4.14 0 7.5-3.36 7.5-7.5s-3.36-7.5-7.5-7.5h-5c-4.14 0-7.5 3.36-7.5 7.5s3.36 7.5 7.5 7.5z"/><path d="m407.5 187h5c4.14 0 7.5-3.36 7.5-7.5s-3.36-7.5-7.5-7.5h-5c-4.14 0-7.5 3.36-7.5 7.5s3.36 7.5 7.5 7.5z"/><path d="m37.5 45h5c4.14 0 7.5-3.36 7.5-7.5s-3.36-7.5-7.5-7.5h-5c-4.14 0-7.5 3.36-7.5 7.5s3.36 7.5 7.5 7.5z"/><path d="m67.5 45h5c4.14 0 7.5-3.36 7.5-7.5s-3.36-7.5-7.5-7.5h-5c-4.14 0-7.5 3.36-7.5 7.5s3.36 7.5 7.5 7.5z"/><path d="m97.5 45h5c4.14 0 7.5-3.36 7.5-7.5s-3.36-7.5-7.5-7.5h-5c-4.14 0-7.5 3.36-7.5 7.5s3.36 7.5 7.5 7.5z"/><path d="m433.29 258.6c-1.37-2.13-3.72-3.43-6.25-3.46h-.07c-2.51 0-4.85 1.26-6.25 3.35l-12.72 19.13-10.35-10.06c-1.52-1.48-3.59-2.25-5.73-2.1-2.12.14-4.08 1.18-5.4 2.85l-21.43 27.24c-2.56 3.26-2 7.97 1.26 10.53 1.38 1.08 3.01 1.61 4.63 1.61 2.22 0 4.42-.98 5.9-2.86l16.29-20.7 6.38 6.2-.84 1.26c-2.29 3.45-1.36 8.1 2.09 10.4s8.11 1.36 10.4-2.09l15.64-23.52 17.83 27.86c1.43 2.24 3.85 3.46 6.32 3.46 1.38 0 2.78-.38 4.04-1.18 3.49-2.23 4.51-6.87 2.27-10.36l-24.03-37.54z"/><path d="m379.22 261.92h8.22c4.14 0 7.5-3.36 7.5-7.5s-3.36-7.5-7.5-7.5h-8.22c-4.14 0-7.5 3.36-7.5 7.5s3.36 7.5 7.5 7.5z"/><path d="m222.5 177h60c4.14 0 7.5-3.36 7.5-7.5s-3.36-7.5-7.5-7.5h-60c-4.14 0-7.5 3.36-7.5 7.5s3.36 7.5 7.5 7.5z"/><path d="m222.5 207h60c4.14 0 7.5-3.36 7.5-7.5s-3.36-7.5-7.5-7.5h-60c-4.14 0-7.5 3.36-7.5 7.5s3.36 7.5 7.5 7.5z"/><path d="m277.5 95h-50c-9.65 0-17.5 7.85-17.5 17.5v20c0 9.65 7.85 17.5 17.5 17.5h50c9.65 0 17.5-7.85 17.5-17.5v-20c0-9.65-7.85-17.5-17.5-17.5zm2.5 37.5c0 1.38-1.12 2.5-2.5 2.5h-50c-1.38 0-2.5-1.12-2.5-2.5v-20c0-1.38 1.12-2.5 2.5-2.5h50c1.38 0 2.5 1.12 2.5 2.5z"/><path d="m287.5 325h-210c-4.14 0-7.5 3.36-7.5 7.5s3.36 7.5 7.5 7.5h210c4.14 0 7.5-3.36 7.5-7.5s-3.36-7.5-7.5-7.5z"/><path d="m37.5 340h10c4.14 0 7.5-3.36 7.5-7.5s-3.36-7.5-7.5-7.5h-10c-4.14 0-7.5 3.36-7.5 7.5s3.36 7.5 7.5 7.5z"/><path d="m287.5 355h-250c-4.14 0-7.5 3.36-7.5 7.5s3.36 7.5 7.5 7.5h250c4.14 0 7.5-3.36 7.5-7.5s-3.36-7.5-7.5-7.5z"/><path d="m247.5 385h-210c-4.14 0-7.5 3.36-7.5 7.5s3.36 7.5 7.5 7.5h210c4.14 0 7.5-3.36 7.5-7.5s-3.36-7.5-7.5-7.5z"/><path d="m287.5 385h-10c-4.14 0-7.5 3.36-7.5 7.5s3.36 7.5 7.5 7.5h10c4.14 0 7.5-3.36 7.5-7.5s-3.36-7.5-7.5-7.5z"/><path d="m47.5 217h130c9.65 0 17.5-7.85 17.5-17.5v-87c0-9.65-7.85-17.5-17.5-17.5h-130c-9.65 0-17.5 7.85-17.5 17.5v87c0 9.65 7.85 17.5 17.5 17.5zm-2.5-104.5c0-1.38 1.12-2.5 2.5-2.5h130c1.38 0 2.5 1.12 2.5 2.5v87c0 1.38-1.12 2.5-2.5 2.5h-130c-1.38 0-2.5-1.12-2.5-2.5z"/><path d="m59.22 189.72c1.37 1.08 3.01 1.61 4.63 1.61 2.22 0 4.42-.98 5.9-2.86l20.92-26.59 10.02 9.73-1.77 2.66c-2.29 3.45-1.36 8.1 2.09 10.4s8.1 1.36 10.4-2.09l20.39-30.67 23.02 35.97c1.43 2.24 3.85 3.46 6.32 3.46 1.38 0 2.78-.38 4.04-1.18 3.49-2.23 4.51-6.87 2.27-10.36l-29.22-45.65c-1.37-2.13-3.72-3.43-6.25-3.46h-.07c-2.51 0-4.85 1.26-6.25 3.35l-16.54 24.88-13.98-13.59c-1.52-1.48-3.61-2.24-5.73-2.1s-4.08 1.18-5.4 2.85l-26.06 33.13c-2.56 3.26-2 7.97 1.26 10.53z"/><path d="m73.86 135.67h10c4.14 0 7.5-3.36 7.5-7.5s-3.36-7.5-7.5-7.5h-10c-4.14 0-7.5 3.36-7.5 7.5s3.36 7.5 7.5 7.5z"/><path d="m47.5 307h40c9.65 0 17.5-7.85 17.5-17.5v-40c0-9.65-7.85-17.5-17.5-17.5h-40c-9.65 0-17.5 7.85-17.5 17.5v40c0 9.65 7.85 17.5 17.5 17.5zm-2.5-57.5c0-1.38 1.12-2.5 2.5-2.5h40c1.38 0 2.5 1.12 2.5 2.5v40c0 1.38-1.12 2.5-2.5 2.5h-40c-1.38 0-2.5-1.12-2.5-2.5z"/><path d="m182.5 232h-40c-9.65 0-17.5 7.85-17.5 17.5v40c0 9.65 7.85 17.5 17.5 17.5h40c9.65 0 17.5-7.85 17.5-17.5v-40c0-9.65-7.85-17.5-17.5-17.5zm2.5 57.5c0 1.38-1.12 2.5-2.5 2.5h-40c-1.38 0-2.5-1.12-2.5-2.5v-40c0-1.38 1.12-2.5 2.5-2.5h40c1.38 0 2.5 1.12 2.5 2.5z"/><path d="m277.5 232h-40c-9.65 0-17.5 7.85-17.5 17.5v40c0 9.65 7.85 17.5 17.5 17.5h40c9.65 0 17.5-7.85 17.5-17.5v-40c0-9.65-7.85-17.5-17.5-17.5zm2.5 57.5c0 1.38-1.12 2.5-2.5 2.5h-40c-1.38 0-2.5-1.12-2.5-2.5v-40c0-1.38 1.12-2.5 2.5-2.5h40c1.38 0 2.5 1.12 2.5 2.5z"/></svg>