<svg xmlns="http://www.w3.org/2000/svg" version="1.1" xmlns:xlink="http://www.w3.org/1999/xlink" width="512" height="512" x="0" y="0" viewBox="0 0 64 64" style="enable-background:new 0 0 512 512" xml:space="preserve" class=""><circle r="32" cx="32" cy="32" fill="#ffffff" shape="circle"></circle><g transform="matrix(0.6800000000000002,0,0,0.6800000000000002,10.245279892608519,10.235039215087891)"><path fill="#30363d" d="M.404 25.652h63.57v34.715H.404z" opacity="1" data-original="#30363d" class=""></path><path fill="#484f59" d="M.404 24.895h63.57V59.61H.404z" opacity="1" data-original="#484f59" class=""></path><path fill="#30363d" d="M.404 24.895h63.57v.977H.404zM.404 17.045h63.57v7.845H.404z" opacity="1" data-original="#30363d" class=""></path><g fill="#f7f8fc"><path d="M9.698 17.045H.696l10.687 7.845h9.001zM27.97 17.045h-9.003l10.688 7.845h9.002zM46.244 17.045H37.24l10.689 7.845h9.003zM63.975 23.255v-6.21h-8.463z" fill="#f7f8fc" opacity="1" data-original="#f7f8fc"></path></g><path fill="#30363d" d="m.002 8.879 63.379-5.277.65 7.82L.654 16.7z" opacity="1" data-original="#30363d" class=""></path><g fill="#f7f8fc"><path d="m9.908 15.928-8.971.742 10.004-8.699 8.97-.742zM28.118 14.42l-8.972.742 10.005-8.698 8.971-.742zM46.329 12.913l-8.973.743 10.005-8.699 8.973-.743zM63.487 5.263 64 11.451l-8.434.698z" fill="#f7f8fc" opacity="1" data-original="#f7f8fc"></path></g><path fill="#484f59" d="M9.614 21.641h-7.85V10.695h4.269l3.581 2.374z" opacity="1" data-original="#484f59" class=""></path><g fill="#30363d"><circle cx="3.131" cy="20.209" r=".569" fill="#30363d" opacity="1" data-original="#30363d" class=""></circle><circle cx="3.131" cy="12.185" r=".569" fill="#30363d" opacity="1" data-original="#30363d" class=""></circle><circle cx="8.059" cy="20.209" r=".569" fill="#30363d" opacity="1" data-original="#30363d" class=""></circle></g><g fill="#e5e8ec"><path d="M4.326 34.298h55.348v.758H4.326zM4.326 29.915H37.91v1.754H4.326z" fill="#e5e8ec" opacity="1" data-original="#e5e8ec" class=""></path><path d="M31.619 34.727h.758v3.945h-.758zM13.458 51.028h.758v3.944h-.758zM18.958 38.974h.758v12.588h-.758zM43.03 38.974h.759v12.588h-.759z" fill="#e5e8ec" opacity="1" data-original="#e5e8ec" class=""></path><path d="M4.326 38.342h55.348v.758H4.326zM4.326 36.289h9.322v.569H4.326zM6.98 41.408h9.322v.567H6.98zM26.503 41.408h9.322v.567h-9.322zM47.922 41.408h9.322v.567h-9.322zM4.326 52.97h3.636v.569H4.326zM4.326 50.979h55.348v.758H4.326z" fill="#e5e8ec" opacity="1" data-original="#e5e8ec" class=""></path></g></g></svg>