<svg xmlns="http://www.w3.org/2000/svg" version="1.1" xmlns:xlink="http://www.w3.org/1999/xlink" width="512" height="512" x="0" y="0" viewBox="0 0 512 512" style="enable-background:new 0 0 512 512" xml:space="preserve" class=""><circle r="256" cx="256" cy="256" fill="#ffffff" shape="circle"></circle><g transform="matrix(0.8500000000000002,0,0,0.8500000000000002,33.3999985694885,38.40000228881834)"><g fill-rule="evenodd" clip-rule="evenodd"><path fill="#b3b3b3" d="M395.858 233.764c20.632 0 37.46-2.946 37.46-6.559 0-3.611-16.828-6.556-37.46-6.556s-37.461 2.946-37.461 6.556c0 3.613 16.829 6.559 37.461 6.559z" opacity="1" data-original="#b3b3b3" class=""></path><path fill="#ededed" d="M358.394 311.361v-84.112c26.316 5.862 49.141 6.887 74.926-.005v82.355c-28.993-10.365-46.359-10.234-74.926 1.762z" opacity="1" data-original="#ededed" class=""></path><path fill="#fe868e" d="M259.78 289.693a92.013 92.013 0 0 0-21.82 27.872 91.026 91.026 0 0 0-8.522 25.62l-1.629 9.377-7.768-5.5a90.982 90.982 0 0 0-21.14-11.123 91.82 91.82 0 0 0-28.785-5.591l-8.258-1.416c-16.645-45.079-32.694-49.255-77.231-51.995l128.381-24.002.515.001c13.726.037 28.055 1.986 40.385 8.348 12.205 6.298 20.817 16.126 26.341 28.663l.511 1.159v21.779l-10.622-12.677c-3.165-3.777-6.647-7.28-10.358-10.515z" opacity="1" data-original="#fe868e" class=""></path><path fill="#f7f7f8" d="M279.288 313.257V140.624c27.488 7.849 53.549 8.1 80.575 0v170.648c-8.669 6.757-9.236 8.271-9.418 18.893-11.124.825-20.14 1.962-30.812 5.953-10.947 4.096-18.576 9.48-27.909 15.997-2.628-14.766-5.068-25.571-12.436-38.858z" opacity="1" data-original="#f7f7f8"></path><path fill="#4fc9af" d="M259.247 429.918c22.574-25.171 33.815-42.804 31.966-78.77 18.782-15.085 35.465-21.278 59.6-22.397 4.864 7.352 8.892 9.559 15.698 14.721-10.385 3.933-30.965 10.314-30.965 23.325 0 7.799 8.552 13.245 14.071 17.79-12.951 6.284-27.116 11.243-27.998 28.119-21.807 14.719-36.354 17.469-62.372 17.212z" opacity="1" data-original="#4fc9af"></path><path fill="#a7e9a6" d="M226.788 352.267c2.925-28.36 12.684-45.521 32.993-64.77 44.285 41.969 45.188 101.028-.306 142.422-2.218-33.356-5.974-53.229-32.687-77.652z" opacity="1" data-original="#a7e9a6"></path><path fill="#ffcf61" d="M395.859 158.319c12.781 26.238 21.386 41.9 0 67.038-21.389-25.137-12.785-40.801 0-67.038z" opacity="1" data-original="#ffcf61"></path><path fill="#fe868e" d="M168.817 375.83a91.037 91.037 0 0 0 8.928 15.171l5.725 7.87-78.858 9.825c27.443-5.431 42.748-17.002 58.169-48.299z" opacity="1" data-original="#fe868e" class=""></path><path fill="#fe667c" d="M64.141 342.574c0-18.58 15.066-33.646 33.646-33.646 18.578 0 33.645 15.068 33.645 33.646 0 39.707-44.052 64.361-77.262 43.667-16.768-10.452-22.823-24.631-22.823-43.669 0-37.033 30.023-67.056 67.055-67.056 29.744 0 55.966 19.603 64.347 48.109l1.203 4.092-4.269.305c-.92.066-1.6.845-1.669 1.743-.919 12.059 1.474 21.707 4.842 33.299-18.369 50.02-71.966 59.268-110.601 26.306 37.896 20.548 82.863-3.093 82.863-46.796 0-20.618-16.712-37.332-37.33-37.332s-37.331 16.713-37.331 37.332c0 29.06 44.168 29.026 44.168 0a1.842 1.842 0 1 0-3.685 0c0 24.231-36.799 24.134-36.799 0z" opacity="1" data-original="#fe667c" class=""></path><path fill="#7fdbae" d="M157.574 327.58c56.914-1.52 109.679 41.959 101.886 102.336-61.726 3.332-103.508-41.619-101.886-102.336z" opacity="1" data-original="#7fdbae"></path><ellipse cx="319.575" cy="140.222" fill="#ededed" rx="40.288" ry="7.052" opacity="1" data-original="#ededed" class=""></ellipse><path fill="#ffc941" d="M319.574 66.8c13.936 28.064 22.988 45.333 0 71.61-22.982-26.28-13.932-43.544 0-71.61z" opacity="1" data-original="#ffc941"></path><path fill="#686868" d="M447.4 382.243c12.178 4.095 33.253 12.683 33.253 28.225 0 12.372-13.791 20.47-23.703 24.709-31.254 13.364-81.709 13.364-112.964 0-9.911-4.238-23.7-12.336-23.7-24.709 0-14.383 18.22-22.706 29.533-26.999 28.493 13.093 69.505 13.175 97.581-1.226z" opacity="1" data-original="#686868"></path><path fill="#999999" d="M431.513 307.695c6.674 3.267 14.364 8.939 14.364 17.18 0 8.242-7.691 13.915-14.364 17.181-18.798 9.201-49.283 9.201-68.081 0-6.673-3.266-14.363-8.94-14.363-17.181s7.69-13.913 14.363-17.18c18.797-9.2 49.283-9.2 68.081 0z" opacity="1" data-original="#999999"></path></g></g></svg>